M48
; DRILL file {KiCad 6.0.9-8da3e8f707~117~ubuntu20.04.1} date Wed 15 Mar 2023 10:17:38 AM EDT
; FORMAT={-:-/ absolute / inch / decimal}
; #@! TF.CreationDate,2023-03-15T10:17:38-04:00
; #@! TF.GenerationSoftware,Kicad,Pcbnew,6.0.9-8da3e8f707~117~ubuntu20.04.1
; #@! TF.FileFunction,Plated,1,2,PTH
FMAT,2
INCH
; #@! TA.AperFunction,Plated,PTH,ViaDrill
T1C0.0157
; #@! TA.AperFunction,Plated,PTH,ComponentDrill
T2C0.0315
; #@! TA.AperFunction,Plated,PTH,ComponentDrill
T3C0.0394
; #@! TA.AperFunction,Plated,PTH,ComponentDrill
T4C0.0433
%
G90
G05
T1
X1.7803Y-5.8886
X1.8926Y-5.4734
X1.9215Y-6.18
X1.9551Y-6.3902
X2.0032Y-6.0043
X2.0464Y-4.8588
X2.0977Y-4.6762
X2.1907Y-4.6082
X2.1959Y-6.3239
X2.2355Y-6.3304
X2.3336Y-6.3701
X2.3495Y-4.3752
X2.4119Y-4.364
X2.4379Y-5.8536
X2.6297Y-6.1188
X2.6297Y-6.3817
X2.7611Y-6.2925
X2.8141Y-6.376
X2.8362Y-6.0895
X2.87Y-3.7715
X2.8851Y-6.37
X2.8919Y-3.4842
X3.0213Y-6.366
X3.0637Y-6.0526
X3.085Y-6.3679
X3.2967Y-5.8936
X3.3383Y-5.6767
X3.4096Y-6.2931
X3.6896Y-5.3035
T2
X0.845Y-5.42
X0.845Y-5.7153
X0.85Y-5.905
X0.85Y-6.2003
X0.865Y-4.5
X0.865Y-4.7953
X0.87Y-3.435
X0.87Y-3.735
X0.87Y-3.985
X0.87Y-4.2803
X0.97Y-3.435
X0.97Y-3.735
X1.0348Y-5.9046
X1.0348Y-6.2046
X1.035Y-5.4196
X1.035Y-5.7196
X1.0546Y-4.4996
X1.0546Y-4.7996
X1.0552Y-3.9846
X1.0552Y-4.2846
X1.065Y-4.94
X1.065Y-5.24
X1.07Y-3.435
X1.07Y-3.735
X1.1348Y-5.9046
X1.1348Y-6.2046
X1.135Y-5.4196
X1.135Y-5.7196
X1.1546Y-4.4996
X1.1546Y-4.7996
X1.1552Y-3.9846
X1.1552Y-4.2846
X1.17Y-3.435
X1.17Y-3.735
X1.2348Y-5.9046
X1.2348Y-6.2046
X1.235Y-5.4196
X1.235Y-5.7196
X1.2546Y-4.4996
X1.2546Y-4.7996
X1.2552Y-3.9846
X1.2552Y-4.2846
X1.27Y-3.435
X1.27Y-3.735
X1.27Y-4.94
X1.27Y-5.24
X1.3348Y-5.9046
X1.3348Y-6.2046
X1.335Y-5.4196
X1.335Y-5.7196
X1.3546Y-4.4996
X1.3546Y-4.7996
X1.3552Y-3.9846
X1.3552Y-4.2846
X1.37Y-3.435
X1.37Y-3.735
X1.4348Y-5.9046
X1.4348Y-6.2046
X1.435Y-5.4196
X1.435Y-5.7196
X1.4546Y-4.4996
X1.4546Y-4.7996
X1.4552Y-3.9846
X1.4552Y-4.2846
X1.47Y-3.435
X1.47Y-3.735
X1.485Y-4.94
X1.485Y-5.2353
X1.5348Y-5.9046
X1.5348Y-6.2046
X1.535Y-5.4196
X1.535Y-5.7196
X1.5546Y-4.4996
X1.5546Y-4.7996
X1.5552Y-3.9846
X1.5552Y-4.2846
X1.6348Y-5.9046
X1.6348Y-6.2046
X1.635Y-5.4196
X1.635Y-5.7196
X1.6546Y-4.4996
X1.6546Y-4.7996
X1.6552Y-3.9846
X1.6552Y-4.2846
X1.735Y-3.3974
X1.735Y-3.6926
X1.7546Y-4.4996
X1.7546Y-4.7996
X1.7552Y-3.9846
X1.7552Y-4.2846
X1.8552Y-3.9846
X1.8552Y-4.2846
X1.915Y-3.255
X1.915Y-3.855
X1.9552Y-3.9846
X1.9552Y-4.2846
X2.015Y-3.255
X2.015Y-3.855
X2.09Y-5.43
X2.09Y-5.7253
X2.1Y-5.91
X2.1Y-6.2053
X2.115Y-3.255
X2.115Y-3.855
X2.115Y-4.455
X2.115Y-4.7503
X2.215Y-3.255
X2.215Y-3.855
X2.2748Y-5.4296
X2.2748Y-5.7296
X2.275Y-4.01
X2.275Y-4.31
X2.2848Y-5.9096
X2.2848Y-6.2096
X2.3002Y-4.4546
X2.3002Y-4.7546
X2.315Y-3.255
X2.315Y-3.855
X2.3748Y-5.4296
X2.3748Y-5.7296
X2.3848Y-5.9096
X2.3848Y-6.2096
X2.4002Y-4.4546
X2.4002Y-4.7546
X2.415Y-3.255
X2.415Y-3.855
X2.4748Y-5.4296
X2.4748Y-5.7296
X2.48Y-4.01
X2.48Y-4.31
X2.4848Y-5.9096
X2.4848Y-6.2096
X2.5002Y-4.4546
X2.5002Y-4.7546
X2.515Y-3.255
X2.515Y-3.855
X2.5748Y-5.4296
X2.5748Y-5.7296
X2.5848Y-5.9096
X2.5848Y-6.2096
X2.6002Y-4.4546
X2.6002Y-4.7546
X2.615Y-3.255
X2.615Y-3.855
X2.6748Y-5.4296
X2.6748Y-5.7296
X2.6848Y-5.9096
X2.6848Y-6.2096
X2.7002Y-4.4546
X2.7002Y-4.7546
X2.715Y-3.255
X2.715Y-3.855
X2.7748Y-5.4296
X2.7748Y-5.7296
X2.7848Y-5.9096
X2.7848Y-6.2096
X2.8002Y-4.4546
X2.8002Y-4.7546
X2.815Y-3.255
X2.815Y-3.855
X2.8748Y-5.4296
X2.8748Y-5.7296
X2.875Y-3.9974
X2.875Y-4.2926
X2.8848Y-5.9096
X2.8848Y-6.2096
X2.9002Y-4.4546
X2.9002Y-4.7546
X2.915Y-3.255
X2.915Y-3.855
X3.0002Y-4.4546
X3.0002Y-4.7546
X3.015Y-3.255
X3.015Y-3.855
X3.085Y-3.99
X3.085Y-4.29
X3.1002Y-4.4546
X3.1002Y-4.7546
X3.185Y-3.99
X3.185Y-4.29
X3.2002Y-4.4546
X3.2002Y-4.7546
X3.2512Y-5.405
X3.2512Y-5.7003
X3.26Y-3.43
X3.26Y-3.7253
X3.285Y-3.99
X3.285Y-4.29
X3.385Y-3.99
X3.385Y-4.29
X3.4034Y-3.32
X3.44Y-5.405
X3.44Y-5.705
X3.485Y-3.99
X3.485Y-4.29
X3.4984Y-3.72
X3.5019Y-3.32
X3.54Y-5.405
X3.54Y-5.705
X3.547Y-4.4554
X3.547Y-4.7507
X3.5512Y-4.92
X3.5512Y-5.2153
X3.585Y-3.99
X3.585Y-4.29
X3.5969Y-3.72
X3.64Y-5.405
X3.64Y-5.705
X3.685Y-3.99
X3.685Y-4.29
X3.735Y-4.455
X3.735Y-4.755
X3.7392Y-4.9196
X3.7392Y-5.2196
X3.74Y-5.405
X3.74Y-5.705
X3.79Y-3.39
X3.7963Y-5.8867
X3.7963Y-6.1867
X3.81Y-3.535
X3.81Y-3.835
X3.835Y-4.455
X3.835Y-4.755
X3.8392Y-4.9196
X3.8392Y-5.2196
X3.84Y-5.405
X3.84Y-5.705
X3.8963Y-5.8867
X3.8963Y-6.1867
X3.91Y-3.535
X3.91Y-3.835
X3.935Y-4.455
X3.935Y-4.755
X3.9392Y-4.9196
X3.9392Y-5.2196
X3.94Y-5.405
X3.94Y-5.705
X3.95Y-3.9724
X3.95Y-4.2676
X3.9963Y-5.8867
X3.9963Y-6.1867
X4.01Y-3.535
X4.01Y-3.835
X4.035Y-4.455
X4.035Y-4.755
X4.0392Y-4.9196
X4.0392Y-5.2196
X4.04Y-5.405
X4.04Y-5.705
X4.0963Y-5.8867
X4.0963Y-6.1867
X4.11Y-3.535
X4.11Y-3.835
X4.135Y-4.455
X4.135Y-4.755
X4.1392Y-4.9196
X4.1392Y-5.2196
X4.14Y-5.405
X4.14Y-5.705
X4.17Y-3.975
X4.17Y-4.275
X4.19Y-3.39
X4.1963Y-5.8867
X4.1963Y-6.1867
X4.235Y-4.455
X4.235Y-4.755
X4.2392Y-4.9196
X4.2392Y-5.2196
X4.24Y-5.405
X4.24Y-5.705
X4.2963Y-5.8867
X4.2963Y-6.1867
X4.335Y-4.455
X4.335Y-4.755
X4.3392Y-4.9196
X4.3392Y-5.2196
X4.34Y-5.405
X4.34Y-5.705
X4.375Y-3.5
X4.375Y-3.8
X4.375Y-3.97
X4.375Y-4.27
T3
X1.87Y-6.035
X1.87Y-6.135
X3.06Y-3.085
X3.16Y-3.085
X3.26Y-3.085
T4
X3.62Y-3.17
X4.02Y-3.17
T0
M30
