%TF.GenerationSoftware,KiCad,Pcbnew,6.0.9-8da3e8f707~117~ubuntu20.04.1*%
%TF.CreationDate,2023-03-11T16:51:35-05:00*%
%TF.ProjectId,coco9511pak,636f636f-3935-4313-9170-616b2e6b6963,rev?*%
%TF.SameCoordinates,Original*%
%TF.FileFunction,Legend,Top*%
%TF.FilePolarity,Positive*%
%FSLAX46Y46*%
G04 Gerber Fmt 4.6, Leading zero omitted, Abs format (unit mm)*
G04 Created by KiCad (PCBNEW 6.0.9-8da3e8f707~117~ubuntu20.04.1) date 2023-03-11 16:51:35*
%MOMM*%
%LPD*%
G01*
G04 APERTURE LIST*
%ADD10C,0.300000*%
%ADD11C,0.250000*%
%ADD12C,0.175000*%
%ADD13C,0.150000*%
%ADD14C,0.120000*%
G04 APERTURE END LIST*
D10*
X92034571Y-156150571D02*
X92177428Y-156150571D01*
X92320285Y-156222000D01*
X92391714Y-156293428D01*
X92463142Y-156436285D01*
X92534571Y-156722000D01*
X92534571Y-157079142D01*
X92463142Y-157364857D01*
X92391714Y-157507714D01*
X92320285Y-157579142D01*
X92177428Y-157650571D01*
X92034571Y-157650571D01*
X91891714Y-157579142D01*
X91820285Y-157507714D01*
X91748857Y-157364857D01*
X91677428Y-157079142D01*
X91677428Y-156722000D01*
X91748857Y-156436285D01*
X91820285Y-156293428D01*
X91891714Y-156222000D01*
X92034571Y-156150571D01*
D11*
X30451976Y-74713666D02*
X30928166Y-74713666D01*
X30356738Y-74999380D02*
X30690071Y-73999380D01*
X31023404Y-74999380D01*
X31356738Y-74999380D02*
X31356738Y-73999380D01*
X31690071Y-74713666D01*
X32023404Y-73999380D01*
X32023404Y-74999380D01*
X32547214Y-74999380D02*
X32737690Y-74999380D01*
X32832928Y-74951761D01*
X32880547Y-74904142D01*
X32975785Y-74761285D01*
X33023404Y-74570809D01*
X33023404Y-74189857D01*
X32975785Y-74094619D01*
X32928166Y-74047000D01*
X32832928Y-73999380D01*
X32642452Y-73999380D01*
X32547214Y-74047000D01*
X32499595Y-74094619D01*
X32451976Y-74189857D01*
X32451976Y-74427952D01*
X32499595Y-74523190D01*
X32547214Y-74570809D01*
X32642452Y-74618428D01*
X32832928Y-74618428D01*
X32928166Y-74570809D01*
X32975785Y-74523190D01*
X33023404Y-74427952D01*
X33928166Y-73999380D02*
X33451976Y-73999380D01*
X33404357Y-74475571D01*
X33451976Y-74427952D01*
X33547214Y-74380333D01*
X33785309Y-74380333D01*
X33880547Y-74427952D01*
X33928166Y-74475571D01*
X33975785Y-74570809D01*
X33975785Y-74808904D01*
X33928166Y-74904142D01*
X33880547Y-74951761D01*
X33785309Y-74999380D01*
X33547214Y-74999380D01*
X33451976Y-74951761D01*
X33404357Y-74904142D01*
X34928166Y-74999380D02*
X34356738Y-74999380D01*
X34642452Y-74999380D02*
X34642452Y-73999380D01*
X34547214Y-74142238D01*
X34451976Y-74237476D01*
X34356738Y-74285095D01*
X35880547Y-74999380D02*
X35309119Y-74999380D01*
X35594833Y-74999380D02*
X35594833Y-73999380D01*
X35499595Y-74142238D01*
X35404357Y-74237476D01*
X35309119Y-74285095D01*
X37071023Y-74999380D02*
X37071023Y-73999380D01*
X37451976Y-73999380D01*
X37547214Y-74047000D01*
X37594833Y-74094619D01*
X37642452Y-74189857D01*
X37642452Y-74332714D01*
X37594833Y-74427952D01*
X37547214Y-74475571D01*
X37451976Y-74523190D01*
X37071023Y-74523190D01*
X38499595Y-74999380D02*
X38499595Y-74475571D01*
X38451976Y-74380333D01*
X38356738Y-74332714D01*
X38166261Y-74332714D01*
X38071023Y-74380333D01*
X38499595Y-74951761D02*
X38404357Y-74999380D01*
X38166261Y-74999380D01*
X38071023Y-74951761D01*
X38023404Y-74856523D01*
X38023404Y-74761285D01*
X38071023Y-74666047D01*
X38166261Y-74618428D01*
X38404357Y-74618428D01*
X38499595Y-74570809D01*
X38975785Y-74999380D02*
X38975785Y-73999380D01*
X39071023Y-74618428D02*
X39356738Y-74999380D01*
X39356738Y-74332714D02*
X38975785Y-74713666D01*
X40404357Y-74332714D02*
X40785309Y-74332714D01*
X40547214Y-74999380D02*
X40547214Y-74142238D01*
X40594833Y-74047000D01*
X40690071Y-73999380D01*
X40785309Y-73999380D01*
X41261500Y-74999380D02*
X41166261Y-74951761D01*
X41118642Y-74904142D01*
X41071023Y-74808904D01*
X41071023Y-74523190D01*
X41118642Y-74427952D01*
X41166261Y-74380333D01*
X41261500Y-74332714D01*
X41404357Y-74332714D01*
X41499595Y-74380333D01*
X41547214Y-74427952D01*
X41594833Y-74523190D01*
X41594833Y-74808904D01*
X41547214Y-74904142D01*
X41499595Y-74951761D01*
X41404357Y-74999380D01*
X41261500Y-74999380D01*
X42023404Y-74999380D02*
X42023404Y-74332714D01*
X42023404Y-74523190D02*
X42071023Y-74427952D01*
X42118642Y-74380333D01*
X42213880Y-74332714D01*
X42309119Y-74332714D01*
X43975785Y-74904142D02*
X43928166Y-74951761D01*
X43785309Y-74999380D01*
X43690071Y-74999380D01*
X43547214Y-74951761D01*
X43451976Y-74856523D01*
X43404357Y-74761285D01*
X43356738Y-74570809D01*
X43356738Y-74427952D01*
X43404357Y-74237476D01*
X43451976Y-74142238D01*
X43547214Y-74047000D01*
X43690071Y-73999380D01*
X43785309Y-73999380D01*
X43928166Y-74047000D01*
X43975785Y-74094619D01*
X44547214Y-74999380D02*
X44451976Y-74951761D01*
X44404357Y-74904142D01*
X44356738Y-74808904D01*
X44356738Y-74523190D01*
X44404357Y-74427952D01*
X44451976Y-74380333D01*
X44547214Y-74332714D01*
X44690071Y-74332714D01*
X44785309Y-74380333D01*
X44832928Y-74427952D01*
X44880547Y-74523190D01*
X44880547Y-74808904D01*
X44832928Y-74904142D01*
X44785309Y-74951761D01*
X44690071Y-74999380D01*
X44547214Y-74999380D01*
X45451976Y-74999380D02*
X45356738Y-74951761D01*
X45309119Y-74856523D01*
X45309119Y-73999380D01*
X45975785Y-74999380D02*
X45880547Y-74951761D01*
X45832928Y-74904142D01*
X45785309Y-74808904D01*
X45785309Y-74523190D01*
X45832928Y-74427952D01*
X45880547Y-74380333D01*
X45975785Y-74332714D01*
X46118642Y-74332714D01*
X46213880Y-74380333D01*
X46261500Y-74427952D01*
X46309119Y-74523190D01*
X46309119Y-74808904D01*
X46261500Y-74904142D01*
X46213880Y-74951761D01*
X46118642Y-74999380D01*
X45975785Y-74999380D01*
X46737690Y-74999380D02*
X46737690Y-74332714D01*
X46737690Y-74523190D02*
X46785309Y-74427952D01*
X46832928Y-74380333D01*
X46928166Y-74332714D01*
X47023404Y-74332714D01*
X48690071Y-74904142D02*
X48642452Y-74951761D01*
X48499595Y-74999380D01*
X48404357Y-74999380D01*
X48261500Y-74951761D01*
X48166261Y-74856523D01*
X48118642Y-74761285D01*
X48071023Y-74570809D01*
X48071023Y-74427952D01*
X48118642Y-74237476D01*
X48166261Y-74142238D01*
X48261500Y-74047000D01*
X48404357Y-73999380D01*
X48499595Y-73999380D01*
X48642452Y-74047000D01*
X48690071Y-74094619D01*
X49261500Y-74999380D02*
X49166261Y-74951761D01*
X49118642Y-74904142D01*
X49071023Y-74808904D01*
X49071023Y-74523190D01*
X49118642Y-74427952D01*
X49166261Y-74380333D01*
X49261500Y-74332714D01*
X49404357Y-74332714D01*
X49499595Y-74380333D01*
X49547214Y-74427952D01*
X49594833Y-74523190D01*
X49594833Y-74808904D01*
X49547214Y-74904142D01*
X49499595Y-74951761D01*
X49404357Y-74999380D01*
X49261500Y-74999380D01*
X50023404Y-74999380D02*
X50023404Y-74332714D01*
X50023404Y-74427952D02*
X50071023Y-74380333D01*
X50166261Y-74332714D01*
X50309119Y-74332714D01*
X50404357Y-74380333D01*
X50451976Y-74475571D01*
X50451976Y-74999380D01*
X50451976Y-74475571D02*
X50499595Y-74380333D01*
X50594833Y-74332714D01*
X50737690Y-74332714D01*
X50832928Y-74380333D01*
X50880547Y-74475571D01*
X50880547Y-74999380D01*
X51356738Y-74332714D02*
X51356738Y-75332714D01*
X51356738Y-74380333D02*
X51451976Y-74332714D01*
X51642452Y-74332714D01*
X51737690Y-74380333D01*
X51785309Y-74427952D01*
X51832928Y-74523190D01*
X51832928Y-74808904D01*
X51785309Y-74904142D01*
X51737690Y-74951761D01*
X51642452Y-74999380D01*
X51451976Y-74999380D01*
X51356738Y-74951761D01*
X52690071Y-74332714D02*
X52690071Y-74999380D01*
X52261499Y-74332714D02*
X52261499Y-74856523D01*
X52309119Y-74951761D01*
X52404357Y-74999380D01*
X52547214Y-74999380D01*
X52642452Y-74951761D01*
X52690071Y-74904142D01*
X53023404Y-74332714D02*
X53404357Y-74332714D01*
X53166261Y-73999380D02*
X53166261Y-74856523D01*
X53213880Y-74951761D01*
X53309119Y-74999380D01*
X53404357Y-74999380D01*
X54118642Y-74951761D02*
X54023404Y-74999380D01*
X53832928Y-74999380D01*
X53737690Y-74951761D01*
X53690071Y-74856523D01*
X53690071Y-74475571D01*
X53737690Y-74380333D01*
X53832928Y-74332714D01*
X54023404Y-74332714D01*
X54118642Y-74380333D01*
X54166261Y-74475571D01*
X54166261Y-74570809D01*
X53690071Y-74666047D01*
X54594833Y-74999380D02*
X54594833Y-74332714D01*
X54594833Y-74523190D02*
X54642452Y-74427952D01*
X54690071Y-74380333D01*
X54785309Y-74332714D01*
X54880547Y-74332714D01*
X55880547Y-74332714D02*
X56118642Y-74999380D01*
X56356738Y-74332714D01*
X57261499Y-74999380D02*
X56690071Y-74999380D01*
X56975785Y-74999380D02*
X56975785Y-73999380D01*
X56880547Y-74142238D01*
X56785309Y-74237476D01*
X56690071Y-74285095D01*
X57690071Y-74904142D02*
X57737690Y-74951761D01*
X57690071Y-74999380D01*
X57642452Y-74951761D01*
X57690071Y-74904142D01*
X57690071Y-74999380D01*
X58690071Y-74999380D02*
X58118642Y-74999380D01*
X58404357Y-74999380D02*
X58404357Y-73999380D01*
X58309119Y-74142238D01*
X58213880Y-74237476D01*
X58118642Y-74285095D01*
X31071023Y-76514142D02*
X31023404Y-76561761D01*
X30880547Y-76609380D01*
X30785309Y-76609380D01*
X30642452Y-76561761D01*
X30547214Y-76466523D01*
X30499595Y-76371285D01*
X30451976Y-76180809D01*
X30451976Y-76037952D01*
X30499595Y-75847476D01*
X30547214Y-75752238D01*
X30642452Y-75657000D01*
X30785309Y-75609380D01*
X30880547Y-75609380D01*
X31023404Y-75657000D01*
X31071023Y-75704619D01*
X31642452Y-76609380D02*
X31547214Y-76561761D01*
X31499595Y-76514142D01*
X31451976Y-76418904D01*
X31451976Y-76133190D01*
X31499595Y-76037952D01*
X31547214Y-75990333D01*
X31642452Y-75942714D01*
X31785309Y-75942714D01*
X31880547Y-75990333D01*
X31928166Y-76037952D01*
X31975785Y-76133190D01*
X31975785Y-76418904D01*
X31928166Y-76514142D01*
X31880547Y-76561761D01*
X31785309Y-76609380D01*
X31642452Y-76609380D01*
X32404357Y-75942714D02*
X32404357Y-76942714D01*
X32404357Y-75990333D02*
X32499595Y-75942714D01*
X32690071Y-75942714D01*
X32785309Y-75990333D01*
X32832928Y-76037952D01*
X32880547Y-76133190D01*
X32880547Y-76418904D01*
X32832928Y-76514142D01*
X32785309Y-76561761D01*
X32690071Y-76609380D01*
X32499595Y-76609380D01*
X32404357Y-76561761D01*
X33213880Y-75942714D02*
X33451976Y-76609380D01*
X33690071Y-75942714D02*
X33451976Y-76609380D01*
X33356738Y-76847476D01*
X33309119Y-76895095D01*
X33213880Y-76942714D01*
X34071023Y-76609380D02*
X34071023Y-75942714D01*
X34071023Y-76133190D02*
X34118642Y-76037952D01*
X34166261Y-75990333D01*
X34261500Y-75942714D01*
X34356738Y-75942714D01*
X34690071Y-76609380D02*
X34690071Y-75942714D01*
X34690071Y-75609380D02*
X34642452Y-75657000D01*
X34690071Y-75704619D01*
X34737690Y-75657000D01*
X34690071Y-75609380D01*
X34690071Y-75704619D01*
X35594833Y-75942714D02*
X35594833Y-76752238D01*
X35547214Y-76847476D01*
X35499595Y-76895095D01*
X35404357Y-76942714D01*
X35261500Y-76942714D01*
X35166261Y-76895095D01*
X35594833Y-76561761D02*
X35499595Y-76609380D01*
X35309119Y-76609380D01*
X35213880Y-76561761D01*
X35166261Y-76514142D01*
X35118642Y-76418904D01*
X35118642Y-76133190D01*
X35166261Y-76037952D01*
X35213880Y-75990333D01*
X35309119Y-75942714D01*
X35499595Y-75942714D01*
X35594833Y-75990333D01*
X36071023Y-76609380D02*
X36071023Y-75609380D01*
X36499595Y-76609380D02*
X36499595Y-76085571D01*
X36451976Y-75990333D01*
X36356738Y-75942714D01*
X36213880Y-75942714D01*
X36118642Y-75990333D01*
X36071023Y-76037952D01*
X36832928Y-75942714D02*
X37213880Y-75942714D01*
X36975785Y-75609380D02*
X36975785Y-76466523D01*
X37023404Y-76561761D01*
X37118642Y-76609380D01*
X37213880Y-76609380D01*
X38261500Y-75704619D02*
X38309119Y-75657000D01*
X38404357Y-75609380D01*
X38642452Y-75609380D01*
X38737690Y-75657000D01*
X38785309Y-75704619D01*
X38832928Y-75799857D01*
X38832928Y-75895095D01*
X38785309Y-76037952D01*
X38213880Y-76609380D01*
X38832928Y-76609380D01*
X39451976Y-75609380D02*
X39547214Y-75609380D01*
X39642452Y-75657000D01*
X39690071Y-75704619D01*
X39737690Y-75799857D01*
X39785309Y-75990333D01*
X39785309Y-76228428D01*
X39737690Y-76418904D01*
X39690071Y-76514142D01*
X39642452Y-76561761D01*
X39547214Y-76609380D01*
X39451976Y-76609380D01*
X39356738Y-76561761D01*
X39309119Y-76514142D01*
X39261500Y-76418904D01*
X39213880Y-76228428D01*
X39213880Y-75990333D01*
X39261500Y-75799857D01*
X39309119Y-75704619D01*
X39356738Y-75657000D01*
X39451976Y-75609380D01*
X40166261Y-75704619D02*
X40213880Y-75657000D01*
X40309119Y-75609380D01*
X40547214Y-75609380D01*
X40642452Y-75657000D01*
X40690071Y-75704619D01*
X40737690Y-75799857D01*
X40737690Y-75895095D01*
X40690071Y-76037952D01*
X40118642Y-76609380D01*
X40737690Y-76609380D01*
X41071023Y-75609380D02*
X41690071Y-75609380D01*
X41356738Y-75990333D01*
X41499595Y-75990333D01*
X41594833Y-76037952D01*
X41642452Y-76085571D01*
X41690071Y-76180809D01*
X41690071Y-76418904D01*
X41642452Y-76514142D01*
X41594833Y-76561761D01*
X41499595Y-76609380D01*
X41213880Y-76609380D01*
X41118642Y-76561761D01*
X41071023Y-76514142D01*
X42880547Y-76609380D02*
X42880547Y-75609380D01*
X43118642Y-75609380D01*
X43261500Y-75657000D01*
X43356738Y-75752238D01*
X43404357Y-75847476D01*
X43451976Y-76037952D01*
X43451976Y-76180809D01*
X43404357Y-76371285D01*
X43356738Y-76466523D01*
X43261500Y-76561761D01*
X43118642Y-76609380D01*
X42880547Y-76609380D01*
X44023404Y-76609380D02*
X43928166Y-76561761D01*
X43880547Y-76514142D01*
X43832928Y-76418904D01*
X43832928Y-76133190D01*
X43880547Y-76037952D01*
X43928166Y-75990333D01*
X44023404Y-75942714D01*
X44166261Y-75942714D01*
X44261500Y-75990333D01*
X44309119Y-76037952D01*
X44356738Y-76133190D01*
X44356738Y-76418904D01*
X44309119Y-76514142D01*
X44261500Y-76561761D01*
X44166261Y-76609380D01*
X44023404Y-76609380D01*
X44785309Y-75942714D02*
X44785309Y-76609380D01*
X44785309Y-76037952D02*
X44832928Y-75990333D01*
X44928166Y-75942714D01*
X45071023Y-75942714D01*
X45166261Y-75990333D01*
X45213880Y-76085571D01*
X45213880Y-76609380D01*
X46785309Y-76085571D02*
X46928166Y-76133190D01*
X46975785Y-76180809D01*
X47023404Y-76276047D01*
X47023404Y-76418904D01*
X46975785Y-76514142D01*
X46928166Y-76561761D01*
X46832928Y-76609380D01*
X46451976Y-76609380D01*
X46451976Y-75609380D01*
X46785309Y-75609380D01*
X46880547Y-75657000D01*
X46928166Y-75704619D01*
X46975785Y-75799857D01*
X46975785Y-75895095D01*
X46928166Y-75990333D01*
X46880547Y-76037952D01*
X46785309Y-76085571D01*
X46451976Y-76085571D01*
X47880547Y-76609380D02*
X47880547Y-76085571D01*
X47832928Y-75990333D01*
X47737690Y-75942714D01*
X47547214Y-75942714D01*
X47451976Y-75990333D01*
X47880547Y-76561761D02*
X47785309Y-76609380D01*
X47547214Y-76609380D01*
X47451976Y-76561761D01*
X47404357Y-76466523D01*
X47404357Y-76371285D01*
X47451976Y-76276047D01*
X47547214Y-76228428D01*
X47785309Y-76228428D01*
X47880547Y-76180809D01*
X48356738Y-76609380D02*
X48356738Y-75942714D01*
X48356738Y-76133190D02*
X48404357Y-76037952D01*
X48451976Y-75990333D01*
X48547214Y-75942714D01*
X48642452Y-75942714D01*
X48975785Y-76609380D02*
X48975785Y-75609380D01*
X48975785Y-75990333D02*
X49071023Y-75942714D01*
X49261499Y-75942714D01*
X49356738Y-75990333D01*
X49404357Y-76037952D01*
X49451976Y-76133190D01*
X49451976Y-76418904D01*
X49404357Y-76514142D01*
X49356738Y-76561761D01*
X49261499Y-76609380D01*
X49071023Y-76609380D01*
X48975785Y-76561761D01*
X50261499Y-76561761D02*
X50166261Y-76609380D01*
X49975785Y-76609380D01*
X49880547Y-76561761D01*
X49832928Y-76466523D01*
X49832928Y-76085571D01*
X49880547Y-75990333D01*
X49975785Y-75942714D01*
X50166261Y-75942714D01*
X50261499Y-75990333D01*
X50309119Y-76085571D01*
X50309119Y-76180809D01*
X49832928Y-76276047D01*
X50737690Y-76609380D02*
X50737690Y-75942714D01*
X50737690Y-76133190D02*
X50785309Y-76037952D01*
X50832928Y-75990333D01*
X50928166Y-75942714D01*
X51023404Y-75942714D01*
X30975785Y-78219380D02*
X30499595Y-78219380D01*
X30499595Y-77219380D01*
X31309119Y-78219380D02*
X31309119Y-77552714D01*
X31309119Y-77219380D02*
X31261500Y-77267000D01*
X31309119Y-77314619D01*
X31356738Y-77267000D01*
X31309119Y-77219380D01*
X31309119Y-77314619D01*
X32213880Y-78171761D02*
X32118642Y-78219380D01*
X31928166Y-78219380D01*
X31832928Y-78171761D01*
X31785309Y-78124142D01*
X31737690Y-78028904D01*
X31737690Y-77743190D01*
X31785309Y-77647952D01*
X31832928Y-77600333D01*
X31928166Y-77552714D01*
X32118642Y-77552714D01*
X32213880Y-77600333D01*
X33023404Y-78171761D02*
X32928166Y-78219380D01*
X32737690Y-78219380D01*
X32642452Y-78171761D01*
X32594833Y-78076523D01*
X32594833Y-77695571D01*
X32642452Y-77600333D01*
X32737690Y-77552714D01*
X32928166Y-77552714D01*
X33023404Y-77600333D01*
X33071023Y-77695571D01*
X33071023Y-77790809D01*
X32594833Y-77886047D01*
X33499595Y-77552714D02*
X33499595Y-78219380D01*
X33499595Y-77647952D02*
X33547214Y-77600333D01*
X33642452Y-77552714D01*
X33785309Y-77552714D01*
X33880547Y-77600333D01*
X33928166Y-77695571D01*
X33928166Y-78219380D01*
X34356738Y-78171761D02*
X34451976Y-78219380D01*
X34642452Y-78219380D01*
X34737690Y-78171761D01*
X34785309Y-78076523D01*
X34785309Y-78028904D01*
X34737690Y-77933666D01*
X34642452Y-77886047D01*
X34499595Y-77886047D01*
X34404357Y-77838428D01*
X34356738Y-77743190D01*
X34356738Y-77695571D01*
X34404357Y-77600333D01*
X34499595Y-77552714D01*
X34642452Y-77552714D01*
X34737690Y-77600333D01*
X35594833Y-78171761D02*
X35499595Y-78219380D01*
X35309119Y-78219380D01*
X35213880Y-78171761D01*
X35166261Y-78076523D01*
X35166261Y-77695571D01*
X35213880Y-77600333D01*
X35309119Y-77552714D01*
X35499595Y-77552714D01*
X35594833Y-77600333D01*
X35642452Y-77695571D01*
X35642452Y-77790809D01*
X35166261Y-77886047D01*
X37356738Y-77267000D02*
X37261500Y-77219380D01*
X37118642Y-77219380D01*
X36975785Y-77267000D01*
X36880547Y-77362238D01*
X36832928Y-77457476D01*
X36785309Y-77647952D01*
X36785309Y-77790809D01*
X36832928Y-77981285D01*
X36880547Y-78076523D01*
X36975785Y-78171761D01*
X37118642Y-78219380D01*
X37213880Y-78219380D01*
X37356738Y-78171761D01*
X37404357Y-78124142D01*
X37404357Y-77790809D01*
X37213880Y-77790809D01*
X37832928Y-78219380D02*
X37832928Y-77219380D01*
X38213880Y-77219380D01*
X38309119Y-77267000D01*
X38356738Y-77314619D01*
X38404357Y-77409857D01*
X38404357Y-77552714D01*
X38356738Y-77647952D01*
X38309119Y-77695571D01*
X38213880Y-77743190D01*
X37832928Y-77743190D01*
X39309119Y-78219380D02*
X38832928Y-78219380D01*
X38832928Y-77219380D01*
X39547214Y-77552714D02*
X39785309Y-78219380D01*
X40023404Y-77552714D01*
X40309119Y-77219380D02*
X40928166Y-77219380D01*
X40594833Y-77600333D01*
X40737690Y-77600333D01*
X40832928Y-77647952D01*
X40880547Y-77695571D01*
X40928166Y-77790809D01*
X40928166Y-78028904D01*
X40880547Y-78124142D01*
X40832928Y-78171761D01*
X40737690Y-78219380D01*
X40451976Y-78219380D01*
X40356738Y-78171761D01*
X40309119Y-78124142D01*
X30499595Y-79829380D02*
X30499595Y-78829380D01*
X30928166Y-79829380D02*
X30928166Y-79305571D01*
X30880547Y-79210333D01*
X30785309Y-79162714D01*
X30642452Y-79162714D01*
X30547214Y-79210333D01*
X30499595Y-79257952D01*
X31261500Y-79162714D02*
X31642452Y-79162714D01*
X31404357Y-78829380D02*
X31404357Y-79686523D01*
X31451976Y-79781761D01*
X31547214Y-79829380D01*
X31642452Y-79829380D01*
X31832928Y-79162714D02*
X32213880Y-79162714D01*
X31975785Y-78829380D02*
X31975785Y-79686523D01*
X32023404Y-79781761D01*
X32118642Y-79829380D01*
X32213880Y-79829380D01*
X32547214Y-79162714D02*
X32547214Y-80162714D01*
X32547214Y-79210333D02*
X32642452Y-79162714D01*
X32832928Y-79162714D01*
X32928166Y-79210333D01*
X32975785Y-79257952D01*
X33023404Y-79353190D01*
X33023404Y-79638904D01*
X32975785Y-79734142D01*
X32928166Y-79781761D01*
X32832928Y-79829380D01*
X32642452Y-79829380D01*
X32547214Y-79781761D01*
X33404357Y-79781761D02*
X33499595Y-79829380D01*
X33690071Y-79829380D01*
X33785309Y-79781761D01*
X33832928Y-79686523D01*
X33832928Y-79638904D01*
X33785309Y-79543666D01*
X33690071Y-79496047D01*
X33547214Y-79496047D01*
X33451976Y-79448428D01*
X33404357Y-79353190D01*
X33404357Y-79305571D01*
X33451976Y-79210333D01*
X33547214Y-79162714D01*
X33690071Y-79162714D01*
X33785309Y-79210333D01*
X34261500Y-79734142D02*
X34309119Y-79781761D01*
X34261500Y-79829380D01*
X34213880Y-79781761D01*
X34261500Y-79734142D01*
X34261500Y-79829380D01*
X34261500Y-79210333D02*
X34309119Y-79257952D01*
X34261500Y-79305571D01*
X34213880Y-79257952D01*
X34261500Y-79210333D01*
X34261500Y-79305571D01*
X35451976Y-78781761D02*
X34594833Y-80067476D01*
X36499595Y-78781761D02*
X35642452Y-80067476D01*
X37261500Y-79162714D02*
X37261500Y-79972238D01*
X37213880Y-80067476D01*
X37166261Y-80115095D01*
X37071023Y-80162714D01*
X36928166Y-80162714D01*
X36832928Y-80115095D01*
X37261500Y-79781761D02*
X37166261Y-79829380D01*
X36975785Y-79829380D01*
X36880547Y-79781761D01*
X36832928Y-79734142D01*
X36785309Y-79638904D01*
X36785309Y-79353190D01*
X36832928Y-79257952D01*
X36880547Y-79210333D01*
X36975785Y-79162714D01*
X37166261Y-79162714D01*
X37261500Y-79210333D01*
X37737690Y-79829380D02*
X37737690Y-79162714D01*
X37737690Y-78829380D02*
X37690071Y-78877000D01*
X37737690Y-78924619D01*
X37785309Y-78877000D01*
X37737690Y-78829380D01*
X37737690Y-78924619D01*
X38071023Y-79162714D02*
X38451976Y-79162714D01*
X38213880Y-78829380D02*
X38213880Y-79686523D01*
X38261500Y-79781761D01*
X38356738Y-79829380D01*
X38451976Y-79829380D01*
X38785309Y-79829380D02*
X38785309Y-78829380D01*
X39213880Y-79829380D02*
X39213880Y-79305571D01*
X39166261Y-79210333D01*
X39071023Y-79162714D01*
X38928166Y-79162714D01*
X38832928Y-79210333D01*
X38785309Y-79257952D01*
X40118642Y-79162714D02*
X40118642Y-79829380D01*
X39690071Y-79162714D02*
X39690071Y-79686523D01*
X39737690Y-79781761D01*
X39832928Y-79829380D01*
X39975785Y-79829380D01*
X40071023Y-79781761D01*
X40118642Y-79734142D01*
X40594833Y-79829380D02*
X40594833Y-78829380D01*
X40594833Y-79210333D02*
X40690071Y-79162714D01*
X40880547Y-79162714D01*
X40975785Y-79210333D01*
X41023404Y-79257952D01*
X41071023Y-79353190D01*
X41071023Y-79638904D01*
X41023404Y-79734142D01*
X40975785Y-79781761D01*
X40880547Y-79829380D01*
X40690071Y-79829380D01*
X40594833Y-79781761D01*
X41499595Y-79734142D02*
X41547214Y-79781761D01*
X41499595Y-79829380D01*
X41451976Y-79781761D01*
X41499595Y-79734142D01*
X41499595Y-79829380D01*
X42404357Y-79781761D02*
X42309119Y-79829380D01*
X42118642Y-79829380D01*
X42023404Y-79781761D01*
X41975785Y-79734142D01*
X41928166Y-79638904D01*
X41928166Y-79353190D01*
X41975785Y-79257952D01*
X42023404Y-79210333D01*
X42118642Y-79162714D01*
X42309119Y-79162714D01*
X42404357Y-79210333D01*
X42975785Y-79829380D02*
X42880547Y-79781761D01*
X42832928Y-79734142D01*
X42785309Y-79638904D01*
X42785309Y-79353190D01*
X42832928Y-79257952D01*
X42880547Y-79210333D01*
X42975785Y-79162714D01*
X43118642Y-79162714D01*
X43213880Y-79210333D01*
X43261500Y-79257952D01*
X43309119Y-79353190D01*
X43309119Y-79638904D01*
X43261500Y-79734142D01*
X43213880Y-79781761D01*
X43118642Y-79829380D01*
X42975785Y-79829380D01*
X43737690Y-79829380D02*
X43737690Y-79162714D01*
X43737690Y-79257952D02*
X43785309Y-79210333D01*
X43880547Y-79162714D01*
X44023404Y-79162714D01*
X44118642Y-79210333D01*
X44166261Y-79305571D01*
X44166261Y-79829380D01*
X44166261Y-79305571D02*
X44213880Y-79210333D01*
X44309119Y-79162714D01*
X44451976Y-79162714D01*
X44547214Y-79210333D01*
X44594833Y-79305571D01*
X44594833Y-79829380D01*
X45785309Y-78781761D02*
X44928166Y-80067476D01*
X46118642Y-79829380D02*
X46118642Y-78829380D01*
X46118642Y-79210333D02*
X46213880Y-79162714D01*
X46404357Y-79162714D01*
X46499595Y-79210333D01*
X46547214Y-79257952D01*
X46594833Y-79353190D01*
X46594833Y-79638904D01*
X46547214Y-79734142D01*
X46499595Y-79781761D01*
X46404357Y-79829380D01*
X46213880Y-79829380D01*
X46118642Y-79781761D01*
X47451976Y-79829380D02*
X47451976Y-79305571D01*
X47404357Y-79210333D01*
X47309119Y-79162714D01*
X47118642Y-79162714D01*
X47023404Y-79210333D01*
X47451976Y-79781761D02*
X47356738Y-79829380D01*
X47118642Y-79829380D01*
X47023404Y-79781761D01*
X46975785Y-79686523D01*
X46975785Y-79591285D01*
X47023404Y-79496047D01*
X47118642Y-79448428D01*
X47356738Y-79448428D01*
X47451976Y-79400809D01*
X47928166Y-79829380D02*
X47928166Y-79162714D01*
X47928166Y-79353190D02*
X47975785Y-79257952D01*
X48023404Y-79210333D01*
X48118642Y-79162714D01*
X48213880Y-79162714D01*
X48547214Y-79829380D02*
X48547214Y-78829380D01*
X48547214Y-79210333D02*
X48642452Y-79162714D01*
X48832928Y-79162714D01*
X48928166Y-79210333D01*
X48975785Y-79257952D01*
X49023404Y-79353190D01*
X49023404Y-79638904D01*
X48975785Y-79734142D01*
X48928166Y-79781761D01*
X48832928Y-79829380D01*
X48642452Y-79829380D01*
X48547214Y-79781761D01*
X49832928Y-79781761D02*
X49737690Y-79829380D01*
X49547214Y-79829380D01*
X49451976Y-79781761D01*
X49404357Y-79686523D01*
X49404357Y-79305571D01*
X49451976Y-79210333D01*
X49547214Y-79162714D01*
X49737690Y-79162714D01*
X49832928Y-79210333D01*
X49880547Y-79305571D01*
X49880547Y-79400809D01*
X49404357Y-79496047D01*
X50309119Y-79829380D02*
X50309119Y-79162714D01*
X50309119Y-79353190D02*
X50356738Y-79257952D01*
X50404357Y-79210333D01*
X50499595Y-79162714D01*
X50594833Y-79162714D01*
X51356738Y-79829380D02*
X51356738Y-78829380D01*
X51356738Y-79781761D02*
X51261500Y-79829380D01*
X51071023Y-79829380D01*
X50975785Y-79781761D01*
X50928166Y-79734142D01*
X50880547Y-79638904D01*
X50880547Y-79353190D01*
X50928166Y-79257952D01*
X50975785Y-79210333D01*
X51071023Y-79162714D01*
X51261500Y-79162714D01*
X51356738Y-79210333D01*
X52547214Y-78781761D02*
X51690071Y-80067476D01*
X53309119Y-79781761D02*
X53213880Y-79829380D01*
X53023404Y-79829380D01*
X52928166Y-79781761D01*
X52880547Y-79734142D01*
X52832928Y-79638904D01*
X52832928Y-79353190D01*
X52880547Y-79257952D01*
X52928166Y-79210333D01*
X53023404Y-79162714D01*
X53213880Y-79162714D01*
X53309119Y-79210333D01*
X53880547Y-79829380D02*
X53785309Y-79781761D01*
X53737690Y-79734142D01*
X53690071Y-79638904D01*
X53690071Y-79353190D01*
X53737690Y-79257952D01*
X53785309Y-79210333D01*
X53880547Y-79162714D01*
X54023404Y-79162714D01*
X54118642Y-79210333D01*
X54166261Y-79257952D01*
X54213880Y-79353190D01*
X54213880Y-79638904D01*
X54166261Y-79734142D01*
X54118642Y-79781761D01*
X54023404Y-79829380D01*
X53880547Y-79829380D01*
X55071023Y-79781761D02*
X54975785Y-79829380D01*
X54785309Y-79829380D01*
X54690071Y-79781761D01*
X54642452Y-79734142D01*
X54594833Y-79638904D01*
X54594833Y-79353190D01*
X54642452Y-79257952D01*
X54690071Y-79210333D01*
X54785309Y-79162714D01*
X54975785Y-79162714D01*
X55071023Y-79210333D01*
X55642452Y-79829380D02*
X55547214Y-79781761D01*
X55499595Y-79734142D01*
X55451976Y-79638904D01*
X55451976Y-79353190D01*
X55499595Y-79257952D01*
X55547214Y-79210333D01*
X55642452Y-79162714D01*
X55785309Y-79162714D01*
X55880547Y-79210333D01*
X55928166Y-79257952D01*
X55975785Y-79353190D01*
X55975785Y-79638904D01*
X55928166Y-79734142D01*
X55880547Y-79781761D01*
X55785309Y-79829380D01*
X55642452Y-79829380D01*
X56451976Y-79829380D02*
X56642452Y-79829380D01*
X56737690Y-79781761D01*
X56785309Y-79734142D01*
X56880547Y-79591285D01*
X56928166Y-79400809D01*
X56928166Y-79019857D01*
X56880547Y-78924619D01*
X56832928Y-78877000D01*
X56737690Y-78829380D01*
X56547214Y-78829380D01*
X56451976Y-78877000D01*
X56404357Y-78924619D01*
X56356738Y-79019857D01*
X56356738Y-79257952D01*
X56404357Y-79353190D01*
X56451976Y-79400809D01*
X56547214Y-79448428D01*
X56737690Y-79448428D01*
X56832928Y-79400809D01*
X56880547Y-79353190D01*
X56928166Y-79257952D01*
X57832928Y-78829380D02*
X57356738Y-78829380D01*
X57309119Y-79305571D01*
X57356738Y-79257952D01*
X57451976Y-79210333D01*
X57690071Y-79210333D01*
X57785309Y-79257952D01*
X57832928Y-79305571D01*
X57880547Y-79400809D01*
X57880547Y-79638904D01*
X57832928Y-79734142D01*
X57785309Y-79781761D01*
X57690071Y-79829380D01*
X57451976Y-79829380D01*
X57356738Y-79781761D01*
X57309119Y-79734142D01*
X58832928Y-79829380D02*
X58261499Y-79829380D01*
X58547214Y-79829380D02*
X58547214Y-78829380D01*
X58451976Y-78972238D01*
X58356738Y-79067476D01*
X58261499Y-79115095D01*
X59785309Y-79829380D02*
X59213880Y-79829380D01*
X59499595Y-79829380D02*
X59499595Y-78829380D01*
X59404357Y-78972238D01*
X59309119Y-79067476D01*
X59213880Y-79115095D01*
X60213880Y-79162714D02*
X60213880Y-80162714D01*
X60213880Y-79210333D02*
X60309119Y-79162714D01*
X60499595Y-79162714D01*
X60594833Y-79210333D01*
X60642452Y-79257952D01*
X60690071Y-79353190D01*
X60690071Y-79638904D01*
X60642452Y-79734142D01*
X60594833Y-79781761D01*
X60499595Y-79829380D01*
X60309119Y-79829380D01*
X60213880Y-79781761D01*
X61547214Y-79829380D02*
X61547214Y-79305571D01*
X61499595Y-79210333D01*
X61404357Y-79162714D01*
X61213880Y-79162714D01*
X61118642Y-79210333D01*
X61547214Y-79781761D02*
X61451976Y-79829380D01*
X61213880Y-79829380D01*
X61118642Y-79781761D01*
X61071023Y-79686523D01*
X61071023Y-79591285D01*
X61118642Y-79496047D01*
X61213880Y-79448428D01*
X61451976Y-79448428D01*
X61547214Y-79400809D01*
X62023404Y-79829380D02*
X62023404Y-78829380D01*
X62118642Y-79448428D02*
X62404357Y-79829380D01*
X62404357Y-79162714D02*
X62023404Y-79543666D01*
D10*
X82638000Y-160039857D02*
X82138000Y-160039857D01*
X82138000Y-160825571D02*
X82138000Y-159325571D01*
X82852285Y-159325571D01*
X83923714Y-160039857D02*
X83423714Y-160039857D01*
X83423714Y-160825571D02*
X83423714Y-159325571D01*
X84138000Y-159325571D01*
X84566571Y-159325571D02*
X85566571Y-159325571D01*
X84923714Y-160825571D01*
X86423714Y-159325571D02*
X86566571Y-159325571D01*
X86709428Y-159397000D01*
X86780857Y-159468428D01*
X86852285Y-159611285D01*
X86923714Y-159897000D01*
X86923714Y-160254142D01*
X86852285Y-160539857D01*
X86780857Y-160682714D01*
X86709428Y-160754142D01*
X86566571Y-160825571D01*
X86423714Y-160825571D01*
X86280857Y-160754142D01*
X86209428Y-160682714D01*
X86138000Y-160539857D01*
X86066571Y-160254142D01*
X86066571Y-159897000D01*
X86138000Y-159611285D01*
X86209428Y-159468428D01*
X86280857Y-159397000D01*
X86423714Y-159325571D01*
X87566571Y-160254142D02*
X88709428Y-160254142D01*
X89923714Y-160039857D02*
X89423714Y-160039857D01*
X89423714Y-160825571D02*
X89423714Y-159325571D01*
X90138000Y-159325571D01*
X91209428Y-160039857D02*
X90709428Y-160039857D01*
X90709428Y-160825571D02*
X90709428Y-159325571D01*
X91423714Y-159325571D01*
X91852285Y-159325571D02*
X92852285Y-159325571D01*
X92209428Y-160825571D01*
X93280857Y-159325571D02*
X94209428Y-159325571D01*
X93709428Y-159897000D01*
X93923714Y-159897000D01*
X94066571Y-159968428D01*
X94138000Y-160039857D01*
X94209428Y-160182714D01*
X94209428Y-160539857D01*
X94138000Y-160682714D01*
X94066571Y-160754142D01*
X93923714Y-160825571D01*
X93495142Y-160825571D01*
X93352285Y-160754142D01*
X93280857Y-160682714D01*
D12*
X75561000Y-78875666D02*
X75594333Y-78909000D01*
X75627666Y-79009000D01*
X75627666Y-79075666D01*
X75594333Y-79175666D01*
X75527666Y-79242333D01*
X75461000Y-79275666D01*
X75327666Y-79309000D01*
X75227666Y-79309000D01*
X75094333Y-79275666D01*
X75027666Y-79242333D01*
X74961000Y-79175666D01*
X74927666Y-79075666D01*
X74927666Y-79009000D01*
X74961000Y-78909000D01*
X74994333Y-78875666D01*
X75627666Y-78275666D02*
X75261000Y-78275666D01*
X75194333Y-78309000D01*
X75161000Y-78375666D01*
X75161000Y-78509000D01*
X75194333Y-78575666D01*
X75594333Y-78275666D02*
X75627666Y-78342333D01*
X75627666Y-78509000D01*
X75594333Y-78575666D01*
X75527666Y-78609000D01*
X75461000Y-78609000D01*
X75394333Y-78575666D01*
X75361000Y-78509000D01*
X75361000Y-78342333D01*
X75327666Y-78275666D01*
X75627666Y-77942333D02*
X75161000Y-77942333D01*
X75294333Y-77942333D02*
X75227666Y-77909000D01*
X75194333Y-77875666D01*
X75161000Y-77809000D01*
X75161000Y-77742333D01*
X75161000Y-77609000D02*
X75161000Y-77342333D01*
X74927666Y-77509000D02*
X75527666Y-77509000D01*
X75594333Y-77475666D01*
X75627666Y-77409000D01*
X75627666Y-77342333D01*
D10*
X92534571Y-150157571D02*
X91677428Y-150157571D01*
X92106000Y-150157571D02*
X92106000Y-148657571D01*
X91963142Y-148871857D01*
X91820285Y-149014714D01*
X91677428Y-149086142D01*
D12*
X85467000Y-79509000D02*
X85500333Y-79542333D01*
X85533666Y-79642333D01*
X85533666Y-79709000D01*
X85500333Y-79809000D01*
X85433666Y-79875666D01*
X85367000Y-79909000D01*
X85233666Y-79942333D01*
X85133666Y-79942333D01*
X85000333Y-79909000D01*
X84933666Y-79875666D01*
X84867000Y-79809000D01*
X84833666Y-79709000D01*
X84833666Y-79642333D01*
X84867000Y-79542333D01*
X84900333Y-79509000D01*
X85533666Y-79209000D02*
X85067000Y-79209000D01*
X84833666Y-79209000D02*
X84867000Y-79242333D01*
X84900333Y-79209000D01*
X84867000Y-79175666D01*
X84833666Y-79209000D01*
X84900333Y-79209000D01*
X85533666Y-78875666D02*
X85067000Y-78875666D01*
X85200333Y-78875666D02*
X85133666Y-78842333D01*
X85100333Y-78809000D01*
X85067000Y-78742333D01*
X85067000Y-78675666D01*
X85500333Y-78142333D02*
X85533666Y-78209000D01*
X85533666Y-78342333D01*
X85500333Y-78409000D01*
X85467000Y-78442333D01*
X85400333Y-78475666D01*
X85200333Y-78475666D01*
X85133666Y-78442333D01*
X85100333Y-78409000D01*
X85067000Y-78342333D01*
X85067000Y-78209000D01*
X85100333Y-78142333D01*
X85067000Y-77542333D02*
X85533666Y-77542333D01*
X85067000Y-77842333D02*
X85433666Y-77842333D01*
X85500333Y-77809000D01*
X85533666Y-77742333D01*
X85533666Y-77642333D01*
X85500333Y-77575666D01*
X85467000Y-77542333D01*
X85533666Y-77209000D02*
X85067000Y-77209000D01*
X84833666Y-77209000D02*
X84867000Y-77242333D01*
X84900333Y-77209000D01*
X84867000Y-77175666D01*
X84833666Y-77209000D01*
X84900333Y-77209000D01*
X85067000Y-76975666D02*
X85067000Y-76709000D01*
X84833666Y-76875666D02*
X85433666Y-76875666D01*
X85500333Y-76842333D01*
X85533666Y-76775666D01*
X85533666Y-76709000D01*
X77234666Y-80822000D02*
X77768000Y-80822000D01*
X77501333Y-81088666D02*
X77501333Y-80555333D01*
X78468000Y-81088666D02*
X78068000Y-81088666D01*
X78268000Y-81088666D02*
X78268000Y-80388666D01*
X78201333Y-80488666D01*
X78134666Y-80555333D01*
X78068000Y-80588666D01*
X78734666Y-80455333D02*
X78768000Y-80422000D01*
X78834666Y-80388666D01*
X79001333Y-80388666D01*
X79068000Y-80422000D01*
X79101333Y-80455333D01*
X79134666Y-80522000D01*
X79134666Y-80588666D01*
X79101333Y-80688666D01*
X78701333Y-81088666D01*
X79134666Y-81088666D01*
X79334666Y-80388666D02*
X79568000Y-81088666D01*
X79801333Y-80388666D01*
X80534666Y-81055333D02*
X80634666Y-81088666D01*
X80801333Y-81088666D01*
X80868000Y-81055333D01*
X80901333Y-81022000D01*
X80934666Y-80955333D01*
X80934666Y-80888666D01*
X80901333Y-80822000D01*
X80868000Y-80788666D01*
X80801333Y-80755333D01*
X80668000Y-80722000D01*
X80601333Y-80688666D01*
X80568000Y-80655333D01*
X80534666Y-80588666D01*
X80534666Y-80522000D01*
X80568000Y-80455333D01*
X80601333Y-80422000D01*
X80668000Y-80388666D01*
X80834666Y-80388666D01*
X80934666Y-80422000D01*
X81334666Y-81088666D02*
X81268000Y-81055333D01*
X81234666Y-81022000D01*
X81201333Y-80955333D01*
X81201333Y-80755333D01*
X81234666Y-80688666D01*
X81268000Y-80655333D01*
X81334666Y-80622000D01*
X81434666Y-80622000D01*
X81501333Y-80655333D01*
X81534666Y-80688666D01*
X81568000Y-80755333D01*
X81568000Y-80955333D01*
X81534666Y-81022000D01*
X81501333Y-81055333D01*
X81434666Y-81088666D01*
X81334666Y-81088666D01*
X82168000Y-80622000D02*
X82168000Y-81088666D01*
X81868000Y-80622000D02*
X81868000Y-80988666D01*
X81901333Y-81055333D01*
X81968000Y-81088666D01*
X82068000Y-81088666D01*
X82134666Y-81055333D01*
X82168000Y-81022000D01*
X82501333Y-81088666D02*
X82501333Y-80622000D01*
X82501333Y-80755333D02*
X82534666Y-80688666D01*
X82568000Y-80655333D01*
X82634666Y-80622000D01*
X82701333Y-80622000D01*
X83234666Y-81055333D02*
X83168000Y-81088666D01*
X83034666Y-81088666D01*
X82968000Y-81055333D01*
X82934666Y-81022000D01*
X82901333Y-80955333D01*
X82901333Y-80755333D01*
X82934666Y-80688666D01*
X82968000Y-80655333D01*
X83034666Y-80622000D01*
X83168000Y-80622000D01*
X83234666Y-80655333D01*
X83801333Y-81055333D02*
X83734666Y-81088666D01*
X83601333Y-81088666D01*
X83534666Y-81055333D01*
X83501333Y-80988666D01*
X83501333Y-80722000D01*
X83534666Y-80655333D01*
X83601333Y-80622000D01*
X83734666Y-80622000D01*
X83801333Y-80655333D01*
X83834666Y-80722000D01*
X83834666Y-80788666D01*
X83501333Y-80855333D01*
D10*
X96370000Y-159325571D02*
X96512857Y-159325571D01*
X96655714Y-159397000D01*
X96727142Y-159468428D01*
X96798571Y-159611285D01*
X96870000Y-159897000D01*
X96870000Y-160254142D01*
X96798571Y-160539857D01*
X96727142Y-160682714D01*
X96655714Y-160754142D01*
X96512857Y-160825571D01*
X96370000Y-160825571D01*
X96227142Y-160754142D01*
X96155714Y-160682714D01*
X96084285Y-160539857D01*
X96012857Y-160254142D01*
X96012857Y-159897000D01*
X96084285Y-159611285D01*
X96155714Y-159468428D01*
X96227142Y-159397000D01*
X96370000Y-159325571D01*
X99441428Y-160825571D02*
X98584285Y-160825571D01*
X99012857Y-160825571D02*
X99012857Y-159325571D01*
X98870000Y-159539857D01*
X98727142Y-159682714D01*
X98584285Y-159754142D01*
X102012857Y-160825571D02*
X101155714Y-160825571D01*
X101584285Y-160825571D02*
X101584285Y-159325571D01*
X101441428Y-159539857D01*
X101298571Y-159682714D01*
X101155714Y-159754142D01*
X104584285Y-160825571D02*
X103727142Y-160825571D01*
X104155714Y-160825571D02*
X104155714Y-159325571D01*
X104012857Y-159539857D01*
X103869999Y-159682714D01*
X103727142Y-159754142D01*
X106655714Y-159325571D02*
X106798571Y-159325571D01*
X106941428Y-159397000D01*
X107012857Y-159468428D01*
X107084285Y-159611285D01*
X107155714Y-159897000D01*
X107155714Y-160254142D01*
X107084285Y-160539857D01*
X107012857Y-160682714D01*
X106941428Y-160754142D01*
X106798571Y-160825571D01*
X106655714Y-160825571D01*
X106512857Y-160754142D01*
X106441428Y-160682714D01*
X106369999Y-160539857D01*
X106298571Y-160254142D01*
X106298571Y-159897000D01*
X106369999Y-159611285D01*
X106441428Y-159468428D01*
X106512857Y-159397000D01*
X106655714Y-159325571D01*
X109227142Y-159325571D02*
X109369999Y-159325571D01*
X109512857Y-159397000D01*
X109584285Y-159468428D01*
X109655714Y-159611285D01*
X109727142Y-159897000D01*
X109727142Y-160254142D01*
X109655714Y-160539857D01*
X109584285Y-160682714D01*
X109512857Y-160754142D01*
X109369999Y-160825571D01*
X109227142Y-160825571D01*
X109084285Y-160754142D01*
X109012857Y-160682714D01*
X108941428Y-160539857D01*
X108869999Y-160254142D01*
X108869999Y-159897000D01*
X108941428Y-159611285D01*
X109012857Y-159468428D01*
X109084285Y-159397000D01*
X109227142Y-159325571D01*
D13*
%TO.C,U7*%
X91991380Y-117728904D02*
X92800904Y-117728904D01*
X92896142Y-117681285D01*
X92943761Y-117633666D01*
X92991380Y-117538428D01*
X92991380Y-117347952D01*
X92943761Y-117252714D01*
X92896142Y-117205095D01*
X92800904Y-117157476D01*
X91991380Y-117157476D01*
X91991380Y-116776523D02*
X91991380Y-116109857D01*
X92991380Y-116538428D01*
X111891380Y-119609857D02*
X111891380Y-118943190D01*
X112891380Y-119371761D01*
X112224714Y-118133666D02*
X112891380Y-118133666D01*
X111843761Y-118371761D02*
X112558047Y-118609857D01*
X112558047Y-117990809D01*
X112891380Y-117133666D02*
X112891380Y-117609857D01*
X111891380Y-117609857D01*
X112843761Y-116847952D02*
X112891380Y-116705095D01*
X112891380Y-116467000D01*
X112843761Y-116371761D01*
X112796142Y-116324142D01*
X112700904Y-116276523D01*
X112605666Y-116276523D01*
X112510428Y-116324142D01*
X112462809Y-116371761D01*
X112415190Y-116467000D01*
X112367571Y-116657476D01*
X112319952Y-116752714D01*
X112272333Y-116800333D01*
X112177095Y-116847952D01*
X112081857Y-116847952D01*
X111986619Y-116800333D01*
X111939000Y-116752714D01*
X111891380Y-116657476D01*
X111891380Y-116419380D01*
X111939000Y-116276523D01*
X111891380Y-115657476D02*
X111891380Y-115562238D01*
X111939000Y-115467000D01*
X111986619Y-115419380D01*
X112081857Y-115371761D01*
X112272333Y-115324142D01*
X112510428Y-115324142D01*
X112700904Y-115371761D01*
X112796142Y-115419380D01*
X112843761Y-115467000D01*
X112891380Y-115562238D01*
X112891380Y-115657476D01*
X112843761Y-115752714D01*
X112796142Y-115800333D01*
X112700904Y-115847952D01*
X112510428Y-115895571D01*
X112272333Y-115895571D01*
X112081857Y-115847952D01*
X111986619Y-115800333D01*
X111939000Y-115752714D01*
X111891380Y-115657476D01*
X111891380Y-114705095D02*
X111891380Y-114609857D01*
X111939000Y-114514619D01*
X111986619Y-114467000D01*
X112081857Y-114419380D01*
X112272333Y-114371761D01*
X112510428Y-114371761D01*
X112700904Y-114419380D01*
X112796142Y-114467000D01*
X112843761Y-114514619D01*
X112891380Y-114609857D01*
X112891380Y-114705095D01*
X112843761Y-114800333D01*
X112796142Y-114847952D01*
X112700904Y-114895571D01*
X112510428Y-114943190D01*
X112272333Y-114943190D01*
X112081857Y-114895571D01*
X111986619Y-114847952D01*
X111939000Y-114800333D01*
X111891380Y-114705095D01*
%TO.C,C2*%
X80748142Y-90844666D02*
X80795761Y-90892285D01*
X80843380Y-91035142D01*
X80843380Y-91130380D01*
X80795761Y-91273238D01*
X80700523Y-91368476D01*
X80605285Y-91416095D01*
X80414809Y-91463714D01*
X80271952Y-91463714D01*
X80081476Y-91416095D01*
X79986238Y-91368476D01*
X79891000Y-91273238D01*
X79843380Y-91130380D01*
X79843380Y-91035142D01*
X79891000Y-90892285D01*
X79938619Y-90844666D01*
X79938619Y-90463714D02*
X79891000Y-90416095D01*
X79843380Y-90320857D01*
X79843380Y-90082761D01*
X79891000Y-89987523D01*
X79938619Y-89939904D01*
X80033857Y-89892285D01*
X80129095Y-89892285D01*
X80271952Y-89939904D01*
X80843380Y-90511333D01*
X80843380Y-89892285D01*
X83161142Y-91959285D02*
X83208761Y-91911666D01*
X83256380Y-91959285D01*
X83208761Y-92006904D01*
X83161142Y-91959285D01*
X83256380Y-91959285D01*
X83256380Y-90959285D02*
X83256380Y-91530714D01*
X83256380Y-91245000D02*
X82256380Y-91245000D01*
X82399238Y-91340238D01*
X82494476Y-91435476D01*
X82542095Y-91530714D01*
X82589714Y-90102142D02*
X83256380Y-90102142D01*
X82589714Y-90530714D02*
X83113523Y-90530714D01*
X83208761Y-90483095D01*
X83256380Y-90387857D01*
X83256380Y-90245000D01*
X83208761Y-90149761D01*
X83161142Y-90102142D01*
X82589714Y-89768809D02*
X82589714Y-89387857D01*
X83256380Y-89625952D02*
X82399238Y-89625952D01*
X82304000Y-89578333D01*
X82256380Y-89483095D01*
X82256380Y-89387857D01*
%TO.C,R7*%
X104084380Y-104941666D02*
X103608190Y-105275000D01*
X104084380Y-105513095D02*
X103084380Y-105513095D01*
X103084380Y-105132142D01*
X103132000Y-105036904D01*
X103179619Y-104989285D01*
X103274857Y-104941666D01*
X103417714Y-104941666D01*
X103512952Y-104989285D01*
X103560571Y-105036904D01*
X103608190Y-105132142D01*
X103608190Y-105513095D01*
X103084380Y-104608333D02*
X103084380Y-103941666D01*
X104084380Y-104370238D01*
X105370380Y-104941666D02*
X105370380Y-105417857D01*
X105846571Y-105465476D01*
X105798952Y-105417857D01*
X105751333Y-105322619D01*
X105751333Y-105084523D01*
X105798952Y-104989285D01*
X105846571Y-104941666D01*
X105941809Y-104894047D01*
X106179904Y-104894047D01*
X106275142Y-104941666D01*
X106322761Y-104989285D01*
X106370380Y-105084523D01*
X106370380Y-105322619D01*
X106322761Y-105417857D01*
X106275142Y-105465476D01*
X106370380Y-104465476D02*
X105370380Y-104465476D01*
X105989428Y-104370238D02*
X106370380Y-104084523D01*
X105703714Y-104084523D02*
X106084666Y-104465476D01*
%TO.C,R3*%
X24963380Y-129706666D02*
X24487190Y-130040000D01*
X24963380Y-130278095D02*
X23963380Y-130278095D01*
X23963380Y-129897142D01*
X24011000Y-129801904D01*
X24058619Y-129754285D01*
X24153857Y-129706666D01*
X24296714Y-129706666D01*
X24391952Y-129754285D01*
X24439571Y-129801904D01*
X24487190Y-129897142D01*
X24487190Y-130278095D01*
X23963380Y-129373333D02*
X23963380Y-128754285D01*
X24344333Y-129087619D01*
X24344333Y-128944761D01*
X24391952Y-128849523D01*
X24439571Y-128801904D01*
X24534809Y-128754285D01*
X24772904Y-128754285D01*
X24868142Y-128801904D01*
X24915761Y-128849523D01*
X24963380Y-128944761D01*
X24963380Y-129230476D01*
X24915761Y-129325714D01*
X24868142Y-129373333D01*
X26836714Y-130214571D02*
X27503380Y-130214571D01*
X26455761Y-130452666D02*
X27170047Y-130690761D01*
X27170047Y-130071714D01*
X27408142Y-129690761D02*
X27455761Y-129643142D01*
X27503380Y-129690761D01*
X27455761Y-129738380D01*
X27408142Y-129690761D01*
X27503380Y-129690761D01*
X26503380Y-129309809D02*
X26503380Y-128643142D01*
X27503380Y-129071714D01*
X27503380Y-128262190D02*
X26503380Y-128262190D01*
X27122428Y-128166952D02*
X27503380Y-127881238D01*
X26836714Y-127881238D02*
X27217666Y-128262190D01*
%TO.C,U4*%
X92098380Y-129529904D02*
X92907904Y-129529904D01*
X93003142Y-129482285D01*
X93050761Y-129434666D01*
X93098380Y-129339428D01*
X93098380Y-129148952D01*
X93050761Y-129053714D01*
X93003142Y-129006095D01*
X92907904Y-128958476D01*
X92098380Y-128958476D01*
X92431714Y-128053714D02*
X93098380Y-128053714D01*
X92050761Y-128291809D02*
X92765047Y-128529904D01*
X92765047Y-127910857D01*
X111998380Y-131410857D02*
X111998380Y-130744190D01*
X112998380Y-131172761D01*
X112331714Y-129934666D02*
X112998380Y-129934666D01*
X111950761Y-130172761D02*
X112665047Y-130410857D01*
X112665047Y-129791809D01*
X112998380Y-128934666D02*
X112998380Y-129410857D01*
X111998380Y-129410857D01*
X112950761Y-128648952D02*
X112998380Y-128506095D01*
X112998380Y-128268000D01*
X112950761Y-128172761D01*
X112903142Y-128125142D01*
X112807904Y-128077523D01*
X112712666Y-128077523D01*
X112617428Y-128125142D01*
X112569809Y-128172761D01*
X112522190Y-128268000D01*
X112474571Y-128458476D01*
X112426952Y-128553714D01*
X112379333Y-128601333D01*
X112284095Y-128648952D01*
X112188857Y-128648952D01*
X112093619Y-128601333D01*
X112046000Y-128553714D01*
X111998380Y-128458476D01*
X111998380Y-128220380D01*
X112046000Y-128077523D01*
X111998380Y-127458476D02*
X111998380Y-127363238D01*
X112046000Y-127268000D01*
X112093619Y-127220380D01*
X112188857Y-127172761D01*
X112379333Y-127125142D01*
X112617428Y-127125142D01*
X112807904Y-127172761D01*
X112903142Y-127220380D01*
X112950761Y-127268000D01*
X112998380Y-127363238D01*
X112998380Y-127458476D01*
X112950761Y-127553714D01*
X112903142Y-127601333D01*
X112807904Y-127648952D01*
X112617428Y-127696571D01*
X112379333Y-127696571D01*
X112188857Y-127648952D01*
X112093619Y-127601333D01*
X112046000Y-127553714D01*
X111998380Y-127458476D01*
X112331714Y-126268000D02*
X112998380Y-126268000D01*
X111950761Y-126506095D02*
X112665047Y-126744190D01*
X112665047Y-126125142D01*
%TO.C,U9*%
X23406380Y-154548904D02*
X24215904Y-154548904D01*
X24311142Y-154501285D01*
X24358761Y-154453666D01*
X24406380Y-154358428D01*
X24406380Y-154167952D01*
X24358761Y-154072714D01*
X24311142Y-154025095D01*
X24215904Y-153977476D01*
X23406380Y-153977476D01*
X24406380Y-153453666D02*
X24406380Y-153263190D01*
X24358761Y-153167952D01*
X24311142Y-153120333D01*
X24168285Y-153025095D01*
X23977809Y-152977476D01*
X23596857Y-152977476D01*
X23501619Y-153025095D01*
X23454000Y-153072714D01*
X23406380Y-153167952D01*
X23406380Y-153358428D01*
X23454000Y-153453666D01*
X23501619Y-153501285D01*
X23596857Y-153548904D01*
X23834952Y-153548904D01*
X23930190Y-153501285D01*
X23977809Y-153453666D01*
X24025428Y-153358428D01*
X24025428Y-153167952D01*
X23977809Y-153072714D01*
X23930190Y-153025095D01*
X23834952Y-152977476D01*
%TO.C,U11*%
X23909380Y-119338095D02*
X24718904Y-119338095D01*
X24814142Y-119290476D01*
X24861761Y-119242857D01*
X24909380Y-119147619D01*
X24909380Y-118957142D01*
X24861761Y-118861904D01*
X24814142Y-118814285D01*
X24718904Y-118766666D01*
X23909380Y-118766666D01*
X24909380Y-117766666D02*
X24909380Y-118338095D01*
X24909380Y-118052380D02*
X23909380Y-118052380D01*
X24052238Y-118147619D01*
X24147476Y-118242857D01*
X24195095Y-118338095D01*
X24909380Y-116814285D02*
X24909380Y-117385714D01*
X24909380Y-117100000D02*
X23909380Y-117100000D01*
X24052238Y-117195238D01*
X24147476Y-117290476D01*
X24195095Y-117385714D01*
X46349380Y-121219047D02*
X46349380Y-120552380D01*
X47349380Y-120980952D01*
X46682714Y-119742857D02*
X47349380Y-119742857D01*
X46301761Y-119980952D02*
X47016047Y-120219047D01*
X47016047Y-119600000D01*
X47349380Y-118742857D02*
X47349380Y-119219047D01*
X46349380Y-119219047D01*
X47301761Y-118457142D02*
X47349380Y-118314285D01*
X47349380Y-118076190D01*
X47301761Y-117980952D01*
X47254142Y-117933333D01*
X47158904Y-117885714D01*
X47063666Y-117885714D01*
X46968428Y-117933333D01*
X46920809Y-117980952D01*
X46873190Y-118076190D01*
X46825571Y-118266666D01*
X46777952Y-118361904D01*
X46730333Y-118409523D01*
X46635095Y-118457142D01*
X46539857Y-118457142D01*
X46444619Y-118409523D01*
X46397000Y-118361904D01*
X46349380Y-118266666D01*
X46349380Y-118028571D01*
X46397000Y-117885714D01*
X47349380Y-116933333D02*
X47349380Y-117504761D01*
X47349380Y-117219047D02*
X46349380Y-117219047D01*
X46492238Y-117314285D01*
X46587476Y-117409523D01*
X46635095Y-117504761D01*
X46444619Y-116552380D02*
X46397000Y-116504761D01*
X46349380Y-116409523D01*
X46349380Y-116171428D01*
X46397000Y-116076190D01*
X46444619Y-116028571D01*
X46539857Y-115980952D01*
X46635095Y-115980952D01*
X46777952Y-116028571D01*
X47349380Y-116600000D01*
X47349380Y-115980952D01*
X46349380Y-115647619D02*
X46349380Y-115028571D01*
X46730333Y-115361904D01*
X46730333Y-115219047D01*
X46777952Y-115123809D01*
X46825571Y-115076190D01*
X46920809Y-115028571D01*
X47158904Y-115028571D01*
X47254142Y-115076190D01*
X47301761Y-115123809D01*
X47349380Y-115219047D01*
X47349380Y-115504761D01*
X47301761Y-115600000D01*
X47254142Y-115647619D01*
%TO.C,C8*%
X50776142Y-141838666D02*
X50823761Y-141886285D01*
X50871380Y-142029142D01*
X50871380Y-142124380D01*
X50823761Y-142267238D01*
X50728523Y-142362476D01*
X50633285Y-142410095D01*
X50442809Y-142457714D01*
X50299952Y-142457714D01*
X50109476Y-142410095D01*
X50014238Y-142362476D01*
X49919000Y-142267238D01*
X49871380Y-142124380D01*
X49871380Y-142029142D01*
X49919000Y-141886285D01*
X49966619Y-141838666D01*
X50299952Y-141267238D02*
X50252333Y-141362476D01*
X50204714Y-141410095D01*
X50109476Y-141457714D01*
X50061857Y-141457714D01*
X49966619Y-141410095D01*
X49919000Y-141362476D01*
X49871380Y-141267238D01*
X49871380Y-141076761D01*
X49919000Y-140981523D01*
X49966619Y-140933904D01*
X50061857Y-140886285D01*
X50109476Y-140886285D01*
X50204714Y-140933904D01*
X50252333Y-140981523D01*
X50299952Y-141076761D01*
X50299952Y-141267238D01*
X50347571Y-141362476D01*
X50395190Y-141410095D01*
X50490428Y-141457714D01*
X50680904Y-141457714D01*
X50776142Y-141410095D01*
X50823761Y-141362476D01*
X50871380Y-141267238D01*
X50871380Y-141076761D01*
X50823761Y-140981523D01*
X50776142Y-140933904D01*
X50680904Y-140886285D01*
X50490428Y-140886285D01*
X50395190Y-140933904D01*
X50347571Y-140981523D01*
X50299952Y-141076761D01*
X53443142Y-142886285D02*
X53490761Y-142838666D01*
X53538380Y-142886285D01*
X53490761Y-142933904D01*
X53443142Y-142886285D01*
X53538380Y-142886285D01*
X53538380Y-141886285D02*
X53538380Y-142457714D01*
X53538380Y-142172000D02*
X52538380Y-142172000D01*
X52681238Y-142267238D01*
X52776476Y-142362476D01*
X52824095Y-142457714D01*
X52871714Y-141029142D02*
X53538380Y-141029142D01*
X52871714Y-141457714D02*
X53395523Y-141457714D01*
X53490761Y-141410095D01*
X53538380Y-141314857D01*
X53538380Y-141172000D01*
X53490761Y-141076761D01*
X53443142Y-141029142D01*
X52871714Y-140695809D02*
X52871714Y-140314857D01*
X53538380Y-140552952D02*
X52681238Y-140552952D01*
X52586000Y-140505333D01*
X52538380Y-140410095D01*
X52538380Y-140314857D01*
%TO.C,C3*%
X98267142Y-104814666D02*
X98314761Y-104862285D01*
X98362380Y-105005142D01*
X98362380Y-105100380D01*
X98314761Y-105243238D01*
X98219523Y-105338476D01*
X98124285Y-105386095D01*
X97933809Y-105433714D01*
X97790952Y-105433714D01*
X97600476Y-105386095D01*
X97505238Y-105338476D01*
X97410000Y-105243238D01*
X97362380Y-105100380D01*
X97362380Y-105005142D01*
X97410000Y-104862285D01*
X97457619Y-104814666D01*
X97362380Y-104481333D02*
X97362380Y-103862285D01*
X97743333Y-104195619D01*
X97743333Y-104052761D01*
X97790952Y-103957523D01*
X97838571Y-103909904D01*
X97933809Y-103862285D01*
X98171904Y-103862285D01*
X98267142Y-103909904D01*
X98314761Y-103957523D01*
X98362380Y-104052761D01*
X98362380Y-104338476D01*
X98314761Y-104433714D01*
X98267142Y-104481333D01*
X100687142Y-106338476D02*
X100734761Y-106290857D01*
X100782380Y-106338476D01*
X100734761Y-106386095D01*
X100687142Y-106338476D01*
X100782380Y-106338476D01*
X99782380Y-105671809D02*
X99782380Y-105576571D01*
X99830000Y-105481333D01*
X99877619Y-105433714D01*
X99972857Y-105386095D01*
X100163333Y-105338476D01*
X100401428Y-105338476D01*
X100591904Y-105386095D01*
X100687142Y-105433714D01*
X100734761Y-105481333D01*
X100782380Y-105576571D01*
X100782380Y-105671809D01*
X100734761Y-105767047D01*
X100687142Y-105814666D01*
X100591904Y-105862285D01*
X100401428Y-105909904D01*
X100163333Y-105909904D01*
X99972857Y-105862285D01*
X99877619Y-105814666D01*
X99830000Y-105767047D01*
X99782380Y-105671809D01*
X100782380Y-104386095D02*
X100782380Y-104957523D01*
X100782380Y-104671809D02*
X99782380Y-104671809D01*
X99925238Y-104767047D01*
X100020476Y-104862285D01*
X100068095Y-104957523D01*
X100115714Y-103528952D02*
X100782380Y-103528952D01*
X100115714Y-103957523D02*
X100639523Y-103957523D01*
X100734761Y-103909904D01*
X100782380Y-103814666D01*
X100782380Y-103671809D01*
X100734761Y-103576571D01*
X100687142Y-103528952D01*
X100115714Y-103195619D02*
X100115714Y-102814666D01*
X100782380Y-103052761D02*
X99925238Y-103052761D01*
X99830000Y-103005142D01*
X99782380Y-102909904D01*
X99782380Y-102814666D01*
%TO.C,JP1*%
X46664666Y-150411380D02*
X46664666Y-151125666D01*
X46617047Y-151268523D01*
X46521809Y-151363761D01*
X46378952Y-151411380D01*
X46283714Y-151411380D01*
X47140857Y-151411380D02*
X47140857Y-150411380D01*
X47521809Y-150411380D01*
X47617047Y-150459000D01*
X47664666Y-150506619D01*
X47712285Y-150601857D01*
X47712285Y-150744714D01*
X47664666Y-150839952D01*
X47617047Y-150887571D01*
X47521809Y-150935190D01*
X47140857Y-150935190D01*
X48664666Y-151411380D02*
X48093238Y-151411380D01*
X48378952Y-151411380D02*
X48378952Y-150411380D01*
X48283714Y-150554238D01*
X48188476Y-150649476D01*
X48093238Y-150697095D01*
%TO.C,R2*%
X30424380Y-129452666D02*
X29948190Y-129786000D01*
X30424380Y-130024095D02*
X29424380Y-130024095D01*
X29424380Y-129643142D01*
X29472000Y-129547904D01*
X29519619Y-129500285D01*
X29614857Y-129452666D01*
X29757714Y-129452666D01*
X29852952Y-129500285D01*
X29900571Y-129547904D01*
X29948190Y-129643142D01*
X29948190Y-130024095D01*
X29519619Y-129071714D02*
X29472000Y-129024095D01*
X29424380Y-128928857D01*
X29424380Y-128690761D01*
X29472000Y-128595523D01*
X29519619Y-128547904D01*
X29614857Y-128500285D01*
X29710095Y-128500285D01*
X29852952Y-128547904D01*
X30424380Y-129119333D01*
X30424380Y-128500285D01*
X31710380Y-130865380D02*
X31710380Y-130246333D01*
X32091333Y-130579666D01*
X32091333Y-130436809D01*
X32138952Y-130341571D01*
X32186571Y-130293952D01*
X32281809Y-130246333D01*
X32519904Y-130246333D01*
X32615142Y-130293952D01*
X32662761Y-130341571D01*
X32710380Y-130436809D01*
X32710380Y-130722523D01*
X32662761Y-130817761D01*
X32615142Y-130865380D01*
X32615142Y-129817761D02*
X32662761Y-129770142D01*
X32710380Y-129817761D01*
X32662761Y-129865380D01*
X32615142Y-129817761D01*
X32710380Y-129817761D01*
X31710380Y-129436809D02*
X31710380Y-128817761D01*
X32091333Y-129151095D01*
X32091333Y-129008238D01*
X32138952Y-128913000D01*
X32186571Y-128865380D01*
X32281809Y-128817761D01*
X32519904Y-128817761D01*
X32615142Y-128865380D01*
X32662761Y-128913000D01*
X32710380Y-129008238D01*
X32710380Y-129293952D01*
X32662761Y-129389190D01*
X32615142Y-129436809D01*
X32710380Y-128389190D02*
X31710380Y-128389190D01*
X32329428Y-128293952D02*
X32710380Y-128008238D01*
X32043714Y-128008238D02*
X32424666Y-128389190D01*
%TO.C,C4*%
X88272142Y-128817666D02*
X88319761Y-128865285D01*
X88367380Y-129008142D01*
X88367380Y-129103380D01*
X88319761Y-129246238D01*
X88224523Y-129341476D01*
X88129285Y-129389095D01*
X87938809Y-129436714D01*
X87795952Y-129436714D01*
X87605476Y-129389095D01*
X87510238Y-129341476D01*
X87415000Y-129246238D01*
X87367380Y-129103380D01*
X87367380Y-129008142D01*
X87415000Y-128865285D01*
X87462619Y-128817666D01*
X87700714Y-127960523D02*
X88367380Y-127960523D01*
X87319761Y-128198619D02*
X88034047Y-128436714D01*
X88034047Y-127817666D01*
X90558142Y-129932285D02*
X90605761Y-129884666D01*
X90653380Y-129932285D01*
X90605761Y-129979904D01*
X90558142Y-129932285D01*
X90653380Y-129932285D01*
X90653380Y-128932285D02*
X90653380Y-129503714D01*
X90653380Y-129218000D02*
X89653380Y-129218000D01*
X89796238Y-129313238D01*
X89891476Y-129408476D01*
X89939095Y-129503714D01*
X89986714Y-128075142D02*
X90653380Y-128075142D01*
X89986714Y-128503714D02*
X90510523Y-128503714D01*
X90605761Y-128456095D01*
X90653380Y-128360857D01*
X90653380Y-128218000D01*
X90605761Y-128122761D01*
X90558142Y-128075142D01*
X89986714Y-127741809D02*
X89986714Y-127360857D01*
X90653380Y-127598952D02*
X89796238Y-127598952D01*
X89701000Y-127551333D01*
X89653380Y-127456095D01*
X89653380Y-127360857D01*
%TO.C,R4*%
X60607380Y-105830666D02*
X60131190Y-106164000D01*
X60607380Y-106402095D02*
X59607380Y-106402095D01*
X59607380Y-106021142D01*
X59655000Y-105925904D01*
X59702619Y-105878285D01*
X59797857Y-105830666D01*
X59940714Y-105830666D01*
X60035952Y-105878285D01*
X60083571Y-105925904D01*
X60131190Y-106021142D01*
X60131190Y-106402095D01*
X59940714Y-104973523D02*
X60607380Y-104973523D01*
X59559761Y-105211619D02*
X60274047Y-105449714D01*
X60274047Y-104830666D01*
X57570714Y-106846571D02*
X58237380Y-106846571D01*
X57189761Y-107084666D02*
X57904047Y-107322761D01*
X57904047Y-106703714D01*
X58142142Y-106322761D02*
X58189761Y-106275142D01*
X58237380Y-106322761D01*
X58189761Y-106370380D01*
X58142142Y-106322761D01*
X58237380Y-106322761D01*
X57237380Y-105941809D02*
X57237380Y-105275142D01*
X58237380Y-105703714D01*
X58237380Y-104894190D02*
X57237380Y-104894190D01*
X57856428Y-104798952D02*
X58237380Y-104513238D01*
X57570714Y-104513238D02*
X57951666Y-104894190D01*
%TO.C,U13*%
X55547380Y-118195095D02*
X56356904Y-118195095D01*
X56452142Y-118147476D01*
X56499761Y-118099857D01*
X56547380Y-118004619D01*
X56547380Y-117814142D01*
X56499761Y-117718904D01*
X56452142Y-117671285D01*
X56356904Y-117623666D01*
X55547380Y-117623666D01*
X56547380Y-116623666D02*
X56547380Y-117195095D01*
X56547380Y-116909380D02*
X55547380Y-116909380D01*
X55690238Y-117004619D01*
X55785476Y-117099857D01*
X55833095Y-117195095D01*
X55547380Y-116290333D02*
X55547380Y-115671285D01*
X55928333Y-116004619D01*
X55928333Y-115861761D01*
X55975952Y-115766523D01*
X56023571Y-115718904D01*
X56118809Y-115671285D01*
X56356904Y-115671285D01*
X56452142Y-115718904D01*
X56499761Y-115766523D01*
X56547380Y-115861761D01*
X56547380Y-116147476D01*
X56499761Y-116242714D01*
X56452142Y-116290333D01*
%TO.C,JP2*%
X79811666Y-75144380D02*
X79811666Y-75858666D01*
X79764047Y-76001523D01*
X79668809Y-76096761D01*
X79525952Y-76144380D01*
X79430714Y-76144380D01*
X80287857Y-76144380D02*
X80287857Y-75144380D01*
X80668809Y-75144380D01*
X80764047Y-75192000D01*
X80811666Y-75239619D01*
X80859285Y-75334857D01*
X80859285Y-75477714D01*
X80811666Y-75572952D01*
X80764047Y-75620571D01*
X80668809Y-75668190D01*
X80287857Y-75668190D01*
X81240238Y-75239619D02*
X81287857Y-75192000D01*
X81383095Y-75144380D01*
X81621190Y-75144380D01*
X81716428Y-75192000D01*
X81764047Y-75239619D01*
X81811666Y-75334857D01*
X81811666Y-75430095D01*
X81764047Y-75572952D01*
X81192619Y-76144380D01*
X81811666Y-76144380D01*
%TO.C,X1*%
X19220380Y-91868523D02*
X20220380Y-91201857D01*
X19220380Y-91201857D02*
X20220380Y-91868523D01*
X20220380Y-90297095D02*
X20220380Y-90868523D01*
X20220380Y-90582809D02*
X19220380Y-90582809D01*
X19363238Y-90678047D01*
X19458476Y-90773285D01*
X19506095Y-90868523D01*
X40025142Y-96606619D02*
X40072761Y-96654238D01*
X40120380Y-96797095D01*
X40120380Y-96892333D01*
X40072761Y-97035190D01*
X39977523Y-97130428D01*
X39882285Y-97178047D01*
X39691809Y-97225666D01*
X39548952Y-97225666D01*
X39358476Y-97178047D01*
X39263238Y-97130428D01*
X39168000Y-97035190D01*
X39120380Y-96892333D01*
X39120380Y-96797095D01*
X39168000Y-96654238D01*
X39215619Y-96606619D01*
X39120380Y-96273285D02*
X40120380Y-95606619D01*
X39120380Y-95606619D02*
X40120380Y-96273285D01*
X39120380Y-95035190D02*
X39120380Y-94844714D01*
X39168000Y-94749476D01*
X39263238Y-94654238D01*
X39453714Y-94606619D01*
X39787047Y-94606619D01*
X39977523Y-94654238D01*
X40072761Y-94749476D01*
X40120380Y-94844714D01*
X40120380Y-95035190D01*
X40072761Y-95130428D01*
X39977523Y-95225666D01*
X39787047Y-95273285D01*
X39453714Y-95273285D01*
X39263238Y-95225666D01*
X39168000Y-95130428D01*
X39120380Y-95035190D01*
X40215619Y-94416142D02*
X40215619Y-93654238D01*
X40120380Y-93416142D02*
X39120380Y-93416142D01*
X39120380Y-93178047D01*
X39168000Y-93035190D01*
X39263238Y-92939952D01*
X39358476Y-92892333D01*
X39548952Y-92844714D01*
X39691809Y-92844714D01*
X39882285Y-92892333D01*
X39977523Y-92939952D01*
X40072761Y-93035190D01*
X40120380Y-93178047D01*
X40120380Y-93416142D01*
X40120380Y-92416142D02*
X39120380Y-92416142D01*
X40120380Y-91939952D02*
X39120380Y-91939952D01*
X39120380Y-91559000D01*
X39168000Y-91463761D01*
X39215619Y-91416142D01*
X39310857Y-91368523D01*
X39453714Y-91368523D01*
X39548952Y-91416142D01*
X39596571Y-91463761D01*
X39644190Y-91559000D01*
X39644190Y-91939952D01*
X40120380Y-90416142D02*
X40120380Y-90987571D01*
X40120380Y-90701857D02*
X39120380Y-90701857D01*
X39263238Y-90797095D01*
X39358476Y-90892333D01*
X39406095Y-90987571D01*
X39453714Y-89559000D02*
X40120380Y-89559000D01*
X39072761Y-89797095D02*
X39787047Y-90035190D01*
X39787047Y-89416142D01*
X39453714Y-87844714D02*
X40120380Y-87844714D01*
X39072761Y-88082809D02*
X39787047Y-88320904D01*
X39787047Y-87701857D01*
X40120380Y-87320904D02*
X39120380Y-87320904D01*
X39834666Y-86987571D01*
X39120380Y-86654238D01*
X40120380Y-86654238D01*
X40120380Y-86178047D02*
X39120380Y-86178047D01*
X40120380Y-85749476D02*
X39596571Y-85749476D01*
X39501333Y-85797095D01*
X39453714Y-85892333D01*
X39453714Y-86035190D01*
X39501333Y-86130428D01*
X39548952Y-86178047D01*
X39453714Y-85368523D02*
X39453714Y-84844714D01*
X40120380Y-85368523D01*
X40120380Y-84844714D01*
%TO.C,U3*%
X93896380Y-94360904D02*
X94705904Y-94360904D01*
X94801142Y-94313285D01*
X94848761Y-94265666D01*
X94896380Y-94170428D01*
X94896380Y-93979952D01*
X94848761Y-93884714D01*
X94801142Y-93837095D01*
X94705904Y-93789476D01*
X93896380Y-93789476D01*
X93896380Y-93408523D02*
X93896380Y-92789476D01*
X94277333Y-93122809D01*
X94277333Y-92979952D01*
X94324952Y-92884714D01*
X94372571Y-92837095D01*
X94467809Y-92789476D01*
X94705904Y-92789476D01*
X94801142Y-92837095D01*
X94848761Y-92884714D01*
X94896380Y-92979952D01*
X94896380Y-93265666D01*
X94848761Y-93360904D01*
X94801142Y-93408523D01*
X107259380Y-96948190D02*
X107259380Y-97424380D01*
X106259380Y-97424380D01*
X106259380Y-96757714D02*
X106259380Y-96186285D01*
X107259380Y-96472000D02*
X106259380Y-96472000D01*
X107259380Y-95329142D02*
X107259380Y-95900571D01*
X107259380Y-95614857D02*
X106259380Y-95614857D01*
X106402238Y-95710095D01*
X106497476Y-95805333D01*
X106545095Y-95900571D01*
X106259380Y-94995809D02*
X106259380Y-94376761D01*
X106640333Y-94710095D01*
X106640333Y-94567238D01*
X106687952Y-94472000D01*
X106735571Y-94424380D01*
X106830809Y-94376761D01*
X107068904Y-94376761D01*
X107164142Y-94424380D01*
X107211761Y-94472000D01*
X107259380Y-94567238D01*
X107259380Y-94852952D01*
X107211761Y-94948190D01*
X107164142Y-94995809D01*
X106259380Y-94043428D02*
X106259380Y-93376761D01*
X107259380Y-93805333D01*
X106259380Y-93091047D02*
X106259380Y-92472000D01*
X106640333Y-92805333D01*
X106640333Y-92662476D01*
X106687952Y-92567238D01*
X106735571Y-92519619D01*
X106830809Y-92472000D01*
X107068904Y-92472000D01*
X107164142Y-92519619D01*
X107211761Y-92567238D01*
X107259380Y-92662476D01*
X107259380Y-92948190D01*
X107211761Y-93043428D01*
X107164142Y-93091047D01*
X107164142Y-91472000D02*
X107211761Y-91519619D01*
X107259380Y-91662476D01*
X107259380Y-91757714D01*
X107211761Y-91900571D01*
X107116523Y-91995809D01*
X107021285Y-92043428D01*
X106830809Y-92091047D01*
X106687952Y-92091047D01*
X106497476Y-92043428D01*
X106402238Y-91995809D01*
X106307000Y-91900571D01*
X106259380Y-91757714D01*
X106259380Y-91662476D01*
X106307000Y-91519619D01*
X106354619Y-91472000D01*
X107259380Y-91043428D02*
X106259380Y-91043428D01*
X107259380Y-90472000D01*
X106259380Y-90472000D01*
X106687952Y-89852952D02*
X106640333Y-89948190D01*
X106592714Y-89995809D01*
X106497476Y-90043428D01*
X106449857Y-90043428D01*
X106354619Y-89995809D01*
X106307000Y-89948190D01*
X106259380Y-89852952D01*
X106259380Y-89662476D01*
X106307000Y-89567238D01*
X106354619Y-89519619D01*
X106449857Y-89472000D01*
X106497476Y-89472000D01*
X106592714Y-89519619D01*
X106640333Y-89567238D01*
X106687952Y-89662476D01*
X106687952Y-89852952D01*
X106735571Y-89948190D01*
X106783190Y-89995809D01*
X106878428Y-90043428D01*
X107068904Y-90043428D01*
X107164142Y-89995809D01*
X107211761Y-89948190D01*
X107259380Y-89852952D01*
X107259380Y-89662476D01*
X107211761Y-89567238D01*
X107164142Y-89519619D01*
X107068904Y-89472000D01*
X106878428Y-89472000D01*
X106783190Y-89519619D01*
X106735571Y-89567238D01*
X106687952Y-89662476D01*
%TO.C,C14*%
X51157142Y-154506857D02*
X51204761Y-154554476D01*
X51252380Y-154697333D01*
X51252380Y-154792571D01*
X51204761Y-154935428D01*
X51109523Y-155030666D01*
X51014285Y-155078285D01*
X50823809Y-155125904D01*
X50680952Y-155125904D01*
X50490476Y-155078285D01*
X50395238Y-155030666D01*
X50300000Y-154935428D01*
X50252380Y-154792571D01*
X50252380Y-154697333D01*
X50300000Y-154554476D01*
X50347619Y-154506857D01*
X51252380Y-153554476D02*
X51252380Y-154125904D01*
X51252380Y-153840190D02*
X50252380Y-153840190D01*
X50395238Y-153935428D01*
X50490476Y-154030666D01*
X50538095Y-154125904D01*
X50585714Y-152697333D02*
X51252380Y-152697333D01*
X50204761Y-152935428D02*
X50919047Y-153173523D01*
X50919047Y-152554476D01*
X53824142Y-155078285D02*
X53871761Y-155030666D01*
X53919380Y-155078285D01*
X53871761Y-155125904D01*
X53824142Y-155078285D01*
X53919380Y-155078285D01*
X53919380Y-154078285D02*
X53919380Y-154649714D01*
X53919380Y-154364000D02*
X52919380Y-154364000D01*
X53062238Y-154459238D01*
X53157476Y-154554476D01*
X53205095Y-154649714D01*
X53252714Y-153221142D02*
X53919380Y-153221142D01*
X53252714Y-153649714D02*
X53776523Y-153649714D01*
X53871761Y-153602095D01*
X53919380Y-153506857D01*
X53919380Y-153364000D01*
X53871761Y-153268761D01*
X53824142Y-153221142D01*
X53252714Y-152887809D02*
X53252714Y-152506857D01*
X53919380Y-152744952D02*
X53062238Y-152744952D01*
X52967000Y-152697333D01*
X52919380Y-152602095D01*
X52919380Y-152506857D01*
%TO.C,L1*%
X101179333Y-84018380D02*
X100703142Y-84018380D01*
X100703142Y-83018380D01*
X102036476Y-84018380D02*
X101465047Y-84018380D01*
X101750761Y-84018380D02*
X101750761Y-83018380D01*
X101655523Y-83161238D01*
X101560285Y-83256476D01*
X101465047Y-83304095D01*
X99861904Y-85653619D02*
X99909523Y-85606000D01*
X100004761Y-85558380D01*
X100242857Y-85558380D01*
X100338095Y-85606000D01*
X100385714Y-85653619D01*
X100433333Y-85748857D01*
X100433333Y-85844095D01*
X100385714Y-85986952D01*
X99814285Y-86558380D01*
X100433333Y-86558380D01*
X100814285Y-85653619D02*
X100861904Y-85606000D01*
X100957142Y-85558380D01*
X101195238Y-85558380D01*
X101290476Y-85606000D01*
X101338095Y-85653619D01*
X101385714Y-85748857D01*
X101385714Y-85844095D01*
X101338095Y-85986952D01*
X100766666Y-86558380D01*
X101385714Y-86558380D01*
X102242857Y-85891714D02*
X102242857Y-86558380D01*
X101814285Y-85891714D02*
X101814285Y-86415523D01*
X101861904Y-86510761D01*
X101957142Y-86558380D01*
X102100000Y-86558380D01*
X102195238Y-86510761D01*
X102242857Y-86463142D01*
X102719047Y-86558380D02*
X102719047Y-85558380D01*
X102719047Y-86034571D02*
X103290476Y-86034571D01*
X103290476Y-86558380D02*
X103290476Y-85558380D01*
%TO.C,U6*%
X23924380Y-105780904D02*
X24733904Y-105780904D01*
X24829142Y-105733285D01*
X24876761Y-105685666D01*
X24924380Y-105590428D01*
X24924380Y-105399952D01*
X24876761Y-105304714D01*
X24829142Y-105257095D01*
X24733904Y-105209476D01*
X23924380Y-105209476D01*
X23924380Y-104304714D02*
X23924380Y-104495190D01*
X23972000Y-104590428D01*
X24019619Y-104638047D01*
X24162476Y-104733285D01*
X24352952Y-104780904D01*
X24733904Y-104780904D01*
X24829142Y-104733285D01*
X24876761Y-104685666D01*
X24924380Y-104590428D01*
X24924380Y-104399952D01*
X24876761Y-104304714D01*
X24829142Y-104257095D01*
X24733904Y-104209476D01*
X24495809Y-104209476D01*
X24400571Y-104257095D01*
X24352952Y-104304714D01*
X24305333Y-104399952D01*
X24305333Y-104590428D01*
X24352952Y-104685666D01*
X24400571Y-104733285D01*
X24495809Y-104780904D01*
X51444380Y-108138047D02*
X51444380Y-107471380D01*
X52444380Y-107899952D01*
X51777714Y-106661857D02*
X52444380Y-106661857D01*
X51396761Y-106899952D02*
X52111047Y-107138047D01*
X52111047Y-106519000D01*
X52444380Y-105661857D02*
X52444380Y-106138047D01*
X51444380Y-106138047D01*
X52396761Y-105376142D02*
X52444380Y-105233285D01*
X52444380Y-104995190D01*
X52396761Y-104899952D01*
X52349142Y-104852333D01*
X52253904Y-104804714D01*
X52158666Y-104804714D01*
X52063428Y-104852333D01*
X52015809Y-104899952D01*
X51968190Y-104995190D01*
X51920571Y-105185666D01*
X51872952Y-105280904D01*
X51825333Y-105328523D01*
X51730095Y-105376142D01*
X51634857Y-105376142D01*
X51539619Y-105328523D01*
X51492000Y-105280904D01*
X51444380Y-105185666D01*
X51444380Y-104947571D01*
X51492000Y-104804714D01*
X51444380Y-104471380D02*
X51444380Y-103852333D01*
X51825333Y-104185666D01*
X51825333Y-104042809D01*
X51872952Y-103947571D01*
X51920571Y-103899952D01*
X52015809Y-103852333D01*
X52253904Y-103852333D01*
X52349142Y-103899952D01*
X52396761Y-103947571D01*
X52444380Y-104042809D01*
X52444380Y-104328523D01*
X52396761Y-104423761D01*
X52349142Y-104471380D01*
X51444380Y-103519000D02*
X51444380Y-102852333D01*
X52444380Y-103280904D01*
X51777714Y-102042809D02*
X52444380Y-102042809D01*
X51396761Y-102280904D02*
X52111047Y-102519000D01*
X52111047Y-101899952D01*
%TO.C,SW1*%
X112950761Y-154664833D02*
X112998380Y-154521976D01*
X112998380Y-154283880D01*
X112950761Y-154188642D01*
X112903142Y-154141023D01*
X112807904Y-154093404D01*
X112712666Y-154093404D01*
X112617428Y-154141023D01*
X112569809Y-154188642D01*
X112522190Y-154283880D01*
X112474571Y-154474357D01*
X112426952Y-154569595D01*
X112379333Y-154617214D01*
X112284095Y-154664833D01*
X112188857Y-154664833D01*
X112093619Y-154617214D01*
X112046000Y-154569595D01*
X111998380Y-154474357D01*
X111998380Y-154236261D01*
X112046000Y-154093404D01*
X111998380Y-153760071D02*
X112998380Y-153521976D01*
X112284095Y-153331500D01*
X112998380Y-153141023D01*
X111998380Y-152902928D01*
X112998380Y-151998166D02*
X112998380Y-152569595D01*
X112998380Y-152283880D02*
X111998380Y-152283880D01*
X112141238Y-152379119D01*
X112236476Y-152474357D01*
X112284095Y-152569595D01*
%TO.C,D1*%
X96035904Y-78684380D02*
X96035904Y-77684380D01*
X96274000Y-77684380D01*
X96416857Y-77732000D01*
X96512095Y-77827238D01*
X96559714Y-77922476D01*
X96607333Y-78112952D01*
X96607333Y-78255809D01*
X96559714Y-78446285D01*
X96512095Y-78541523D01*
X96416857Y-78636761D01*
X96274000Y-78684380D01*
X96035904Y-78684380D01*
X97559714Y-78684380D02*
X96988285Y-78684380D01*
X97274000Y-78684380D02*
X97274000Y-77684380D01*
X97178761Y-77827238D01*
X97083523Y-77922476D01*
X96988285Y-77970095D01*
X95147000Y-80834666D02*
X94747000Y-80834666D01*
X94947000Y-80834666D02*
X94947000Y-80134666D01*
X94880333Y-80234666D01*
X94813666Y-80301333D01*
X94747000Y-80334666D01*
X95447000Y-80834666D02*
X95447000Y-80134666D01*
X95847000Y-80834666D01*
X95847000Y-80134666D01*
X96513666Y-80134666D02*
X96180333Y-80134666D01*
X96147000Y-80468000D01*
X96180333Y-80434666D01*
X96247000Y-80401333D01*
X96413666Y-80401333D01*
X96480333Y-80434666D01*
X96513666Y-80468000D01*
X96547000Y-80534666D01*
X96547000Y-80701333D01*
X96513666Y-80768000D01*
X96480333Y-80801333D01*
X96413666Y-80834666D01*
X96247000Y-80834666D01*
X96180333Y-80801333D01*
X96147000Y-80768000D01*
X96947000Y-80434666D02*
X96880333Y-80401333D01*
X96847000Y-80368000D01*
X96813666Y-80301333D01*
X96813666Y-80268000D01*
X96847000Y-80201333D01*
X96880333Y-80168000D01*
X96947000Y-80134666D01*
X97080333Y-80134666D01*
X97147000Y-80168000D01*
X97180333Y-80201333D01*
X97213666Y-80268000D01*
X97213666Y-80301333D01*
X97180333Y-80368000D01*
X97147000Y-80401333D01*
X97080333Y-80434666D01*
X96947000Y-80434666D01*
X96880333Y-80468000D01*
X96847000Y-80501333D01*
X96813666Y-80568000D01*
X96813666Y-80701333D01*
X96847000Y-80768000D01*
X96880333Y-80801333D01*
X96947000Y-80834666D01*
X97080333Y-80834666D01*
X97147000Y-80801333D01*
X97180333Y-80768000D01*
X97213666Y-80701333D01*
X97213666Y-80568000D01*
X97180333Y-80501333D01*
X97147000Y-80468000D01*
X97080333Y-80434666D01*
X97880333Y-80834666D02*
X97480333Y-80834666D01*
X97680333Y-80834666D02*
X97680333Y-80134666D01*
X97613666Y-80234666D01*
X97547000Y-80301333D01*
X97480333Y-80334666D01*
X98280333Y-80434666D02*
X98213666Y-80401333D01*
X98180333Y-80368000D01*
X98147000Y-80301333D01*
X98147000Y-80268000D01*
X98180333Y-80201333D01*
X98213666Y-80168000D01*
X98280333Y-80134666D01*
X98413666Y-80134666D01*
X98480333Y-80168000D01*
X98513666Y-80201333D01*
X98547000Y-80268000D01*
X98547000Y-80301333D01*
X98513666Y-80368000D01*
X98480333Y-80401333D01*
X98413666Y-80434666D01*
X98280333Y-80434666D01*
X98213666Y-80468000D01*
X98180333Y-80501333D01*
X98147000Y-80568000D01*
X98147000Y-80701333D01*
X98180333Y-80768000D01*
X98213666Y-80801333D01*
X98280333Y-80834666D01*
X98413666Y-80834666D01*
X98480333Y-80801333D01*
X98513666Y-80768000D01*
X98547000Y-80701333D01*
X98547000Y-80568000D01*
X98513666Y-80501333D01*
X98480333Y-80468000D01*
X98413666Y-80434666D01*
%TO.C,U14*%
X55156380Y-155152095D02*
X55965904Y-155152095D01*
X56061142Y-155104476D01*
X56108761Y-155056857D01*
X56156380Y-154961619D01*
X56156380Y-154771142D01*
X56108761Y-154675904D01*
X56061142Y-154628285D01*
X55965904Y-154580666D01*
X55156380Y-154580666D01*
X56156380Y-153580666D02*
X56156380Y-154152095D01*
X56156380Y-153866380D02*
X55156380Y-153866380D01*
X55299238Y-153961619D01*
X55394476Y-154056857D01*
X55442095Y-154152095D01*
X55489714Y-152723523D02*
X56156380Y-152723523D01*
X55108761Y-152961619D02*
X55823047Y-153199714D01*
X55823047Y-152580666D01*
X75056380Y-156556857D02*
X75056380Y-155890190D01*
X76056380Y-156318761D01*
X75389714Y-155080666D02*
X76056380Y-155080666D01*
X75008761Y-155318761D02*
X75723047Y-155556857D01*
X75723047Y-154937809D01*
X76056380Y-154080666D02*
X76056380Y-154556857D01*
X75056380Y-154556857D01*
X76008761Y-153794952D02*
X76056380Y-153652095D01*
X76056380Y-153414000D01*
X76008761Y-153318761D01*
X75961142Y-153271142D01*
X75865904Y-153223523D01*
X75770666Y-153223523D01*
X75675428Y-153271142D01*
X75627809Y-153318761D01*
X75580190Y-153414000D01*
X75532571Y-153604476D01*
X75484952Y-153699714D01*
X75437333Y-153747333D01*
X75342095Y-153794952D01*
X75246857Y-153794952D01*
X75151619Y-153747333D01*
X75104000Y-153699714D01*
X75056380Y-153604476D01*
X75056380Y-153366380D01*
X75104000Y-153223523D01*
X75056380Y-152890190D02*
X75056380Y-152223523D01*
X76056380Y-152652095D01*
X75389714Y-151414000D02*
X76056380Y-151414000D01*
X75008761Y-151652095D02*
X75723047Y-151890190D01*
X75723047Y-151271142D01*
%TO.C,C16*%
X89467742Y-90445142D02*
X89420123Y-90492761D01*
X89277266Y-90540380D01*
X89182028Y-90540380D01*
X89039171Y-90492761D01*
X88943933Y-90397523D01*
X88896314Y-90302285D01*
X88848695Y-90111809D01*
X88848695Y-89968952D01*
X88896314Y-89778476D01*
X88943933Y-89683238D01*
X89039171Y-89588000D01*
X89182028Y-89540380D01*
X89277266Y-89540380D01*
X89420123Y-89588000D01*
X89467742Y-89635619D01*
X90420123Y-90540380D02*
X89848695Y-90540380D01*
X90134409Y-90540380D02*
X90134409Y-89540380D01*
X90039171Y-89683238D01*
X89943933Y-89778476D01*
X89848695Y-89826095D01*
X91277266Y-89540380D02*
X91086790Y-89540380D01*
X90991552Y-89588000D01*
X90943933Y-89635619D01*
X90848695Y-89778476D01*
X90801076Y-89968952D01*
X90801076Y-90349904D01*
X90848695Y-90445142D01*
X90896314Y-90492761D01*
X90991552Y-90540380D01*
X91182028Y-90540380D01*
X91277266Y-90492761D01*
X91324885Y-90445142D01*
X91372504Y-90349904D01*
X91372504Y-90111809D01*
X91324885Y-90016571D01*
X91277266Y-89968952D01*
X91182028Y-89921333D01*
X90991552Y-89921333D01*
X90896314Y-89968952D01*
X90848695Y-90016571D01*
X90801076Y-90111809D01*
X88467742Y-98435619D02*
X88515361Y-98388000D01*
X88610600Y-98340380D01*
X88848695Y-98340380D01*
X88943933Y-98388000D01*
X88991552Y-98435619D01*
X89039171Y-98530857D01*
X89039171Y-98626095D01*
X88991552Y-98768952D01*
X88420123Y-99340380D01*
X89039171Y-99340380D01*
X89420123Y-98435619D02*
X89467742Y-98388000D01*
X89562980Y-98340380D01*
X89801076Y-98340380D01*
X89896314Y-98388000D01*
X89943933Y-98435619D01*
X89991552Y-98530857D01*
X89991552Y-98626095D01*
X89943933Y-98768952D01*
X89372504Y-99340380D01*
X89991552Y-99340380D01*
X90848695Y-98673714D02*
X90848695Y-99340380D01*
X90420123Y-98673714D02*
X90420123Y-99197523D01*
X90467742Y-99292761D01*
X90562980Y-99340380D01*
X90705838Y-99340380D01*
X90801076Y-99292761D01*
X90848695Y-99245142D01*
X91658219Y-98816571D02*
X91324885Y-98816571D01*
X91324885Y-99340380D02*
X91324885Y-98340380D01*
X91801076Y-98340380D01*
%TO.C,U8*%
X54902380Y-142483904D02*
X55711904Y-142483904D01*
X55807142Y-142436285D01*
X55854761Y-142388666D01*
X55902380Y-142293428D01*
X55902380Y-142102952D01*
X55854761Y-142007714D01*
X55807142Y-141960095D01*
X55711904Y-141912476D01*
X54902380Y-141912476D01*
X55330952Y-141293428D02*
X55283333Y-141388666D01*
X55235714Y-141436285D01*
X55140476Y-141483904D01*
X55092857Y-141483904D01*
X54997619Y-141436285D01*
X54950000Y-141388666D01*
X54902380Y-141293428D01*
X54902380Y-141102952D01*
X54950000Y-141007714D01*
X54997619Y-140960095D01*
X55092857Y-140912476D01*
X55140476Y-140912476D01*
X55235714Y-140960095D01*
X55283333Y-141007714D01*
X55330952Y-141102952D01*
X55330952Y-141293428D01*
X55378571Y-141388666D01*
X55426190Y-141436285D01*
X55521428Y-141483904D01*
X55711904Y-141483904D01*
X55807142Y-141436285D01*
X55854761Y-141388666D01*
X55902380Y-141293428D01*
X55902380Y-141102952D01*
X55854761Y-141007714D01*
X55807142Y-140960095D01*
X55711904Y-140912476D01*
X55521428Y-140912476D01*
X55426190Y-140960095D01*
X55378571Y-141007714D01*
X55330952Y-141102952D01*
X74802380Y-144364857D02*
X74802380Y-143698190D01*
X75802380Y-144126761D01*
X75135714Y-142888666D02*
X75802380Y-142888666D01*
X74754761Y-143126761D02*
X75469047Y-143364857D01*
X75469047Y-142745809D01*
X75802380Y-141888666D02*
X75802380Y-142364857D01*
X74802380Y-142364857D01*
X75754761Y-141602952D02*
X75802380Y-141460095D01*
X75802380Y-141222000D01*
X75754761Y-141126761D01*
X75707142Y-141079142D01*
X75611904Y-141031523D01*
X75516666Y-141031523D01*
X75421428Y-141079142D01*
X75373809Y-141126761D01*
X75326190Y-141222000D01*
X75278571Y-141412476D01*
X75230952Y-141507714D01*
X75183333Y-141555333D01*
X75088095Y-141602952D01*
X74992857Y-141602952D01*
X74897619Y-141555333D01*
X74850000Y-141507714D01*
X74802380Y-141412476D01*
X74802380Y-141174380D01*
X74850000Y-141031523D01*
X74802380Y-140698190D02*
X74802380Y-140079142D01*
X75183333Y-140412476D01*
X75183333Y-140269619D01*
X75230952Y-140174380D01*
X75278571Y-140126761D01*
X75373809Y-140079142D01*
X75611904Y-140079142D01*
X75707142Y-140126761D01*
X75754761Y-140174380D01*
X75802380Y-140269619D01*
X75802380Y-140555333D01*
X75754761Y-140650571D01*
X75707142Y-140698190D01*
X74802380Y-139460095D02*
X74802380Y-139364857D01*
X74850000Y-139269619D01*
X74897619Y-139222000D01*
X74992857Y-139174380D01*
X75183333Y-139126761D01*
X75421428Y-139126761D01*
X75611904Y-139174380D01*
X75707142Y-139222000D01*
X75754761Y-139269619D01*
X75802380Y-139364857D01*
X75802380Y-139460095D01*
X75754761Y-139555333D01*
X75707142Y-139602952D01*
X75611904Y-139650571D01*
X75421428Y-139698190D01*
X75183333Y-139698190D01*
X74992857Y-139650571D01*
X74897619Y-139602952D01*
X74850000Y-139555333D01*
X74802380Y-139460095D01*
%TO.C,C11*%
X19915142Y-118692857D02*
X19962761Y-118740476D01*
X20010380Y-118883333D01*
X20010380Y-118978571D01*
X19962761Y-119121428D01*
X19867523Y-119216666D01*
X19772285Y-119264285D01*
X19581809Y-119311904D01*
X19438952Y-119311904D01*
X19248476Y-119264285D01*
X19153238Y-119216666D01*
X19058000Y-119121428D01*
X19010380Y-118978571D01*
X19010380Y-118883333D01*
X19058000Y-118740476D01*
X19105619Y-118692857D01*
X20010380Y-117740476D02*
X20010380Y-118311904D01*
X20010380Y-118026190D02*
X19010380Y-118026190D01*
X19153238Y-118121428D01*
X19248476Y-118216666D01*
X19296095Y-118311904D01*
X20010380Y-116788095D02*
X20010380Y-117359523D01*
X20010380Y-117073809D02*
X19010380Y-117073809D01*
X19153238Y-117169047D01*
X19248476Y-117264285D01*
X19296095Y-117359523D01*
X22201142Y-119264285D02*
X22248761Y-119216666D01*
X22296380Y-119264285D01*
X22248761Y-119311904D01*
X22201142Y-119264285D01*
X22296380Y-119264285D01*
X22296380Y-118264285D02*
X22296380Y-118835714D01*
X22296380Y-118550000D02*
X21296380Y-118550000D01*
X21439238Y-118645238D01*
X21534476Y-118740476D01*
X21582095Y-118835714D01*
X21629714Y-117407142D02*
X22296380Y-117407142D01*
X21629714Y-117835714D02*
X22153523Y-117835714D01*
X22248761Y-117788095D01*
X22296380Y-117692857D01*
X22296380Y-117550000D01*
X22248761Y-117454761D01*
X22201142Y-117407142D01*
X21629714Y-117073809D02*
X21629714Y-116692857D01*
X22296380Y-116930952D02*
X21439238Y-116930952D01*
X21344000Y-116883333D01*
X21296380Y-116788095D01*
X21296380Y-116692857D01*
%TO.C,U1*%
X75481380Y-105917904D02*
X76290904Y-105917904D01*
X76386142Y-105870285D01*
X76433761Y-105822666D01*
X76481380Y-105727428D01*
X76481380Y-105536952D01*
X76433761Y-105441714D01*
X76386142Y-105394095D01*
X76290904Y-105346476D01*
X75481380Y-105346476D01*
X76481380Y-104346476D02*
X76481380Y-104917904D01*
X76481380Y-104632190D02*
X75481380Y-104632190D01*
X75624238Y-104727428D01*
X75719476Y-104822666D01*
X75767095Y-104917904D01*
X95381380Y-107798857D02*
X95381380Y-107132190D01*
X96381380Y-107560761D01*
X95714714Y-106322666D02*
X96381380Y-106322666D01*
X95333761Y-106560761D02*
X96048047Y-106798857D01*
X96048047Y-106179809D01*
X96381380Y-105322666D02*
X96381380Y-105798857D01*
X95381380Y-105798857D01*
X96333761Y-105036952D02*
X96381380Y-104894095D01*
X96381380Y-104656000D01*
X96333761Y-104560761D01*
X96286142Y-104513142D01*
X96190904Y-104465523D01*
X96095666Y-104465523D01*
X96000428Y-104513142D01*
X95952809Y-104560761D01*
X95905190Y-104656000D01*
X95857571Y-104846476D01*
X95809952Y-104941714D01*
X95762333Y-104989333D01*
X95667095Y-105036952D01*
X95571857Y-105036952D01*
X95476619Y-104989333D01*
X95429000Y-104941714D01*
X95381380Y-104846476D01*
X95381380Y-104608380D01*
X95429000Y-104465523D01*
X95381380Y-104132190D02*
X95381380Y-103513142D01*
X95762333Y-103846476D01*
X95762333Y-103703619D01*
X95809952Y-103608380D01*
X95857571Y-103560761D01*
X95952809Y-103513142D01*
X96190904Y-103513142D01*
X96286142Y-103560761D01*
X96333761Y-103608380D01*
X96381380Y-103703619D01*
X96381380Y-103989333D01*
X96333761Y-104084571D01*
X96286142Y-104132190D01*
X95476619Y-103132190D02*
X95429000Y-103084571D01*
X95381380Y-102989333D01*
X95381380Y-102751238D01*
X95429000Y-102656000D01*
X95476619Y-102608380D01*
X95571857Y-102560761D01*
X95667095Y-102560761D01*
X95809952Y-102608380D01*
X96381380Y-103179809D01*
X96381380Y-102560761D01*
%TO.C,U12*%
X23411380Y-142706095D02*
X24220904Y-142706095D01*
X24316142Y-142658476D01*
X24363761Y-142610857D01*
X24411380Y-142515619D01*
X24411380Y-142325142D01*
X24363761Y-142229904D01*
X24316142Y-142182285D01*
X24220904Y-142134666D01*
X23411380Y-142134666D01*
X24411380Y-141134666D02*
X24411380Y-141706095D01*
X24411380Y-141420380D02*
X23411380Y-141420380D01*
X23554238Y-141515619D01*
X23649476Y-141610857D01*
X23697095Y-141706095D01*
X23506619Y-140753714D02*
X23459000Y-140706095D01*
X23411380Y-140610857D01*
X23411380Y-140372761D01*
X23459000Y-140277523D01*
X23506619Y-140229904D01*
X23601857Y-140182285D01*
X23697095Y-140182285D01*
X23839952Y-140229904D01*
X24411380Y-140801333D01*
X24411380Y-140182285D01*
X43311380Y-144110857D02*
X43311380Y-143444190D01*
X44311380Y-143872761D01*
X43644714Y-142634666D02*
X44311380Y-142634666D01*
X43263761Y-142872761D02*
X43978047Y-143110857D01*
X43978047Y-142491809D01*
X44311380Y-141634666D02*
X44311380Y-142110857D01*
X43311380Y-142110857D01*
X44263761Y-141348952D02*
X44311380Y-141206095D01*
X44311380Y-140968000D01*
X44263761Y-140872761D01*
X44216142Y-140825142D01*
X44120904Y-140777523D01*
X44025666Y-140777523D01*
X43930428Y-140825142D01*
X43882809Y-140872761D01*
X43835190Y-140968000D01*
X43787571Y-141158476D01*
X43739952Y-141253714D01*
X43692333Y-141301333D01*
X43597095Y-141348952D01*
X43501857Y-141348952D01*
X43406619Y-141301333D01*
X43359000Y-141253714D01*
X43311380Y-141158476D01*
X43311380Y-140920380D01*
X43359000Y-140777523D01*
X43311380Y-140158476D02*
X43311380Y-140063238D01*
X43359000Y-139968000D01*
X43406619Y-139920380D01*
X43501857Y-139872761D01*
X43692333Y-139825142D01*
X43930428Y-139825142D01*
X44120904Y-139872761D01*
X44216142Y-139920380D01*
X44263761Y-139968000D01*
X44311380Y-140063238D01*
X44311380Y-140158476D01*
X44263761Y-140253714D01*
X44216142Y-140301333D01*
X44120904Y-140348952D01*
X43930428Y-140396571D01*
X43692333Y-140396571D01*
X43501857Y-140348952D01*
X43406619Y-140301333D01*
X43359000Y-140253714D01*
X43311380Y-140158476D01*
X43311380Y-138920380D02*
X43311380Y-139396571D01*
X43787571Y-139444190D01*
X43739952Y-139396571D01*
X43692333Y-139301333D01*
X43692333Y-139063238D01*
X43739952Y-138968000D01*
X43787571Y-138920380D01*
X43882809Y-138872761D01*
X44120904Y-138872761D01*
X44216142Y-138920380D01*
X44263761Y-138968000D01*
X44311380Y-139063238D01*
X44311380Y-139301333D01*
X44263761Y-139396571D01*
X44216142Y-139444190D01*
%TO.C,R5*%
X109418380Y-92876666D02*
X108942190Y-93210000D01*
X109418380Y-93448095D02*
X108418380Y-93448095D01*
X108418380Y-93067142D01*
X108466000Y-92971904D01*
X108513619Y-92924285D01*
X108608857Y-92876666D01*
X108751714Y-92876666D01*
X108846952Y-92924285D01*
X108894571Y-92971904D01*
X108942190Y-93067142D01*
X108942190Y-93448095D01*
X108418380Y-91971904D02*
X108418380Y-92448095D01*
X108894571Y-92495714D01*
X108846952Y-92448095D01*
X108799333Y-92352857D01*
X108799333Y-92114761D01*
X108846952Y-92019523D01*
X108894571Y-91971904D01*
X108989809Y-91924285D01*
X109227904Y-91924285D01*
X109323142Y-91971904D01*
X109370761Y-92019523D01*
X109418380Y-92114761D01*
X109418380Y-92352857D01*
X109370761Y-92448095D01*
X109323142Y-92495714D01*
X110672619Y-94352857D02*
X110625000Y-94305238D01*
X110577380Y-94210000D01*
X110577380Y-93971904D01*
X110625000Y-93876666D01*
X110672619Y-93829047D01*
X110767857Y-93781428D01*
X110863095Y-93781428D01*
X111005952Y-93829047D01*
X111577380Y-94400476D01*
X111577380Y-93781428D01*
X111577380Y-92829047D02*
X111577380Y-93400476D01*
X111577380Y-93114761D02*
X110577380Y-93114761D01*
X110720238Y-93210000D01*
X110815476Y-93305238D01*
X110863095Y-93400476D01*
X110577380Y-91924285D02*
X110577380Y-92400476D01*
X111053571Y-92448095D01*
X111005952Y-92400476D01*
X110958333Y-92305238D01*
X110958333Y-92067142D01*
X111005952Y-91971904D01*
X111053571Y-91924285D01*
X111148809Y-91876666D01*
X111386904Y-91876666D01*
X111482142Y-91924285D01*
X111529761Y-91971904D01*
X111577380Y-92067142D01*
X111577380Y-92305238D01*
X111529761Y-92400476D01*
X111482142Y-92448095D01*
X111577380Y-91448095D02*
X110577380Y-91448095D01*
X111196428Y-91352857D02*
X111577380Y-91067142D01*
X110910714Y-91067142D02*
X111291666Y-91448095D01*
%TO.C,U10*%
X84498380Y-142335095D02*
X85307904Y-142335095D01*
X85403142Y-142287476D01*
X85450761Y-142239857D01*
X85498380Y-142144619D01*
X85498380Y-141954142D01*
X85450761Y-141858904D01*
X85403142Y-141811285D01*
X85307904Y-141763666D01*
X84498380Y-141763666D01*
X85498380Y-140763666D02*
X85498380Y-141335095D01*
X85498380Y-141049380D02*
X84498380Y-141049380D01*
X84641238Y-141144619D01*
X84736476Y-141239857D01*
X84784095Y-141335095D01*
X84498380Y-140144619D02*
X84498380Y-140049380D01*
X84546000Y-139954142D01*
X84593619Y-139906523D01*
X84688857Y-139858904D01*
X84879333Y-139811285D01*
X85117428Y-139811285D01*
X85307904Y-139858904D01*
X85403142Y-139906523D01*
X85450761Y-139954142D01*
X85498380Y-140049380D01*
X85498380Y-140144619D01*
X85450761Y-140239857D01*
X85403142Y-140287476D01*
X85307904Y-140335095D01*
X85117428Y-140382714D01*
X84879333Y-140382714D01*
X84688857Y-140335095D01*
X84593619Y-140287476D01*
X84546000Y-140239857D01*
X84498380Y-140144619D01*
X112018380Y-144216047D02*
X112018380Y-143549380D01*
X113018380Y-143977952D01*
X112351714Y-142739857D02*
X113018380Y-142739857D01*
X111970761Y-142977952D02*
X112685047Y-143216047D01*
X112685047Y-142597000D01*
X113018380Y-141739857D02*
X113018380Y-142216047D01*
X112018380Y-142216047D01*
X112970761Y-141454142D02*
X113018380Y-141311285D01*
X113018380Y-141073190D01*
X112970761Y-140977952D01*
X112923142Y-140930333D01*
X112827904Y-140882714D01*
X112732666Y-140882714D01*
X112637428Y-140930333D01*
X112589809Y-140977952D01*
X112542190Y-141073190D01*
X112494571Y-141263666D01*
X112446952Y-141358904D01*
X112399333Y-141406523D01*
X112304095Y-141454142D01*
X112208857Y-141454142D01*
X112113619Y-141406523D01*
X112066000Y-141358904D01*
X112018380Y-141263666D01*
X112018380Y-141025571D01*
X112066000Y-140882714D01*
X112018380Y-140025571D02*
X112018380Y-140216047D01*
X112066000Y-140311285D01*
X112113619Y-140358904D01*
X112256476Y-140454142D01*
X112446952Y-140501761D01*
X112827904Y-140501761D01*
X112923142Y-140454142D01*
X112970761Y-140406523D01*
X113018380Y-140311285D01*
X113018380Y-140120809D01*
X112970761Y-140025571D01*
X112923142Y-139977952D01*
X112827904Y-139930333D01*
X112589809Y-139930333D01*
X112494571Y-139977952D01*
X112446952Y-140025571D01*
X112399333Y-140120809D01*
X112399333Y-140311285D01*
X112446952Y-140406523D01*
X112494571Y-140454142D01*
X112589809Y-140501761D01*
X112446952Y-139358904D02*
X112399333Y-139454142D01*
X112351714Y-139501761D01*
X112256476Y-139549380D01*
X112208857Y-139549380D01*
X112113619Y-139501761D01*
X112066000Y-139454142D01*
X112018380Y-139358904D01*
X112018380Y-139168428D01*
X112066000Y-139073190D01*
X112113619Y-139025571D01*
X112208857Y-138977952D01*
X112256476Y-138977952D01*
X112351714Y-139025571D01*
X112399333Y-139073190D01*
X112446952Y-139168428D01*
X112446952Y-139358904D01*
X112494571Y-139454142D01*
X112542190Y-139501761D01*
X112637428Y-139549380D01*
X112827904Y-139549380D01*
X112923142Y-139501761D01*
X112970761Y-139454142D01*
X113018380Y-139358904D01*
X113018380Y-139168428D01*
X112970761Y-139073190D01*
X112923142Y-139025571D01*
X112827904Y-138977952D01*
X112637428Y-138977952D01*
X112542190Y-139025571D01*
X112494571Y-139073190D01*
X112446952Y-139168428D01*
X112113619Y-138597000D02*
X112066000Y-138549380D01*
X112018380Y-138454142D01*
X112018380Y-138216047D01*
X112066000Y-138120809D01*
X112113619Y-138073190D01*
X112208857Y-138025571D01*
X112304095Y-138025571D01*
X112446952Y-138073190D01*
X113018380Y-138644619D01*
X113018380Y-138025571D01*
%TO.C,C5*%
X42006142Y-90209666D02*
X42053761Y-90257285D01*
X42101380Y-90400142D01*
X42101380Y-90495380D01*
X42053761Y-90638238D01*
X41958523Y-90733476D01*
X41863285Y-90781095D01*
X41672809Y-90828714D01*
X41529952Y-90828714D01*
X41339476Y-90781095D01*
X41244238Y-90733476D01*
X41149000Y-90638238D01*
X41101380Y-90495380D01*
X41101380Y-90400142D01*
X41149000Y-90257285D01*
X41196619Y-90209666D01*
X41101380Y-89304904D02*
X41101380Y-89781095D01*
X41577571Y-89828714D01*
X41529952Y-89781095D01*
X41482333Y-89685857D01*
X41482333Y-89447761D01*
X41529952Y-89352523D01*
X41577571Y-89304904D01*
X41672809Y-89257285D01*
X41910904Y-89257285D01*
X42006142Y-89304904D01*
X42053761Y-89352523D01*
X42101380Y-89447761D01*
X42101380Y-89685857D01*
X42053761Y-89781095D01*
X42006142Y-89828714D01*
X44426142Y-91257285D02*
X44473761Y-91209666D01*
X44521380Y-91257285D01*
X44473761Y-91304904D01*
X44426142Y-91257285D01*
X44521380Y-91257285D01*
X44521380Y-90257285D02*
X44521380Y-90828714D01*
X44521380Y-90543000D02*
X43521380Y-90543000D01*
X43664238Y-90638238D01*
X43759476Y-90733476D01*
X43807095Y-90828714D01*
X43854714Y-89400142D02*
X44521380Y-89400142D01*
X43854714Y-89828714D02*
X44378523Y-89828714D01*
X44473761Y-89781095D01*
X44521380Y-89685857D01*
X44521380Y-89543000D01*
X44473761Y-89447761D01*
X44426142Y-89400142D01*
X43854714Y-89066809D02*
X43854714Y-88685857D01*
X44521380Y-88923952D02*
X43664238Y-88923952D01*
X43569000Y-88876333D01*
X43521380Y-88781095D01*
X43521380Y-88685857D01*
%TO.C,C10*%
X80652142Y-141679857D02*
X80699761Y-141727476D01*
X80747380Y-141870333D01*
X80747380Y-141965571D01*
X80699761Y-142108428D01*
X80604523Y-142203666D01*
X80509285Y-142251285D01*
X80318809Y-142298904D01*
X80175952Y-142298904D01*
X79985476Y-142251285D01*
X79890238Y-142203666D01*
X79795000Y-142108428D01*
X79747380Y-141965571D01*
X79747380Y-141870333D01*
X79795000Y-141727476D01*
X79842619Y-141679857D01*
X80747380Y-140727476D02*
X80747380Y-141298904D01*
X80747380Y-141013190D02*
X79747380Y-141013190D01*
X79890238Y-141108428D01*
X79985476Y-141203666D01*
X80033095Y-141298904D01*
X79747380Y-140108428D02*
X79747380Y-140013190D01*
X79795000Y-139917952D01*
X79842619Y-139870333D01*
X79937857Y-139822714D01*
X80128333Y-139775095D01*
X80366428Y-139775095D01*
X80556904Y-139822714D01*
X80652142Y-139870333D01*
X80699761Y-139917952D01*
X80747380Y-140013190D01*
X80747380Y-140108428D01*
X80699761Y-140203666D01*
X80652142Y-140251285D01*
X80556904Y-140298904D01*
X80366428Y-140346523D01*
X80128333Y-140346523D01*
X79937857Y-140298904D01*
X79842619Y-140251285D01*
X79795000Y-140203666D01*
X79747380Y-140108428D01*
X82938142Y-142251285D02*
X82985761Y-142203666D01*
X83033380Y-142251285D01*
X82985761Y-142298904D01*
X82938142Y-142251285D01*
X83033380Y-142251285D01*
X83033380Y-141251285D02*
X83033380Y-141822714D01*
X83033380Y-141537000D02*
X82033380Y-141537000D01*
X82176238Y-141632238D01*
X82271476Y-141727476D01*
X82319095Y-141822714D01*
X82366714Y-140394142D02*
X83033380Y-140394142D01*
X82366714Y-140822714D02*
X82890523Y-140822714D01*
X82985761Y-140775095D01*
X83033380Y-140679857D01*
X83033380Y-140537000D01*
X82985761Y-140441761D01*
X82938142Y-140394142D01*
X82366714Y-140060809D02*
X82366714Y-139679857D01*
X83033380Y-139917952D02*
X82176238Y-139917952D01*
X82081000Y-139870333D01*
X82033380Y-139775095D01*
X82033380Y-139679857D01*
%TO.C,C6*%
X20169142Y-105135666D02*
X20216761Y-105183285D01*
X20264380Y-105326142D01*
X20264380Y-105421380D01*
X20216761Y-105564238D01*
X20121523Y-105659476D01*
X20026285Y-105707095D01*
X19835809Y-105754714D01*
X19692952Y-105754714D01*
X19502476Y-105707095D01*
X19407238Y-105659476D01*
X19312000Y-105564238D01*
X19264380Y-105421380D01*
X19264380Y-105326142D01*
X19312000Y-105183285D01*
X19359619Y-105135666D01*
X19264380Y-104278523D02*
X19264380Y-104469000D01*
X19312000Y-104564238D01*
X19359619Y-104611857D01*
X19502476Y-104707095D01*
X19692952Y-104754714D01*
X20073904Y-104754714D01*
X20169142Y-104707095D01*
X20216761Y-104659476D01*
X20264380Y-104564238D01*
X20264380Y-104373761D01*
X20216761Y-104278523D01*
X20169142Y-104230904D01*
X20073904Y-104183285D01*
X19835809Y-104183285D01*
X19740571Y-104230904D01*
X19692952Y-104278523D01*
X19645333Y-104373761D01*
X19645333Y-104564238D01*
X19692952Y-104659476D01*
X19740571Y-104707095D01*
X19835809Y-104754714D01*
X22328142Y-106183285D02*
X22375761Y-106135666D01*
X22423380Y-106183285D01*
X22375761Y-106230904D01*
X22328142Y-106183285D01*
X22423380Y-106183285D01*
X22423380Y-105183285D02*
X22423380Y-105754714D01*
X22423380Y-105469000D02*
X21423380Y-105469000D01*
X21566238Y-105564238D01*
X21661476Y-105659476D01*
X21709095Y-105754714D01*
X21756714Y-104326142D02*
X22423380Y-104326142D01*
X21756714Y-104754714D02*
X22280523Y-104754714D01*
X22375761Y-104707095D01*
X22423380Y-104611857D01*
X22423380Y-104469000D01*
X22375761Y-104373761D01*
X22328142Y-104326142D01*
X21756714Y-103992809D02*
X21756714Y-103611857D01*
X22423380Y-103849952D02*
X21566238Y-103849952D01*
X21471000Y-103802333D01*
X21423380Y-103707095D01*
X21423380Y-103611857D01*
%TO.C,C1*%
X71096142Y-105449666D02*
X71143761Y-105497285D01*
X71191380Y-105640142D01*
X71191380Y-105735380D01*
X71143761Y-105878238D01*
X71048523Y-105973476D01*
X70953285Y-106021095D01*
X70762809Y-106068714D01*
X70619952Y-106068714D01*
X70429476Y-106021095D01*
X70334238Y-105973476D01*
X70239000Y-105878238D01*
X70191380Y-105735380D01*
X70191380Y-105640142D01*
X70239000Y-105497285D01*
X70286619Y-105449666D01*
X71191380Y-104497285D02*
X71191380Y-105068714D01*
X71191380Y-104783000D02*
X70191380Y-104783000D01*
X70334238Y-104878238D01*
X70429476Y-104973476D01*
X70477095Y-105068714D01*
X73255142Y-106684285D02*
X73302761Y-106636666D01*
X73350380Y-106684285D01*
X73302761Y-106731904D01*
X73255142Y-106684285D01*
X73350380Y-106684285D01*
X73350380Y-105684285D02*
X73350380Y-106255714D01*
X73350380Y-105970000D02*
X72350380Y-105970000D01*
X72493238Y-106065238D01*
X72588476Y-106160476D01*
X72636095Y-106255714D01*
X72683714Y-104827142D02*
X73350380Y-104827142D01*
X72683714Y-105255714D02*
X73207523Y-105255714D01*
X73302761Y-105208095D01*
X73350380Y-105112857D01*
X73350380Y-104970000D01*
X73302761Y-104874761D01*
X73255142Y-104827142D01*
X72683714Y-104493809D02*
X72683714Y-104112857D01*
X73350380Y-104350952D02*
X72493238Y-104350952D01*
X72398000Y-104303333D01*
X72350380Y-104208095D01*
X72350380Y-104112857D01*
%TO.C,R1*%
X65814380Y-105830666D02*
X65338190Y-106164000D01*
X65814380Y-106402095D02*
X64814380Y-106402095D01*
X64814380Y-106021142D01*
X64862000Y-105925904D01*
X64909619Y-105878285D01*
X65004857Y-105830666D01*
X65147714Y-105830666D01*
X65242952Y-105878285D01*
X65290571Y-105925904D01*
X65338190Y-106021142D01*
X65338190Y-106402095D01*
X65814380Y-104878285D02*
X65814380Y-105449714D01*
X65814380Y-105164000D02*
X64814380Y-105164000D01*
X64957238Y-105259238D01*
X65052476Y-105354476D01*
X65100095Y-105449714D01*
X63444380Y-106259238D02*
X63444380Y-106830666D01*
X63444380Y-106544952D02*
X62444380Y-106544952D01*
X62587238Y-106640190D01*
X62682476Y-106735428D01*
X62730095Y-106830666D01*
X62444380Y-105640190D02*
X62444380Y-105544952D01*
X62492000Y-105449714D01*
X62539619Y-105402095D01*
X62634857Y-105354476D01*
X62825333Y-105306857D01*
X63063428Y-105306857D01*
X63253904Y-105354476D01*
X63349142Y-105402095D01*
X63396761Y-105449714D01*
X63444380Y-105544952D01*
X63444380Y-105640190D01*
X63396761Y-105735428D01*
X63349142Y-105783047D01*
X63253904Y-105830666D01*
X63063428Y-105878285D01*
X62825333Y-105878285D01*
X62634857Y-105830666D01*
X62539619Y-105783047D01*
X62492000Y-105735428D01*
X62444380Y-105640190D01*
X63444380Y-104878285D02*
X62444380Y-104878285D01*
X63063428Y-104783047D02*
X63444380Y-104497333D01*
X62777714Y-104497333D02*
X63158666Y-104878285D01*
%TO.C,R6*%
X109418380Y-104814666D02*
X108942190Y-105148000D01*
X109418380Y-105386095D02*
X108418380Y-105386095D01*
X108418380Y-105005142D01*
X108466000Y-104909904D01*
X108513619Y-104862285D01*
X108608857Y-104814666D01*
X108751714Y-104814666D01*
X108846952Y-104862285D01*
X108894571Y-104909904D01*
X108942190Y-105005142D01*
X108942190Y-105386095D01*
X108418380Y-103957523D02*
X108418380Y-104148000D01*
X108466000Y-104243238D01*
X108513619Y-104290857D01*
X108656476Y-104386095D01*
X108846952Y-104433714D01*
X109227904Y-104433714D01*
X109323142Y-104386095D01*
X109370761Y-104338476D01*
X109418380Y-104243238D01*
X109418380Y-104052761D01*
X109370761Y-103957523D01*
X109323142Y-103909904D01*
X109227904Y-103862285D01*
X108989809Y-103862285D01*
X108894571Y-103909904D01*
X108846952Y-103957523D01*
X108799333Y-104052761D01*
X108799333Y-104243238D01*
X108846952Y-104338476D01*
X108894571Y-104386095D01*
X108989809Y-104433714D01*
X110799619Y-106528952D02*
X110752000Y-106481333D01*
X110704380Y-106386095D01*
X110704380Y-106148000D01*
X110752000Y-106052761D01*
X110799619Y-106005142D01*
X110894857Y-105957523D01*
X110990095Y-105957523D01*
X111132952Y-106005142D01*
X111704380Y-106576571D01*
X111704380Y-105957523D01*
X111037714Y-105100380D02*
X111704380Y-105100380D01*
X110656761Y-105338476D02*
X111371047Y-105576571D01*
X111371047Y-104957523D01*
X111609142Y-104576571D02*
X111656761Y-104528952D01*
X111704380Y-104576571D01*
X111656761Y-104624190D01*
X111609142Y-104576571D01*
X111704380Y-104576571D01*
X111704380Y-104052761D02*
X111704380Y-103862285D01*
X111656761Y-103767047D01*
X111609142Y-103719428D01*
X111466285Y-103624190D01*
X111275809Y-103576571D01*
X110894857Y-103576571D01*
X110799619Y-103624190D01*
X110752000Y-103671809D01*
X110704380Y-103767047D01*
X110704380Y-103957523D01*
X110752000Y-104052761D01*
X110799619Y-104100380D01*
X110894857Y-104148000D01*
X111132952Y-104148000D01*
X111228190Y-104100380D01*
X111275809Y-104052761D01*
X111323428Y-103957523D01*
X111323428Y-103767047D01*
X111275809Y-103671809D01*
X111228190Y-103624190D01*
X111132952Y-103576571D01*
X111704380Y-103148000D02*
X110704380Y-103148000D01*
X111323428Y-103052761D02*
X111704380Y-102767047D01*
X111037714Y-102767047D02*
X111418666Y-103148000D01*
%TO.C,C12*%
X19280142Y-142060857D02*
X19327761Y-142108476D01*
X19375380Y-142251333D01*
X19375380Y-142346571D01*
X19327761Y-142489428D01*
X19232523Y-142584666D01*
X19137285Y-142632285D01*
X18946809Y-142679904D01*
X18803952Y-142679904D01*
X18613476Y-142632285D01*
X18518238Y-142584666D01*
X18423000Y-142489428D01*
X18375380Y-142346571D01*
X18375380Y-142251333D01*
X18423000Y-142108476D01*
X18470619Y-142060857D01*
X19375380Y-141108476D02*
X19375380Y-141679904D01*
X19375380Y-141394190D02*
X18375380Y-141394190D01*
X18518238Y-141489428D01*
X18613476Y-141584666D01*
X18661095Y-141679904D01*
X18470619Y-140727523D02*
X18423000Y-140679904D01*
X18375380Y-140584666D01*
X18375380Y-140346571D01*
X18423000Y-140251333D01*
X18470619Y-140203714D01*
X18565857Y-140156095D01*
X18661095Y-140156095D01*
X18803952Y-140203714D01*
X19375380Y-140775142D01*
X19375380Y-140156095D01*
X21820142Y-142632285D02*
X21867761Y-142584666D01*
X21915380Y-142632285D01*
X21867761Y-142679904D01*
X21820142Y-142632285D01*
X21915380Y-142632285D01*
X21915380Y-141632285D02*
X21915380Y-142203714D01*
X21915380Y-141918000D02*
X20915380Y-141918000D01*
X21058238Y-142013238D01*
X21153476Y-142108476D01*
X21201095Y-142203714D01*
X21248714Y-140775142D02*
X21915380Y-140775142D01*
X21248714Y-141203714D02*
X21772523Y-141203714D01*
X21867761Y-141156095D01*
X21915380Y-141060857D01*
X21915380Y-140918000D01*
X21867761Y-140822761D01*
X21820142Y-140775142D01*
X21248714Y-140441809D02*
X21248714Y-140060857D01*
X21915380Y-140298952D02*
X21058238Y-140298952D01*
X20963000Y-140251333D01*
X20915380Y-140156095D01*
X20915380Y-140060857D01*
%TO.C,C9*%
X19539142Y-153903666D02*
X19586761Y-153951285D01*
X19634380Y-154094142D01*
X19634380Y-154189380D01*
X19586761Y-154332238D01*
X19491523Y-154427476D01*
X19396285Y-154475095D01*
X19205809Y-154522714D01*
X19062952Y-154522714D01*
X18872476Y-154475095D01*
X18777238Y-154427476D01*
X18682000Y-154332238D01*
X18634380Y-154189380D01*
X18634380Y-154094142D01*
X18682000Y-153951285D01*
X18729619Y-153903666D01*
X19634380Y-153427476D02*
X19634380Y-153237000D01*
X19586761Y-153141761D01*
X19539142Y-153094142D01*
X19396285Y-152998904D01*
X19205809Y-152951285D01*
X18824857Y-152951285D01*
X18729619Y-152998904D01*
X18682000Y-153046523D01*
X18634380Y-153141761D01*
X18634380Y-153332238D01*
X18682000Y-153427476D01*
X18729619Y-153475095D01*
X18824857Y-153522714D01*
X19062952Y-153522714D01*
X19158190Y-153475095D01*
X19205809Y-153427476D01*
X19253428Y-153332238D01*
X19253428Y-153141761D01*
X19205809Y-153046523D01*
X19158190Y-152998904D01*
X19062952Y-152951285D01*
X21825142Y-154951285D02*
X21872761Y-154903666D01*
X21920380Y-154951285D01*
X21872761Y-154998904D01*
X21825142Y-154951285D01*
X21920380Y-154951285D01*
X21920380Y-153951285D02*
X21920380Y-154522714D01*
X21920380Y-154237000D02*
X20920380Y-154237000D01*
X21063238Y-154332238D01*
X21158476Y-154427476D01*
X21206095Y-154522714D01*
X21253714Y-153094142D02*
X21920380Y-153094142D01*
X21253714Y-153522714D02*
X21777523Y-153522714D01*
X21872761Y-153475095D01*
X21920380Y-153379857D01*
X21920380Y-153237000D01*
X21872761Y-153141761D01*
X21825142Y-153094142D01*
X21253714Y-152760809D02*
X21253714Y-152379857D01*
X21920380Y-152617952D02*
X21063238Y-152617952D01*
X20968000Y-152570333D01*
X20920380Y-152475095D01*
X20920380Y-152379857D01*
%TO.C,U5*%
X45763380Y-91058904D02*
X46572904Y-91058904D01*
X46668142Y-91011285D01*
X46715761Y-90963666D01*
X46763380Y-90868428D01*
X46763380Y-90677952D01*
X46715761Y-90582714D01*
X46668142Y-90535095D01*
X46572904Y-90487476D01*
X45763380Y-90487476D01*
X45763380Y-89535095D02*
X45763380Y-90011285D01*
X46239571Y-90058904D01*
X46191952Y-90011285D01*
X46144333Y-89916047D01*
X46144333Y-89677952D01*
X46191952Y-89582714D01*
X46239571Y-89535095D01*
X46334809Y-89487476D01*
X46572904Y-89487476D01*
X46668142Y-89535095D01*
X46715761Y-89582714D01*
X46763380Y-89677952D01*
X46763380Y-89916047D01*
X46715761Y-90011285D01*
X46668142Y-90058904D01*
X79077666Y-93011285D02*
X79077666Y-92535095D01*
X79363380Y-93106523D02*
X78363380Y-92773190D01*
X79363380Y-92439857D01*
X79363380Y-92106523D02*
X78363380Y-92106523D01*
X79077666Y-91773190D01*
X78363380Y-91439857D01*
X79363380Y-91439857D01*
X79363380Y-90916047D02*
X79363380Y-90725571D01*
X79315761Y-90630333D01*
X79268142Y-90582714D01*
X79125285Y-90487476D01*
X78934809Y-90439857D01*
X78553857Y-90439857D01*
X78458619Y-90487476D01*
X78411000Y-90535095D01*
X78363380Y-90630333D01*
X78363380Y-90820809D01*
X78411000Y-90916047D01*
X78458619Y-90963666D01*
X78553857Y-91011285D01*
X78791952Y-91011285D01*
X78887190Y-90963666D01*
X78934809Y-90916047D01*
X78982428Y-90820809D01*
X78982428Y-90630333D01*
X78934809Y-90535095D01*
X78887190Y-90487476D01*
X78791952Y-90439857D01*
X78363380Y-89535095D02*
X78363380Y-90011285D01*
X78839571Y-90058904D01*
X78791952Y-90011285D01*
X78744333Y-89916047D01*
X78744333Y-89677952D01*
X78791952Y-89582714D01*
X78839571Y-89535095D01*
X78934809Y-89487476D01*
X79172904Y-89487476D01*
X79268142Y-89535095D01*
X79315761Y-89582714D01*
X79363380Y-89677952D01*
X79363380Y-89916047D01*
X79315761Y-90011285D01*
X79268142Y-90058904D01*
X79363380Y-88535095D02*
X79363380Y-89106523D01*
X79363380Y-88820809D02*
X78363380Y-88820809D01*
X78506238Y-88916047D01*
X78601476Y-89011285D01*
X78649095Y-89106523D01*
X79363380Y-87582714D02*
X79363380Y-88154142D01*
X79363380Y-87868428D02*
X78363380Y-87868428D01*
X78506238Y-87963666D01*
X78601476Y-88058904D01*
X78649095Y-88154142D01*
%TO.C,C13*%
X51538142Y-117549857D02*
X51585761Y-117597476D01*
X51633380Y-117740333D01*
X51633380Y-117835571D01*
X51585761Y-117978428D01*
X51490523Y-118073666D01*
X51395285Y-118121285D01*
X51204809Y-118168904D01*
X51061952Y-118168904D01*
X50871476Y-118121285D01*
X50776238Y-118073666D01*
X50681000Y-117978428D01*
X50633380Y-117835571D01*
X50633380Y-117740333D01*
X50681000Y-117597476D01*
X50728619Y-117549857D01*
X51633380Y-116597476D02*
X51633380Y-117168904D01*
X51633380Y-116883190D02*
X50633380Y-116883190D01*
X50776238Y-116978428D01*
X50871476Y-117073666D01*
X50919095Y-117168904D01*
X50633380Y-116264142D02*
X50633380Y-115645095D01*
X51014333Y-115978428D01*
X51014333Y-115835571D01*
X51061952Y-115740333D01*
X51109571Y-115692714D01*
X51204809Y-115645095D01*
X51442904Y-115645095D01*
X51538142Y-115692714D01*
X51585761Y-115740333D01*
X51633380Y-115835571D01*
X51633380Y-116121285D01*
X51585761Y-116216523D01*
X51538142Y-116264142D01*
X53951142Y-118121285D02*
X53998761Y-118073666D01*
X54046380Y-118121285D01*
X53998761Y-118168904D01*
X53951142Y-118121285D01*
X54046380Y-118121285D01*
X54046380Y-117121285D02*
X54046380Y-117692714D01*
X54046380Y-117407000D02*
X53046380Y-117407000D01*
X53189238Y-117502238D01*
X53284476Y-117597476D01*
X53332095Y-117692714D01*
X53379714Y-116264142D02*
X54046380Y-116264142D01*
X53379714Y-116692714D02*
X53903523Y-116692714D01*
X53998761Y-116645095D01*
X54046380Y-116549857D01*
X54046380Y-116407000D01*
X53998761Y-116311761D01*
X53951142Y-116264142D01*
X53379714Y-115930809D02*
X53379714Y-115549857D01*
X54046380Y-115787952D02*
X53189238Y-115787952D01*
X53094000Y-115740333D01*
X53046380Y-115645095D01*
X53046380Y-115549857D01*
%TO.C,C7*%
X88292142Y-117083666D02*
X88339761Y-117131285D01*
X88387380Y-117274142D01*
X88387380Y-117369380D01*
X88339761Y-117512238D01*
X88244523Y-117607476D01*
X88149285Y-117655095D01*
X87958809Y-117702714D01*
X87815952Y-117702714D01*
X87625476Y-117655095D01*
X87530238Y-117607476D01*
X87435000Y-117512238D01*
X87387380Y-117369380D01*
X87387380Y-117274142D01*
X87435000Y-117131285D01*
X87482619Y-117083666D01*
X87387380Y-116750333D02*
X87387380Y-116083666D01*
X88387380Y-116512238D01*
X90451142Y-118131285D02*
X90498761Y-118083666D01*
X90546380Y-118131285D01*
X90498761Y-118178904D01*
X90451142Y-118131285D01*
X90546380Y-118131285D01*
X90546380Y-117131285D02*
X90546380Y-117702714D01*
X90546380Y-117417000D02*
X89546380Y-117417000D01*
X89689238Y-117512238D01*
X89784476Y-117607476D01*
X89832095Y-117702714D01*
X89879714Y-116274142D02*
X90546380Y-116274142D01*
X89879714Y-116702714D02*
X90403523Y-116702714D01*
X90498761Y-116655095D01*
X90546380Y-116559857D01*
X90546380Y-116417000D01*
X90498761Y-116321761D01*
X90451142Y-116274142D01*
X89879714Y-115940809D02*
X89879714Y-115559857D01*
X90546380Y-115797952D02*
X89689238Y-115797952D01*
X89594000Y-115750333D01*
X89546380Y-115655095D01*
X89546380Y-115559857D01*
%TO.C,C17*%
X87054742Y-80285142D02*
X87007123Y-80332761D01*
X86864266Y-80380380D01*
X86769028Y-80380380D01*
X86626171Y-80332761D01*
X86530933Y-80237523D01*
X86483314Y-80142285D01*
X86435695Y-79951809D01*
X86435695Y-79808952D01*
X86483314Y-79618476D01*
X86530933Y-79523238D01*
X86626171Y-79428000D01*
X86769028Y-79380380D01*
X86864266Y-79380380D01*
X87007123Y-79428000D01*
X87054742Y-79475619D01*
X88007123Y-80380380D02*
X87435695Y-80380380D01*
X87721409Y-80380380D02*
X87721409Y-79380380D01*
X87626171Y-79523238D01*
X87530933Y-79618476D01*
X87435695Y-79666095D01*
X88340457Y-79380380D02*
X89007123Y-79380380D01*
X88578552Y-80380380D01*
X86054742Y-88275619D02*
X86102361Y-88228000D01*
X86197600Y-88180380D01*
X86435695Y-88180380D01*
X86530933Y-88228000D01*
X86578552Y-88275619D01*
X86626171Y-88370857D01*
X86626171Y-88466095D01*
X86578552Y-88608952D01*
X86007123Y-89180380D01*
X86626171Y-89180380D01*
X87007123Y-88275619D02*
X87054742Y-88228000D01*
X87149980Y-88180380D01*
X87388076Y-88180380D01*
X87483314Y-88228000D01*
X87530933Y-88275619D01*
X87578552Y-88370857D01*
X87578552Y-88466095D01*
X87530933Y-88608952D01*
X86959504Y-89180380D01*
X87578552Y-89180380D01*
X88435695Y-88513714D02*
X88435695Y-89180380D01*
X88007123Y-88513714D02*
X88007123Y-89037523D01*
X88054742Y-89132761D01*
X88149980Y-89180380D01*
X88292838Y-89180380D01*
X88388076Y-89132761D01*
X88435695Y-89085142D01*
X89245219Y-88656571D02*
X88911885Y-88656571D01*
X88911885Y-89180380D02*
X88911885Y-88180380D01*
X89388076Y-88180380D01*
%TO.C,C15*%
X35790142Y-129868857D02*
X35837761Y-129916476D01*
X35885380Y-130059333D01*
X35885380Y-130154571D01*
X35837761Y-130297428D01*
X35742523Y-130392666D01*
X35647285Y-130440285D01*
X35456809Y-130487904D01*
X35313952Y-130487904D01*
X35123476Y-130440285D01*
X35028238Y-130392666D01*
X34933000Y-130297428D01*
X34885380Y-130154571D01*
X34885380Y-130059333D01*
X34933000Y-129916476D01*
X34980619Y-129868857D01*
X35885380Y-128916476D02*
X35885380Y-129487904D01*
X35885380Y-129202190D02*
X34885380Y-129202190D01*
X35028238Y-129297428D01*
X35123476Y-129392666D01*
X35171095Y-129487904D01*
X34885380Y-128011714D02*
X34885380Y-128487904D01*
X35361571Y-128535523D01*
X35313952Y-128487904D01*
X35266333Y-128392666D01*
X35266333Y-128154571D01*
X35313952Y-128059333D01*
X35361571Y-128011714D01*
X35456809Y-127964095D01*
X35694904Y-127964095D01*
X35790142Y-128011714D01*
X35837761Y-128059333D01*
X35885380Y-128154571D01*
X35885380Y-128392666D01*
X35837761Y-128487904D01*
X35790142Y-128535523D01*
X37536857Y-130096238D02*
X38103523Y-130096238D01*
X37213047Y-130298619D02*
X37820190Y-130501000D01*
X37820190Y-129974809D01*
X37253523Y-129731952D02*
X37253523Y-129165285D01*
X38103523Y-129529571D01*
X37536857Y-128841476D02*
X38386857Y-128841476D01*
X37577333Y-128841476D02*
X37536857Y-128760523D01*
X37536857Y-128598619D01*
X37577333Y-128517666D01*
X37617809Y-128477190D01*
X37698761Y-128436714D01*
X37941619Y-128436714D01*
X38022571Y-128477190D01*
X38063047Y-128517666D01*
X38103523Y-128598619D01*
X38103523Y-128760523D01*
X38063047Y-128841476D01*
X37536857Y-128193857D02*
X37536857Y-127870047D01*
X38103523Y-128072428D02*
X37374952Y-128072428D01*
X37294000Y-128031952D01*
X37253523Y-127951000D01*
X37253523Y-127870047D01*
D14*
%TO.C,U7*%
X93539000Y-119617000D02*
X111439000Y-119617000D01*
X111439000Y-119617000D02*
X111439000Y-114317000D01*
X93539000Y-114317000D02*
X93539000Y-115967000D01*
X93539000Y-117967000D02*
X93539000Y-119617000D01*
X111439000Y-114317000D02*
X93539000Y-114317000D01*
X93539000Y-117967000D02*
G75*
G03*
X93539000Y-115967000I0J1000000D01*
G01*
%TO.C,C2*%
X84224000Y-92892000D02*
X84224000Y-88852000D01*
X82804000Y-93582000D02*
X82804000Y-92892000D01*
X84224000Y-88852000D02*
X81384000Y-88852000D01*
X82804000Y-88162000D02*
X82804000Y-88852000D01*
X81384000Y-92892000D02*
X84224000Y-92892000D01*
X81384000Y-88852000D02*
X81384000Y-92892000D01*
%TO.C,R7*%
X106958000Y-101505000D02*
X107288000Y-101505000D01*
X104878000Y-101505000D02*
X104548000Y-101505000D01*
X107288000Y-108045000D02*
X106958000Y-108045000D01*
X104548000Y-108045000D02*
X104878000Y-108045000D01*
X104548000Y-101505000D02*
X104548000Y-108045000D01*
X107288000Y-101505000D02*
X107288000Y-108045000D01*
%TO.C,R3*%
X25681000Y-126016000D02*
X25681000Y-132556000D01*
X25681000Y-132556000D02*
X26011000Y-132556000D01*
X28421000Y-126016000D02*
X28421000Y-132556000D01*
X28421000Y-132556000D02*
X28091000Y-132556000D01*
X26011000Y-126016000D02*
X25681000Y-126016000D01*
X28091000Y-126016000D02*
X28421000Y-126016000D01*
%TO.C,U4*%
X93646000Y-131418000D02*
X111546000Y-131418000D01*
X93646000Y-126118000D02*
X93646000Y-127768000D01*
X93646000Y-129768000D02*
X93646000Y-131418000D01*
X111546000Y-131418000D02*
X111546000Y-126118000D01*
X111546000Y-126118000D02*
X93646000Y-126118000D01*
X93646000Y-129768000D02*
G75*
G03*
X93646000Y-127768000I0J1000000D01*
G01*
%TO.C,U9*%
X24954000Y-154787000D02*
X24954000Y-156437000D01*
X24954000Y-156437000D02*
X42854000Y-156437000D01*
X42854000Y-156437000D02*
X42854000Y-151137000D01*
X24954000Y-151137000D02*
X24954000Y-152787000D01*
X42854000Y-151137000D02*
X24954000Y-151137000D01*
X24954000Y-154787000D02*
G75*
G03*
X24954000Y-152787000I0J1000000D01*
G01*
%TO.C,U11*%
X45897000Y-120750000D02*
X45897000Y-115450000D01*
X25457000Y-120750000D02*
X45897000Y-120750000D01*
X25457000Y-119100000D02*
X25457000Y-120750000D01*
X45897000Y-115450000D02*
X25457000Y-115450000D01*
X25457000Y-115450000D02*
X25457000Y-117100000D01*
X25457000Y-119100000D02*
G75*
G03*
X25457000Y-117100000I0J1000000D01*
G01*
%TO.C,C8*%
X53086000Y-144382000D02*
X53086000Y-143692000D01*
X53086000Y-138962000D02*
X53086000Y-139652000D01*
X54506000Y-143692000D02*
X54506000Y-139652000D01*
X54506000Y-139652000D02*
X51666000Y-139652000D01*
X51666000Y-139652000D02*
X51666000Y-143692000D01*
X51666000Y-143692000D02*
X54506000Y-143692000D01*
%TO.C,C3*%
X101750000Y-106668000D02*
X101750000Y-102628000D01*
X101750000Y-102628000D02*
X98910000Y-102628000D01*
X98910000Y-102628000D02*
X98910000Y-106668000D01*
X98910000Y-106668000D02*
X101750000Y-106668000D01*
X100330000Y-101938000D02*
X100330000Y-102628000D01*
X100330000Y-107358000D02*
X100330000Y-106668000D01*
%TO.C,JP1*%
X48828000Y-154559000D02*
X48828000Y-157159000D01*
X46168000Y-153289000D02*
X46168000Y-151959000D01*
X46168000Y-151959000D02*
X47498000Y-151959000D01*
X46168000Y-157159000D02*
X48828000Y-157159000D01*
X46168000Y-154559000D02*
X46168000Y-157159000D01*
X46168000Y-154559000D02*
X48828000Y-154559000D01*
%TO.C,R2*%
X30888000Y-132556000D02*
X31218000Y-132556000D01*
X33298000Y-126016000D02*
X33628000Y-126016000D01*
X30888000Y-126016000D02*
X30888000Y-132556000D01*
X33628000Y-126016000D02*
X33628000Y-132556000D01*
X31218000Y-126016000D02*
X30888000Y-126016000D01*
X33628000Y-132556000D02*
X33298000Y-132556000D01*
%TO.C,C4*%
X91621000Y-130738000D02*
X91621000Y-126698000D01*
X88781000Y-126698000D02*
X88781000Y-130738000D01*
X90201000Y-126008000D02*
X90201000Y-126698000D01*
X88781000Y-130738000D02*
X91621000Y-130738000D01*
X90201000Y-131428000D02*
X90201000Y-130738000D01*
X91621000Y-126698000D02*
X88781000Y-126698000D01*
%TO.C,R4*%
X56415000Y-102394000D02*
X56415000Y-108934000D01*
X56415000Y-108934000D02*
X56745000Y-108934000D01*
X56745000Y-102394000D02*
X56415000Y-102394000D01*
X58825000Y-102394000D02*
X59155000Y-102394000D01*
X59155000Y-108934000D02*
X58825000Y-108934000D01*
X59155000Y-102394000D02*
X59155000Y-108934000D01*
%TO.C,U13*%
X57095000Y-117957000D02*
X57095000Y-119607000D01*
X82615000Y-119607000D02*
X82615000Y-114307000D01*
X57095000Y-114307000D02*
X57095000Y-115957000D01*
X82615000Y-114307000D02*
X57095000Y-114307000D01*
X57095000Y-119607000D02*
X82615000Y-119607000D01*
X57095000Y-117957000D02*
G75*
G03*
X57095000Y-115957000I0J1000000D01*
G01*
%TO.C,JP2*%
X78994000Y-77029000D02*
X84134000Y-77029000D01*
X78994000Y-79689000D02*
X78994000Y-77029000D01*
X78994000Y-79689000D02*
X84134000Y-79689000D01*
X77724000Y-79689000D02*
X76394000Y-79689000D01*
X76394000Y-79689000D02*
X76394000Y-78359000D01*
X84134000Y-79689000D02*
X84134000Y-77029000D01*
%TO.C,X1*%
X20768000Y-92059000D02*
X20768000Y-93709000D01*
X38668000Y-88409000D02*
X20768000Y-88409000D01*
X38668000Y-93709000D02*
X38668000Y-88409000D01*
X20768000Y-88409000D02*
X20768000Y-90059000D01*
X20768000Y-93709000D02*
X38668000Y-93709000D01*
X20768000Y-92059000D02*
G75*
G03*
X20768000Y-90059000I0J1000000D01*
G01*
%TO.C,U3*%
X105724000Y-90949000D02*
X95444000Y-90949000D01*
X95444000Y-90949000D02*
X95444000Y-92599000D01*
X95444000Y-94599000D02*
X95444000Y-96249000D01*
X95444000Y-96249000D02*
X105724000Y-96249000D01*
X105724000Y-96249000D02*
X105724000Y-90949000D01*
X95444000Y-94599000D02*
G75*
G03*
X95444000Y-92599000I0J1000000D01*
G01*
%TO.C,C14*%
X51920000Y-151844000D02*
X51920000Y-155884000D01*
X54760000Y-151844000D02*
X51920000Y-151844000D01*
X53340000Y-156574000D02*
X53340000Y-155884000D01*
X51920000Y-155884000D02*
X54760000Y-155884000D01*
X54760000Y-155884000D02*
X54760000Y-151844000D01*
X53340000Y-151154000D02*
X53340000Y-151844000D01*
%TO.C,L1*%
X97726000Y-84336000D02*
X97726000Y-87876000D01*
X97306000Y-86106000D02*
X97726000Y-86106000D01*
X104966000Y-87876000D02*
X104966000Y-84336000D01*
X105386000Y-86106000D02*
X104966000Y-86106000D01*
X104966000Y-84336000D02*
X97726000Y-84336000D01*
X97726000Y-87876000D02*
X104966000Y-87876000D01*
%TO.C,U6*%
X25472000Y-107669000D02*
X50992000Y-107669000D01*
X50992000Y-102369000D02*
X25472000Y-102369000D01*
X25472000Y-106019000D02*
X25472000Y-107669000D01*
X50992000Y-107669000D02*
X50992000Y-102369000D01*
X25472000Y-102369000D02*
X25472000Y-104019000D01*
X25472000Y-106019000D02*
G75*
G03*
X25472000Y-104019000I0J1000000D01*
G01*
%TO.C,SW1*%
X96461000Y-151301500D02*
X96461000Y-152654833D01*
X103411000Y-151301500D02*
X103411000Y-155361500D01*
X111546000Y-158281500D02*
X94006000Y-158281500D01*
X111546000Y-148381500D02*
X94006000Y-148381500D01*
X109281000Y-151301500D02*
X109281000Y-152654833D01*
X98331000Y-155361500D02*
X99601000Y-155361500D01*
X106261000Y-151301500D02*
X106261000Y-152654833D01*
X102141000Y-151301500D02*
X100871000Y-151301500D01*
X108681000Y-151301500D02*
X108681000Y-152654833D01*
X103601000Y-151301500D02*
X103601000Y-152654833D01*
X98761000Y-151301500D02*
X98761000Y-152654833D01*
X106501000Y-151301500D02*
X106501000Y-152654833D01*
X101301000Y-151301500D02*
X101301000Y-152654833D01*
X106141000Y-151301500D02*
X106141000Y-152654833D01*
X99361000Y-151301500D02*
X99361000Y-152654833D01*
X111546000Y-148381500D02*
X111546000Y-158281500D01*
X101061000Y-151301500D02*
X101061000Y-152654833D01*
X99001000Y-151301500D02*
X99001000Y-152654833D01*
X98641000Y-151301500D02*
X98641000Y-152654833D01*
X109521000Y-151301500D02*
X109521000Y-152654833D01*
X108561000Y-151301500D02*
X108561000Y-152654833D01*
X101901000Y-151301500D02*
X101901000Y-152654833D01*
X106741000Y-151301500D02*
X106741000Y-152654833D01*
X100871000Y-151301500D02*
X100871000Y-155361500D01*
X106981000Y-151301500D02*
X106981000Y-152654833D01*
X97061000Y-151301500D02*
X95791000Y-151301500D01*
X100871000Y-155361500D02*
X102141000Y-155361500D01*
X109641000Y-151301500D02*
X109641000Y-152654833D01*
X99121000Y-151301500D02*
X99121000Y-152654833D01*
X99601000Y-155361500D02*
X99601000Y-151301500D01*
X103721000Y-151301500D02*
X103721000Y-152654833D01*
X109761000Y-152654833D02*
X108491000Y-152654833D01*
X99241000Y-151301500D02*
X99241000Y-152654833D01*
X99601000Y-151301500D02*
X98331000Y-151301500D01*
X96581000Y-151301500D02*
X96581000Y-152654833D01*
X108801000Y-151301500D02*
X108801000Y-152654833D01*
X104681000Y-155361500D02*
X104681000Y-151301500D01*
X101541000Y-151301500D02*
X101541000Y-152654833D01*
X103961000Y-151301500D02*
X103961000Y-152654833D01*
X102141000Y-152654833D02*
X100871000Y-152654833D01*
X97061000Y-152654833D02*
X95791000Y-152654833D01*
X95861000Y-151301500D02*
X95861000Y-152654833D01*
X109761000Y-151301500D02*
X108491000Y-151301500D01*
X106021000Y-151301500D02*
X106021000Y-152654833D01*
X101421000Y-151301500D02*
X101421000Y-152654833D01*
X95791000Y-155361500D02*
X97061000Y-155361500D01*
X103411000Y-155361500D02*
X104681000Y-155361500D01*
X105951000Y-151301500D02*
X105951000Y-155361500D01*
X108921000Y-151301500D02*
X108921000Y-152654833D01*
X103481000Y-151301500D02*
X103481000Y-152654833D01*
X101781000Y-151301500D02*
X101781000Y-152654833D01*
X109401000Y-151301500D02*
X109401000Y-152654833D01*
X111786000Y-148141500D02*
X110403000Y-148141500D01*
X96821000Y-151301500D02*
X96821000Y-152654833D01*
X104081000Y-151301500D02*
X104081000Y-152654833D01*
X98331000Y-151301500D02*
X98331000Y-155361500D01*
X96101000Y-151301500D02*
X96101000Y-152654833D01*
X111786000Y-148141500D02*
X111786000Y-149525500D01*
X106861000Y-151301500D02*
X106861000Y-152654833D01*
X103841000Y-151301500D02*
X103841000Y-152654833D01*
X97061000Y-155361500D02*
X97061000Y-151301500D01*
X101181000Y-151301500D02*
X101181000Y-152654833D01*
X109761000Y-155361500D02*
X109761000Y-151301500D01*
X99481000Y-151301500D02*
X99481000Y-152654833D01*
X106621000Y-151301500D02*
X106621000Y-152654833D01*
X96341000Y-151301500D02*
X96341000Y-152654833D01*
X94006000Y-148381500D02*
X94006000Y-158281500D01*
X102021000Y-151301500D02*
X102021000Y-152654833D01*
X104441000Y-151301500D02*
X104441000Y-152654833D01*
X104681000Y-151301500D02*
X103411000Y-151301500D01*
X108491000Y-155361500D02*
X109761000Y-155361500D01*
X109041000Y-151301500D02*
X109041000Y-152654833D01*
X96941000Y-151301500D02*
X96941000Y-152654833D01*
X102141000Y-155361500D02*
X102141000Y-151301500D01*
X104321000Y-151301500D02*
X104321000Y-152654833D01*
X108491000Y-151301500D02*
X108491000Y-155361500D01*
X96221000Y-151301500D02*
X96221000Y-152654833D01*
X98521000Y-151301500D02*
X98521000Y-152654833D01*
X105951000Y-155361500D02*
X107221000Y-155361500D01*
X107221000Y-155361500D02*
X107221000Y-151301500D01*
X101661000Y-151301500D02*
X101661000Y-152654833D01*
X95791000Y-151301500D02*
X95791000Y-155361500D01*
X99601000Y-152654833D02*
X98331000Y-152654833D01*
X98881000Y-151301500D02*
X98881000Y-152654833D01*
X104561000Y-151301500D02*
X104561000Y-152654833D01*
X107221000Y-151301500D02*
X105951000Y-151301500D01*
X104201000Y-151301500D02*
X104201000Y-152654833D01*
X100941000Y-151301500D02*
X100941000Y-152654833D01*
X106381000Y-151301500D02*
X106381000Y-152654833D01*
X104681000Y-152654833D02*
X103411000Y-152654833D01*
X95981000Y-151301500D02*
X95981000Y-152654833D01*
X96701000Y-151301500D02*
X96701000Y-152654833D01*
X107101000Y-151301500D02*
X107101000Y-152654833D01*
X109161000Y-151301500D02*
X109161000Y-152654833D01*
X107221000Y-152654833D02*
X105951000Y-152654833D01*
X98401000Y-151301500D02*
X98401000Y-152654833D01*
%TO.C,D1*%
X93288000Y-80518000D02*
X94308000Y-80518000D01*
X99748000Y-79048000D02*
X94308000Y-79048000D01*
X99748000Y-81988000D02*
X99748000Y-79048000D01*
X98848000Y-81988000D02*
X98848000Y-79048000D01*
X94308000Y-81988000D02*
X99748000Y-81988000D01*
X98728000Y-81988000D02*
X98728000Y-79048000D01*
X94308000Y-79048000D02*
X94308000Y-81988000D01*
X98968000Y-81988000D02*
X98968000Y-79048000D01*
X100768000Y-80518000D02*
X99748000Y-80518000D01*
%TO.C,U14*%
X74604000Y-156564000D02*
X74604000Y-151264000D01*
X74604000Y-151264000D02*
X56704000Y-151264000D01*
X56704000Y-151264000D02*
X56704000Y-152914000D01*
X56704000Y-156564000D02*
X74604000Y-156564000D01*
X56704000Y-154914000D02*
X56704000Y-156564000D01*
X56704000Y-154914000D02*
G75*
G03*
X56704000Y-152914000I0J1000000D01*
G01*
%TO.C,C16*%
X91591600Y-95528000D02*
X91591600Y-97364000D01*
X90510600Y-95528000D02*
X90510600Y-97694000D01*
X90871600Y-91347000D02*
X90871600Y-93448000D01*
X92111600Y-91940000D02*
X92111600Y-93448000D01*
X90430600Y-91273000D02*
X90430600Y-93448000D01*
X90911600Y-95528000D02*
X90911600Y-97619000D01*
X91951600Y-91824000D02*
X91951600Y-93448000D01*
X92191600Y-92004000D02*
X92191600Y-93448000D01*
X90350600Y-91266000D02*
X90350600Y-93448000D01*
X92231600Y-92038000D02*
X92231600Y-93448000D01*
X92271600Y-92072000D02*
X92271600Y-93448000D01*
X92671600Y-92493000D02*
X92671600Y-96483000D01*
X92391600Y-95528000D02*
X92391600Y-96793000D01*
X92711600Y-92544000D02*
X92711600Y-96432000D01*
X93191600Y-93429000D02*
X93191600Y-95547000D01*
X91391600Y-91518000D02*
X91391600Y-93448000D01*
X90750600Y-95528000D02*
X90750600Y-97655000D01*
X91351600Y-91502000D02*
X91351600Y-93448000D01*
X92551600Y-92351000D02*
X92551600Y-96625000D01*
X91631600Y-95528000D02*
X91631600Y-97344000D01*
X91791600Y-91722000D02*
X91791600Y-93448000D01*
X91911600Y-91798000D02*
X91911600Y-93448000D01*
X92031600Y-91881000D02*
X92031600Y-93448000D01*
X91991600Y-95528000D02*
X91991600Y-97124000D01*
X92431600Y-92223000D02*
X92431600Y-96753000D01*
X91671600Y-91654000D02*
X91671600Y-93448000D01*
X92191600Y-95528000D02*
X92191600Y-96972000D01*
X93111600Y-93226000D02*
X93111600Y-95750000D01*
X91191600Y-91441000D02*
X91191600Y-93448000D01*
X93031600Y-93056000D02*
X93031600Y-95920000D01*
X90710600Y-95528000D02*
X90710600Y-97663000D01*
X90991600Y-95528000D02*
X90991600Y-97598000D01*
X90390600Y-91270000D02*
X90390600Y-93448000D01*
X92591600Y-92396000D02*
X92591600Y-96580000D01*
X92911600Y-92838000D02*
X92911600Y-96138000D01*
X90310600Y-91264000D02*
X90310600Y-97712000D01*
X91031600Y-95528000D02*
X91031600Y-97586000D01*
X90951600Y-91367000D02*
X90951600Y-93448000D01*
X90510600Y-91282000D02*
X90510600Y-93448000D01*
X91431600Y-91536000D02*
X91431600Y-93448000D01*
X91351600Y-95528000D02*
X91351600Y-97474000D01*
X92391600Y-92183000D02*
X92391600Y-93448000D01*
X91271600Y-95528000D02*
X91271600Y-97506000D01*
X91311600Y-91486000D02*
X91311600Y-93448000D01*
X92871600Y-92774000D02*
X92871600Y-96202000D01*
X90630600Y-91299000D02*
X90630600Y-93448000D01*
X91551600Y-95528000D02*
X91551600Y-97384000D01*
X92791600Y-92654000D02*
X92791600Y-96322000D01*
X91551600Y-91592000D02*
X91551600Y-93448000D01*
X91671600Y-95528000D02*
X91671600Y-97322000D01*
X90390600Y-95528000D02*
X90390600Y-97706000D01*
X90550600Y-91287000D02*
X90550600Y-93448000D01*
X90190600Y-91258000D02*
X90190600Y-97718000D01*
X90951600Y-95528000D02*
X90951600Y-97609000D01*
X90710600Y-91313000D02*
X90710600Y-93448000D01*
X93351600Y-94086000D02*
X93351600Y-94890000D01*
X91391600Y-95528000D02*
X91391600Y-97458000D01*
X92071600Y-95528000D02*
X92071600Y-97066000D01*
X92311600Y-95528000D02*
X92311600Y-96868000D01*
X92151600Y-91972000D02*
X92151600Y-93448000D01*
X91231600Y-95528000D02*
X91231600Y-97521000D01*
X92991600Y-92979000D02*
X92991600Y-95997000D01*
X91111600Y-91414000D02*
X91111600Y-93448000D01*
X91231600Y-91455000D02*
X91231600Y-93448000D01*
X91711600Y-95528000D02*
X91711600Y-97300000D01*
X86925359Y-92334000D02*
X86925359Y-92964000D01*
X90470600Y-95528000D02*
X90470600Y-97699000D01*
X91311600Y-95528000D02*
X91311600Y-97490000D01*
X91111600Y-95528000D02*
X91111600Y-97562000D01*
X91511600Y-91572000D02*
X91511600Y-93448000D01*
X92231600Y-95528000D02*
X92231600Y-96938000D01*
X90350600Y-95528000D02*
X90350600Y-97710000D01*
X92151600Y-95528000D02*
X92151600Y-97004000D01*
X92271600Y-95528000D02*
X92271600Y-96904000D01*
X91591600Y-91612000D02*
X91591600Y-93448000D01*
X91991600Y-91852000D02*
X91991600Y-93448000D01*
X90750600Y-91321000D02*
X90750600Y-93448000D01*
X91431600Y-95528000D02*
X91431600Y-97440000D01*
X91191600Y-95528000D02*
X91191600Y-97535000D01*
X90871600Y-95528000D02*
X90871600Y-97629000D01*
X93231600Y-93548000D02*
X93231600Y-95428000D01*
X91071600Y-95528000D02*
X91071600Y-97574000D01*
X91151600Y-95528000D02*
X91151600Y-97549000D01*
X92351600Y-95528000D02*
X92351600Y-96831000D01*
X91031600Y-91390000D02*
X91031600Y-93448000D01*
X91471600Y-95528000D02*
X91471600Y-97422000D01*
X91751600Y-91698000D02*
X91751600Y-93448000D01*
X90670600Y-95528000D02*
X90670600Y-97670000D01*
X90911600Y-91357000D02*
X90911600Y-93448000D01*
X92751600Y-92598000D02*
X92751600Y-96378000D01*
X91791600Y-95528000D02*
X91791600Y-97254000D01*
X91831600Y-95528000D02*
X91831600Y-97230000D01*
X91151600Y-91427000D02*
X91151600Y-93448000D01*
X90630600Y-95528000D02*
X90630600Y-97677000D01*
X92351600Y-92145000D02*
X92351600Y-93448000D01*
X92031600Y-95528000D02*
X92031600Y-97095000D01*
X90670600Y-91306000D02*
X90670600Y-93448000D01*
X90550600Y-95528000D02*
X90550600Y-97689000D01*
X90590600Y-91293000D02*
X90590600Y-93448000D01*
X92471600Y-92264000D02*
X92471600Y-96712000D01*
X90590600Y-95528000D02*
X90590600Y-97683000D01*
X90230600Y-91260000D02*
X90230600Y-97716000D01*
X90831600Y-95528000D02*
X90831600Y-97638000D01*
X92511600Y-92306000D02*
X92511600Y-96670000D01*
X92111600Y-95528000D02*
X92111600Y-97036000D01*
X91831600Y-91746000D02*
X91831600Y-93448000D01*
X91951600Y-95528000D02*
X91951600Y-97152000D01*
X91071600Y-91402000D02*
X91071600Y-93448000D01*
X93271600Y-93686000D02*
X93271600Y-95290000D01*
X90150600Y-91258000D02*
X90150600Y-97718000D01*
X91871600Y-91772000D02*
X91871600Y-93448000D01*
X90470600Y-91277000D02*
X90470600Y-93448000D01*
X86610359Y-92649000D02*
X87240359Y-92649000D01*
X90430600Y-95528000D02*
X90430600Y-97703000D01*
X91471600Y-91554000D02*
X91471600Y-93448000D01*
X93071600Y-93138000D02*
X93071600Y-95838000D01*
X91631600Y-91632000D02*
X91631600Y-93448000D01*
X92071600Y-91910000D02*
X92071600Y-93448000D01*
X90991600Y-91378000D02*
X90991600Y-93448000D01*
X91911600Y-95528000D02*
X91911600Y-97178000D01*
X91871600Y-95528000D02*
X91871600Y-97204000D01*
X91711600Y-91676000D02*
X91711600Y-93448000D01*
X91511600Y-95528000D02*
X91511600Y-97404000D01*
X91751600Y-95528000D02*
X91751600Y-97278000D01*
X90831600Y-91338000D02*
X90831600Y-93448000D01*
X92951600Y-92907000D02*
X92951600Y-96069000D01*
X92311600Y-92108000D02*
X92311600Y-93448000D01*
X90790600Y-95528000D02*
X90790600Y-97647000D01*
X92631600Y-92444000D02*
X92631600Y-96532000D01*
X91271600Y-91470000D02*
X91271600Y-93448000D01*
X90110600Y-91258000D02*
X90110600Y-97718000D01*
X93151600Y-93323000D02*
X93151600Y-95653000D01*
X92831600Y-92712000D02*
X92831600Y-96264000D01*
X90270600Y-91261000D02*
X90270600Y-97715000D01*
X93311600Y-93855000D02*
X93311600Y-95121000D01*
X90790600Y-91329000D02*
X90790600Y-93448000D01*
X93380600Y-94488000D02*
G75*
G03*
X93380600Y-94488000I-3270000J0D01*
G01*
%TO.C,U8*%
X74350000Y-139072000D02*
X56450000Y-139072000D01*
X56450000Y-144372000D02*
X74350000Y-144372000D01*
X74350000Y-144372000D02*
X74350000Y-139072000D01*
X56450000Y-142722000D02*
X56450000Y-144372000D01*
X56450000Y-139072000D02*
X56450000Y-140722000D01*
X56450000Y-142722000D02*
G75*
G03*
X56450000Y-140722000I0J1000000D01*
G01*
%TO.C,C11*%
X20551000Y-120070000D02*
X23391000Y-120070000D01*
X23391000Y-116030000D02*
X20551000Y-116030000D01*
X23391000Y-120070000D02*
X23391000Y-116030000D01*
X21971000Y-115340000D02*
X21971000Y-116030000D01*
X21971000Y-120760000D02*
X21971000Y-120070000D01*
X20551000Y-116030000D02*
X20551000Y-120070000D01*
%TO.C,U1*%
X94929000Y-102506000D02*
X77029000Y-102506000D01*
X77029000Y-107806000D02*
X94929000Y-107806000D01*
X77029000Y-106156000D02*
X77029000Y-107806000D01*
X94929000Y-107806000D02*
X94929000Y-102506000D01*
X77029000Y-102506000D02*
X77029000Y-104156000D01*
X77029000Y-106156000D02*
G75*
G03*
X77029000Y-104156000I0J1000000D01*
G01*
%TO.C,U12*%
X42859000Y-144118000D02*
X42859000Y-138818000D01*
X24959000Y-138818000D02*
X24959000Y-140468000D01*
X42859000Y-138818000D02*
X24959000Y-138818000D01*
X24959000Y-142468000D02*
X24959000Y-144118000D01*
X24959000Y-144118000D02*
X42859000Y-144118000D01*
X24959000Y-142468000D02*
G75*
G03*
X24959000Y-140468000I0J1000000D01*
G01*
%TO.C,R5*%
X112165000Y-89440000D02*
X112495000Y-89440000D01*
X112495000Y-95980000D02*
X112165000Y-95980000D01*
X112495000Y-89440000D02*
X112495000Y-95980000D01*
X109755000Y-95980000D02*
X110085000Y-95980000D01*
X110085000Y-89440000D02*
X109755000Y-89440000D01*
X109755000Y-89440000D02*
X109755000Y-95980000D01*
%TO.C,U10*%
X111566000Y-138447000D02*
X86046000Y-138447000D01*
X111566000Y-143747000D02*
X111566000Y-138447000D01*
X86046000Y-143747000D02*
X111566000Y-143747000D01*
X86046000Y-138447000D02*
X86046000Y-140097000D01*
X86046000Y-142097000D02*
X86046000Y-143747000D01*
X86046000Y-142097000D02*
G75*
G03*
X86046000Y-140097000I0J1000000D01*
G01*
%TO.C,C5*%
X45489000Y-92063000D02*
X45489000Y-88023000D01*
X44069000Y-92753000D02*
X44069000Y-92063000D01*
X42649000Y-88023000D02*
X42649000Y-92063000D01*
X44069000Y-87333000D02*
X44069000Y-88023000D01*
X45489000Y-88023000D02*
X42649000Y-88023000D01*
X42649000Y-92063000D02*
X45489000Y-92063000D01*
%TO.C,C10*%
X84001000Y-143057000D02*
X84001000Y-139017000D01*
X81161000Y-139017000D02*
X81161000Y-143057000D01*
X81161000Y-143057000D02*
X84001000Y-143057000D01*
X84001000Y-139017000D02*
X81161000Y-139017000D01*
X82581000Y-143747000D02*
X82581000Y-143057000D01*
X82581000Y-138327000D02*
X82581000Y-139017000D01*
%TO.C,C6*%
X22098000Y-102259000D02*
X22098000Y-102949000D01*
X22098000Y-107679000D02*
X22098000Y-106989000D01*
X20678000Y-106989000D02*
X23518000Y-106989000D01*
X20678000Y-102949000D02*
X20678000Y-106989000D01*
X23518000Y-102949000D02*
X20678000Y-102949000D01*
X23518000Y-106989000D02*
X23518000Y-102949000D01*
%TO.C,C1*%
X74445000Y-103263000D02*
X71605000Y-103263000D01*
X73025000Y-102573000D02*
X73025000Y-103263000D01*
X71605000Y-103263000D02*
X71605000Y-107303000D01*
X71605000Y-107303000D02*
X74445000Y-107303000D01*
X74445000Y-107303000D02*
X74445000Y-103263000D01*
X73025000Y-107993000D02*
X73025000Y-107303000D01*
%TO.C,R1*%
X64362000Y-102394000D02*
X64362000Y-108934000D01*
X64032000Y-102394000D02*
X64362000Y-102394000D01*
X64362000Y-108934000D02*
X64032000Y-108934000D01*
X61622000Y-102394000D02*
X61622000Y-108934000D01*
X61952000Y-102394000D02*
X61622000Y-102394000D01*
X61622000Y-108934000D02*
X61952000Y-108934000D01*
%TO.C,R6*%
X110085000Y-101378000D02*
X109755000Y-101378000D01*
X112495000Y-107918000D02*
X112165000Y-107918000D01*
X109755000Y-107918000D02*
X110085000Y-107918000D01*
X112495000Y-101378000D02*
X112495000Y-107918000D01*
X112165000Y-101378000D02*
X112495000Y-101378000D01*
X109755000Y-101378000D02*
X109755000Y-107918000D01*
%TO.C,C12*%
X21463000Y-144128000D02*
X21463000Y-143438000D01*
X22883000Y-139398000D02*
X20043000Y-139398000D01*
X20043000Y-139398000D02*
X20043000Y-143438000D01*
X20043000Y-143438000D02*
X22883000Y-143438000D01*
X21463000Y-138708000D02*
X21463000Y-139398000D01*
X22883000Y-143438000D02*
X22883000Y-139398000D01*
%TO.C,C9*%
X21590000Y-151027000D02*
X21590000Y-151717000D01*
X20170000Y-151717000D02*
X20170000Y-155757000D01*
X23010000Y-151717000D02*
X20170000Y-151717000D01*
X23010000Y-155757000D02*
X23010000Y-151717000D01*
X20170000Y-155757000D02*
X23010000Y-155757000D01*
X21590000Y-156447000D02*
X21590000Y-155757000D01*
%TO.C,U5*%
X47311000Y-83837000D02*
X47311000Y-89297000D01*
X47311000Y-91297000D02*
X47311000Y-96757000D01*
X77911000Y-96757000D02*
X77911000Y-83837000D01*
X77911000Y-83837000D02*
X47311000Y-83837000D01*
X47311000Y-96757000D02*
X77911000Y-96757000D01*
X47311000Y-91297000D02*
G75*
G03*
X47311000Y-89297000I0J1000000D01*
G01*
%TO.C,C13*%
X53721000Y-114197000D02*
X53721000Y-114887000D01*
X53721000Y-119617000D02*
X53721000Y-118927000D01*
X55141000Y-114887000D02*
X52301000Y-114887000D01*
X52301000Y-118927000D02*
X55141000Y-118927000D01*
X52301000Y-114887000D02*
X52301000Y-118927000D01*
X55141000Y-118927000D02*
X55141000Y-114887000D01*
%TO.C,C7*%
X91514000Y-114897000D02*
X88674000Y-114897000D01*
X91514000Y-118937000D02*
X91514000Y-114897000D01*
X90094000Y-114207000D02*
X90094000Y-114897000D01*
X88674000Y-114897000D02*
X88674000Y-118937000D01*
X88674000Y-118937000D02*
X91514000Y-118937000D01*
X90094000Y-119627000D02*
X90094000Y-118937000D01*
%TO.C,C17*%
X89218600Y-85368000D02*
X89218600Y-87184000D01*
X89378600Y-81562000D02*
X89378600Y-83288000D01*
X89418600Y-85368000D02*
X89418600Y-87070000D01*
X88057600Y-81117000D02*
X88057600Y-83288000D01*
X89658600Y-85368000D02*
X89658600Y-86906000D01*
X89338600Y-85368000D02*
X89338600Y-87118000D01*
X90578600Y-82819000D02*
X90578600Y-85837000D01*
X88257600Y-85368000D02*
X88257600Y-87510000D01*
X88418600Y-81178000D02*
X88418600Y-83288000D01*
X88858600Y-81310000D02*
X88858600Y-83288000D01*
X89258600Y-81494000D02*
X89258600Y-83288000D01*
X84197359Y-82489000D02*
X84827359Y-82489000D01*
X90378600Y-82494000D02*
X90378600Y-86162000D01*
X88257600Y-81146000D02*
X88257600Y-83288000D01*
X89378600Y-85368000D02*
X89378600Y-87094000D01*
X88898600Y-85368000D02*
X88898600Y-87330000D01*
X90898600Y-83695000D02*
X90898600Y-84961000D01*
X89818600Y-85368000D02*
X89818600Y-86778000D01*
X88297600Y-85368000D02*
X88297600Y-87503000D01*
X89778600Y-85368000D02*
X89778600Y-86812000D01*
X90498600Y-82678000D02*
X90498600Y-85978000D01*
X88778600Y-81281000D02*
X88778600Y-83288000D01*
X87937600Y-81106000D02*
X87937600Y-83288000D01*
X87817600Y-81100000D02*
X87817600Y-87556000D01*
X88097600Y-81122000D02*
X88097600Y-83288000D01*
X90458600Y-82614000D02*
X90458600Y-86042000D01*
X89538600Y-81664000D02*
X89538600Y-83288000D01*
X90098600Y-82146000D02*
X90098600Y-86510000D01*
X90218600Y-82284000D02*
X90218600Y-86372000D01*
X89738600Y-81812000D02*
X89738600Y-83288000D01*
X89458600Y-81612000D02*
X89458600Y-83288000D01*
X89138600Y-85368000D02*
X89138600Y-87224000D01*
X89058600Y-81394000D02*
X89058600Y-83288000D01*
X88658600Y-85368000D02*
X88658600Y-87414000D01*
X88578600Y-81218000D02*
X88578600Y-83288000D01*
X88377600Y-81169000D02*
X88377600Y-83288000D01*
X88818600Y-85368000D02*
X88818600Y-87361000D01*
X89178600Y-85368000D02*
X89178600Y-87204000D01*
X88177600Y-81133000D02*
X88177600Y-83288000D01*
X88217600Y-85368000D02*
X88217600Y-87517000D01*
X89138600Y-81432000D02*
X89138600Y-83288000D01*
X89178600Y-81452000D02*
X89178600Y-83288000D01*
X89698600Y-85368000D02*
X89698600Y-86876000D01*
X88938600Y-81342000D02*
X88938600Y-83288000D01*
X89498600Y-85368000D02*
X89498600Y-87018000D01*
X88217600Y-81139000D02*
X88217600Y-83288000D01*
X90178600Y-82236000D02*
X90178600Y-86420000D01*
X89298600Y-85368000D02*
X89298600Y-87140000D01*
X88698600Y-85368000D02*
X88698600Y-87402000D01*
X89098600Y-81412000D02*
X89098600Y-83288000D01*
X89778600Y-81844000D02*
X89778600Y-83288000D01*
X88778600Y-85368000D02*
X88778600Y-87375000D01*
X89818600Y-81878000D02*
X89818600Y-83288000D01*
X88858600Y-85368000D02*
X88858600Y-87346000D01*
X88898600Y-81326000D02*
X88898600Y-83288000D01*
X89338600Y-81538000D02*
X89338600Y-83288000D01*
X90058600Y-82104000D02*
X90058600Y-86552000D01*
X90698600Y-83066000D02*
X90698600Y-85590000D01*
X89898600Y-85368000D02*
X89898600Y-86708000D01*
X87977600Y-85368000D02*
X87977600Y-87546000D01*
X89858600Y-85368000D02*
X89858600Y-86744000D01*
X88578600Y-85368000D02*
X88578600Y-87438000D01*
X90418600Y-82552000D02*
X90418600Y-86104000D01*
X88538600Y-85368000D02*
X88538600Y-87449000D01*
X90338600Y-82438000D02*
X90338600Y-86218000D01*
X90778600Y-83269000D02*
X90778600Y-85387000D01*
X88498600Y-81197000D02*
X88498600Y-83288000D01*
X88017600Y-85368000D02*
X88017600Y-87543000D01*
X88938600Y-85368000D02*
X88938600Y-87314000D01*
X89418600Y-81586000D02*
X89418600Y-83288000D01*
X89258600Y-85368000D02*
X89258600Y-87162000D01*
X89578600Y-81692000D02*
X89578600Y-83288000D01*
X90738600Y-83163000D02*
X90738600Y-85493000D01*
X88698600Y-81254000D02*
X88698600Y-83288000D01*
X88458600Y-85368000D02*
X88458600Y-87469000D01*
X88057600Y-85368000D02*
X88057600Y-87539000D01*
X89498600Y-81638000D02*
X89498600Y-83288000D01*
X90618600Y-82896000D02*
X90618600Y-85760000D01*
X90298600Y-82384000D02*
X90298600Y-86272000D01*
X88377600Y-85368000D02*
X88377600Y-87487000D01*
X89978600Y-85368000D02*
X89978600Y-86633000D01*
X90018600Y-82063000D02*
X90018600Y-86593000D01*
X88818600Y-81295000D02*
X88818600Y-83288000D01*
X88297600Y-81153000D02*
X88297600Y-83288000D01*
X88978600Y-85368000D02*
X88978600Y-87298000D01*
X88738600Y-81267000D02*
X88738600Y-83288000D01*
X89018600Y-81376000D02*
X89018600Y-83288000D01*
X90258600Y-82333000D02*
X90258600Y-86323000D01*
X89938600Y-85368000D02*
X89938600Y-86671000D01*
X89898600Y-81948000D02*
X89898600Y-83288000D01*
X88097600Y-85368000D02*
X88097600Y-87534000D01*
X88538600Y-81207000D02*
X88538600Y-83288000D01*
X88137600Y-85368000D02*
X88137600Y-87529000D01*
X87937600Y-85368000D02*
X87937600Y-87550000D01*
X88337600Y-81161000D02*
X88337600Y-83288000D01*
X87737600Y-81098000D02*
X87737600Y-87558000D01*
X89618600Y-81721000D02*
X89618600Y-83288000D01*
X90818600Y-83388000D02*
X90818600Y-85268000D01*
X90538600Y-82747000D02*
X90538600Y-85909000D01*
X87857600Y-81101000D02*
X87857600Y-87555000D01*
X90938600Y-83926000D02*
X90938600Y-84730000D01*
X89018600Y-85368000D02*
X89018600Y-87280000D01*
X89698600Y-81780000D02*
X89698600Y-83288000D01*
X87977600Y-81110000D02*
X87977600Y-83288000D01*
X90858600Y-83526000D02*
X90858600Y-85130000D01*
X89298600Y-81516000D02*
X89298600Y-83288000D01*
X88177600Y-85368000D02*
X88177600Y-87523000D01*
X89618600Y-85368000D02*
X89618600Y-86935000D01*
X89098600Y-85368000D02*
X89098600Y-87244000D01*
X89578600Y-85368000D02*
X89578600Y-86964000D01*
X90658600Y-82978000D02*
X90658600Y-85678000D01*
X90138600Y-82191000D02*
X90138600Y-86465000D01*
X87697600Y-81098000D02*
X87697600Y-87558000D01*
X88137600Y-81127000D02*
X88137600Y-83288000D01*
X88618600Y-85368000D02*
X88618600Y-87426000D01*
X89538600Y-85368000D02*
X89538600Y-86992000D01*
X88658600Y-81242000D02*
X88658600Y-83288000D01*
X88017600Y-81113000D02*
X88017600Y-83288000D01*
X89058600Y-85368000D02*
X89058600Y-87262000D01*
X88738600Y-85368000D02*
X88738600Y-87389000D01*
X89978600Y-82023000D02*
X89978600Y-83288000D01*
X88498600Y-85368000D02*
X88498600Y-87459000D01*
X89218600Y-81472000D02*
X89218600Y-83288000D01*
X88458600Y-81187000D02*
X88458600Y-83288000D01*
X88418600Y-85368000D02*
X88418600Y-87478000D01*
X89658600Y-81750000D02*
X89658600Y-83288000D01*
X89458600Y-85368000D02*
X89458600Y-87044000D01*
X88618600Y-81230000D02*
X88618600Y-83288000D01*
X89858600Y-81912000D02*
X89858600Y-83288000D01*
X89738600Y-85368000D02*
X89738600Y-86844000D01*
X84512359Y-82174000D02*
X84512359Y-82804000D01*
X87897600Y-81104000D02*
X87897600Y-87552000D01*
X89938600Y-81985000D02*
X89938600Y-83288000D01*
X88337600Y-85368000D02*
X88337600Y-87495000D01*
X88978600Y-81358000D02*
X88978600Y-83288000D01*
X87777600Y-81098000D02*
X87777600Y-87558000D01*
X90967600Y-84328000D02*
G75*
G03*
X90967600Y-84328000I-3270000J0D01*
G01*
%TO.C,C15*%
X36299000Y-127206000D02*
X36299000Y-131246000D01*
X39139000Y-127206000D02*
X36299000Y-127206000D01*
X36299000Y-131246000D02*
X39139000Y-131246000D01*
X37719000Y-126516000D02*
X37719000Y-127206000D01*
X37719000Y-131936000D02*
X37719000Y-131246000D01*
X39139000Y-131246000D02*
X39139000Y-127206000D01*
%TD*%
M02*
