%TF.GenerationSoftware,KiCad,Pcbnew,6.0.9-8da3e8f707~117~ubuntu20.04.1*%
%TF.CreationDate,2023-03-15T10:17:44-04:00*%
%TF.ProjectId,coco9511pak,636f636f-3935-4313-9170-616b2e6b6963,rev?*%
%TF.SameCoordinates,Original*%
%TF.FileFunction,Profile,NP*%
%FSLAX46Y46*%
G04 Gerber Fmt 4.6, Leading zero omitted, Abs format (unit mm)*
G04 Created by KiCad (PCBNEW 6.0.9-8da3e8f707~117~ubuntu20.04.1) date 2023-03-15 10:17:44*
%MOMM*%
%LPD*%
G01*
G04 APERTURE LIST*
%TA.AperFunction,Profile*%
%ADD10C,0.100000*%
%TD*%
G04 APERTURE END LIST*
D10*
X36068000Y-161290000D02*
X39116000Y-161290000D01*
X29083000Y-171323000D02*
X36068000Y-171323000D01*
X64516001Y-110490000D02*
G75*
G03*
X64516001Y-110490000I-1J0D01*
G01*
X95504000Y-171323000D02*
X95504000Y-161290000D01*
X25146000Y-179197000D02*
X29083000Y-179197000D01*
X36068000Y-171323000D02*
X36068000Y-161290000D01*
X69596000Y-130048000D02*
G75*
G03*
X69596000Y-130048000I-3810000J0D01*
G01*
X39116000Y-161290000D02*
X39116000Y-173355000D01*
X39116000Y-173355000D02*
X92456000Y-173355000D01*
X95504000Y-171323000D02*
X102489000Y-171323000D01*
X16637000Y-170345000D02*
X25146000Y-179197000D01*
X114935000Y-72117000D02*
X114935000Y-170307000D01*
X102489000Y-171323000D02*
X102489000Y-179197000D01*
X102489000Y-179197000D02*
X106426000Y-179197000D01*
X106426000Y-179197000D02*
X114935000Y-170307000D01*
X92456000Y-161290000D02*
X92456000Y-173355000D01*
X92456000Y-161290000D02*
X95504000Y-161290000D01*
X23217000Y-78867000D02*
G75*
G03*
X23217000Y-78867000I-1500000J0D01*
G01*
X16637000Y-72155000D02*
X114935000Y-72117000D01*
X16637000Y-170345000D02*
X16637000Y-72155000D01*
X111355000Y-78613000D02*
G75*
G03*
X111355000Y-78613000I-1500000J0D01*
G01*
X29083000Y-171323000D02*
X29083000Y-179197000D01*
M02*
