%TF.GenerationSoftware,KiCad,Pcbnew,6.0.9-8da3e8f707~117~ubuntu20.04.1*%
%TF.CreationDate,2023-01-11T13:14:19-05:00*%
%TF.ProjectId,coco9511pak,636f636f-3935-4313-9170-616b2e6b6963,rev?*%
%TF.SameCoordinates,Original*%
%TF.FileFunction,Legend,Top*%
%TF.FilePolarity,Positive*%
%FSLAX46Y46*%
G04 Gerber Fmt 4.6, Leading zero omitted, Abs format (unit mm)*
G04 Created by KiCad (PCBNEW 6.0.9-8da3e8f707~117~ubuntu20.04.1) date 2023-01-11 13:14:19*
%MOMM*%
%LPD*%
G01*
G04 APERTURE LIST*
%ADD10C,0.300000*%
%ADD11C,0.250000*%
%ADD12C,0.150000*%
%ADD13C,0.120000*%
G04 APERTURE END LIST*
D10*
X92034571Y-156150571D02*
X92177428Y-156150571D01*
X92320285Y-156222000D01*
X92391714Y-156293428D01*
X92463142Y-156436285D01*
X92534571Y-156722000D01*
X92534571Y-157079142D01*
X92463142Y-157364857D01*
X92391714Y-157507714D01*
X92320285Y-157579142D01*
X92177428Y-157650571D01*
X92034571Y-157650571D01*
X91891714Y-157579142D01*
X91820285Y-157507714D01*
X91748857Y-157364857D01*
X91677428Y-157079142D01*
X91677428Y-156722000D01*
X91748857Y-156436285D01*
X91820285Y-156293428D01*
X91891714Y-156222000D01*
X92034571Y-156150571D01*
D11*
X30451976Y-74713666D02*
X30928166Y-74713666D01*
X30356738Y-74999380D02*
X30690071Y-73999380D01*
X31023404Y-74999380D01*
X31356738Y-74999380D02*
X31356738Y-73999380D01*
X31690071Y-74713666D01*
X32023404Y-73999380D01*
X32023404Y-74999380D01*
X32547214Y-74999380D02*
X32737690Y-74999380D01*
X32832928Y-74951761D01*
X32880547Y-74904142D01*
X32975785Y-74761285D01*
X33023404Y-74570809D01*
X33023404Y-74189857D01*
X32975785Y-74094619D01*
X32928166Y-74047000D01*
X32832928Y-73999380D01*
X32642452Y-73999380D01*
X32547214Y-74047000D01*
X32499595Y-74094619D01*
X32451976Y-74189857D01*
X32451976Y-74427952D01*
X32499595Y-74523190D01*
X32547214Y-74570809D01*
X32642452Y-74618428D01*
X32832928Y-74618428D01*
X32928166Y-74570809D01*
X32975785Y-74523190D01*
X33023404Y-74427952D01*
X33928166Y-73999380D02*
X33451976Y-73999380D01*
X33404357Y-74475571D01*
X33451976Y-74427952D01*
X33547214Y-74380333D01*
X33785309Y-74380333D01*
X33880547Y-74427952D01*
X33928166Y-74475571D01*
X33975785Y-74570809D01*
X33975785Y-74808904D01*
X33928166Y-74904142D01*
X33880547Y-74951761D01*
X33785309Y-74999380D01*
X33547214Y-74999380D01*
X33451976Y-74951761D01*
X33404357Y-74904142D01*
X34928166Y-74999380D02*
X34356738Y-74999380D01*
X34642452Y-74999380D02*
X34642452Y-73999380D01*
X34547214Y-74142238D01*
X34451976Y-74237476D01*
X34356738Y-74285095D01*
X35880547Y-74999380D02*
X35309119Y-74999380D01*
X35594833Y-74999380D02*
X35594833Y-73999380D01*
X35499595Y-74142238D01*
X35404357Y-74237476D01*
X35309119Y-74285095D01*
X37071023Y-74999380D02*
X37071023Y-73999380D01*
X37451976Y-73999380D01*
X37547214Y-74047000D01*
X37594833Y-74094619D01*
X37642452Y-74189857D01*
X37642452Y-74332714D01*
X37594833Y-74427952D01*
X37547214Y-74475571D01*
X37451976Y-74523190D01*
X37071023Y-74523190D01*
X38499595Y-74999380D02*
X38499595Y-74475571D01*
X38451976Y-74380333D01*
X38356738Y-74332714D01*
X38166261Y-74332714D01*
X38071023Y-74380333D01*
X38499595Y-74951761D02*
X38404357Y-74999380D01*
X38166261Y-74999380D01*
X38071023Y-74951761D01*
X38023404Y-74856523D01*
X38023404Y-74761285D01*
X38071023Y-74666047D01*
X38166261Y-74618428D01*
X38404357Y-74618428D01*
X38499595Y-74570809D01*
X38975785Y-74999380D02*
X38975785Y-73999380D01*
X39071023Y-74618428D02*
X39356738Y-74999380D01*
X39356738Y-74332714D02*
X38975785Y-74713666D01*
X40404357Y-74332714D02*
X40785309Y-74332714D01*
X40547214Y-74999380D02*
X40547214Y-74142238D01*
X40594833Y-74047000D01*
X40690071Y-73999380D01*
X40785309Y-73999380D01*
X41261500Y-74999380D02*
X41166261Y-74951761D01*
X41118642Y-74904142D01*
X41071023Y-74808904D01*
X41071023Y-74523190D01*
X41118642Y-74427952D01*
X41166261Y-74380333D01*
X41261500Y-74332714D01*
X41404357Y-74332714D01*
X41499595Y-74380333D01*
X41547214Y-74427952D01*
X41594833Y-74523190D01*
X41594833Y-74808904D01*
X41547214Y-74904142D01*
X41499595Y-74951761D01*
X41404357Y-74999380D01*
X41261500Y-74999380D01*
X42023404Y-74999380D02*
X42023404Y-74332714D01*
X42023404Y-74523190D02*
X42071023Y-74427952D01*
X42118642Y-74380333D01*
X42213880Y-74332714D01*
X42309119Y-74332714D01*
X43975785Y-74904142D02*
X43928166Y-74951761D01*
X43785309Y-74999380D01*
X43690071Y-74999380D01*
X43547214Y-74951761D01*
X43451976Y-74856523D01*
X43404357Y-74761285D01*
X43356738Y-74570809D01*
X43356738Y-74427952D01*
X43404357Y-74237476D01*
X43451976Y-74142238D01*
X43547214Y-74047000D01*
X43690071Y-73999380D01*
X43785309Y-73999380D01*
X43928166Y-74047000D01*
X43975785Y-74094619D01*
X44547214Y-74999380D02*
X44451976Y-74951761D01*
X44404357Y-74904142D01*
X44356738Y-74808904D01*
X44356738Y-74523190D01*
X44404357Y-74427952D01*
X44451976Y-74380333D01*
X44547214Y-74332714D01*
X44690071Y-74332714D01*
X44785309Y-74380333D01*
X44832928Y-74427952D01*
X44880547Y-74523190D01*
X44880547Y-74808904D01*
X44832928Y-74904142D01*
X44785309Y-74951761D01*
X44690071Y-74999380D01*
X44547214Y-74999380D01*
X45451976Y-74999380D02*
X45356738Y-74951761D01*
X45309119Y-74856523D01*
X45309119Y-73999380D01*
X45975785Y-74999380D02*
X45880547Y-74951761D01*
X45832928Y-74904142D01*
X45785309Y-74808904D01*
X45785309Y-74523190D01*
X45832928Y-74427952D01*
X45880547Y-74380333D01*
X45975785Y-74332714D01*
X46118642Y-74332714D01*
X46213880Y-74380333D01*
X46261500Y-74427952D01*
X46309119Y-74523190D01*
X46309119Y-74808904D01*
X46261500Y-74904142D01*
X46213880Y-74951761D01*
X46118642Y-74999380D01*
X45975785Y-74999380D01*
X46737690Y-74999380D02*
X46737690Y-74332714D01*
X46737690Y-74523190D02*
X46785309Y-74427952D01*
X46832928Y-74380333D01*
X46928166Y-74332714D01*
X47023404Y-74332714D01*
X48690071Y-74904142D02*
X48642452Y-74951761D01*
X48499595Y-74999380D01*
X48404357Y-74999380D01*
X48261500Y-74951761D01*
X48166261Y-74856523D01*
X48118642Y-74761285D01*
X48071023Y-74570809D01*
X48071023Y-74427952D01*
X48118642Y-74237476D01*
X48166261Y-74142238D01*
X48261500Y-74047000D01*
X48404357Y-73999380D01*
X48499595Y-73999380D01*
X48642452Y-74047000D01*
X48690071Y-74094619D01*
X49261500Y-74999380D02*
X49166261Y-74951761D01*
X49118642Y-74904142D01*
X49071023Y-74808904D01*
X49071023Y-74523190D01*
X49118642Y-74427952D01*
X49166261Y-74380333D01*
X49261500Y-74332714D01*
X49404357Y-74332714D01*
X49499595Y-74380333D01*
X49547214Y-74427952D01*
X49594833Y-74523190D01*
X49594833Y-74808904D01*
X49547214Y-74904142D01*
X49499595Y-74951761D01*
X49404357Y-74999380D01*
X49261500Y-74999380D01*
X50023404Y-74999380D02*
X50023404Y-74332714D01*
X50023404Y-74427952D02*
X50071023Y-74380333D01*
X50166261Y-74332714D01*
X50309119Y-74332714D01*
X50404357Y-74380333D01*
X50451976Y-74475571D01*
X50451976Y-74999380D01*
X50451976Y-74475571D02*
X50499595Y-74380333D01*
X50594833Y-74332714D01*
X50737690Y-74332714D01*
X50832928Y-74380333D01*
X50880547Y-74475571D01*
X50880547Y-74999380D01*
X51356738Y-74332714D02*
X51356738Y-75332714D01*
X51356738Y-74380333D02*
X51451976Y-74332714D01*
X51642452Y-74332714D01*
X51737690Y-74380333D01*
X51785309Y-74427952D01*
X51832928Y-74523190D01*
X51832928Y-74808904D01*
X51785309Y-74904142D01*
X51737690Y-74951761D01*
X51642452Y-74999380D01*
X51451976Y-74999380D01*
X51356738Y-74951761D01*
X52690071Y-74332714D02*
X52690071Y-74999380D01*
X52261499Y-74332714D02*
X52261499Y-74856523D01*
X52309119Y-74951761D01*
X52404357Y-74999380D01*
X52547214Y-74999380D01*
X52642452Y-74951761D01*
X52690071Y-74904142D01*
X53023404Y-74332714D02*
X53404357Y-74332714D01*
X53166261Y-73999380D02*
X53166261Y-74856523D01*
X53213880Y-74951761D01*
X53309119Y-74999380D01*
X53404357Y-74999380D01*
X54118642Y-74951761D02*
X54023404Y-74999380D01*
X53832928Y-74999380D01*
X53737690Y-74951761D01*
X53690071Y-74856523D01*
X53690071Y-74475571D01*
X53737690Y-74380333D01*
X53832928Y-74332714D01*
X54023404Y-74332714D01*
X54118642Y-74380333D01*
X54166261Y-74475571D01*
X54166261Y-74570809D01*
X53690071Y-74666047D01*
X54594833Y-74999380D02*
X54594833Y-74332714D01*
X54594833Y-74523190D02*
X54642452Y-74427952D01*
X54690071Y-74380333D01*
X54785309Y-74332714D01*
X54880547Y-74332714D01*
X55880547Y-74332714D02*
X56118642Y-74999380D01*
X56356738Y-74332714D01*
X57261499Y-74999380D02*
X56690071Y-74999380D01*
X56975785Y-74999380D02*
X56975785Y-73999380D01*
X56880547Y-74142238D01*
X56785309Y-74237476D01*
X56690071Y-74285095D01*
X57690071Y-74904142D02*
X57737690Y-74951761D01*
X57690071Y-74999380D01*
X57642452Y-74951761D01*
X57690071Y-74904142D01*
X57690071Y-74999380D01*
X58356738Y-73999380D02*
X58451976Y-73999380D01*
X58547214Y-74047000D01*
X58594833Y-74094619D01*
X58642452Y-74189857D01*
X58690071Y-74380333D01*
X58690071Y-74618428D01*
X58642452Y-74808904D01*
X58594833Y-74904142D01*
X58547214Y-74951761D01*
X58451976Y-74999380D01*
X58356738Y-74999380D01*
X58261499Y-74951761D01*
X58213880Y-74904142D01*
X58166261Y-74808904D01*
X58118642Y-74618428D01*
X58118642Y-74380333D01*
X58166261Y-74189857D01*
X58213880Y-74094619D01*
X58261499Y-74047000D01*
X58356738Y-73999380D01*
X59309119Y-73999380D02*
X59404357Y-73999380D01*
X59499595Y-74047000D01*
X59547214Y-74094619D01*
X59594833Y-74189857D01*
X59642452Y-74380333D01*
X59642452Y-74618428D01*
X59594833Y-74808904D01*
X59547214Y-74904142D01*
X59499595Y-74951761D01*
X59404357Y-74999380D01*
X59309119Y-74999380D01*
X59213880Y-74951761D01*
X59166261Y-74904142D01*
X59118642Y-74808904D01*
X59071023Y-74618428D01*
X59071023Y-74380333D01*
X59118642Y-74189857D01*
X59166261Y-74094619D01*
X59213880Y-74047000D01*
X59309119Y-73999380D01*
X31071023Y-76514142D02*
X31023404Y-76561761D01*
X30880547Y-76609380D01*
X30785309Y-76609380D01*
X30642452Y-76561761D01*
X30547214Y-76466523D01*
X30499595Y-76371285D01*
X30451976Y-76180809D01*
X30451976Y-76037952D01*
X30499595Y-75847476D01*
X30547214Y-75752238D01*
X30642452Y-75657000D01*
X30785309Y-75609380D01*
X30880547Y-75609380D01*
X31023404Y-75657000D01*
X31071023Y-75704619D01*
X31642452Y-76609380D02*
X31547214Y-76561761D01*
X31499595Y-76514142D01*
X31451976Y-76418904D01*
X31451976Y-76133190D01*
X31499595Y-76037952D01*
X31547214Y-75990333D01*
X31642452Y-75942714D01*
X31785309Y-75942714D01*
X31880547Y-75990333D01*
X31928166Y-76037952D01*
X31975785Y-76133190D01*
X31975785Y-76418904D01*
X31928166Y-76514142D01*
X31880547Y-76561761D01*
X31785309Y-76609380D01*
X31642452Y-76609380D01*
X32404357Y-75942714D02*
X32404357Y-76942714D01*
X32404357Y-75990333D02*
X32499595Y-75942714D01*
X32690071Y-75942714D01*
X32785309Y-75990333D01*
X32832928Y-76037952D01*
X32880547Y-76133190D01*
X32880547Y-76418904D01*
X32832928Y-76514142D01*
X32785309Y-76561761D01*
X32690071Y-76609380D01*
X32499595Y-76609380D01*
X32404357Y-76561761D01*
X33213880Y-75942714D02*
X33451976Y-76609380D01*
X33690071Y-75942714D02*
X33451976Y-76609380D01*
X33356738Y-76847476D01*
X33309119Y-76895095D01*
X33213880Y-76942714D01*
X34071023Y-76609380D02*
X34071023Y-75942714D01*
X34071023Y-76133190D02*
X34118642Y-76037952D01*
X34166261Y-75990333D01*
X34261500Y-75942714D01*
X34356738Y-75942714D01*
X34690071Y-76609380D02*
X34690071Y-75942714D01*
X34690071Y-75609380D02*
X34642452Y-75657000D01*
X34690071Y-75704619D01*
X34737690Y-75657000D01*
X34690071Y-75609380D01*
X34690071Y-75704619D01*
X35594833Y-75942714D02*
X35594833Y-76752238D01*
X35547214Y-76847476D01*
X35499595Y-76895095D01*
X35404357Y-76942714D01*
X35261500Y-76942714D01*
X35166261Y-76895095D01*
X35594833Y-76561761D02*
X35499595Y-76609380D01*
X35309119Y-76609380D01*
X35213880Y-76561761D01*
X35166261Y-76514142D01*
X35118642Y-76418904D01*
X35118642Y-76133190D01*
X35166261Y-76037952D01*
X35213880Y-75990333D01*
X35309119Y-75942714D01*
X35499595Y-75942714D01*
X35594833Y-75990333D01*
X36071023Y-76609380D02*
X36071023Y-75609380D01*
X36499595Y-76609380D02*
X36499595Y-76085571D01*
X36451976Y-75990333D01*
X36356738Y-75942714D01*
X36213880Y-75942714D01*
X36118642Y-75990333D01*
X36071023Y-76037952D01*
X36832928Y-75942714D02*
X37213880Y-75942714D01*
X36975785Y-75609380D02*
X36975785Y-76466523D01*
X37023404Y-76561761D01*
X37118642Y-76609380D01*
X37213880Y-76609380D01*
X38261500Y-75704619D02*
X38309119Y-75657000D01*
X38404357Y-75609380D01*
X38642452Y-75609380D01*
X38737690Y-75657000D01*
X38785309Y-75704619D01*
X38832928Y-75799857D01*
X38832928Y-75895095D01*
X38785309Y-76037952D01*
X38213880Y-76609380D01*
X38832928Y-76609380D01*
X39451976Y-75609380D02*
X39547214Y-75609380D01*
X39642452Y-75657000D01*
X39690071Y-75704619D01*
X39737690Y-75799857D01*
X39785309Y-75990333D01*
X39785309Y-76228428D01*
X39737690Y-76418904D01*
X39690071Y-76514142D01*
X39642452Y-76561761D01*
X39547214Y-76609380D01*
X39451976Y-76609380D01*
X39356738Y-76561761D01*
X39309119Y-76514142D01*
X39261500Y-76418904D01*
X39213880Y-76228428D01*
X39213880Y-75990333D01*
X39261500Y-75799857D01*
X39309119Y-75704619D01*
X39356738Y-75657000D01*
X39451976Y-75609380D01*
X40166261Y-75704619D02*
X40213880Y-75657000D01*
X40309119Y-75609380D01*
X40547214Y-75609380D01*
X40642452Y-75657000D01*
X40690071Y-75704619D01*
X40737690Y-75799857D01*
X40737690Y-75895095D01*
X40690071Y-76037952D01*
X40118642Y-76609380D01*
X40737690Y-76609380D01*
X41071023Y-75609380D02*
X41690071Y-75609380D01*
X41356738Y-75990333D01*
X41499595Y-75990333D01*
X41594833Y-76037952D01*
X41642452Y-76085571D01*
X41690071Y-76180809D01*
X41690071Y-76418904D01*
X41642452Y-76514142D01*
X41594833Y-76561761D01*
X41499595Y-76609380D01*
X41213880Y-76609380D01*
X41118642Y-76561761D01*
X41071023Y-76514142D01*
X42880547Y-76609380D02*
X42880547Y-75609380D01*
X43118642Y-75609380D01*
X43261500Y-75657000D01*
X43356738Y-75752238D01*
X43404357Y-75847476D01*
X43451976Y-76037952D01*
X43451976Y-76180809D01*
X43404357Y-76371285D01*
X43356738Y-76466523D01*
X43261500Y-76561761D01*
X43118642Y-76609380D01*
X42880547Y-76609380D01*
X44023404Y-76609380D02*
X43928166Y-76561761D01*
X43880547Y-76514142D01*
X43832928Y-76418904D01*
X43832928Y-76133190D01*
X43880547Y-76037952D01*
X43928166Y-75990333D01*
X44023404Y-75942714D01*
X44166261Y-75942714D01*
X44261500Y-75990333D01*
X44309119Y-76037952D01*
X44356738Y-76133190D01*
X44356738Y-76418904D01*
X44309119Y-76514142D01*
X44261500Y-76561761D01*
X44166261Y-76609380D01*
X44023404Y-76609380D01*
X44785309Y-75942714D02*
X44785309Y-76609380D01*
X44785309Y-76037952D02*
X44832928Y-75990333D01*
X44928166Y-75942714D01*
X45071023Y-75942714D01*
X45166261Y-75990333D01*
X45213880Y-76085571D01*
X45213880Y-76609380D01*
X46785309Y-76085571D02*
X46928166Y-76133190D01*
X46975785Y-76180809D01*
X47023404Y-76276047D01*
X47023404Y-76418904D01*
X46975785Y-76514142D01*
X46928166Y-76561761D01*
X46832928Y-76609380D01*
X46451976Y-76609380D01*
X46451976Y-75609380D01*
X46785309Y-75609380D01*
X46880547Y-75657000D01*
X46928166Y-75704619D01*
X46975785Y-75799857D01*
X46975785Y-75895095D01*
X46928166Y-75990333D01*
X46880547Y-76037952D01*
X46785309Y-76085571D01*
X46451976Y-76085571D01*
X47880547Y-76609380D02*
X47880547Y-76085571D01*
X47832928Y-75990333D01*
X47737690Y-75942714D01*
X47547214Y-75942714D01*
X47451976Y-75990333D01*
X47880547Y-76561761D02*
X47785309Y-76609380D01*
X47547214Y-76609380D01*
X47451976Y-76561761D01*
X47404357Y-76466523D01*
X47404357Y-76371285D01*
X47451976Y-76276047D01*
X47547214Y-76228428D01*
X47785309Y-76228428D01*
X47880547Y-76180809D01*
X48356738Y-76609380D02*
X48356738Y-75942714D01*
X48356738Y-76133190D02*
X48404357Y-76037952D01*
X48451976Y-75990333D01*
X48547214Y-75942714D01*
X48642452Y-75942714D01*
X48975785Y-76609380D02*
X48975785Y-75609380D01*
X48975785Y-75990333D02*
X49071023Y-75942714D01*
X49261499Y-75942714D01*
X49356738Y-75990333D01*
X49404357Y-76037952D01*
X49451976Y-76133190D01*
X49451976Y-76418904D01*
X49404357Y-76514142D01*
X49356738Y-76561761D01*
X49261499Y-76609380D01*
X49071023Y-76609380D01*
X48975785Y-76561761D01*
X50261499Y-76561761D02*
X50166261Y-76609380D01*
X49975785Y-76609380D01*
X49880547Y-76561761D01*
X49832928Y-76466523D01*
X49832928Y-76085571D01*
X49880547Y-75990333D01*
X49975785Y-75942714D01*
X50166261Y-75942714D01*
X50261499Y-75990333D01*
X50309119Y-76085571D01*
X50309119Y-76180809D01*
X49832928Y-76276047D01*
X50737690Y-76609380D02*
X50737690Y-75942714D01*
X50737690Y-76133190D02*
X50785309Y-76037952D01*
X50832928Y-75990333D01*
X50928166Y-75942714D01*
X51023404Y-75942714D01*
X30975785Y-78219380D02*
X30499595Y-78219380D01*
X30499595Y-77219380D01*
X31309119Y-78219380D02*
X31309119Y-77552714D01*
X31309119Y-77219380D02*
X31261500Y-77267000D01*
X31309119Y-77314619D01*
X31356738Y-77267000D01*
X31309119Y-77219380D01*
X31309119Y-77314619D01*
X32213880Y-78171761D02*
X32118642Y-78219380D01*
X31928166Y-78219380D01*
X31832928Y-78171761D01*
X31785309Y-78124142D01*
X31737690Y-78028904D01*
X31737690Y-77743190D01*
X31785309Y-77647952D01*
X31832928Y-77600333D01*
X31928166Y-77552714D01*
X32118642Y-77552714D01*
X32213880Y-77600333D01*
X33023404Y-78171761D02*
X32928166Y-78219380D01*
X32737690Y-78219380D01*
X32642452Y-78171761D01*
X32594833Y-78076523D01*
X32594833Y-77695571D01*
X32642452Y-77600333D01*
X32737690Y-77552714D01*
X32928166Y-77552714D01*
X33023404Y-77600333D01*
X33071023Y-77695571D01*
X33071023Y-77790809D01*
X32594833Y-77886047D01*
X33499595Y-77552714D02*
X33499595Y-78219380D01*
X33499595Y-77647952D02*
X33547214Y-77600333D01*
X33642452Y-77552714D01*
X33785309Y-77552714D01*
X33880547Y-77600333D01*
X33928166Y-77695571D01*
X33928166Y-78219380D01*
X34356738Y-78171761D02*
X34451976Y-78219380D01*
X34642452Y-78219380D01*
X34737690Y-78171761D01*
X34785309Y-78076523D01*
X34785309Y-78028904D01*
X34737690Y-77933666D01*
X34642452Y-77886047D01*
X34499595Y-77886047D01*
X34404357Y-77838428D01*
X34356738Y-77743190D01*
X34356738Y-77695571D01*
X34404357Y-77600333D01*
X34499595Y-77552714D01*
X34642452Y-77552714D01*
X34737690Y-77600333D01*
X35594833Y-78171761D02*
X35499595Y-78219380D01*
X35309119Y-78219380D01*
X35213880Y-78171761D01*
X35166261Y-78076523D01*
X35166261Y-77695571D01*
X35213880Y-77600333D01*
X35309119Y-77552714D01*
X35499595Y-77552714D01*
X35594833Y-77600333D01*
X35642452Y-77695571D01*
X35642452Y-77790809D01*
X35166261Y-77886047D01*
X37356738Y-77267000D02*
X37261500Y-77219380D01*
X37118642Y-77219380D01*
X36975785Y-77267000D01*
X36880547Y-77362238D01*
X36832928Y-77457476D01*
X36785309Y-77647952D01*
X36785309Y-77790809D01*
X36832928Y-77981285D01*
X36880547Y-78076523D01*
X36975785Y-78171761D01*
X37118642Y-78219380D01*
X37213880Y-78219380D01*
X37356738Y-78171761D01*
X37404357Y-78124142D01*
X37404357Y-77790809D01*
X37213880Y-77790809D01*
X37832928Y-78219380D02*
X37832928Y-77219380D01*
X38213880Y-77219380D01*
X38309119Y-77267000D01*
X38356738Y-77314619D01*
X38404357Y-77409857D01*
X38404357Y-77552714D01*
X38356738Y-77647952D01*
X38309119Y-77695571D01*
X38213880Y-77743190D01*
X37832928Y-77743190D01*
X39309119Y-78219380D02*
X38832928Y-78219380D01*
X38832928Y-77219380D01*
X39547214Y-77552714D02*
X39785309Y-78219380D01*
X40023404Y-77552714D01*
X40309119Y-77219380D02*
X40928166Y-77219380D01*
X40594833Y-77600333D01*
X40737690Y-77600333D01*
X40832928Y-77647952D01*
X40880547Y-77695571D01*
X40928166Y-77790809D01*
X40928166Y-78028904D01*
X40880547Y-78124142D01*
X40832928Y-78171761D01*
X40737690Y-78219380D01*
X40451976Y-78219380D01*
X40356738Y-78171761D01*
X40309119Y-78124142D01*
X30499595Y-79829380D02*
X30499595Y-78829380D01*
X30928166Y-79829380D02*
X30928166Y-79305571D01*
X30880547Y-79210333D01*
X30785309Y-79162714D01*
X30642452Y-79162714D01*
X30547214Y-79210333D01*
X30499595Y-79257952D01*
X31261500Y-79162714D02*
X31642452Y-79162714D01*
X31404357Y-78829380D02*
X31404357Y-79686523D01*
X31451976Y-79781761D01*
X31547214Y-79829380D01*
X31642452Y-79829380D01*
X31832928Y-79162714D02*
X32213880Y-79162714D01*
X31975785Y-78829380D02*
X31975785Y-79686523D01*
X32023404Y-79781761D01*
X32118642Y-79829380D01*
X32213880Y-79829380D01*
X32547214Y-79162714D02*
X32547214Y-80162714D01*
X32547214Y-79210333D02*
X32642452Y-79162714D01*
X32832928Y-79162714D01*
X32928166Y-79210333D01*
X32975785Y-79257952D01*
X33023404Y-79353190D01*
X33023404Y-79638904D01*
X32975785Y-79734142D01*
X32928166Y-79781761D01*
X32832928Y-79829380D01*
X32642452Y-79829380D01*
X32547214Y-79781761D01*
X33404357Y-79781761D02*
X33499595Y-79829380D01*
X33690071Y-79829380D01*
X33785309Y-79781761D01*
X33832928Y-79686523D01*
X33832928Y-79638904D01*
X33785309Y-79543666D01*
X33690071Y-79496047D01*
X33547214Y-79496047D01*
X33451976Y-79448428D01*
X33404357Y-79353190D01*
X33404357Y-79305571D01*
X33451976Y-79210333D01*
X33547214Y-79162714D01*
X33690071Y-79162714D01*
X33785309Y-79210333D01*
X34261500Y-79734142D02*
X34309119Y-79781761D01*
X34261500Y-79829380D01*
X34213880Y-79781761D01*
X34261500Y-79734142D01*
X34261500Y-79829380D01*
X34261500Y-79210333D02*
X34309119Y-79257952D01*
X34261500Y-79305571D01*
X34213880Y-79257952D01*
X34261500Y-79210333D01*
X34261500Y-79305571D01*
X35451976Y-78781761D02*
X34594833Y-80067476D01*
X36499595Y-78781761D02*
X35642452Y-80067476D01*
X37261500Y-79162714D02*
X37261500Y-79972238D01*
X37213880Y-80067476D01*
X37166261Y-80115095D01*
X37071023Y-80162714D01*
X36928166Y-80162714D01*
X36832928Y-80115095D01*
X37261500Y-79781761D02*
X37166261Y-79829380D01*
X36975785Y-79829380D01*
X36880547Y-79781761D01*
X36832928Y-79734142D01*
X36785309Y-79638904D01*
X36785309Y-79353190D01*
X36832928Y-79257952D01*
X36880547Y-79210333D01*
X36975785Y-79162714D01*
X37166261Y-79162714D01*
X37261500Y-79210333D01*
X37737690Y-79829380D02*
X37737690Y-79162714D01*
X37737690Y-78829380D02*
X37690071Y-78877000D01*
X37737690Y-78924619D01*
X37785309Y-78877000D01*
X37737690Y-78829380D01*
X37737690Y-78924619D01*
X38071023Y-79162714D02*
X38451976Y-79162714D01*
X38213880Y-78829380D02*
X38213880Y-79686523D01*
X38261500Y-79781761D01*
X38356738Y-79829380D01*
X38451976Y-79829380D01*
X38785309Y-79829380D02*
X38785309Y-78829380D01*
X39213880Y-79829380D02*
X39213880Y-79305571D01*
X39166261Y-79210333D01*
X39071023Y-79162714D01*
X38928166Y-79162714D01*
X38832928Y-79210333D01*
X38785309Y-79257952D01*
X40118642Y-79162714D02*
X40118642Y-79829380D01*
X39690071Y-79162714D02*
X39690071Y-79686523D01*
X39737690Y-79781761D01*
X39832928Y-79829380D01*
X39975785Y-79829380D01*
X40071023Y-79781761D01*
X40118642Y-79734142D01*
X40594833Y-79829380D02*
X40594833Y-78829380D01*
X40594833Y-79210333D02*
X40690071Y-79162714D01*
X40880547Y-79162714D01*
X40975785Y-79210333D01*
X41023404Y-79257952D01*
X41071023Y-79353190D01*
X41071023Y-79638904D01*
X41023404Y-79734142D01*
X40975785Y-79781761D01*
X40880547Y-79829380D01*
X40690071Y-79829380D01*
X40594833Y-79781761D01*
X41499595Y-79734142D02*
X41547214Y-79781761D01*
X41499595Y-79829380D01*
X41451976Y-79781761D01*
X41499595Y-79734142D01*
X41499595Y-79829380D01*
X42404357Y-79781761D02*
X42309119Y-79829380D01*
X42118642Y-79829380D01*
X42023404Y-79781761D01*
X41975785Y-79734142D01*
X41928166Y-79638904D01*
X41928166Y-79353190D01*
X41975785Y-79257952D01*
X42023404Y-79210333D01*
X42118642Y-79162714D01*
X42309119Y-79162714D01*
X42404357Y-79210333D01*
X42975785Y-79829380D02*
X42880547Y-79781761D01*
X42832928Y-79734142D01*
X42785309Y-79638904D01*
X42785309Y-79353190D01*
X42832928Y-79257952D01*
X42880547Y-79210333D01*
X42975785Y-79162714D01*
X43118642Y-79162714D01*
X43213880Y-79210333D01*
X43261500Y-79257952D01*
X43309119Y-79353190D01*
X43309119Y-79638904D01*
X43261500Y-79734142D01*
X43213880Y-79781761D01*
X43118642Y-79829380D01*
X42975785Y-79829380D01*
X43737690Y-79829380D02*
X43737690Y-79162714D01*
X43737690Y-79257952D02*
X43785309Y-79210333D01*
X43880547Y-79162714D01*
X44023404Y-79162714D01*
X44118642Y-79210333D01*
X44166261Y-79305571D01*
X44166261Y-79829380D01*
X44166261Y-79305571D02*
X44213880Y-79210333D01*
X44309119Y-79162714D01*
X44451976Y-79162714D01*
X44547214Y-79210333D01*
X44594833Y-79305571D01*
X44594833Y-79829380D01*
X45785309Y-78781761D02*
X44928166Y-80067476D01*
X46118642Y-79829380D02*
X46118642Y-78829380D01*
X46118642Y-79210333D02*
X46213880Y-79162714D01*
X46404357Y-79162714D01*
X46499595Y-79210333D01*
X46547214Y-79257952D01*
X46594833Y-79353190D01*
X46594833Y-79638904D01*
X46547214Y-79734142D01*
X46499595Y-79781761D01*
X46404357Y-79829380D01*
X46213880Y-79829380D01*
X46118642Y-79781761D01*
X47451976Y-79829380D02*
X47451976Y-79305571D01*
X47404357Y-79210333D01*
X47309119Y-79162714D01*
X47118642Y-79162714D01*
X47023404Y-79210333D01*
X47451976Y-79781761D02*
X47356738Y-79829380D01*
X47118642Y-79829380D01*
X47023404Y-79781761D01*
X46975785Y-79686523D01*
X46975785Y-79591285D01*
X47023404Y-79496047D01*
X47118642Y-79448428D01*
X47356738Y-79448428D01*
X47451976Y-79400809D01*
X47928166Y-79829380D02*
X47928166Y-79162714D01*
X47928166Y-79353190D02*
X47975785Y-79257952D01*
X48023404Y-79210333D01*
X48118642Y-79162714D01*
X48213880Y-79162714D01*
X48547214Y-79829380D02*
X48547214Y-78829380D01*
X48547214Y-79210333D02*
X48642452Y-79162714D01*
X48832928Y-79162714D01*
X48928166Y-79210333D01*
X48975785Y-79257952D01*
X49023404Y-79353190D01*
X49023404Y-79638904D01*
X48975785Y-79734142D01*
X48928166Y-79781761D01*
X48832928Y-79829380D01*
X48642452Y-79829380D01*
X48547214Y-79781761D01*
X49832928Y-79781761D02*
X49737690Y-79829380D01*
X49547214Y-79829380D01*
X49451976Y-79781761D01*
X49404357Y-79686523D01*
X49404357Y-79305571D01*
X49451976Y-79210333D01*
X49547214Y-79162714D01*
X49737690Y-79162714D01*
X49832928Y-79210333D01*
X49880547Y-79305571D01*
X49880547Y-79400809D01*
X49404357Y-79496047D01*
X50309119Y-79829380D02*
X50309119Y-79162714D01*
X50309119Y-79353190D02*
X50356738Y-79257952D01*
X50404357Y-79210333D01*
X50499595Y-79162714D01*
X50594833Y-79162714D01*
X51356738Y-79829380D02*
X51356738Y-78829380D01*
X51356738Y-79781761D02*
X51261500Y-79829380D01*
X51071023Y-79829380D01*
X50975785Y-79781761D01*
X50928166Y-79734142D01*
X50880547Y-79638904D01*
X50880547Y-79353190D01*
X50928166Y-79257952D01*
X50975785Y-79210333D01*
X51071023Y-79162714D01*
X51261500Y-79162714D01*
X51356738Y-79210333D01*
X52547214Y-78781761D02*
X51690071Y-80067476D01*
X53309119Y-79781761D02*
X53213880Y-79829380D01*
X53023404Y-79829380D01*
X52928166Y-79781761D01*
X52880547Y-79734142D01*
X52832928Y-79638904D01*
X52832928Y-79353190D01*
X52880547Y-79257952D01*
X52928166Y-79210333D01*
X53023404Y-79162714D01*
X53213880Y-79162714D01*
X53309119Y-79210333D01*
X53880547Y-79829380D02*
X53785309Y-79781761D01*
X53737690Y-79734142D01*
X53690071Y-79638904D01*
X53690071Y-79353190D01*
X53737690Y-79257952D01*
X53785309Y-79210333D01*
X53880547Y-79162714D01*
X54023404Y-79162714D01*
X54118642Y-79210333D01*
X54166261Y-79257952D01*
X54213880Y-79353190D01*
X54213880Y-79638904D01*
X54166261Y-79734142D01*
X54118642Y-79781761D01*
X54023404Y-79829380D01*
X53880547Y-79829380D01*
X55071023Y-79781761D02*
X54975785Y-79829380D01*
X54785309Y-79829380D01*
X54690071Y-79781761D01*
X54642452Y-79734142D01*
X54594833Y-79638904D01*
X54594833Y-79353190D01*
X54642452Y-79257952D01*
X54690071Y-79210333D01*
X54785309Y-79162714D01*
X54975785Y-79162714D01*
X55071023Y-79210333D01*
X55642452Y-79829380D02*
X55547214Y-79781761D01*
X55499595Y-79734142D01*
X55451976Y-79638904D01*
X55451976Y-79353190D01*
X55499595Y-79257952D01*
X55547214Y-79210333D01*
X55642452Y-79162714D01*
X55785309Y-79162714D01*
X55880547Y-79210333D01*
X55928166Y-79257952D01*
X55975785Y-79353190D01*
X55975785Y-79638904D01*
X55928166Y-79734142D01*
X55880547Y-79781761D01*
X55785309Y-79829380D01*
X55642452Y-79829380D01*
X56451976Y-79829380D02*
X56642452Y-79829380D01*
X56737690Y-79781761D01*
X56785309Y-79734142D01*
X56880547Y-79591285D01*
X56928166Y-79400809D01*
X56928166Y-79019857D01*
X56880547Y-78924619D01*
X56832928Y-78877000D01*
X56737690Y-78829380D01*
X56547214Y-78829380D01*
X56451976Y-78877000D01*
X56404357Y-78924619D01*
X56356738Y-79019857D01*
X56356738Y-79257952D01*
X56404357Y-79353190D01*
X56451976Y-79400809D01*
X56547214Y-79448428D01*
X56737690Y-79448428D01*
X56832928Y-79400809D01*
X56880547Y-79353190D01*
X56928166Y-79257952D01*
X57832928Y-78829380D02*
X57356738Y-78829380D01*
X57309119Y-79305571D01*
X57356738Y-79257952D01*
X57451976Y-79210333D01*
X57690071Y-79210333D01*
X57785309Y-79257952D01*
X57832928Y-79305571D01*
X57880547Y-79400809D01*
X57880547Y-79638904D01*
X57832928Y-79734142D01*
X57785309Y-79781761D01*
X57690071Y-79829380D01*
X57451976Y-79829380D01*
X57356738Y-79781761D01*
X57309119Y-79734142D01*
X58832928Y-79829380D02*
X58261499Y-79829380D01*
X58547214Y-79829380D02*
X58547214Y-78829380D01*
X58451976Y-78972238D01*
X58356738Y-79067476D01*
X58261499Y-79115095D01*
X59785309Y-79829380D02*
X59213880Y-79829380D01*
X59499595Y-79829380D02*
X59499595Y-78829380D01*
X59404357Y-78972238D01*
X59309119Y-79067476D01*
X59213880Y-79115095D01*
X60213880Y-79162714D02*
X60213880Y-80162714D01*
X60213880Y-79210333D02*
X60309119Y-79162714D01*
X60499595Y-79162714D01*
X60594833Y-79210333D01*
X60642452Y-79257952D01*
X60690071Y-79353190D01*
X60690071Y-79638904D01*
X60642452Y-79734142D01*
X60594833Y-79781761D01*
X60499595Y-79829380D01*
X60309119Y-79829380D01*
X60213880Y-79781761D01*
X61547214Y-79829380D02*
X61547214Y-79305571D01*
X61499595Y-79210333D01*
X61404357Y-79162714D01*
X61213880Y-79162714D01*
X61118642Y-79210333D01*
X61547214Y-79781761D02*
X61451976Y-79829380D01*
X61213880Y-79829380D01*
X61118642Y-79781761D01*
X61071023Y-79686523D01*
X61071023Y-79591285D01*
X61118642Y-79496047D01*
X61213880Y-79448428D01*
X61451976Y-79448428D01*
X61547214Y-79400809D01*
X62023404Y-79829380D02*
X62023404Y-78829380D01*
X62118642Y-79448428D02*
X62404357Y-79829380D01*
X62404357Y-79162714D02*
X62023404Y-79543666D01*
D10*
X82638000Y-160039857D02*
X82138000Y-160039857D01*
X82138000Y-160825571D02*
X82138000Y-159325571D01*
X82852285Y-159325571D01*
X83923714Y-160039857D02*
X83423714Y-160039857D01*
X83423714Y-160825571D02*
X83423714Y-159325571D01*
X84138000Y-159325571D01*
X84566571Y-159325571D02*
X85566571Y-159325571D01*
X84923714Y-160825571D01*
X86423714Y-159325571D02*
X86566571Y-159325571D01*
X86709428Y-159397000D01*
X86780857Y-159468428D01*
X86852285Y-159611285D01*
X86923714Y-159897000D01*
X86923714Y-160254142D01*
X86852285Y-160539857D01*
X86780857Y-160682714D01*
X86709428Y-160754142D01*
X86566571Y-160825571D01*
X86423714Y-160825571D01*
X86280857Y-160754142D01*
X86209428Y-160682714D01*
X86138000Y-160539857D01*
X86066571Y-160254142D01*
X86066571Y-159897000D01*
X86138000Y-159611285D01*
X86209428Y-159468428D01*
X86280857Y-159397000D01*
X86423714Y-159325571D01*
X87566571Y-160254142D02*
X88709428Y-160254142D01*
X89923714Y-160039857D02*
X89423714Y-160039857D01*
X89423714Y-160825571D02*
X89423714Y-159325571D01*
X90138000Y-159325571D01*
X91209428Y-160039857D02*
X90709428Y-160039857D01*
X90709428Y-160825571D02*
X90709428Y-159325571D01*
X91423714Y-159325571D01*
X91852285Y-159325571D02*
X92852285Y-159325571D01*
X92209428Y-160825571D01*
X93280857Y-159325571D02*
X94209428Y-159325571D01*
X93709428Y-159897000D01*
X93923714Y-159897000D01*
X94066571Y-159968428D01*
X94138000Y-160039857D01*
X94209428Y-160182714D01*
X94209428Y-160539857D01*
X94138000Y-160682714D01*
X94066571Y-160754142D01*
X93923714Y-160825571D01*
X93495142Y-160825571D01*
X93352285Y-160754142D01*
X93280857Y-160682714D01*
X92534571Y-150157571D02*
X91677428Y-150157571D01*
X92106000Y-150157571D02*
X92106000Y-148657571D01*
X91963142Y-148871857D01*
X91820285Y-149014714D01*
X91677428Y-149086142D01*
X96370000Y-159325571D02*
X96512857Y-159325571D01*
X96655714Y-159397000D01*
X96727142Y-159468428D01*
X96798571Y-159611285D01*
X96870000Y-159897000D01*
X96870000Y-160254142D01*
X96798571Y-160539857D01*
X96727142Y-160682714D01*
X96655714Y-160754142D01*
X96512857Y-160825571D01*
X96370000Y-160825571D01*
X96227142Y-160754142D01*
X96155714Y-160682714D01*
X96084285Y-160539857D01*
X96012857Y-160254142D01*
X96012857Y-159897000D01*
X96084285Y-159611285D01*
X96155714Y-159468428D01*
X96227142Y-159397000D01*
X96370000Y-159325571D01*
X99441428Y-160825571D02*
X98584285Y-160825571D01*
X99012857Y-160825571D02*
X99012857Y-159325571D01*
X98870000Y-159539857D01*
X98727142Y-159682714D01*
X98584285Y-159754142D01*
X102012857Y-160825571D02*
X101155714Y-160825571D01*
X101584285Y-160825571D02*
X101584285Y-159325571D01*
X101441428Y-159539857D01*
X101298571Y-159682714D01*
X101155714Y-159754142D01*
X104584285Y-160825571D02*
X103727142Y-160825571D01*
X104155714Y-160825571D02*
X104155714Y-159325571D01*
X104012857Y-159539857D01*
X103869999Y-159682714D01*
X103727142Y-159754142D01*
X106655714Y-159325571D02*
X106798571Y-159325571D01*
X106941428Y-159397000D01*
X107012857Y-159468428D01*
X107084285Y-159611285D01*
X107155714Y-159897000D01*
X107155714Y-160254142D01*
X107084285Y-160539857D01*
X107012857Y-160682714D01*
X106941428Y-160754142D01*
X106798571Y-160825571D01*
X106655714Y-160825571D01*
X106512857Y-160754142D01*
X106441428Y-160682714D01*
X106369999Y-160539857D01*
X106298571Y-160254142D01*
X106298571Y-159897000D01*
X106369999Y-159611285D01*
X106441428Y-159468428D01*
X106512857Y-159397000D01*
X106655714Y-159325571D01*
X109227142Y-159325571D02*
X109369999Y-159325571D01*
X109512857Y-159397000D01*
X109584285Y-159468428D01*
X109655714Y-159611285D01*
X109727142Y-159897000D01*
X109727142Y-160254142D01*
X109655714Y-160539857D01*
X109584285Y-160682714D01*
X109512857Y-160754142D01*
X109369999Y-160825571D01*
X109227142Y-160825571D01*
X109084285Y-160754142D01*
X109012857Y-160682714D01*
X108941428Y-160539857D01*
X108869999Y-160254142D01*
X108869999Y-159897000D01*
X108941428Y-159611285D01*
X109012857Y-159468428D01*
X109084285Y-159397000D01*
X109227142Y-159325571D01*
D12*
%TO.C,U7*%
X92098380Y-117718904D02*
X92907904Y-117718904D01*
X93003142Y-117671285D01*
X93050761Y-117623666D01*
X93098380Y-117528428D01*
X93098380Y-117337952D01*
X93050761Y-117242714D01*
X93003142Y-117195095D01*
X92907904Y-117147476D01*
X92098380Y-117147476D01*
X92098380Y-116766523D02*
X92098380Y-116099857D01*
X93098380Y-116528428D01*
X111998380Y-119599857D02*
X111998380Y-118933190D01*
X112998380Y-119361761D01*
X112331714Y-118123666D02*
X112998380Y-118123666D01*
X111950761Y-118361761D02*
X112665047Y-118599857D01*
X112665047Y-117980809D01*
X112998380Y-117123666D02*
X112998380Y-117599857D01*
X111998380Y-117599857D01*
X112950761Y-116837952D02*
X112998380Y-116695095D01*
X112998380Y-116457000D01*
X112950761Y-116361761D01*
X112903142Y-116314142D01*
X112807904Y-116266523D01*
X112712666Y-116266523D01*
X112617428Y-116314142D01*
X112569809Y-116361761D01*
X112522190Y-116457000D01*
X112474571Y-116647476D01*
X112426952Y-116742714D01*
X112379333Y-116790333D01*
X112284095Y-116837952D01*
X112188857Y-116837952D01*
X112093619Y-116790333D01*
X112046000Y-116742714D01*
X111998380Y-116647476D01*
X111998380Y-116409380D01*
X112046000Y-116266523D01*
X111998380Y-115647476D02*
X111998380Y-115552238D01*
X112046000Y-115457000D01*
X112093619Y-115409380D01*
X112188857Y-115361761D01*
X112379333Y-115314142D01*
X112617428Y-115314142D01*
X112807904Y-115361761D01*
X112903142Y-115409380D01*
X112950761Y-115457000D01*
X112998380Y-115552238D01*
X112998380Y-115647476D01*
X112950761Y-115742714D01*
X112903142Y-115790333D01*
X112807904Y-115837952D01*
X112617428Y-115885571D01*
X112379333Y-115885571D01*
X112188857Y-115837952D01*
X112093619Y-115790333D01*
X112046000Y-115742714D01*
X111998380Y-115647476D01*
X111998380Y-114695095D02*
X111998380Y-114599857D01*
X112046000Y-114504619D01*
X112093619Y-114457000D01*
X112188857Y-114409380D01*
X112379333Y-114361761D01*
X112617428Y-114361761D01*
X112807904Y-114409380D01*
X112903142Y-114457000D01*
X112950761Y-114504619D01*
X112998380Y-114599857D01*
X112998380Y-114695095D01*
X112950761Y-114790333D01*
X112903142Y-114837952D01*
X112807904Y-114885571D01*
X112617428Y-114933190D01*
X112379333Y-114933190D01*
X112188857Y-114885571D01*
X112093619Y-114837952D01*
X112046000Y-114790333D01*
X111998380Y-114695095D01*
%TO.C,R3*%
X24963380Y-129706666D02*
X24487190Y-130040000D01*
X24963380Y-130278095D02*
X23963380Y-130278095D01*
X23963380Y-129897142D01*
X24011000Y-129801904D01*
X24058619Y-129754285D01*
X24153857Y-129706666D01*
X24296714Y-129706666D01*
X24391952Y-129754285D01*
X24439571Y-129801904D01*
X24487190Y-129897142D01*
X24487190Y-130278095D01*
X23963380Y-129373333D02*
X23963380Y-128754285D01*
X24344333Y-129087619D01*
X24344333Y-128944761D01*
X24391952Y-128849523D01*
X24439571Y-128801904D01*
X24534809Y-128754285D01*
X24772904Y-128754285D01*
X24868142Y-128801904D01*
X24915761Y-128849523D01*
X24963380Y-128944761D01*
X24963380Y-129230476D01*
X24915761Y-129325714D01*
X24868142Y-129373333D01*
X26836714Y-130214571D02*
X27503380Y-130214571D01*
X26455761Y-130452666D02*
X27170047Y-130690761D01*
X27170047Y-130071714D01*
X27408142Y-129690761D02*
X27455761Y-129643142D01*
X27503380Y-129690761D01*
X27455761Y-129738380D01*
X27408142Y-129690761D01*
X27503380Y-129690761D01*
X26503380Y-129309809D02*
X26503380Y-128643142D01*
X27503380Y-129071714D01*
X27503380Y-128262190D02*
X26503380Y-128262190D01*
X27122428Y-128166952D02*
X27503380Y-127881238D01*
X26836714Y-127881238D02*
X27217666Y-128262190D01*
%TO.C,U4*%
X92098380Y-129529904D02*
X92907904Y-129529904D01*
X93003142Y-129482285D01*
X93050761Y-129434666D01*
X93098380Y-129339428D01*
X93098380Y-129148952D01*
X93050761Y-129053714D01*
X93003142Y-129006095D01*
X92907904Y-128958476D01*
X92098380Y-128958476D01*
X92431714Y-128053714D02*
X93098380Y-128053714D01*
X92050761Y-128291809D02*
X92765047Y-128529904D01*
X92765047Y-127910857D01*
X111998380Y-131410857D02*
X111998380Y-130744190D01*
X112998380Y-131172761D01*
X112331714Y-129934666D02*
X112998380Y-129934666D01*
X111950761Y-130172761D02*
X112665047Y-130410857D01*
X112665047Y-129791809D01*
X112998380Y-128934666D02*
X112998380Y-129410857D01*
X111998380Y-129410857D01*
X112950761Y-128648952D02*
X112998380Y-128506095D01*
X112998380Y-128268000D01*
X112950761Y-128172761D01*
X112903142Y-128125142D01*
X112807904Y-128077523D01*
X112712666Y-128077523D01*
X112617428Y-128125142D01*
X112569809Y-128172761D01*
X112522190Y-128268000D01*
X112474571Y-128458476D01*
X112426952Y-128553714D01*
X112379333Y-128601333D01*
X112284095Y-128648952D01*
X112188857Y-128648952D01*
X112093619Y-128601333D01*
X112046000Y-128553714D01*
X111998380Y-128458476D01*
X111998380Y-128220380D01*
X112046000Y-128077523D01*
X111998380Y-127458476D02*
X111998380Y-127363238D01*
X112046000Y-127268000D01*
X112093619Y-127220380D01*
X112188857Y-127172761D01*
X112379333Y-127125142D01*
X112617428Y-127125142D01*
X112807904Y-127172761D01*
X112903142Y-127220380D01*
X112950761Y-127268000D01*
X112998380Y-127363238D01*
X112998380Y-127458476D01*
X112950761Y-127553714D01*
X112903142Y-127601333D01*
X112807904Y-127648952D01*
X112617428Y-127696571D01*
X112379333Y-127696571D01*
X112188857Y-127648952D01*
X112093619Y-127601333D01*
X112046000Y-127553714D01*
X111998380Y-127458476D01*
X112331714Y-126268000D02*
X112998380Y-126268000D01*
X111950761Y-126506095D02*
X112665047Y-126744190D01*
X112665047Y-126125142D01*
%TO.C,U11*%
X23909380Y-119338095D02*
X24718904Y-119338095D01*
X24814142Y-119290476D01*
X24861761Y-119242857D01*
X24909380Y-119147619D01*
X24909380Y-118957142D01*
X24861761Y-118861904D01*
X24814142Y-118814285D01*
X24718904Y-118766666D01*
X23909380Y-118766666D01*
X24909380Y-117766666D02*
X24909380Y-118338095D01*
X24909380Y-118052380D02*
X23909380Y-118052380D01*
X24052238Y-118147619D01*
X24147476Y-118242857D01*
X24195095Y-118338095D01*
X24909380Y-116814285D02*
X24909380Y-117385714D01*
X24909380Y-117100000D02*
X23909380Y-117100000D01*
X24052238Y-117195238D01*
X24147476Y-117290476D01*
X24195095Y-117385714D01*
X46349380Y-121219047D02*
X46349380Y-120552380D01*
X47349380Y-120980952D01*
X46682714Y-119742857D02*
X47349380Y-119742857D01*
X46301761Y-119980952D02*
X47016047Y-120219047D01*
X47016047Y-119600000D01*
X47349380Y-118742857D02*
X47349380Y-119219047D01*
X46349380Y-119219047D01*
X47301761Y-118457142D02*
X47349380Y-118314285D01*
X47349380Y-118076190D01*
X47301761Y-117980952D01*
X47254142Y-117933333D01*
X47158904Y-117885714D01*
X47063666Y-117885714D01*
X46968428Y-117933333D01*
X46920809Y-117980952D01*
X46873190Y-118076190D01*
X46825571Y-118266666D01*
X46777952Y-118361904D01*
X46730333Y-118409523D01*
X46635095Y-118457142D01*
X46539857Y-118457142D01*
X46444619Y-118409523D01*
X46397000Y-118361904D01*
X46349380Y-118266666D01*
X46349380Y-118028571D01*
X46397000Y-117885714D01*
X47349380Y-116933333D02*
X47349380Y-117504761D01*
X47349380Y-117219047D02*
X46349380Y-117219047D01*
X46492238Y-117314285D01*
X46587476Y-117409523D01*
X46635095Y-117504761D01*
X46444619Y-116552380D02*
X46397000Y-116504761D01*
X46349380Y-116409523D01*
X46349380Y-116171428D01*
X46397000Y-116076190D01*
X46444619Y-116028571D01*
X46539857Y-115980952D01*
X46635095Y-115980952D01*
X46777952Y-116028571D01*
X47349380Y-116600000D01*
X47349380Y-115980952D01*
X46349380Y-115647619D02*
X46349380Y-115028571D01*
X46730333Y-115361904D01*
X46730333Y-115219047D01*
X46777952Y-115123809D01*
X46825571Y-115076190D01*
X46920809Y-115028571D01*
X47158904Y-115028571D01*
X47254142Y-115076190D01*
X47301761Y-115123809D01*
X47349380Y-115219047D01*
X47349380Y-115504761D01*
X47301761Y-115600000D01*
X47254142Y-115647619D01*
%TO.C,C8*%
X50776142Y-141838666D02*
X50823761Y-141886285D01*
X50871380Y-142029142D01*
X50871380Y-142124380D01*
X50823761Y-142267238D01*
X50728523Y-142362476D01*
X50633285Y-142410095D01*
X50442809Y-142457714D01*
X50299952Y-142457714D01*
X50109476Y-142410095D01*
X50014238Y-142362476D01*
X49919000Y-142267238D01*
X49871380Y-142124380D01*
X49871380Y-142029142D01*
X49919000Y-141886285D01*
X49966619Y-141838666D01*
X50299952Y-141267238D02*
X50252333Y-141362476D01*
X50204714Y-141410095D01*
X50109476Y-141457714D01*
X50061857Y-141457714D01*
X49966619Y-141410095D01*
X49919000Y-141362476D01*
X49871380Y-141267238D01*
X49871380Y-141076761D01*
X49919000Y-140981523D01*
X49966619Y-140933904D01*
X50061857Y-140886285D01*
X50109476Y-140886285D01*
X50204714Y-140933904D01*
X50252333Y-140981523D01*
X50299952Y-141076761D01*
X50299952Y-141267238D01*
X50347571Y-141362476D01*
X50395190Y-141410095D01*
X50490428Y-141457714D01*
X50680904Y-141457714D01*
X50776142Y-141410095D01*
X50823761Y-141362476D01*
X50871380Y-141267238D01*
X50871380Y-141076761D01*
X50823761Y-140981523D01*
X50776142Y-140933904D01*
X50680904Y-140886285D01*
X50490428Y-140886285D01*
X50395190Y-140933904D01*
X50347571Y-140981523D01*
X50299952Y-141076761D01*
X53443142Y-142886285D02*
X53490761Y-142838666D01*
X53538380Y-142886285D01*
X53490761Y-142933904D01*
X53443142Y-142886285D01*
X53538380Y-142886285D01*
X53538380Y-141886285D02*
X53538380Y-142457714D01*
X53538380Y-142172000D02*
X52538380Y-142172000D01*
X52681238Y-142267238D01*
X52776476Y-142362476D01*
X52824095Y-142457714D01*
X52871714Y-141029142D02*
X53538380Y-141029142D01*
X52871714Y-141457714D02*
X53395523Y-141457714D01*
X53490761Y-141410095D01*
X53538380Y-141314857D01*
X53538380Y-141172000D01*
X53490761Y-141076761D01*
X53443142Y-141029142D01*
X52871714Y-140695809D02*
X52871714Y-140314857D01*
X53538380Y-140552952D02*
X52681238Y-140552952D01*
X52586000Y-140505333D01*
X52538380Y-140410095D01*
X52538380Y-140314857D01*
%TO.C,U9*%
X23406380Y-154548904D02*
X24215904Y-154548904D01*
X24311142Y-154501285D01*
X24358761Y-154453666D01*
X24406380Y-154358428D01*
X24406380Y-154167952D01*
X24358761Y-154072714D01*
X24311142Y-154025095D01*
X24215904Y-153977476D01*
X23406380Y-153977476D01*
X24406380Y-153453666D02*
X24406380Y-153263190D01*
X24358761Y-153167952D01*
X24311142Y-153120333D01*
X24168285Y-153025095D01*
X23977809Y-152977476D01*
X23596857Y-152977476D01*
X23501619Y-153025095D01*
X23454000Y-153072714D01*
X23406380Y-153167952D01*
X23406380Y-153358428D01*
X23454000Y-153453666D01*
X23501619Y-153501285D01*
X23596857Y-153548904D01*
X23834952Y-153548904D01*
X23930190Y-153501285D01*
X23977809Y-153453666D01*
X24025428Y-153358428D01*
X24025428Y-153167952D01*
X23977809Y-153072714D01*
X23930190Y-153025095D01*
X23834952Y-152977476D01*
X43306380Y-156429857D02*
X43306380Y-155763190D01*
X44306380Y-156191761D01*
X43639714Y-154953666D02*
X44306380Y-154953666D01*
X43258761Y-155191761D02*
X43973047Y-155429857D01*
X43973047Y-154810809D01*
X44306380Y-153953666D02*
X44306380Y-154429857D01*
X43306380Y-154429857D01*
X44258761Y-153667952D02*
X44306380Y-153525095D01*
X44306380Y-153287000D01*
X44258761Y-153191761D01*
X44211142Y-153144142D01*
X44115904Y-153096523D01*
X44020666Y-153096523D01*
X43925428Y-153144142D01*
X43877809Y-153191761D01*
X43830190Y-153287000D01*
X43782571Y-153477476D01*
X43734952Y-153572714D01*
X43687333Y-153620333D01*
X43592095Y-153667952D01*
X43496857Y-153667952D01*
X43401619Y-153620333D01*
X43354000Y-153572714D01*
X43306380Y-153477476D01*
X43306380Y-153239380D01*
X43354000Y-153096523D01*
X43306380Y-152477476D02*
X43306380Y-152382238D01*
X43354000Y-152287000D01*
X43401619Y-152239380D01*
X43496857Y-152191761D01*
X43687333Y-152144142D01*
X43925428Y-152144142D01*
X44115904Y-152191761D01*
X44211142Y-152239380D01*
X44258761Y-152287000D01*
X44306380Y-152382238D01*
X44306380Y-152477476D01*
X44258761Y-152572714D01*
X44211142Y-152620333D01*
X44115904Y-152667952D01*
X43925428Y-152715571D01*
X43687333Y-152715571D01*
X43496857Y-152667952D01*
X43401619Y-152620333D01*
X43354000Y-152572714D01*
X43306380Y-152477476D01*
X43734952Y-151572714D02*
X43687333Y-151667952D01*
X43639714Y-151715571D01*
X43544476Y-151763190D01*
X43496857Y-151763190D01*
X43401619Y-151715571D01*
X43354000Y-151667952D01*
X43306380Y-151572714D01*
X43306380Y-151382238D01*
X43354000Y-151287000D01*
X43401619Y-151239380D01*
X43496857Y-151191761D01*
X43544476Y-151191761D01*
X43639714Y-151239380D01*
X43687333Y-151287000D01*
X43734952Y-151382238D01*
X43734952Y-151572714D01*
X43782571Y-151667952D01*
X43830190Y-151715571D01*
X43925428Y-151763190D01*
X44115904Y-151763190D01*
X44211142Y-151715571D01*
X44258761Y-151667952D01*
X44306380Y-151572714D01*
X44306380Y-151382238D01*
X44258761Y-151287000D01*
X44211142Y-151239380D01*
X44115904Y-151191761D01*
X43925428Y-151191761D01*
X43830190Y-151239380D01*
X43782571Y-151287000D01*
X43734952Y-151382238D01*
%TO.C,R2*%
X30424380Y-129452666D02*
X29948190Y-129786000D01*
X30424380Y-130024095D02*
X29424380Y-130024095D01*
X29424380Y-129643142D01*
X29472000Y-129547904D01*
X29519619Y-129500285D01*
X29614857Y-129452666D01*
X29757714Y-129452666D01*
X29852952Y-129500285D01*
X29900571Y-129547904D01*
X29948190Y-129643142D01*
X29948190Y-130024095D01*
X29519619Y-129071714D02*
X29472000Y-129024095D01*
X29424380Y-128928857D01*
X29424380Y-128690761D01*
X29472000Y-128595523D01*
X29519619Y-128547904D01*
X29614857Y-128500285D01*
X29710095Y-128500285D01*
X29852952Y-128547904D01*
X30424380Y-129119333D01*
X30424380Y-128500285D01*
X31805619Y-130817761D02*
X31758000Y-130770142D01*
X31710380Y-130674904D01*
X31710380Y-130436809D01*
X31758000Y-130341571D01*
X31805619Y-130293952D01*
X31900857Y-130246333D01*
X31996095Y-130246333D01*
X32138952Y-130293952D01*
X32710380Y-130865380D01*
X32710380Y-130246333D01*
X32615142Y-129817761D02*
X32662761Y-129770142D01*
X32710380Y-129817761D01*
X32662761Y-129865380D01*
X32615142Y-129817761D01*
X32710380Y-129817761D01*
X31710380Y-129151095D02*
X31710380Y-129055857D01*
X31758000Y-128960619D01*
X31805619Y-128913000D01*
X31900857Y-128865380D01*
X32091333Y-128817761D01*
X32329428Y-128817761D01*
X32519904Y-128865380D01*
X32615142Y-128913000D01*
X32662761Y-128960619D01*
X32710380Y-129055857D01*
X32710380Y-129151095D01*
X32662761Y-129246333D01*
X32615142Y-129293952D01*
X32519904Y-129341571D01*
X32329428Y-129389190D01*
X32091333Y-129389190D01*
X31900857Y-129341571D01*
X31805619Y-129293952D01*
X31758000Y-129246333D01*
X31710380Y-129151095D01*
X32710380Y-128389190D02*
X31710380Y-128389190D01*
X32329428Y-128293952D02*
X32710380Y-128008238D01*
X32043714Y-128008238D02*
X32424666Y-128389190D01*
%TO.C,C4*%
X88272142Y-128817666D02*
X88319761Y-128865285D01*
X88367380Y-129008142D01*
X88367380Y-129103380D01*
X88319761Y-129246238D01*
X88224523Y-129341476D01*
X88129285Y-129389095D01*
X87938809Y-129436714D01*
X87795952Y-129436714D01*
X87605476Y-129389095D01*
X87510238Y-129341476D01*
X87415000Y-129246238D01*
X87367380Y-129103380D01*
X87367380Y-129008142D01*
X87415000Y-128865285D01*
X87462619Y-128817666D01*
X87700714Y-127960523D02*
X88367380Y-127960523D01*
X87319761Y-128198619D02*
X88034047Y-128436714D01*
X88034047Y-127817666D01*
X90558142Y-129932285D02*
X90605761Y-129884666D01*
X90653380Y-129932285D01*
X90605761Y-129979904D01*
X90558142Y-129932285D01*
X90653380Y-129932285D01*
X90653380Y-128932285D02*
X90653380Y-129503714D01*
X90653380Y-129218000D02*
X89653380Y-129218000D01*
X89796238Y-129313238D01*
X89891476Y-129408476D01*
X89939095Y-129503714D01*
X89986714Y-128075142D02*
X90653380Y-128075142D01*
X89986714Y-128503714D02*
X90510523Y-128503714D01*
X90605761Y-128456095D01*
X90653380Y-128360857D01*
X90653380Y-128218000D01*
X90605761Y-128122761D01*
X90558142Y-128075142D01*
X89986714Y-127741809D02*
X89986714Y-127360857D01*
X90653380Y-127598952D02*
X89796238Y-127598952D01*
X89701000Y-127551333D01*
X89653380Y-127456095D01*
X89653380Y-127360857D01*
%TO.C,R4*%
X62698333Y-104254380D02*
X62365000Y-103778190D01*
X62126904Y-104254380D02*
X62126904Y-103254380D01*
X62507857Y-103254380D01*
X62603095Y-103302000D01*
X62650714Y-103349619D01*
X62698333Y-103444857D01*
X62698333Y-103587714D01*
X62650714Y-103682952D01*
X62603095Y-103730571D01*
X62507857Y-103778190D01*
X62126904Y-103778190D01*
X63555476Y-103587714D02*
X63555476Y-104254380D01*
X63317380Y-103206761D02*
X63079285Y-103921047D01*
X63698333Y-103921047D01*
X62190428Y-105957714D02*
X62190428Y-106624380D01*
X61952333Y-105576761D02*
X61714238Y-106291047D01*
X62333285Y-106291047D01*
X62714238Y-106529142D02*
X62761857Y-106576761D01*
X62714238Y-106624380D01*
X62666619Y-106576761D01*
X62714238Y-106529142D01*
X62714238Y-106624380D01*
X63095190Y-105624380D02*
X63761857Y-105624380D01*
X63333285Y-106624380D01*
X64142809Y-106624380D02*
X64142809Y-105624380D01*
X64238047Y-106243428D02*
X64523761Y-106624380D01*
X64523761Y-105957714D02*
X64142809Y-106338666D01*
%TO.C,X1*%
X25311380Y-91604523D02*
X26311380Y-90937857D01*
X25311380Y-90937857D02*
X26311380Y-91604523D01*
X26311380Y-90033095D02*
X26311380Y-90604523D01*
X26311380Y-90318809D02*
X25311380Y-90318809D01*
X25454238Y-90414047D01*
X25549476Y-90509285D01*
X25597095Y-90604523D01*
X46116142Y-93771190D02*
X46163761Y-93818809D01*
X46211380Y-93961666D01*
X46211380Y-94056904D01*
X46163761Y-94199761D01*
X46068523Y-94295000D01*
X45973285Y-94342619D01*
X45782809Y-94390238D01*
X45639952Y-94390238D01*
X45449476Y-94342619D01*
X45354238Y-94295000D01*
X45259000Y-94199761D01*
X45211380Y-94056904D01*
X45211380Y-93961666D01*
X45259000Y-93818809D01*
X45306619Y-93771190D01*
X45211380Y-93437857D02*
X46211380Y-92771190D01*
X45211380Y-92771190D02*
X46211380Y-93437857D01*
X45211380Y-92199761D02*
X45211380Y-92009285D01*
X45259000Y-91914047D01*
X45354238Y-91818809D01*
X45544714Y-91771190D01*
X45878047Y-91771190D01*
X46068523Y-91818809D01*
X46163761Y-91914047D01*
X46211380Y-92009285D01*
X46211380Y-92199761D01*
X46163761Y-92295000D01*
X46068523Y-92390238D01*
X45878047Y-92437857D01*
X45544714Y-92437857D01*
X45354238Y-92390238D01*
X45259000Y-92295000D01*
X45211380Y-92199761D01*
X45544714Y-90152142D02*
X46211380Y-90152142D01*
X45163761Y-90390238D02*
X45878047Y-90628333D01*
X45878047Y-90009285D01*
X46211380Y-89628333D02*
X45211380Y-89628333D01*
X45925666Y-89295000D01*
X45211380Y-88961666D01*
X46211380Y-88961666D01*
X46211380Y-88485476D02*
X45211380Y-88485476D01*
X46211380Y-88056904D02*
X45687571Y-88056904D01*
X45592333Y-88104523D01*
X45544714Y-88199761D01*
X45544714Y-88342619D01*
X45592333Y-88437857D01*
X45639952Y-88485476D01*
X45544714Y-87675952D02*
X45544714Y-87152142D01*
X46211380Y-87675952D01*
X46211380Y-87152142D01*
%TO.C,C14*%
X51157142Y-154506857D02*
X51204761Y-154554476D01*
X51252380Y-154697333D01*
X51252380Y-154792571D01*
X51204761Y-154935428D01*
X51109523Y-155030666D01*
X51014285Y-155078285D01*
X50823809Y-155125904D01*
X50680952Y-155125904D01*
X50490476Y-155078285D01*
X50395238Y-155030666D01*
X50300000Y-154935428D01*
X50252380Y-154792571D01*
X50252380Y-154697333D01*
X50300000Y-154554476D01*
X50347619Y-154506857D01*
X51252380Y-153554476D02*
X51252380Y-154125904D01*
X51252380Y-153840190D02*
X50252380Y-153840190D01*
X50395238Y-153935428D01*
X50490476Y-154030666D01*
X50538095Y-154125904D01*
X50585714Y-152697333D02*
X51252380Y-152697333D01*
X50204761Y-152935428D02*
X50919047Y-153173523D01*
X50919047Y-152554476D01*
X53824142Y-155078285D02*
X53871761Y-155030666D01*
X53919380Y-155078285D01*
X53871761Y-155125904D01*
X53824142Y-155078285D01*
X53919380Y-155078285D01*
X53919380Y-154078285D02*
X53919380Y-154649714D01*
X53919380Y-154364000D02*
X52919380Y-154364000D01*
X53062238Y-154459238D01*
X53157476Y-154554476D01*
X53205095Y-154649714D01*
X53252714Y-153221142D02*
X53919380Y-153221142D01*
X53252714Y-153649714D02*
X53776523Y-153649714D01*
X53871761Y-153602095D01*
X53919380Y-153506857D01*
X53919380Y-153364000D01*
X53871761Y-153268761D01*
X53824142Y-153221142D01*
X53252714Y-152887809D02*
X53252714Y-152506857D01*
X53919380Y-152744952D02*
X53062238Y-152744952D01*
X52967000Y-152697333D01*
X52919380Y-152602095D01*
X52919380Y-152506857D01*
%TO.C,U6*%
X23924380Y-105780904D02*
X24733904Y-105780904D01*
X24829142Y-105733285D01*
X24876761Y-105685666D01*
X24924380Y-105590428D01*
X24924380Y-105399952D01*
X24876761Y-105304714D01*
X24829142Y-105257095D01*
X24733904Y-105209476D01*
X23924380Y-105209476D01*
X23924380Y-104304714D02*
X23924380Y-104495190D01*
X23972000Y-104590428D01*
X24019619Y-104638047D01*
X24162476Y-104733285D01*
X24352952Y-104780904D01*
X24733904Y-104780904D01*
X24829142Y-104733285D01*
X24876761Y-104685666D01*
X24924380Y-104590428D01*
X24924380Y-104399952D01*
X24876761Y-104304714D01*
X24829142Y-104257095D01*
X24733904Y-104209476D01*
X24495809Y-104209476D01*
X24400571Y-104257095D01*
X24352952Y-104304714D01*
X24305333Y-104399952D01*
X24305333Y-104590428D01*
X24352952Y-104685666D01*
X24400571Y-104733285D01*
X24495809Y-104780904D01*
X51444380Y-108138047D02*
X51444380Y-107471380D01*
X52444380Y-107899952D01*
X51777714Y-106661857D02*
X52444380Y-106661857D01*
X51396761Y-106899952D02*
X52111047Y-107138047D01*
X52111047Y-106519000D01*
X52444380Y-105661857D02*
X52444380Y-106138047D01*
X51444380Y-106138047D01*
X52396761Y-105376142D02*
X52444380Y-105233285D01*
X52444380Y-104995190D01*
X52396761Y-104899952D01*
X52349142Y-104852333D01*
X52253904Y-104804714D01*
X52158666Y-104804714D01*
X52063428Y-104852333D01*
X52015809Y-104899952D01*
X51968190Y-104995190D01*
X51920571Y-105185666D01*
X51872952Y-105280904D01*
X51825333Y-105328523D01*
X51730095Y-105376142D01*
X51634857Y-105376142D01*
X51539619Y-105328523D01*
X51492000Y-105280904D01*
X51444380Y-105185666D01*
X51444380Y-104947571D01*
X51492000Y-104804714D01*
X51444380Y-104471380D02*
X51444380Y-103852333D01*
X51825333Y-104185666D01*
X51825333Y-104042809D01*
X51872952Y-103947571D01*
X51920571Y-103899952D01*
X52015809Y-103852333D01*
X52253904Y-103852333D01*
X52349142Y-103899952D01*
X52396761Y-103947571D01*
X52444380Y-104042809D01*
X52444380Y-104328523D01*
X52396761Y-104423761D01*
X52349142Y-104471380D01*
X51444380Y-103519000D02*
X51444380Y-102852333D01*
X52444380Y-103280904D01*
X51777714Y-102042809D02*
X52444380Y-102042809D01*
X51396761Y-102280904D02*
X52111047Y-102519000D01*
X52111047Y-101899952D01*
%TO.C,SW1*%
X112950761Y-154664833D02*
X112998380Y-154521976D01*
X112998380Y-154283880D01*
X112950761Y-154188642D01*
X112903142Y-154141023D01*
X112807904Y-154093404D01*
X112712666Y-154093404D01*
X112617428Y-154141023D01*
X112569809Y-154188642D01*
X112522190Y-154283880D01*
X112474571Y-154474357D01*
X112426952Y-154569595D01*
X112379333Y-154617214D01*
X112284095Y-154664833D01*
X112188857Y-154664833D01*
X112093619Y-154617214D01*
X112046000Y-154569595D01*
X111998380Y-154474357D01*
X111998380Y-154236261D01*
X112046000Y-154093404D01*
X111998380Y-153760071D02*
X112998380Y-153521976D01*
X112284095Y-153331500D01*
X112998380Y-153141023D01*
X111998380Y-152902928D01*
X112998380Y-151998166D02*
X112998380Y-152569595D01*
X112998380Y-152283880D02*
X111998380Y-152283880D01*
X112141238Y-152379119D01*
X112236476Y-152474357D01*
X112284095Y-152569595D01*
%TO.C,C2*%
X87733142Y-93384666D02*
X87780761Y-93432285D01*
X87828380Y-93575142D01*
X87828380Y-93670380D01*
X87780761Y-93813238D01*
X87685523Y-93908476D01*
X87590285Y-93956095D01*
X87399809Y-94003714D01*
X87256952Y-94003714D01*
X87066476Y-93956095D01*
X86971238Y-93908476D01*
X86876000Y-93813238D01*
X86828380Y-93670380D01*
X86828380Y-93575142D01*
X86876000Y-93432285D01*
X86923619Y-93384666D01*
X86923619Y-93003714D02*
X86876000Y-92956095D01*
X86828380Y-92860857D01*
X86828380Y-92622761D01*
X86876000Y-92527523D01*
X86923619Y-92479904D01*
X87018857Y-92432285D01*
X87114095Y-92432285D01*
X87256952Y-92479904D01*
X87828380Y-93051333D01*
X87828380Y-92432285D01*
X89923142Y-94559285D02*
X89970761Y-94511666D01*
X90018380Y-94559285D01*
X89970761Y-94606904D01*
X89923142Y-94559285D01*
X90018380Y-94559285D01*
X90018380Y-93559285D02*
X90018380Y-94130714D01*
X90018380Y-93845000D02*
X89018380Y-93845000D01*
X89161238Y-93940238D01*
X89256476Y-94035476D01*
X89304095Y-94130714D01*
X89351714Y-92702142D02*
X90018380Y-92702142D01*
X89351714Y-93130714D02*
X89875523Y-93130714D01*
X89970761Y-93083095D01*
X90018380Y-92987857D01*
X90018380Y-92845000D01*
X89970761Y-92749761D01*
X89923142Y-92702142D01*
X89351714Y-92368809D02*
X89351714Y-91987857D01*
X90018380Y-92225952D02*
X89161238Y-92225952D01*
X89066000Y-92178333D01*
X89018380Y-92083095D01*
X89018380Y-91987857D01*
%TO.C,U14*%
X55156380Y-155152095D02*
X55965904Y-155152095D01*
X56061142Y-155104476D01*
X56108761Y-155056857D01*
X56156380Y-154961619D01*
X56156380Y-154771142D01*
X56108761Y-154675904D01*
X56061142Y-154628285D01*
X55965904Y-154580666D01*
X55156380Y-154580666D01*
X56156380Y-153580666D02*
X56156380Y-154152095D01*
X56156380Y-153866380D02*
X55156380Y-153866380D01*
X55299238Y-153961619D01*
X55394476Y-154056857D01*
X55442095Y-154152095D01*
X55489714Y-152723523D02*
X56156380Y-152723523D01*
X55108761Y-152961619D02*
X55823047Y-153199714D01*
X55823047Y-152580666D01*
X75056380Y-156556857D02*
X75056380Y-155890190D01*
X76056380Y-156318761D01*
X75389714Y-155080666D02*
X76056380Y-155080666D01*
X75008761Y-155318761D02*
X75723047Y-155556857D01*
X75723047Y-154937809D01*
X76056380Y-154080666D02*
X76056380Y-154556857D01*
X75056380Y-154556857D01*
X76008761Y-153794952D02*
X76056380Y-153652095D01*
X76056380Y-153414000D01*
X76008761Y-153318761D01*
X75961142Y-153271142D01*
X75865904Y-153223523D01*
X75770666Y-153223523D01*
X75675428Y-153271142D01*
X75627809Y-153318761D01*
X75580190Y-153414000D01*
X75532571Y-153604476D01*
X75484952Y-153699714D01*
X75437333Y-153747333D01*
X75342095Y-153794952D01*
X75246857Y-153794952D01*
X75151619Y-153747333D01*
X75104000Y-153699714D01*
X75056380Y-153604476D01*
X75056380Y-153366380D01*
X75104000Y-153223523D01*
X75056380Y-152890190D02*
X75056380Y-152223523D01*
X76056380Y-152652095D01*
X75389714Y-151414000D02*
X76056380Y-151414000D01*
X75008761Y-151652095D02*
X75723047Y-151890190D01*
X75723047Y-151271142D01*
%TO.C,JP1*%
X46664666Y-150201380D02*
X46664666Y-150915666D01*
X46617047Y-151058523D01*
X46521809Y-151153761D01*
X46378952Y-151201380D01*
X46283714Y-151201380D01*
X47140857Y-151201380D02*
X47140857Y-150201380D01*
X47521809Y-150201380D01*
X47617047Y-150249000D01*
X47664666Y-150296619D01*
X47712285Y-150391857D01*
X47712285Y-150534714D01*
X47664666Y-150629952D01*
X47617047Y-150677571D01*
X47521809Y-150725190D01*
X47140857Y-150725190D01*
X48664666Y-151201380D02*
X48093238Y-151201380D01*
X48378952Y-151201380D02*
X48378952Y-150201380D01*
X48283714Y-150344238D01*
X48188476Y-150439476D01*
X48093238Y-150487095D01*
%TO.C,U15*%
X91431380Y-93821095D02*
X92240904Y-93821095D01*
X92336142Y-93773476D01*
X92383761Y-93725857D01*
X92431380Y-93630619D01*
X92431380Y-93440142D01*
X92383761Y-93344904D01*
X92336142Y-93297285D01*
X92240904Y-93249666D01*
X91431380Y-93249666D01*
X92431380Y-92249666D02*
X92431380Y-92821095D01*
X92431380Y-92535380D02*
X91431380Y-92535380D01*
X91574238Y-92630619D01*
X91669476Y-92725857D01*
X91717095Y-92821095D01*
X91431380Y-91344904D02*
X91431380Y-91821095D01*
X91907571Y-91868714D01*
X91859952Y-91821095D01*
X91812333Y-91725857D01*
X91812333Y-91487761D01*
X91859952Y-91392523D01*
X91907571Y-91344904D01*
X92002809Y-91297285D01*
X92240904Y-91297285D01*
X92336142Y-91344904D01*
X92383761Y-91392523D01*
X92431380Y-91487761D01*
X92431380Y-91725857D01*
X92383761Y-91821095D01*
X92336142Y-91868714D01*
X95924809Y-93416380D02*
X95924809Y-92416380D01*
X96305761Y-92416380D01*
X96401000Y-92464000D01*
X96448619Y-92511619D01*
X96496238Y-92606857D01*
X96496238Y-92749714D01*
X96448619Y-92844952D01*
X96401000Y-92892571D01*
X96305761Y-92940190D01*
X95924809Y-92940190D01*
X96924809Y-93416380D02*
X96924809Y-92416380D01*
X97162904Y-92416380D01*
X97305761Y-92464000D01*
X97401000Y-92559238D01*
X97448619Y-92654476D01*
X97496238Y-92844952D01*
X97496238Y-92987809D01*
X97448619Y-93178285D01*
X97401000Y-93273523D01*
X97305761Y-93368761D01*
X97162904Y-93416380D01*
X96924809Y-93416380D01*
X97924809Y-93416380D02*
X97924809Y-92416380D01*
X98258142Y-93130666D01*
X98591476Y-92416380D01*
X98591476Y-93416380D01*
X99067666Y-92892571D02*
X99401000Y-92892571D01*
X99543857Y-93416380D02*
X99067666Y-93416380D01*
X99067666Y-92416380D01*
X99543857Y-92416380D01*
X99924809Y-92511619D02*
X99972428Y-92464000D01*
X100067666Y-92416380D01*
X100305761Y-92416380D01*
X100401000Y-92464000D01*
X100448619Y-92511619D01*
X100496238Y-92606857D01*
X100496238Y-92702095D01*
X100448619Y-92844952D01*
X99877190Y-93416380D01*
X100496238Y-93416380D01*
X100924809Y-93035428D02*
X101686714Y-93035428D01*
X102115285Y-93368761D02*
X102258142Y-93416380D01*
X102496238Y-93416380D01*
X102591476Y-93368761D01*
X102639095Y-93321142D01*
X102686714Y-93225904D01*
X102686714Y-93130666D01*
X102639095Y-93035428D01*
X102591476Y-92987809D01*
X102496238Y-92940190D01*
X102305761Y-92892571D01*
X102210523Y-92844952D01*
X102162904Y-92797333D01*
X102115285Y-92702095D01*
X102115285Y-92606857D01*
X102162904Y-92511619D01*
X102210523Y-92464000D01*
X102305761Y-92416380D01*
X102543857Y-92416380D01*
X102686714Y-92464000D01*
X103591476Y-92416380D02*
X103115285Y-92416380D01*
X103067666Y-92892571D01*
X103115285Y-92844952D01*
X103210523Y-92797333D01*
X103448619Y-92797333D01*
X103543857Y-92844952D01*
X103591476Y-92892571D01*
X103639095Y-92987809D01*
X103639095Y-93225904D01*
X103591476Y-93321142D01*
X103543857Y-93368761D01*
X103448619Y-93416380D01*
X103210523Y-93416380D01*
X103115285Y-93368761D01*
X103067666Y-93321142D01*
X104067666Y-93035428D02*
X104829571Y-93035428D01*
X105258142Y-93368761D02*
X105401000Y-93416380D01*
X105639095Y-93416380D01*
X105734333Y-93368761D01*
X105781952Y-93321142D01*
X105829571Y-93225904D01*
X105829571Y-93130666D01*
X105781952Y-93035428D01*
X105734333Y-92987809D01*
X105639095Y-92940190D01*
X105448619Y-92892571D01*
X105353380Y-92844952D01*
X105305761Y-92797333D01*
X105258142Y-92702095D01*
X105258142Y-92606857D01*
X105305761Y-92511619D01*
X105353380Y-92464000D01*
X105448619Y-92416380D01*
X105686714Y-92416380D01*
X105829571Y-92464000D01*
X106781952Y-93416380D02*
X106210523Y-93416380D01*
X106496238Y-93416380D02*
X106496238Y-92416380D01*
X106401000Y-92559238D01*
X106305761Y-92654476D01*
X106210523Y-92702095D01*
X107162904Y-92511619D02*
X107210523Y-92464000D01*
X107305761Y-92416380D01*
X107543857Y-92416380D01*
X107639095Y-92464000D01*
X107686714Y-92511619D01*
X107734333Y-92606857D01*
X107734333Y-92702095D01*
X107686714Y-92844952D01*
X107115285Y-93416380D01*
X107734333Y-93416380D01*
X108162904Y-93035428D02*
X108924809Y-93035428D01*
X109353380Y-93368761D02*
X109496238Y-93416380D01*
X109734333Y-93416380D01*
X109829571Y-93368761D01*
X109877190Y-93321142D01*
X109924809Y-93225904D01*
X109924809Y-93130666D01*
X109877190Y-93035428D01*
X109829571Y-92987809D01*
X109734333Y-92940190D01*
X109543857Y-92892571D01*
X109448619Y-92844952D01*
X109401000Y-92797333D01*
X109353380Y-92702095D01*
X109353380Y-92606857D01*
X109401000Y-92511619D01*
X109448619Y-92464000D01*
X109543857Y-92416380D01*
X109781952Y-92416380D01*
X109924809Y-92464000D01*
%TO.C,U13*%
X55547380Y-118195095D02*
X56356904Y-118195095D01*
X56452142Y-118147476D01*
X56499761Y-118099857D01*
X56547380Y-118004619D01*
X56547380Y-117814142D01*
X56499761Y-117718904D01*
X56452142Y-117671285D01*
X56356904Y-117623666D01*
X55547380Y-117623666D01*
X56547380Y-116623666D02*
X56547380Y-117195095D01*
X56547380Y-116909380D02*
X55547380Y-116909380D01*
X55690238Y-117004619D01*
X55785476Y-117099857D01*
X55833095Y-117195095D01*
X55547380Y-116290333D02*
X55547380Y-115671285D01*
X55928333Y-116004619D01*
X55928333Y-115861761D01*
X55975952Y-115766523D01*
X56023571Y-115718904D01*
X56118809Y-115671285D01*
X56356904Y-115671285D01*
X56452142Y-115718904D01*
X56499761Y-115766523D01*
X56547380Y-115861761D01*
X56547380Y-116147476D01*
X56499761Y-116242714D01*
X56452142Y-116290333D01*
X83067380Y-120076047D02*
X83067380Y-119409380D01*
X84067380Y-119837952D01*
X83400714Y-118599857D02*
X84067380Y-118599857D01*
X83019761Y-118837952D02*
X83734047Y-119076047D01*
X83734047Y-118457000D01*
X84067380Y-117599857D02*
X84067380Y-118076047D01*
X83067380Y-118076047D01*
X84019761Y-117314142D02*
X84067380Y-117171285D01*
X84067380Y-116933190D01*
X84019761Y-116837952D01*
X83972142Y-116790333D01*
X83876904Y-116742714D01*
X83781666Y-116742714D01*
X83686428Y-116790333D01*
X83638809Y-116837952D01*
X83591190Y-116933190D01*
X83543571Y-117123666D01*
X83495952Y-117218904D01*
X83448333Y-117266523D01*
X83353095Y-117314142D01*
X83257857Y-117314142D01*
X83162619Y-117266523D01*
X83115000Y-117218904D01*
X83067380Y-117123666D01*
X83067380Y-116885571D01*
X83115000Y-116742714D01*
X83162619Y-116361761D02*
X83115000Y-116314142D01*
X83067380Y-116218904D01*
X83067380Y-115980809D01*
X83115000Y-115885571D01*
X83162619Y-115837952D01*
X83257857Y-115790333D01*
X83353095Y-115790333D01*
X83495952Y-115837952D01*
X84067380Y-116409380D01*
X84067380Y-115790333D01*
X83400714Y-114933190D02*
X84067380Y-114933190D01*
X83019761Y-115171285D02*
X83734047Y-115409380D01*
X83734047Y-114790333D01*
X83400714Y-113980809D02*
X84067380Y-113980809D01*
X83019761Y-114218904D02*
X83734047Y-114457000D01*
X83734047Y-113837952D01*
%TO.C,U8*%
X54902380Y-142483904D02*
X55711904Y-142483904D01*
X55807142Y-142436285D01*
X55854761Y-142388666D01*
X55902380Y-142293428D01*
X55902380Y-142102952D01*
X55854761Y-142007714D01*
X55807142Y-141960095D01*
X55711904Y-141912476D01*
X54902380Y-141912476D01*
X55330952Y-141293428D02*
X55283333Y-141388666D01*
X55235714Y-141436285D01*
X55140476Y-141483904D01*
X55092857Y-141483904D01*
X54997619Y-141436285D01*
X54950000Y-141388666D01*
X54902380Y-141293428D01*
X54902380Y-141102952D01*
X54950000Y-141007714D01*
X54997619Y-140960095D01*
X55092857Y-140912476D01*
X55140476Y-140912476D01*
X55235714Y-140960095D01*
X55283333Y-141007714D01*
X55330952Y-141102952D01*
X55330952Y-141293428D01*
X55378571Y-141388666D01*
X55426190Y-141436285D01*
X55521428Y-141483904D01*
X55711904Y-141483904D01*
X55807142Y-141436285D01*
X55854761Y-141388666D01*
X55902380Y-141293428D01*
X55902380Y-141102952D01*
X55854761Y-141007714D01*
X55807142Y-140960095D01*
X55711904Y-140912476D01*
X55521428Y-140912476D01*
X55426190Y-140960095D01*
X55378571Y-141007714D01*
X55330952Y-141102952D01*
X74802380Y-144364857D02*
X74802380Y-143698190D01*
X75802380Y-144126761D01*
X75135714Y-142888666D02*
X75802380Y-142888666D01*
X74754761Y-143126761D02*
X75469047Y-143364857D01*
X75469047Y-142745809D01*
X75802380Y-141888666D02*
X75802380Y-142364857D01*
X74802380Y-142364857D01*
X75754761Y-141602952D02*
X75802380Y-141460095D01*
X75802380Y-141222000D01*
X75754761Y-141126761D01*
X75707142Y-141079142D01*
X75611904Y-141031523D01*
X75516666Y-141031523D01*
X75421428Y-141079142D01*
X75373809Y-141126761D01*
X75326190Y-141222000D01*
X75278571Y-141412476D01*
X75230952Y-141507714D01*
X75183333Y-141555333D01*
X75088095Y-141602952D01*
X74992857Y-141602952D01*
X74897619Y-141555333D01*
X74850000Y-141507714D01*
X74802380Y-141412476D01*
X74802380Y-141174380D01*
X74850000Y-141031523D01*
X74802380Y-140698190D02*
X74802380Y-140079142D01*
X75183333Y-140412476D01*
X75183333Y-140269619D01*
X75230952Y-140174380D01*
X75278571Y-140126761D01*
X75373809Y-140079142D01*
X75611904Y-140079142D01*
X75707142Y-140126761D01*
X75754761Y-140174380D01*
X75802380Y-140269619D01*
X75802380Y-140555333D01*
X75754761Y-140650571D01*
X75707142Y-140698190D01*
X74802380Y-139460095D02*
X74802380Y-139364857D01*
X74850000Y-139269619D01*
X74897619Y-139222000D01*
X74992857Y-139174380D01*
X75183333Y-139126761D01*
X75421428Y-139126761D01*
X75611904Y-139174380D01*
X75707142Y-139222000D01*
X75754761Y-139269619D01*
X75802380Y-139364857D01*
X75802380Y-139460095D01*
X75754761Y-139555333D01*
X75707142Y-139602952D01*
X75611904Y-139650571D01*
X75421428Y-139698190D01*
X75183333Y-139698190D01*
X74992857Y-139650571D01*
X74897619Y-139602952D01*
X74850000Y-139555333D01*
X74802380Y-139460095D01*
%TO.C,C11*%
X19915142Y-118692857D02*
X19962761Y-118740476D01*
X20010380Y-118883333D01*
X20010380Y-118978571D01*
X19962761Y-119121428D01*
X19867523Y-119216666D01*
X19772285Y-119264285D01*
X19581809Y-119311904D01*
X19438952Y-119311904D01*
X19248476Y-119264285D01*
X19153238Y-119216666D01*
X19058000Y-119121428D01*
X19010380Y-118978571D01*
X19010380Y-118883333D01*
X19058000Y-118740476D01*
X19105619Y-118692857D01*
X20010380Y-117740476D02*
X20010380Y-118311904D01*
X20010380Y-118026190D02*
X19010380Y-118026190D01*
X19153238Y-118121428D01*
X19248476Y-118216666D01*
X19296095Y-118311904D01*
X20010380Y-116788095D02*
X20010380Y-117359523D01*
X20010380Y-117073809D02*
X19010380Y-117073809D01*
X19153238Y-117169047D01*
X19248476Y-117264285D01*
X19296095Y-117359523D01*
X22201142Y-119264285D02*
X22248761Y-119216666D01*
X22296380Y-119264285D01*
X22248761Y-119311904D01*
X22201142Y-119264285D01*
X22296380Y-119264285D01*
X22296380Y-118264285D02*
X22296380Y-118835714D01*
X22296380Y-118550000D02*
X21296380Y-118550000D01*
X21439238Y-118645238D01*
X21534476Y-118740476D01*
X21582095Y-118835714D01*
X21629714Y-117407142D02*
X22296380Y-117407142D01*
X21629714Y-117835714D02*
X22153523Y-117835714D01*
X22248761Y-117788095D01*
X22296380Y-117692857D01*
X22296380Y-117550000D01*
X22248761Y-117454761D01*
X22201142Y-117407142D01*
X21629714Y-117073809D02*
X21629714Y-116692857D01*
X22296380Y-116930952D02*
X21439238Y-116930952D01*
X21344000Y-116883333D01*
X21296380Y-116788095D01*
X21296380Y-116692857D01*
%TO.C,U1*%
X92098380Y-105917904D02*
X92907904Y-105917904D01*
X93003142Y-105870285D01*
X93050761Y-105822666D01*
X93098380Y-105727428D01*
X93098380Y-105536952D01*
X93050761Y-105441714D01*
X93003142Y-105394095D01*
X92907904Y-105346476D01*
X92098380Y-105346476D01*
X93098380Y-104346476D02*
X93098380Y-104917904D01*
X93098380Y-104632190D02*
X92098380Y-104632190D01*
X92241238Y-104727428D01*
X92336476Y-104822666D01*
X92384095Y-104917904D01*
X111998380Y-107798857D02*
X111998380Y-107132190D01*
X112998380Y-107560761D01*
X112331714Y-106322666D02*
X112998380Y-106322666D01*
X111950761Y-106560761D02*
X112665047Y-106798857D01*
X112665047Y-106179809D01*
X112998380Y-105322666D02*
X112998380Y-105798857D01*
X111998380Y-105798857D01*
X112950761Y-105036952D02*
X112998380Y-104894095D01*
X112998380Y-104656000D01*
X112950761Y-104560761D01*
X112903142Y-104513142D01*
X112807904Y-104465523D01*
X112712666Y-104465523D01*
X112617428Y-104513142D01*
X112569809Y-104560761D01*
X112522190Y-104656000D01*
X112474571Y-104846476D01*
X112426952Y-104941714D01*
X112379333Y-104989333D01*
X112284095Y-105036952D01*
X112188857Y-105036952D01*
X112093619Y-104989333D01*
X112046000Y-104941714D01*
X111998380Y-104846476D01*
X111998380Y-104608380D01*
X112046000Y-104465523D01*
X111998380Y-104132190D02*
X111998380Y-103513142D01*
X112379333Y-103846476D01*
X112379333Y-103703619D01*
X112426952Y-103608380D01*
X112474571Y-103560761D01*
X112569809Y-103513142D01*
X112807904Y-103513142D01*
X112903142Y-103560761D01*
X112950761Y-103608380D01*
X112998380Y-103703619D01*
X112998380Y-103989333D01*
X112950761Y-104084571D01*
X112903142Y-104132190D01*
X112093619Y-103132190D02*
X112046000Y-103084571D01*
X111998380Y-102989333D01*
X111998380Y-102751238D01*
X112046000Y-102656000D01*
X112093619Y-102608380D01*
X112188857Y-102560761D01*
X112284095Y-102560761D01*
X112426952Y-102608380D01*
X112998380Y-103179809D01*
X112998380Y-102560761D01*
%TO.C,U12*%
X18961380Y-142833095D02*
X19770904Y-142833095D01*
X19866142Y-142785476D01*
X19913761Y-142737857D01*
X19961380Y-142642619D01*
X19961380Y-142452142D01*
X19913761Y-142356904D01*
X19866142Y-142309285D01*
X19770904Y-142261666D01*
X18961380Y-142261666D01*
X19961380Y-141261666D02*
X19961380Y-141833095D01*
X19961380Y-141547380D02*
X18961380Y-141547380D01*
X19104238Y-141642619D01*
X19199476Y-141737857D01*
X19247095Y-141833095D01*
X19056619Y-140880714D02*
X19009000Y-140833095D01*
X18961380Y-140737857D01*
X18961380Y-140499761D01*
X19009000Y-140404523D01*
X19056619Y-140356904D01*
X19151857Y-140309285D01*
X19247095Y-140309285D01*
X19389952Y-140356904D01*
X19961380Y-140928333D01*
X19961380Y-140309285D01*
X38861380Y-144237857D02*
X38861380Y-143571190D01*
X39861380Y-143999761D01*
X39194714Y-142761666D02*
X39861380Y-142761666D01*
X38813761Y-142999761D02*
X39528047Y-143237857D01*
X39528047Y-142618809D01*
X39861380Y-141761666D02*
X39861380Y-142237857D01*
X38861380Y-142237857D01*
X39813761Y-141475952D02*
X39861380Y-141333095D01*
X39861380Y-141095000D01*
X39813761Y-140999761D01*
X39766142Y-140952142D01*
X39670904Y-140904523D01*
X39575666Y-140904523D01*
X39480428Y-140952142D01*
X39432809Y-140999761D01*
X39385190Y-141095000D01*
X39337571Y-141285476D01*
X39289952Y-141380714D01*
X39242333Y-141428333D01*
X39147095Y-141475952D01*
X39051857Y-141475952D01*
X38956619Y-141428333D01*
X38909000Y-141380714D01*
X38861380Y-141285476D01*
X38861380Y-141047380D01*
X38909000Y-140904523D01*
X38861380Y-140285476D02*
X38861380Y-140190238D01*
X38909000Y-140095000D01*
X38956619Y-140047380D01*
X39051857Y-139999761D01*
X39242333Y-139952142D01*
X39480428Y-139952142D01*
X39670904Y-139999761D01*
X39766142Y-140047380D01*
X39813761Y-140095000D01*
X39861380Y-140190238D01*
X39861380Y-140285476D01*
X39813761Y-140380714D01*
X39766142Y-140428333D01*
X39670904Y-140475952D01*
X39480428Y-140523571D01*
X39242333Y-140523571D01*
X39051857Y-140475952D01*
X38956619Y-140428333D01*
X38909000Y-140380714D01*
X38861380Y-140285476D01*
X38861380Y-139047380D02*
X38861380Y-139523571D01*
X39337571Y-139571190D01*
X39289952Y-139523571D01*
X39242333Y-139428333D01*
X39242333Y-139190238D01*
X39289952Y-139095000D01*
X39337571Y-139047380D01*
X39432809Y-138999761D01*
X39670904Y-138999761D01*
X39766142Y-139047380D01*
X39813761Y-139095000D01*
X39861380Y-139190238D01*
X39861380Y-139428333D01*
X39813761Y-139523571D01*
X39766142Y-139571190D01*
%TO.C,U10*%
X84498380Y-142335095D02*
X85307904Y-142335095D01*
X85403142Y-142287476D01*
X85450761Y-142239857D01*
X85498380Y-142144619D01*
X85498380Y-141954142D01*
X85450761Y-141858904D01*
X85403142Y-141811285D01*
X85307904Y-141763666D01*
X84498380Y-141763666D01*
X85498380Y-140763666D02*
X85498380Y-141335095D01*
X85498380Y-141049380D02*
X84498380Y-141049380D01*
X84641238Y-141144619D01*
X84736476Y-141239857D01*
X84784095Y-141335095D01*
X84498380Y-140144619D02*
X84498380Y-140049380D01*
X84546000Y-139954142D01*
X84593619Y-139906523D01*
X84688857Y-139858904D01*
X84879333Y-139811285D01*
X85117428Y-139811285D01*
X85307904Y-139858904D01*
X85403142Y-139906523D01*
X85450761Y-139954142D01*
X85498380Y-140049380D01*
X85498380Y-140144619D01*
X85450761Y-140239857D01*
X85403142Y-140287476D01*
X85307904Y-140335095D01*
X85117428Y-140382714D01*
X84879333Y-140382714D01*
X84688857Y-140335095D01*
X84593619Y-140287476D01*
X84546000Y-140239857D01*
X84498380Y-140144619D01*
X112018380Y-144216047D02*
X112018380Y-143549380D01*
X113018380Y-143977952D01*
X112351714Y-142739857D02*
X113018380Y-142739857D01*
X111970761Y-142977952D02*
X112685047Y-143216047D01*
X112685047Y-142597000D01*
X113018380Y-141739857D02*
X113018380Y-142216047D01*
X112018380Y-142216047D01*
X112970761Y-141454142D02*
X113018380Y-141311285D01*
X113018380Y-141073190D01*
X112970761Y-140977952D01*
X112923142Y-140930333D01*
X112827904Y-140882714D01*
X112732666Y-140882714D01*
X112637428Y-140930333D01*
X112589809Y-140977952D01*
X112542190Y-141073190D01*
X112494571Y-141263666D01*
X112446952Y-141358904D01*
X112399333Y-141406523D01*
X112304095Y-141454142D01*
X112208857Y-141454142D01*
X112113619Y-141406523D01*
X112066000Y-141358904D01*
X112018380Y-141263666D01*
X112018380Y-141025571D01*
X112066000Y-140882714D01*
X112018380Y-140025571D02*
X112018380Y-140216047D01*
X112066000Y-140311285D01*
X112113619Y-140358904D01*
X112256476Y-140454142D01*
X112446952Y-140501761D01*
X112827904Y-140501761D01*
X112923142Y-140454142D01*
X112970761Y-140406523D01*
X113018380Y-140311285D01*
X113018380Y-140120809D01*
X112970761Y-140025571D01*
X112923142Y-139977952D01*
X112827904Y-139930333D01*
X112589809Y-139930333D01*
X112494571Y-139977952D01*
X112446952Y-140025571D01*
X112399333Y-140120809D01*
X112399333Y-140311285D01*
X112446952Y-140406523D01*
X112494571Y-140454142D01*
X112589809Y-140501761D01*
X112446952Y-139358904D02*
X112399333Y-139454142D01*
X112351714Y-139501761D01*
X112256476Y-139549380D01*
X112208857Y-139549380D01*
X112113619Y-139501761D01*
X112066000Y-139454142D01*
X112018380Y-139358904D01*
X112018380Y-139168428D01*
X112066000Y-139073190D01*
X112113619Y-139025571D01*
X112208857Y-138977952D01*
X112256476Y-138977952D01*
X112351714Y-139025571D01*
X112399333Y-139073190D01*
X112446952Y-139168428D01*
X112446952Y-139358904D01*
X112494571Y-139454142D01*
X112542190Y-139501761D01*
X112637428Y-139549380D01*
X112827904Y-139549380D01*
X112923142Y-139501761D01*
X112970761Y-139454142D01*
X113018380Y-139358904D01*
X113018380Y-139168428D01*
X112970761Y-139073190D01*
X112923142Y-139025571D01*
X112827904Y-138977952D01*
X112637428Y-138977952D01*
X112542190Y-139025571D01*
X112494571Y-139073190D01*
X112446952Y-139168428D01*
X112113619Y-138597000D02*
X112066000Y-138549380D01*
X112018380Y-138454142D01*
X112018380Y-138216047D01*
X112066000Y-138120809D01*
X112113619Y-138073190D01*
X112208857Y-138025571D01*
X112304095Y-138025571D01*
X112446952Y-138073190D01*
X113018380Y-138644619D01*
X113018380Y-138025571D01*
%TO.C,C5*%
X48356142Y-92749666D02*
X48403761Y-92797285D01*
X48451380Y-92940142D01*
X48451380Y-93035380D01*
X48403761Y-93178238D01*
X48308523Y-93273476D01*
X48213285Y-93321095D01*
X48022809Y-93368714D01*
X47879952Y-93368714D01*
X47689476Y-93321095D01*
X47594238Y-93273476D01*
X47499000Y-93178238D01*
X47451380Y-93035380D01*
X47451380Y-92940142D01*
X47499000Y-92797285D01*
X47546619Y-92749666D01*
X47451380Y-91844904D02*
X47451380Y-92321095D01*
X47927571Y-92368714D01*
X47879952Y-92321095D01*
X47832333Y-92225857D01*
X47832333Y-91987761D01*
X47879952Y-91892523D01*
X47927571Y-91844904D01*
X48022809Y-91797285D01*
X48260904Y-91797285D01*
X48356142Y-91844904D01*
X48403761Y-91892523D01*
X48451380Y-91987761D01*
X48451380Y-92225857D01*
X48403761Y-92321095D01*
X48356142Y-92368714D01*
X50776142Y-93797285D02*
X50823761Y-93749666D01*
X50871380Y-93797285D01*
X50823761Y-93844904D01*
X50776142Y-93797285D01*
X50871380Y-93797285D01*
X50871380Y-92797285D02*
X50871380Y-93368714D01*
X50871380Y-93083000D02*
X49871380Y-93083000D01*
X50014238Y-93178238D01*
X50109476Y-93273476D01*
X50157095Y-93368714D01*
X50204714Y-91940142D02*
X50871380Y-91940142D01*
X50204714Y-92368714D02*
X50728523Y-92368714D01*
X50823761Y-92321095D01*
X50871380Y-92225857D01*
X50871380Y-92083000D01*
X50823761Y-91987761D01*
X50776142Y-91940142D01*
X50204714Y-91606809D02*
X50204714Y-91225857D01*
X50871380Y-91463952D02*
X50014238Y-91463952D01*
X49919000Y-91416333D01*
X49871380Y-91321095D01*
X49871380Y-91225857D01*
%TO.C,C10*%
X80652142Y-141679857D02*
X80699761Y-141727476D01*
X80747380Y-141870333D01*
X80747380Y-141965571D01*
X80699761Y-142108428D01*
X80604523Y-142203666D01*
X80509285Y-142251285D01*
X80318809Y-142298904D01*
X80175952Y-142298904D01*
X79985476Y-142251285D01*
X79890238Y-142203666D01*
X79795000Y-142108428D01*
X79747380Y-141965571D01*
X79747380Y-141870333D01*
X79795000Y-141727476D01*
X79842619Y-141679857D01*
X80747380Y-140727476D02*
X80747380Y-141298904D01*
X80747380Y-141013190D02*
X79747380Y-141013190D01*
X79890238Y-141108428D01*
X79985476Y-141203666D01*
X80033095Y-141298904D01*
X79747380Y-140108428D02*
X79747380Y-140013190D01*
X79795000Y-139917952D01*
X79842619Y-139870333D01*
X79937857Y-139822714D01*
X80128333Y-139775095D01*
X80366428Y-139775095D01*
X80556904Y-139822714D01*
X80652142Y-139870333D01*
X80699761Y-139917952D01*
X80747380Y-140013190D01*
X80747380Y-140108428D01*
X80699761Y-140203666D01*
X80652142Y-140251285D01*
X80556904Y-140298904D01*
X80366428Y-140346523D01*
X80128333Y-140346523D01*
X79937857Y-140298904D01*
X79842619Y-140251285D01*
X79795000Y-140203666D01*
X79747380Y-140108428D01*
X82938142Y-142251285D02*
X82985761Y-142203666D01*
X83033380Y-142251285D01*
X82985761Y-142298904D01*
X82938142Y-142251285D01*
X83033380Y-142251285D01*
X83033380Y-141251285D02*
X83033380Y-141822714D01*
X83033380Y-141537000D02*
X82033380Y-141537000D01*
X82176238Y-141632238D01*
X82271476Y-141727476D01*
X82319095Y-141822714D01*
X82366714Y-140394142D02*
X83033380Y-140394142D01*
X82366714Y-140822714D02*
X82890523Y-140822714D01*
X82985761Y-140775095D01*
X83033380Y-140679857D01*
X83033380Y-140537000D01*
X82985761Y-140441761D01*
X82938142Y-140394142D01*
X82366714Y-140060809D02*
X82366714Y-139679857D01*
X83033380Y-139917952D02*
X82176238Y-139917952D01*
X82081000Y-139870333D01*
X82033380Y-139775095D01*
X82033380Y-139679857D01*
%TO.C,C6*%
X20169142Y-105135666D02*
X20216761Y-105183285D01*
X20264380Y-105326142D01*
X20264380Y-105421380D01*
X20216761Y-105564238D01*
X20121523Y-105659476D01*
X20026285Y-105707095D01*
X19835809Y-105754714D01*
X19692952Y-105754714D01*
X19502476Y-105707095D01*
X19407238Y-105659476D01*
X19312000Y-105564238D01*
X19264380Y-105421380D01*
X19264380Y-105326142D01*
X19312000Y-105183285D01*
X19359619Y-105135666D01*
X19264380Y-104278523D02*
X19264380Y-104469000D01*
X19312000Y-104564238D01*
X19359619Y-104611857D01*
X19502476Y-104707095D01*
X19692952Y-104754714D01*
X20073904Y-104754714D01*
X20169142Y-104707095D01*
X20216761Y-104659476D01*
X20264380Y-104564238D01*
X20264380Y-104373761D01*
X20216761Y-104278523D01*
X20169142Y-104230904D01*
X20073904Y-104183285D01*
X19835809Y-104183285D01*
X19740571Y-104230904D01*
X19692952Y-104278523D01*
X19645333Y-104373761D01*
X19645333Y-104564238D01*
X19692952Y-104659476D01*
X19740571Y-104707095D01*
X19835809Y-104754714D01*
X22328142Y-106183285D02*
X22375761Y-106135666D01*
X22423380Y-106183285D01*
X22375761Y-106230904D01*
X22328142Y-106183285D01*
X22423380Y-106183285D01*
X22423380Y-105183285D02*
X22423380Y-105754714D01*
X22423380Y-105469000D02*
X21423380Y-105469000D01*
X21566238Y-105564238D01*
X21661476Y-105659476D01*
X21709095Y-105754714D01*
X21756714Y-104326142D02*
X22423380Y-104326142D01*
X21756714Y-104754714D02*
X22280523Y-104754714D01*
X22375761Y-104707095D01*
X22423380Y-104611857D01*
X22423380Y-104469000D01*
X22375761Y-104373761D01*
X22328142Y-104326142D01*
X21756714Y-103992809D02*
X21756714Y-103611857D01*
X22423380Y-103849952D02*
X21566238Y-103849952D01*
X21471000Y-103802333D01*
X21423380Y-103707095D01*
X21423380Y-103611857D01*
%TO.C,C1*%
X88145142Y-105262666D02*
X88192761Y-105310285D01*
X88240380Y-105453142D01*
X88240380Y-105548380D01*
X88192761Y-105691238D01*
X88097523Y-105786476D01*
X88002285Y-105834095D01*
X87811809Y-105881714D01*
X87668952Y-105881714D01*
X87478476Y-105834095D01*
X87383238Y-105786476D01*
X87288000Y-105691238D01*
X87240380Y-105548380D01*
X87240380Y-105453142D01*
X87288000Y-105310285D01*
X87335619Y-105262666D01*
X88240380Y-104310285D02*
X88240380Y-104881714D01*
X88240380Y-104596000D02*
X87240380Y-104596000D01*
X87383238Y-104691238D01*
X87478476Y-104786476D01*
X87526095Y-104881714D01*
X90304142Y-106497285D02*
X90351761Y-106449666D01*
X90399380Y-106497285D01*
X90351761Y-106544904D01*
X90304142Y-106497285D01*
X90399380Y-106497285D01*
X90399380Y-105497285D02*
X90399380Y-106068714D01*
X90399380Y-105783000D02*
X89399380Y-105783000D01*
X89542238Y-105878238D01*
X89637476Y-105973476D01*
X89685095Y-106068714D01*
X89732714Y-104640142D02*
X90399380Y-104640142D01*
X89732714Y-105068714D02*
X90256523Y-105068714D01*
X90351761Y-105021095D01*
X90399380Y-104925857D01*
X90399380Y-104783000D01*
X90351761Y-104687761D01*
X90304142Y-104640142D01*
X89732714Y-104306809D02*
X89732714Y-103925857D01*
X90399380Y-104163952D02*
X89542238Y-104163952D01*
X89447000Y-104116333D01*
X89399380Y-104021095D01*
X89399380Y-103925857D01*
%TO.C,R1*%
X75652333Y-104254380D02*
X75319000Y-103778190D01*
X75080904Y-104254380D02*
X75080904Y-103254380D01*
X75461857Y-103254380D01*
X75557095Y-103302000D01*
X75604714Y-103349619D01*
X75652333Y-103444857D01*
X75652333Y-103587714D01*
X75604714Y-103682952D01*
X75557095Y-103730571D01*
X75461857Y-103778190D01*
X75080904Y-103778190D01*
X76604714Y-104254380D02*
X76033285Y-104254380D01*
X76319000Y-104254380D02*
X76319000Y-103254380D01*
X76223761Y-103397238D01*
X76128523Y-103492476D01*
X76033285Y-103540095D01*
X75223761Y-106624380D02*
X74652333Y-106624380D01*
X74938047Y-106624380D02*
X74938047Y-105624380D01*
X74842809Y-105767238D01*
X74747571Y-105862476D01*
X74652333Y-105910095D01*
X75842809Y-105624380D02*
X75938047Y-105624380D01*
X76033285Y-105672000D01*
X76080904Y-105719619D01*
X76128523Y-105814857D01*
X76176142Y-106005333D01*
X76176142Y-106243428D01*
X76128523Y-106433904D01*
X76080904Y-106529142D01*
X76033285Y-106576761D01*
X75938047Y-106624380D01*
X75842809Y-106624380D01*
X75747571Y-106576761D01*
X75699952Y-106529142D01*
X75652333Y-106433904D01*
X75604714Y-106243428D01*
X75604714Y-106005333D01*
X75652333Y-105814857D01*
X75699952Y-105719619D01*
X75747571Y-105672000D01*
X75842809Y-105624380D01*
X76604714Y-106624380D02*
X76604714Y-105624380D01*
X76699952Y-106243428D02*
X76985666Y-106624380D01*
X76985666Y-105957714D02*
X76604714Y-106338666D01*
%TO.C,C12*%
X41498142Y-142374857D02*
X41545761Y-142422476D01*
X41593380Y-142565333D01*
X41593380Y-142660571D01*
X41545761Y-142803428D01*
X41450523Y-142898666D01*
X41355285Y-142946285D01*
X41164809Y-142993904D01*
X41021952Y-142993904D01*
X40831476Y-142946285D01*
X40736238Y-142898666D01*
X40641000Y-142803428D01*
X40593380Y-142660571D01*
X40593380Y-142565333D01*
X40641000Y-142422476D01*
X40688619Y-142374857D01*
X41593380Y-141422476D02*
X41593380Y-141993904D01*
X41593380Y-141708190D02*
X40593380Y-141708190D01*
X40736238Y-141803428D01*
X40831476Y-141898666D01*
X40879095Y-141993904D01*
X40688619Y-141041523D02*
X40641000Y-140993904D01*
X40593380Y-140898666D01*
X40593380Y-140660571D01*
X40641000Y-140565333D01*
X40688619Y-140517714D01*
X40783857Y-140470095D01*
X40879095Y-140470095D01*
X41021952Y-140517714D01*
X41593380Y-141089142D01*
X41593380Y-140470095D01*
X43918142Y-142946285D02*
X43965761Y-142898666D01*
X44013380Y-142946285D01*
X43965761Y-142993904D01*
X43918142Y-142946285D01*
X44013380Y-142946285D01*
X44013380Y-141946285D02*
X44013380Y-142517714D01*
X44013380Y-142232000D02*
X43013380Y-142232000D01*
X43156238Y-142327238D01*
X43251476Y-142422476D01*
X43299095Y-142517714D01*
X43346714Y-141089142D02*
X44013380Y-141089142D01*
X43346714Y-141517714D02*
X43870523Y-141517714D01*
X43965761Y-141470095D01*
X44013380Y-141374857D01*
X44013380Y-141232000D01*
X43965761Y-141136761D01*
X43918142Y-141089142D01*
X43346714Y-140755809D02*
X43346714Y-140374857D01*
X44013380Y-140612952D02*
X43156238Y-140612952D01*
X43061000Y-140565333D01*
X43013380Y-140470095D01*
X43013380Y-140374857D01*
%TO.C,C9*%
X19539142Y-153903666D02*
X19586761Y-153951285D01*
X19634380Y-154094142D01*
X19634380Y-154189380D01*
X19586761Y-154332238D01*
X19491523Y-154427476D01*
X19396285Y-154475095D01*
X19205809Y-154522714D01*
X19062952Y-154522714D01*
X18872476Y-154475095D01*
X18777238Y-154427476D01*
X18682000Y-154332238D01*
X18634380Y-154189380D01*
X18634380Y-154094142D01*
X18682000Y-153951285D01*
X18729619Y-153903666D01*
X19634380Y-153427476D02*
X19634380Y-153237000D01*
X19586761Y-153141761D01*
X19539142Y-153094142D01*
X19396285Y-152998904D01*
X19205809Y-152951285D01*
X18824857Y-152951285D01*
X18729619Y-152998904D01*
X18682000Y-153046523D01*
X18634380Y-153141761D01*
X18634380Y-153332238D01*
X18682000Y-153427476D01*
X18729619Y-153475095D01*
X18824857Y-153522714D01*
X19062952Y-153522714D01*
X19158190Y-153475095D01*
X19205809Y-153427476D01*
X19253428Y-153332238D01*
X19253428Y-153141761D01*
X19205809Y-153046523D01*
X19158190Y-152998904D01*
X19062952Y-152951285D01*
X21825142Y-154951285D02*
X21872761Y-154903666D01*
X21920380Y-154951285D01*
X21872761Y-154998904D01*
X21825142Y-154951285D01*
X21920380Y-154951285D01*
X21920380Y-153951285D02*
X21920380Y-154522714D01*
X21920380Y-154237000D02*
X20920380Y-154237000D01*
X21063238Y-154332238D01*
X21158476Y-154427476D01*
X21206095Y-154522714D01*
X21253714Y-153094142D02*
X21920380Y-153094142D01*
X21253714Y-153522714D02*
X21777523Y-153522714D01*
X21872761Y-153475095D01*
X21920380Y-153379857D01*
X21920380Y-153237000D01*
X21872761Y-153141761D01*
X21825142Y-153094142D01*
X21253714Y-152760809D02*
X21253714Y-152379857D01*
X21920380Y-152617952D02*
X21063238Y-152617952D01*
X20968000Y-152570333D01*
X20920380Y-152475095D01*
X20920380Y-152379857D01*
%TO.C,U5*%
X52621380Y-93471904D02*
X53430904Y-93471904D01*
X53526142Y-93424285D01*
X53573761Y-93376666D01*
X53621380Y-93281428D01*
X53621380Y-93090952D01*
X53573761Y-92995714D01*
X53526142Y-92948095D01*
X53430904Y-92900476D01*
X52621380Y-92900476D01*
X52621380Y-91948095D02*
X52621380Y-92424285D01*
X53097571Y-92471904D01*
X53049952Y-92424285D01*
X53002333Y-92329047D01*
X53002333Y-92090952D01*
X53049952Y-91995714D01*
X53097571Y-91948095D01*
X53192809Y-91900476D01*
X53430904Y-91900476D01*
X53526142Y-91948095D01*
X53573761Y-91995714D01*
X53621380Y-92090952D01*
X53621380Y-92329047D01*
X53573761Y-92424285D01*
X53526142Y-92471904D01*
X85935666Y-95424285D02*
X85935666Y-94948095D01*
X86221380Y-95519523D02*
X85221380Y-95186190D01*
X86221380Y-94852857D01*
X86221380Y-94519523D02*
X85221380Y-94519523D01*
X85935666Y-94186190D01*
X85221380Y-93852857D01*
X86221380Y-93852857D01*
X86221380Y-93329047D02*
X86221380Y-93138571D01*
X86173761Y-93043333D01*
X86126142Y-92995714D01*
X85983285Y-92900476D01*
X85792809Y-92852857D01*
X85411857Y-92852857D01*
X85316619Y-92900476D01*
X85269000Y-92948095D01*
X85221380Y-93043333D01*
X85221380Y-93233809D01*
X85269000Y-93329047D01*
X85316619Y-93376666D01*
X85411857Y-93424285D01*
X85649952Y-93424285D01*
X85745190Y-93376666D01*
X85792809Y-93329047D01*
X85840428Y-93233809D01*
X85840428Y-93043333D01*
X85792809Y-92948095D01*
X85745190Y-92900476D01*
X85649952Y-92852857D01*
X85221380Y-91948095D02*
X85221380Y-92424285D01*
X85697571Y-92471904D01*
X85649952Y-92424285D01*
X85602333Y-92329047D01*
X85602333Y-92090952D01*
X85649952Y-91995714D01*
X85697571Y-91948095D01*
X85792809Y-91900476D01*
X86030904Y-91900476D01*
X86126142Y-91948095D01*
X86173761Y-91995714D01*
X86221380Y-92090952D01*
X86221380Y-92329047D01*
X86173761Y-92424285D01*
X86126142Y-92471904D01*
X86221380Y-90948095D02*
X86221380Y-91519523D01*
X86221380Y-91233809D02*
X85221380Y-91233809D01*
X85364238Y-91329047D01*
X85459476Y-91424285D01*
X85507095Y-91519523D01*
X86221380Y-89995714D02*
X86221380Y-90567142D01*
X86221380Y-90281428D02*
X85221380Y-90281428D01*
X85364238Y-90376666D01*
X85459476Y-90471904D01*
X85507095Y-90567142D01*
%TO.C,C13*%
X51538142Y-117549857D02*
X51585761Y-117597476D01*
X51633380Y-117740333D01*
X51633380Y-117835571D01*
X51585761Y-117978428D01*
X51490523Y-118073666D01*
X51395285Y-118121285D01*
X51204809Y-118168904D01*
X51061952Y-118168904D01*
X50871476Y-118121285D01*
X50776238Y-118073666D01*
X50681000Y-117978428D01*
X50633380Y-117835571D01*
X50633380Y-117740333D01*
X50681000Y-117597476D01*
X50728619Y-117549857D01*
X51633380Y-116597476D02*
X51633380Y-117168904D01*
X51633380Y-116883190D02*
X50633380Y-116883190D01*
X50776238Y-116978428D01*
X50871476Y-117073666D01*
X50919095Y-117168904D01*
X50633380Y-116264142D02*
X50633380Y-115645095D01*
X51014333Y-115978428D01*
X51014333Y-115835571D01*
X51061952Y-115740333D01*
X51109571Y-115692714D01*
X51204809Y-115645095D01*
X51442904Y-115645095D01*
X51538142Y-115692714D01*
X51585761Y-115740333D01*
X51633380Y-115835571D01*
X51633380Y-116121285D01*
X51585761Y-116216523D01*
X51538142Y-116264142D01*
X53951142Y-118121285D02*
X53998761Y-118073666D01*
X54046380Y-118121285D01*
X53998761Y-118168904D01*
X53951142Y-118121285D01*
X54046380Y-118121285D01*
X54046380Y-117121285D02*
X54046380Y-117692714D01*
X54046380Y-117407000D02*
X53046380Y-117407000D01*
X53189238Y-117502238D01*
X53284476Y-117597476D01*
X53332095Y-117692714D01*
X53379714Y-116264142D02*
X54046380Y-116264142D01*
X53379714Y-116692714D02*
X53903523Y-116692714D01*
X53998761Y-116645095D01*
X54046380Y-116549857D01*
X54046380Y-116407000D01*
X53998761Y-116311761D01*
X53951142Y-116264142D01*
X53379714Y-115930809D02*
X53379714Y-115549857D01*
X54046380Y-115787952D02*
X53189238Y-115787952D01*
X53094000Y-115740333D01*
X53046380Y-115645095D01*
X53046380Y-115549857D01*
%TO.C,C7*%
X88399142Y-117073666D02*
X88446761Y-117121285D01*
X88494380Y-117264142D01*
X88494380Y-117359380D01*
X88446761Y-117502238D01*
X88351523Y-117597476D01*
X88256285Y-117645095D01*
X88065809Y-117692714D01*
X87922952Y-117692714D01*
X87732476Y-117645095D01*
X87637238Y-117597476D01*
X87542000Y-117502238D01*
X87494380Y-117359380D01*
X87494380Y-117264142D01*
X87542000Y-117121285D01*
X87589619Y-117073666D01*
X87494380Y-116740333D02*
X87494380Y-116073666D01*
X88494380Y-116502238D01*
X90558142Y-118121285D02*
X90605761Y-118073666D01*
X90653380Y-118121285D01*
X90605761Y-118168904D01*
X90558142Y-118121285D01*
X90653380Y-118121285D01*
X90653380Y-117121285D02*
X90653380Y-117692714D01*
X90653380Y-117407000D02*
X89653380Y-117407000D01*
X89796238Y-117502238D01*
X89891476Y-117597476D01*
X89939095Y-117692714D01*
X89986714Y-116264142D02*
X90653380Y-116264142D01*
X89986714Y-116692714D02*
X90510523Y-116692714D01*
X90605761Y-116645095D01*
X90653380Y-116549857D01*
X90653380Y-116407000D01*
X90605761Y-116311761D01*
X90558142Y-116264142D01*
X89986714Y-115930809D02*
X89986714Y-115549857D01*
X90653380Y-115787952D02*
X89796238Y-115787952D01*
X89701000Y-115740333D01*
X89653380Y-115645095D01*
X89653380Y-115549857D01*
%TO.C,C16*%
X35663142Y-129801857D02*
X35710761Y-129849476D01*
X35758380Y-129992333D01*
X35758380Y-130087571D01*
X35710761Y-130230428D01*
X35615523Y-130325666D01*
X35520285Y-130373285D01*
X35329809Y-130420904D01*
X35186952Y-130420904D01*
X34996476Y-130373285D01*
X34901238Y-130325666D01*
X34806000Y-130230428D01*
X34758380Y-130087571D01*
X34758380Y-129992333D01*
X34806000Y-129849476D01*
X34853619Y-129801857D01*
X35758380Y-128849476D02*
X35758380Y-129420904D01*
X35758380Y-129135190D02*
X34758380Y-129135190D01*
X34901238Y-129230428D01*
X34996476Y-129325666D01*
X35044095Y-129420904D01*
X34758380Y-127992333D02*
X34758380Y-128182809D01*
X34806000Y-128278047D01*
X34853619Y-128325666D01*
X34996476Y-128420904D01*
X35186952Y-128468523D01*
X35567904Y-128468523D01*
X35663142Y-128420904D01*
X35710761Y-128373285D01*
X35758380Y-128278047D01*
X35758380Y-128087571D01*
X35710761Y-127992333D01*
X35663142Y-127944714D01*
X35567904Y-127897095D01*
X35329809Y-127897095D01*
X35234571Y-127944714D01*
X35186952Y-127992333D01*
X35139333Y-128087571D01*
X35139333Y-128278047D01*
X35186952Y-128373285D01*
X35234571Y-128420904D01*
X35329809Y-128468523D01*
X38171380Y-130690761D02*
X38171380Y-131262190D01*
X38171380Y-130976476D02*
X37171380Y-130976476D01*
X37314238Y-131071714D01*
X37409476Y-131166952D01*
X37457095Y-131262190D01*
X37171380Y-130071714D02*
X37171380Y-129976476D01*
X37219000Y-129881238D01*
X37266619Y-129833619D01*
X37361857Y-129786000D01*
X37552333Y-129738380D01*
X37790428Y-129738380D01*
X37980904Y-129786000D01*
X38076142Y-129833619D01*
X38123761Y-129881238D01*
X38171380Y-129976476D01*
X38171380Y-130071714D01*
X38123761Y-130166952D01*
X38076142Y-130214571D01*
X37980904Y-130262190D01*
X37790428Y-130309809D01*
X37552333Y-130309809D01*
X37361857Y-130262190D01*
X37266619Y-130214571D01*
X37219000Y-130166952D01*
X37171380Y-130071714D01*
X37171380Y-129119333D02*
X37171380Y-129024095D01*
X37219000Y-128928857D01*
X37266619Y-128881238D01*
X37361857Y-128833619D01*
X37552333Y-128786000D01*
X37790428Y-128786000D01*
X37980904Y-128833619D01*
X38076142Y-128881238D01*
X38123761Y-128928857D01*
X38171380Y-129024095D01*
X38171380Y-129119333D01*
X38123761Y-129214571D01*
X38076142Y-129262190D01*
X37980904Y-129309809D01*
X37790428Y-129357428D01*
X37552333Y-129357428D01*
X37361857Y-129309809D01*
X37266619Y-129262190D01*
X37219000Y-129214571D01*
X37171380Y-129119333D01*
X37504714Y-128357428D02*
X38504714Y-128357428D01*
X37552333Y-128357428D02*
X37504714Y-128262190D01*
X37504714Y-128071714D01*
X37552333Y-127976476D01*
X37599952Y-127928857D01*
X37695190Y-127881238D01*
X37980904Y-127881238D01*
X38076142Y-127928857D01*
X38123761Y-127976476D01*
X38171380Y-128071714D01*
X38171380Y-128262190D01*
X38123761Y-128357428D01*
X37504714Y-127595523D02*
X37504714Y-127214571D01*
X38171380Y-127452666D02*
X37314238Y-127452666D01*
X37219000Y-127405047D01*
X37171380Y-127309809D01*
X37171380Y-127214571D01*
%TO.C,C15*%
X102481142Y-84685142D02*
X102433523Y-84732761D01*
X102290666Y-84780380D01*
X102195428Y-84780380D01*
X102052571Y-84732761D01*
X101957333Y-84637523D01*
X101909714Y-84542285D01*
X101862095Y-84351809D01*
X101862095Y-84208952D01*
X101909714Y-84018476D01*
X101957333Y-83923238D01*
X102052571Y-83828000D01*
X102195428Y-83780380D01*
X102290666Y-83780380D01*
X102433523Y-83828000D01*
X102481142Y-83875619D01*
X103433523Y-84780380D02*
X102862095Y-84780380D01*
X103147809Y-84780380D02*
X103147809Y-83780380D01*
X103052571Y-83923238D01*
X102957333Y-84018476D01*
X102862095Y-84066095D01*
X104338285Y-83780380D02*
X103862095Y-83780380D01*
X103814476Y-84256571D01*
X103862095Y-84208952D01*
X103957333Y-84161333D01*
X104195428Y-84161333D01*
X104290666Y-84208952D01*
X104338285Y-84256571D01*
X104385904Y-84351809D01*
X104385904Y-84589904D01*
X104338285Y-84685142D01*
X104290666Y-84732761D01*
X104195428Y-84780380D01*
X103957333Y-84780380D01*
X103862095Y-84732761D01*
X103814476Y-84685142D01*
X101433523Y-86971142D02*
X101481142Y-87018761D01*
X101433523Y-87066380D01*
X101385904Y-87018761D01*
X101433523Y-86971142D01*
X101433523Y-87066380D01*
X101814476Y-86066380D02*
X102433523Y-86066380D01*
X102100190Y-86447333D01*
X102243047Y-86447333D01*
X102338285Y-86494952D01*
X102385904Y-86542571D01*
X102433523Y-86637809D01*
X102433523Y-86875904D01*
X102385904Y-86971142D01*
X102338285Y-87018761D01*
X102243047Y-87066380D01*
X101957333Y-87066380D01*
X101862095Y-87018761D01*
X101814476Y-86971142D01*
X102766857Y-86066380D02*
X103385904Y-86066380D01*
X103052571Y-86447333D01*
X103195428Y-86447333D01*
X103290666Y-86494952D01*
X103338285Y-86542571D01*
X103385904Y-86637809D01*
X103385904Y-86875904D01*
X103338285Y-86971142D01*
X103290666Y-87018761D01*
X103195428Y-87066380D01*
X102909714Y-87066380D01*
X102814476Y-87018761D01*
X102766857Y-86971142D01*
X104243047Y-86399714D02*
X104243047Y-87066380D01*
X103814476Y-86399714D02*
X103814476Y-86923523D01*
X103862095Y-87018761D01*
X103957333Y-87066380D01*
X104100190Y-87066380D01*
X104195428Y-87018761D01*
X104243047Y-86971142D01*
X104576380Y-86399714D02*
X104957333Y-86399714D01*
X104719238Y-87066380D02*
X104719238Y-86209238D01*
X104766857Y-86114000D01*
X104862095Y-86066380D01*
X104957333Y-86066380D01*
D13*
%TO.C,U7*%
X93586000Y-122097000D02*
X111606000Y-122097000D01*
X111606000Y-111817000D02*
X93586000Y-111817000D01*
X93586000Y-111817000D02*
X93586000Y-122097000D01*
X111546000Y-114307000D02*
X93646000Y-114307000D01*
X111546000Y-119607000D02*
X111546000Y-114307000D01*
X93646000Y-119607000D02*
X111546000Y-119607000D01*
X93646000Y-114307000D02*
X93646000Y-115957000D01*
X111606000Y-122097000D02*
X111606000Y-111817000D01*
X93646000Y-117957000D02*
X93646000Y-119607000D01*
X93646000Y-117957000D02*
G75*
G03*
X93646000Y-115957000I0J1000000D01*
G01*
%TO.C,R3*%
X25681000Y-126016000D02*
X25681000Y-132556000D01*
X25681000Y-132556000D02*
X26011000Y-132556000D01*
X28421000Y-126016000D02*
X28421000Y-132556000D01*
X28421000Y-132556000D02*
X28091000Y-132556000D01*
X26011000Y-126016000D02*
X25681000Y-126016000D01*
X28091000Y-126016000D02*
X28421000Y-126016000D01*
%TO.C,U4*%
X93586000Y-133908000D02*
X111606000Y-133908000D01*
X111546000Y-126118000D02*
X93646000Y-126118000D01*
X111606000Y-123628000D02*
X93586000Y-123628000D01*
X111546000Y-131418000D02*
X111546000Y-126118000D01*
X111606000Y-133908000D02*
X111606000Y-123628000D01*
X93586000Y-123628000D02*
X93586000Y-133908000D01*
X93646000Y-129768000D02*
X93646000Y-131418000D01*
X93646000Y-126118000D02*
X93646000Y-127768000D01*
X93646000Y-131418000D02*
X111546000Y-131418000D01*
X93646000Y-129768000D02*
G75*
G03*
X93646000Y-127768000I0J1000000D01*
G01*
%TO.C,U11*%
X45957000Y-112960000D02*
X25397000Y-112960000D01*
X45957000Y-123240000D02*
X45957000Y-112960000D01*
X25457000Y-115450000D02*
X25457000Y-117100000D01*
X45897000Y-120750000D02*
X45897000Y-115450000D01*
X25457000Y-120750000D02*
X45897000Y-120750000D01*
X25397000Y-112960000D02*
X25397000Y-123240000D01*
X25457000Y-119100000D02*
X25457000Y-120750000D01*
X25397000Y-123240000D02*
X45957000Y-123240000D01*
X45897000Y-115450000D02*
X25457000Y-115450000D01*
X25457000Y-119100000D02*
G75*
G03*
X25457000Y-117100000I0J1000000D01*
G01*
%TO.C,C8*%
X53086000Y-144382000D02*
X53086000Y-143692000D01*
X53086000Y-138962000D02*
X53086000Y-139652000D01*
X54506000Y-143692000D02*
X54506000Y-139652000D01*
X54506000Y-139652000D02*
X51666000Y-139652000D01*
X51666000Y-139652000D02*
X51666000Y-143692000D01*
X51666000Y-143692000D02*
X54506000Y-143692000D01*
%TO.C,U9*%
X42854000Y-151137000D02*
X24954000Y-151137000D01*
X42914000Y-148647000D02*
X24894000Y-148647000D01*
X24954000Y-156437000D02*
X42854000Y-156437000D01*
X24954000Y-154787000D02*
X24954000Y-156437000D01*
X24894000Y-158927000D02*
X42914000Y-158927000D01*
X42914000Y-158927000D02*
X42914000Y-148647000D01*
X42854000Y-156437000D02*
X42854000Y-151137000D01*
X24954000Y-151137000D02*
X24954000Y-152787000D01*
X24894000Y-148647000D02*
X24894000Y-158927000D01*
X24954000Y-154787000D02*
G75*
G03*
X24954000Y-152787000I0J1000000D01*
G01*
%TO.C,R2*%
X30888000Y-132556000D02*
X31218000Y-132556000D01*
X33298000Y-126016000D02*
X33628000Y-126016000D01*
X30888000Y-126016000D02*
X30888000Y-132556000D01*
X33628000Y-126016000D02*
X33628000Y-132556000D01*
X31218000Y-126016000D02*
X30888000Y-126016000D01*
X33628000Y-132556000D02*
X33298000Y-132556000D01*
%TO.C,C4*%
X91621000Y-130738000D02*
X91621000Y-126698000D01*
X88781000Y-126698000D02*
X88781000Y-130738000D01*
X90201000Y-126008000D02*
X90201000Y-126698000D01*
X88781000Y-130738000D02*
X91621000Y-130738000D01*
X90201000Y-131428000D02*
X90201000Y-130738000D01*
X91621000Y-126698000D02*
X88781000Y-126698000D01*
%TO.C,R4*%
X59595000Y-107542000D02*
X66135000Y-107542000D01*
X66135000Y-107542000D02*
X66135000Y-107212000D01*
X59595000Y-107212000D02*
X59595000Y-107542000D01*
X59595000Y-105132000D02*
X59595000Y-104802000D01*
X66135000Y-104802000D02*
X66135000Y-105132000D01*
X59595000Y-104802000D02*
X66135000Y-104802000D01*
%TO.C,X1*%
X44819000Y-95935000D02*
X44819000Y-85655000D01*
X26859000Y-93445000D02*
X44759000Y-93445000D01*
X26859000Y-88145000D02*
X26859000Y-89795000D01*
X44759000Y-93445000D02*
X44759000Y-88145000D01*
X44819000Y-85655000D02*
X26799000Y-85655000D01*
X26799000Y-85655000D02*
X26799000Y-95935000D01*
X26799000Y-95935000D02*
X44819000Y-95935000D01*
X44759000Y-88145000D02*
X26859000Y-88145000D01*
X26859000Y-91795000D02*
X26859000Y-93445000D01*
X26859000Y-91795000D02*
G75*
G03*
X26859000Y-89795000I0J1000000D01*
G01*
%TO.C,C14*%
X51920000Y-151844000D02*
X51920000Y-155884000D01*
X54760000Y-151844000D02*
X51920000Y-151844000D01*
X53340000Y-156574000D02*
X53340000Y-155884000D01*
X51920000Y-155884000D02*
X54760000Y-155884000D01*
X54760000Y-155884000D02*
X54760000Y-151844000D01*
X53340000Y-151154000D02*
X53340000Y-151844000D01*
%TO.C,U6*%
X25472000Y-107669000D02*
X50992000Y-107669000D01*
X50992000Y-107669000D02*
X50992000Y-102369000D01*
X25472000Y-102369000D02*
X25472000Y-104019000D01*
X51052000Y-99879000D02*
X25412000Y-99879000D01*
X51052000Y-110159000D02*
X51052000Y-99879000D01*
X25412000Y-99879000D02*
X25412000Y-110159000D01*
X50992000Y-102369000D02*
X25472000Y-102369000D01*
X25412000Y-110159000D02*
X51052000Y-110159000D01*
X25472000Y-106019000D02*
X25472000Y-107669000D01*
X25472000Y-106019000D02*
G75*
G03*
X25472000Y-104019000I0J1000000D01*
G01*
%TO.C,SW1*%
X96461000Y-151301500D02*
X96461000Y-152654833D01*
X103411000Y-151301500D02*
X103411000Y-155361500D01*
X111546000Y-158281500D02*
X94006000Y-158281500D01*
X111546000Y-148381500D02*
X94006000Y-148381500D01*
X109281000Y-151301500D02*
X109281000Y-152654833D01*
X98331000Y-155361500D02*
X99601000Y-155361500D01*
X106261000Y-151301500D02*
X106261000Y-152654833D01*
X102141000Y-151301500D02*
X100871000Y-151301500D01*
X108681000Y-151301500D02*
X108681000Y-152654833D01*
X103601000Y-151301500D02*
X103601000Y-152654833D01*
X98761000Y-151301500D02*
X98761000Y-152654833D01*
X106501000Y-151301500D02*
X106501000Y-152654833D01*
X101301000Y-151301500D02*
X101301000Y-152654833D01*
X106141000Y-151301500D02*
X106141000Y-152654833D01*
X99361000Y-151301500D02*
X99361000Y-152654833D01*
X111546000Y-148381500D02*
X111546000Y-158281500D01*
X101061000Y-151301500D02*
X101061000Y-152654833D01*
X99001000Y-151301500D02*
X99001000Y-152654833D01*
X98641000Y-151301500D02*
X98641000Y-152654833D01*
X109521000Y-151301500D02*
X109521000Y-152654833D01*
X108561000Y-151301500D02*
X108561000Y-152654833D01*
X101901000Y-151301500D02*
X101901000Y-152654833D01*
X106741000Y-151301500D02*
X106741000Y-152654833D01*
X100871000Y-151301500D02*
X100871000Y-155361500D01*
X106981000Y-151301500D02*
X106981000Y-152654833D01*
X97061000Y-151301500D02*
X95791000Y-151301500D01*
X100871000Y-155361500D02*
X102141000Y-155361500D01*
X109641000Y-151301500D02*
X109641000Y-152654833D01*
X99121000Y-151301500D02*
X99121000Y-152654833D01*
X99601000Y-155361500D02*
X99601000Y-151301500D01*
X103721000Y-151301500D02*
X103721000Y-152654833D01*
X109761000Y-152654833D02*
X108491000Y-152654833D01*
X99241000Y-151301500D02*
X99241000Y-152654833D01*
X99601000Y-151301500D02*
X98331000Y-151301500D01*
X96581000Y-151301500D02*
X96581000Y-152654833D01*
X108801000Y-151301500D02*
X108801000Y-152654833D01*
X104681000Y-155361500D02*
X104681000Y-151301500D01*
X101541000Y-151301500D02*
X101541000Y-152654833D01*
X103961000Y-151301500D02*
X103961000Y-152654833D01*
X102141000Y-152654833D02*
X100871000Y-152654833D01*
X97061000Y-152654833D02*
X95791000Y-152654833D01*
X95861000Y-151301500D02*
X95861000Y-152654833D01*
X109761000Y-151301500D02*
X108491000Y-151301500D01*
X106021000Y-151301500D02*
X106021000Y-152654833D01*
X101421000Y-151301500D02*
X101421000Y-152654833D01*
X95791000Y-155361500D02*
X97061000Y-155361500D01*
X103411000Y-155361500D02*
X104681000Y-155361500D01*
X105951000Y-151301500D02*
X105951000Y-155361500D01*
X108921000Y-151301500D02*
X108921000Y-152654833D01*
X103481000Y-151301500D02*
X103481000Y-152654833D01*
X101781000Y-151301500D02*
X101781000Y-152654833D01*
X109401000Y-151301500D02*
X109401000Y-152654833D01*
X111786000Y-148141500D02*
X110403000Y-148141500D01*
X96821000Y-151301500D02*
X96821000Y-152654833D01*
X104081000Y-151301500D02*
X104081000Y-152654833D01*
X98331000Y-151301500D02*
X98331000Y-155361500D01*
X96101000Y-151301500D02*
X96101000Y-152654833D01*
X111786000Y-148141500D02*
X111786000Y-149525500D01*
X106861000Y-151301500D02*
X106861000Y-152654833D01*
X103841000Y-151301500D02*
X103841000Y-152654833D01*
X97061000Y-155361500D02*
X97061000Y-151301500D01*
X101181000Y-151301500D02*
X101181000Y-152654833D01*
X109761000Y-155361500D02*
X109761000Y-151301500D01*
X99481000Y-151301500D02*
X99481000Y-152654833D01*
X106621000Y-151301500D02*
X106621000Y-152654833D01*
X96341000Y-151301500D02*
X96341000Y-152654833D01*
X94006000Y-148381500D02*
X94006000Y-158281500D01*
X102021000Y-151301500D02*
X102021000Y-152654833D01*
X104441000Y-151301500D02*
X104441000Y-152654833D01*
X104681000Y-151301500D02*
X103411000Y-151301500D01*
X108491000Y-155361500D02*
X109761000Y-155361500D01*
X109041000Y-151301500D02*
X109041000Y-152654833D01*
X96941000Y-151301500D02*
X96941000Y-152654833D01*
X102141000Y-155361500D02*
X102141000Y-151301500D01*
X104321000Y-151301500D02*
X104321000Y-152654833D01*
X108491000Y-151301500D02*
X108491000Y-155361500D01*
X96221000Y-151301500D02*
X96221000Y-152654833D01*
X98521000Y-151301500D02*
X98521000Y-152654833D01*
X105951000Y-155361500D02*
X107221000Y-155361500D01*
X107221000Y-155361500D02*
X107221000Y-151301500D01*
X101661000Y-151301500D02*
X101661000Y-152654833D01*
X95791000Y-151301500D02*
X95791000Y-155361500D01*
X99601000Y-152654833D02*
X98331000Y-152654833D01*
X98881000Y-151301500D02*
X98881000Y-152654833D01*
X104561000Y-151301500D02*
X104561000Y-152654833D01*
X107221000Y-151301500D02*
X105951000Y-151301500D01*
X104201000Y-151301500D02*
X104201000Y-152654833D01*
X100941000Y-151301500D02*
X100941000Y-152654833D01*
X106381000Y-151301500D02*
X106381000Y-152654833D01*
X104681000Y-152654833D02*
X103411000Y-152654833D01*
X95981000Y-151301500D02*
X95981000Y-152654833D01*
X96701000Y-151301500D02*
X96701000Y-152654833D01*
X107101000Y-151301500D02*
X107101000Y-152654833D01*
X109161000Y-151301500D02*
X109161000Y-152654833D01*
X107221000Y-152654833D02*
X105951000Y-152654833D01*
X98401000Y-151301500D02*
X98401000Y-152654833D01*
%TO.C,C2*%
X91113000Y-91138000D02*
X88273000Y-91138000D01*
X89693000Y-95868000D02*
X89693000Y-95178000D01*
X88273000Y-95178000D02*
X91113000Y-95178000D01*
X89693000Y-90448000D02*
X89693000Y-91138000D01*
X88273000Y-91138000D02*
X88273000Y-95178000D01*
X91113000Y-95178000D02*
X91113000Y-91138000D01*
%TO.C,U14*%
X74604000Y-151264000D02*
X56704000Y-151264000D01*
X74604000Y-156564000D02*
X74604000Y-151264000D01*
X56704000Y-154914000D02*
X56704000Y-156564000D01*
X56644000Y-159054000D02*
X74664000Y-159054000D01*
X56704000Y-156564000D02*
X74604000Y-156564000D01*
X56644000Y-148774000D02*
X56644000Y-159054000D01*
X56704000Y-151264000D02*
X56704000Y-152914000D01*
X74664000Y-148774000D02*
X56644000Y-148774000D01*
X74664000Y-159054000D02*
X74664000Y-148774000D01*
X56704000Y-154914000D02*
G75*
G03*
X56704000Y-152914000I0J1000000D01*
G01*
%TO.C,JP1*%
X48828000Y-151964000D02*
X46168000Y-151964000D01*
X48828000Y-157164000D02*
X47498000Y-157164000D01*
X48828000Y-154564000D02*
X48828000Y-151964000D01*
X48828000Y-154564000D02*
X46168000Y-154564000D01*
X46168000Y-154564000D02*
X46168000Y-151964000D01*
X48828000Y-155834000D02*
X48828000Y-157164000D01*
%TO.C,U15*%
X111791000Y-88773000D02*
X92741000Y-88773000D01*
X92741000Y-88773000D02*
X92741000Y-96393000D01*
X92741000Y-96393000D02*
X111791000Y-96393000D01*
X111791000Y-96393000D02*
X111791000Y-88773000D01*
%TO.C,U13*%
X57035000Y-122097000D02*
X82675000Y-122097000D01*
X82615000Y-119607000D02*
X82615000Y-114307000D01*
X57095000Y-117957000D02*
X57095000Y-119607000D01*
X82675000Y-111817000D02*
X57035000Y-111817000D01*
X57035000Y-111817000D02*
X57035000Y-122097000D01*
X57095000Y-114307000D02*
X57095000Y-115957000D01*
X82615000Y-114307000D02*
X57095000Y-114307000D01*
X82675000Y-122097000D02*
X82675000Y-111817000D01*
X57095000Y-119607000D02*
X82615000Y-119607000D01*
X57095000Y-117957000D02*
G75*
G03*
X57095000Y-115957000I0J1000000D01*
G01*
%TO.C,U8*%
X56450000Y-144372000D02*
X74350000Y-144372000D01*
X74350000Y-144372000D02*
X74350000Y-139072000D01*
X56450000Y-139072000D02*
X56450000Y-140722000D01*
X74410000Y-146862000D02*
X74410000Y-136582000D01*
X56390000Y-136582000D02*
X56390000Y-146862000D01*
X74410000Y-136582000D02*
X56390000Y-136582000D01*
X56450000Y-142722000D02*
X56450000Y-144372000D01*
X56390000Y-146862000D02*
X74410000Y-146862000D01*
X74350000Y-139072000D02*
X56450000Y-139072000D01*
X56450000Y-142722000D02*
G75*
G03*
X56450000Y-140722000I0J1000000D01*
G01*
%TO.C,C11*%
X20551000Y-120070000D02*
X23391000Y-120070000D01*
X23391000Y-116030000D02*
X20551000Y-116030000D01*
X23391000Y-120070000D02*
X23391000Y-116030000D01*
X21971000Y-115340000D02*
X21971000Y-116030000D01*
X21971000Y-120760000D02*
X21971000Y-120070000D01*
X20551000Y-116030000D02*
X20551000Y-120070000D01*
%TO.C,U1*%
X93586000Y-100016000D02*
X93586000Y-110296000D01*
X111546000Y-102506000D02*
X93646000Y-102506000D01*
X111606000Y-100016000D02*
X93586000Y-100016000D01*
X93646000Y-107806000D02*
X111546000Y-107806000D01*
X111606000Y-110296000D02*
X111606000Y-100016000D01*
X93646000Y-102506000D02*
X93646000Y-104156000D01*
X93586000Y-110296000D02*
X111606000Y-110296000D01*
X93646000Y-106156000D02*
X93646000Y-107806000D01*
X111546000Y-107806000D02*
X111546000Y-102506000D01*
X93646000Y-106156000D02*
G75*
G03*
X93646000Y-104156000I0J1000000D01*
G01*
%TO.C,U12*%
X38469000Y-136455000D02*
X20449000Y-136455000D01*
X38409000Y-144245000D02*
X38409000Y-138945000D01*
X20449000Y-136455000D02*
X20449000Y-146735000D01*
X20509000Y-144245000D02*
X38409000Y-144245000D01*
X20509000Y-142595000D02*
X20509000Y-144245000D01*
X38409000Y-138945000D02*
X20509000Y-138945000D01*
X38469000Y-146735000D02*
X38469000Y-136455000D01*
X20449000Y-146735000D02*
X38469000Y-146735000D01*
X20509000Y-138945000D02*
X20509000Y-140595000D01*
X20509000Y-142595000D02*
G75*
G03*
X20509000Y-140595000I0J1000000D01*
G01*
%TO.C,U10*%
X111566000Y-138447000D02*
X86046000Y-138447000D01*
X111566000Y-143747000D02*
X111566000Y-138447000D01*
X111626000Y-135957000D02*
X85986000Y-135957000D01*
X86046000Y-143747000D02*
X111566000Y-143747000D01*
X85986000Y-146237000D02*
X111626000Y-146237000D01*
X85986000Y-135957000D02*
X85986000Y-146237000D01*
X86046000Y-142097000D02*
X86046000Y-143747000D01*
X111626000Y-146237000D02*
X111626000Y-135957000D01*
X86046000Y-138447000D02*
X86046000Y-140097000D01*
X86046000Y-142097000D02*
G75*
G03*
X86046000Y-140097000I0J1000000D01*
G01*
%TO.C,C5*%
X51839000Y-94603000D02*
X51839000Y-90563000D01*
X50419000Y-95293000D02*
X50419000Y-94603000D01*
X48999000Y-90563000D02*
X48999000Y-94603000D01*
X50419000Y-89873000D02*
X50419000Y-90563000D01*
X51839000Y-90563000D02*
X48999000Y-90563000D01*
X48999000Y-94603000D02*
X51839000Y-94603000D01*
%TO.C,C10*%
X84001000Y-143057000D02*
X84001000Y-139017000D01*
X81161000Y-139017000D02*
X81161000Y-143057000D01*
X81161000Y-143057000D02*
X84001000Y-143057000D01*
X84001000Y-139017000D02*
X81161000Y-139017000D01*
X82581000Y-143747000D02*
X82581000Y-143057000D01*
X82581000Y-138327000D02*
X82581000Y-139017000D01*
%TO.C,C6*%
X22098000Y-102259000D02*
X22098000Y-102949000D01*
X22098000Y-107679000D02*
X22098000Y-106989000D01*
X20678000Y-106989000D02*
X23518000Y-106989000D01*
X20678000Y-102949000D02*
X20678000Y-106989000D01*
X23518000Y-102949000D02*
X20678000Y-102949000D01*
X23518000Y-106989000D02*
X23518000Y-102949000D01*
%TO.C,C1*%
X91494000Y-103076000D02*
X88654000Y-103076000D01*
X90074000Y-102386000D02*
X90074000Y-103076000D01*
X88654000Y-103076000D02*
X88654000Y-107116000D01*
X88654000Y-107116000D02*
X91494000Y-107116000D01*
X91494000Y-107116000D02*
X91494000Y-103076000D01*
X90074000Y-107806000D02*
X90074000Y-107116000D01*
%TO.C,R1*%
X72549000Y-104802000D02*
X79089000Y-104802000D01*
X72549000Y-105132000D02*
X72549000Y-104802000D01*
X79089000Y-104802000D02*
X79089000Y-105132000D01*
X72549000Y-107542000D02*
X79089000Y-107542000D01*
X72549000Y-107212000D02*
X72549000Y-107542000D01*
X79089000Y-107542000D02*
X79089000Y-107212000D01*
%TO.C,C12*%
X43561000Y-139022000D02*
X43561000Y-139712000D01*
X42141000Y-143752000D02*
X44981000Y-143752000D01*
X44981000Y-143752000D02*
X44981000Y-139712000D01*
X44981000Y-139712000D02*
X42141000Y-139712000D01*
X43561000Y-144442000D02*
X43561000Y-143752000D01*
X42141000Y-139712000D02*
X42141000Y-143752000D01*
%TO.C,C9*%
X21590000Y-151027000D02*
X21590000Y-151717000D01*
X20170000Y-151717000D02*
X20170000Y-155757000D01*
X23010000Y-151717000D02*
X20170000Y-151717000D01*
X23010000Y-155757000D02*
X23010000Y-151717000D01*
X20170000Y-155757000D02*
X23010000Y-155757000D01*
X21590000Y-156447000D02*
X21590000Y-155757000D01*
%TO.C,U5*%
X54169000Y-99170000D02*
X84769000Y-99170000D01*
X84829000Y-101660000D02*
X84829000Y-83760000D01*
X54169000Y-86250000D02*
X54169000Y-91710000D01*
X54169000Y-93710000D02*
X54169000Y-99170000D01*
X84769000Y-99170000D02*
X84769000Y-86250000D01*
X54109000Y-83760000D02*
X54109000Y-101660000D01*
X54109000Y-101660000D02*
X84829000Y-101660000D01*
X84769000Y-86250000D02*
X54169000Y-86250000D01*
X84829000Y-83760000D02*
X54109000Y-83760000D01*
X54169000Y-93710000D02*
G75*
G03*
X54169000Y-91710000I0J1000000D01*
G01*
%TO.C,C13*%
X53721000Y-114197000D02*
X53721000Y-114887000D01*
X53721000Y-119617000D02*
X53721000Y-118927000D01*
X55141000Y-114887000D02*
X52301000Y-114887000D01*
X52301000Y-118927000D02*
X55141000Y-118927000D01*
X52301000Y-114887000D02*
X52301000Y-118927000D01*
X55141000Y-118927000D02*
X55141000Y-114887000D01*
%TO.C,C7*%
X91621000Y-114887000D02*
X88781000Y-114887000D01*
X91621000Y-118927000D02*
X91621000Y-114887000D01*
X90201000Y-114197000D02*
X90201000Y-114887000D01*
X88781000Y-114887000D02*
X88781000Y-118927000D01*
X88781000Y-118927000D02*
X91621000Y-118927000D01*
X90201000Y-119617000D02*
X90201000Y-118927000D01*
%TO.C,C16*%
X36679000Y-126016000D02*
X36349000Y-126016000D01*
X39089000Y-132556000D02*
X38759000Y-132556000D01*
X36349000Y-126016000D02*
X36349000Y-132556000D01*
X39089000Y-126016000D02*
X39089000Y-132556000D01*
X36349000Y-132556000D02*
X36679000Y-132556000D01*
X38759000Y-126016000D02*
X39089000Y-126016000D01*
%TO.C,C15*%
X100414000Y-86614000D02*
X101104000Y-86614000D01*
X101104000Y-88034000D02*
X105144000Y-88034000D01*
X105834000Y-86614000D02*
X105144000Y-86614000D01*
X101104000Y-85194000D02*
X101104000Y-88034000D01*
X105144000Y-85194000D02*
X101104000Y-85194000D01*
X105144000Y-88034000D02*
X105144000Y-85194000D01*
%TD*%
M02*
