%TF.GenerationSoftware,KiCad,Pcbnew,6.0.9-8da3e8f707~117~ubuntu20.04.1*%
%TF.CreationDate,2023-01-11T13:14:14-05:00*%
%TF.ProjectId,coco9511pak,636f636f-3935-4313-9170-616b2e6b6963,rev?*%
%TF.SameCoordinates,Original*%
%TF.FileFunction,Drillmap*%
%TF.FilePolarity,Positive*%
%FSLAX45Y45*%
G04 Gerber Fmt 4.5, Leading zero omitted, Abs format (unit mm)*
G04 Created by KiCad (PCBNEW 6.0.9-8da3e8f707~117~ubuntu20.04.1) date 2023-01-11 13:14:14*
%MOMM*%
%LPD*%
G01*
G04 APERTURE LIST*
%ADD10C,0.100000*%
%ADD11C,0.200000*%
%ADD12C,0.040000*%
%ADD13C,0.076200*%
%ADD14C,0.080000*%
G04 APERTURE END LIST*
D10*
X3606800Y-16129000D02*
X3911600Y-16129000D01*
X2908300Y-17132300D02*
X3606800Y-17132300D01*
X6451600Y-11049000D02*
G75*
G03*
X6451600Y-11049000I0J0D01*
G01*
X9550400Y-17132300D02*
X9550400Y-16129000D01*
X2514600Y-17919700D02*
X2908300Y-17919700D01*
X3606800Y-17132300D02*
X3606800Y-16129000D01*
X6959600Y-13004800D02*
G75*
G03*
X6959600Y-13004800I-381000J0D01*
G01*
X3911600Y-16129000D02*
X3911600Y-17335500D01*
X3911600Y-17335500D02*
X9245600Y-17335500D01*
X9550400Y-17132300D02*
X10248900Y-17132300D01*
X1663700Y-17034500D02*
X2514600Y-17919700D01*
X11493500Y-7211700D02*
X11493500Y-17030700D01*
X10248900Y-17132300D02*
X10248900Y-17919700D01*
X10248900Y-17919700D02*
X10642600Y-17919700D01*
X10642600Y-17919700D02*
X11493500Y-17030700D01*
X9245600Y-16129000D02*
X9245600Y-17335500D01*
X9245600Y-16129000D02*
X9550400Y-16129000D01*
X2321700Y-7886700D02*
G75*
G03*
X2321700Y-7886700I-150000J0D01*
G01*
X1663700Y-7215500D02*
X11493500Y-7211700D01*
X1663700Y-17034500D02*
X1663700Y-7215500D01*
X11135500Y-7861300D02*
G75*
G03*
X11135500Y-7861300I-150000J0D01*
G01*
X2908300Y-17132300D02*
X2908300Y-17919700D01*
D11*
D12*
X2495890Y-16071490D02*
X2535890Y-16111490D01*
X2535890Y-16071490D02*
X2495890Y-16111490D01*
X3878580Y-14416600D02*
X3918580Y-14456600D01*
X3918580Y-14416600D02*
X3878580Y-14456600D01*
X3899690Y-10552640D02*
X3939690Y-10592640D01*
X3939690Y-10552640D02*
X3899690Y-10592640D01*
X4055700Y-11975840D02*
X4095700Y-12015840D01*
X4095700Y-11975840D02*
X4055700Y-12015840D01*
X4902790Y-13990770D02*
X4942790Y-14030770D01*
X4942790Y-13990770D02*
X4902790Y-14030770D01*
X4968470Y-10533790D02*
X5008470Y-10573790D01*
X5008470Y-10533790D02*
X4968470Y-10573790D01*
X4981650Y-14991400D02*
X5021650Y-15031400D01*
X5021650Y-14991400D02*
X4981650Y-15031400D01*
X5037760Y-11519010D02*
X5077760Y-11559010D01*
X5077760Y-11519010D02*
X5037760Y-11559010D01*
X5110270Y-11825800D02*
X5150270Y-11865800D01*
X5150270Y-11825800D02*
X5110270Y-11865800D01*
X5131200Y-16026470D02*
X5171200Y-16066470D01*
X5171200Y-16026470D02*
X5131200Y-16066470D01*
X5164100Y-11721840D02*
X5204100Y-11761840D01*
X5204100Y-11721840D02*
X5164100Y-11761840D01*
X5236840Y-16105480D02*
X5276840Y-16145480D01*
X5276840Y-16105480D02*
X5236840Y-16145480D01*
X5241240Y-12266860D02*
X5281240Y-12306860D01*
X5281240Y-12266860D02*
X5241240Y-12306860D01*
X5275900Y-8582680D02*
X5315900Y-8622680D01*
X5315900Y-8582680D02*
X5275900Y-8622680D01*
X5407120Y-12356680D02*
X5447120Y-12396680D01*
X5447120Y-12356680D02*
X5407120Y-12396680D01*
X5446240Y-16202170D02*
X5486240Y-16242170D01*
X5486240Y-16202170D02*
X5446240Y-16242170D01*
X5475870Y-12181360D02*
X5515870Y-12221360D01*
X5515870Y-12181360D02*
X5475870Y-12221360D01*
X5586050Y-16064730D02*
X5626050Y-16104730D01*
X5626050Y-16064730D02*
X5586050Y-16104730D01*
X5603520Y-11793370D02*
X5643520Y-11833370D01*
X5643520Y-11793370D02*
X5603520Y-11833370D01*
X5686760Y-11384230D02*
X5726760Y-11424230D01*
X5726760Y-11384230D02*
X5686760Y-11424230D01*
X5961240Y-11666620D02*
X6001240Y-11706620D01*
X6001240Y-11666620D02*
X5961240Y-11706620D01*
X6059970Y-11823500D02*
X6099970Y-11863500D01*
X6099970Y-11823500D02*
X6059970Y-11863500D01*
X6274780Y-9366890D02*
X6314780Y-9406890D01*
X6314780Y-9366890D02*
X6274780Y-9406890D01*
X6370910Y-10248170D02*
X6410910Y-10288170D01*
X6410910Y-10248170D02*
X6370910Y-10288170D01*
X6430170Y-8613460D02*
X6470170Y-8653460D01*
X6470170Y-8613460D02*
X6430170Y-8653460D01*
X6520000Y-14386110D02*
X6560000Y-14426110D01*
X6560000Y-14386110D02*
X6520000Y-14426110D01*
X6667170Y-15612060D02*
X6707170Y-15652060D01*
X6707170Y-15612060D02*
X6667170Y-15652060D01*
X6792300Y-15999080D02*
X6832300Y-16039080D01*
X6832300Y-15999080D02*
X6792300Y-16039080D01*
X6937640Y-9596900D02*
X6977640Y-9636900D01*
X6977640Y-9596900D02*
X6937640Y-9636900D01*
X7028660Y-16241000D02*
X7068660Y-16281000D01*
X7068660Y-16241000D02*
X7028660Y-16281000D01*
X7368350Y-16214250D02*
X7408350Y-16254250D01*
X7408350Y-16214250D02*
X7368350Y-16254250D01*
X7542520Y-15779210D02*
X7582520Y-15819210D01*
X7582520Y-15779210D02*
X7542520Y-15819210D01*
X7656680Y-15645140D02*
X7696680Y-15685140D01*
X7696680Y-15645140D02*
X7656680Y-15685140D01*
X7656680Y-16165220D02*
X7696680Y-16205220D01*
X7696680Y-16165220D02*
X7656680Y-16205220D01*
X7698770Y-15456940D02*
X7738770Y-15496940D01*
X7738770Y-15456940D02*
X7698770Y-15496940D01*
X7765470Y-15717660D02*
X7805470Y-15757660D01*
X7805470Y-15717660D02*
X7765470Y-15757660D01*
X7838580Y-15383740D02*
X7878580Y-15423740D01*
X7878580Y-15383740D02*
X7838580Y-15423740D01*
X7857840Y-15620830D02*
X7897840Y-15660830D01*
X7897840Y-15620830D02*
X7857840Y-15660830D01*
X7857840Y-16205530D02*
X7897840Y-16245530D01*
X7897840Y-16205530D02*
X7857840Y-16245530D01*
X7949240Y-15383060D02*
X7989240Y-15423060D01*
X7989240Y-15383060D02*
X7949240Y-15423060D01*
X7988620Y-11694310D02*
X8028620Y-11734310D01*
X8028620Y-11694310D02*
X7988620Y-11734310D01*
X8222360Y-16064970D02*
X8262360Y-16104970D01*
X8262360Y-16064970D02*
X8222360Y-16104970D01*
X8567470Y-14340630D02*
X8607470Y-14380630D01*
X8607470Y-14340630D02*
X8567470Y-14380630D01*
X8665810Y-15881030D02*
X8705810Y-15921030D01*
X8705810Y-15881030D02*
X8665810Y-15921030D01*
X9598160Y-13930420D02*
X9638160Y-13970420D01*
X9638160Y-13930420D02*
X9598160Y-13970420D01*
X10031950Y-13474670D02*
X10071950Y-13514670D01*
X10071950Y-13474670D02*
X10031950Y-13514670D01*
D13*
X9566200Y-9004300D02*
G75*
G03*
X9566200Y-9004300I-38100J0D01*
G01*
X9820200Y-9004300D02*
G75*
G03*
X9820200Y-9004300I-38100J0D01*
G01*
X10328200Y-9004300D02*
G75*
G03*
X10328200Y-9004300I-38100J0D01*
G01*
X10836200Y-9004300D02*
G75*
G03*
X10836200Y-9004300I-38100J0D01*
G01*
D14*
X2159000Y-14958700D02*
X2159000Y-15038700D01*
X2119000Y-14998700D02*
X2199000Y-14998700D01*
X2159000Y-15708700D02*
X2159000Y-15788700D01*
X2119000Y-15748700D02*
X2199000Y-15748700D01*
X2183900Y-13738500D02*
X2183900Y-13818500D01*
X2143900Y-13778500D02*
X2223900Y-13778500D01*
X2183900Y-14500500D02*
X2183900Y-14580500D01*
X2143900Y-14540500D02*
X2223900Y-14540500D01*
X2197100Y-11390000D02*
X2197100Y-11470000D01*
X2157100Y-11430000D02*
X2237100Y-11430000D01*
X2197100Y-12140000D02*
X2197100Y-12220000D01*
X2157100Y-12180000D02*
X2237100Y-12180000D01*
X2209800Y-10081900D02*
X2209800Y-10161900D01*
X2169800Y-10121900D02*
X2249800Y-10121900D01*
X2209800Y-10831900D02*
X2209800Y-10911900D01*
X2169800Y-10871900D02*
X2249800Y-10871900D01*
X2437900Y-13738500D02*
X2437900Y-13818500D01*
X2397900Y-13778500D02*
X2477900Y-13778500D01*
X2437900Y-14500500D02*
X2437900Y-14580500D01*
X2397900Y-14540500D02*
X2477900Y-14540500D01*
X2628400Y-14957700D02*
X2628400Y-15037700D01*
X2588400Y-14997700D02*
X2668400Y-14997700D01*
X2628400Y-15719700D02*
X2628400Y-15799700D01*
X2588400Y-15759700D02*
X2668400Y-15759700D01*
X2678700Y-11389000D02*
X2678700Y-11469000D01*
X2638700Y-11429000D02*
X2718700Y-11429000D01*
X2678700Y-12151000D02*
X2678700Y-12231000D01*
X2638700Y-12191000D02*
X2718700Y-12191000D01*
X2680200Y-10080900D02*
X2680200Y-10160900D01*
X2640200Y-10120900D02*
X2720200Y-10120900D01*
X2680200Y-10842900D02*
X2680200Y-10922900D01*
X2640200Y-10882900D02*
X2720200Y-10882900D01*
X2691900Y-13738500D02*
X2691900Y-13818500D01*
X2651900Y-13778500D02*
X2731900Y-13778500D01*
X2691900Y-14500500D02*
X2691900Y-14580500D01*
X2651900Y-14540500D02*
X2731900Y-14540500D01*
X2705100Y-12507600D02*
X2705100Y-12587600D01*
X2665100Y-12547600D02*
X2745100Y-12547600D01*
X2705100Y-13269600D02*
X2705100Y-13349600D01*
X2665100Y-13309600D02*
X2745100Y-13309600D01*
X2818900Y-8658500D02*
X2818900Y-8738500D01*
X2778900Y-8698500D02*
X2858900Y-8698500D01*
X2818900Y-9420500D02*
X2818900Y-9500500D01*
X2778900Y-9460500D02*
X2858900Y-9460500D01*
X2882400Y-14957700D02*
X2882400Y-15037700D01*
X2842400Y-14997700D02*
X2922400Y-14997700D01*
X2882400Y-15719700D02*
X2882400Y-15799700D01*
X2842400Y-15759700D02*
X2922400Y-15759700D01*
X2932700Y-11389000D02*
X2932700Y-11469000D01*
X2892700Y-11429000D02*
X2972700Y-11429000D01*
X2932700Y-12151000D02*
X2932700Y-12231000D01*
X2892700Y-12191000D02*
X2972700Y-12191000D01*
X2934200Y-10080900D02*
X2934200Y-10160900D01*
X2894200Y-10120900D02*
X2974200Y-10120900D01*
X2934200Y-10842900D02*
X2934200Y-10922900D01*
X2894200Y-10882900D02*
X2974200Y-10882900D01*
X2945900Y-13738500D02*
X2945900Y-13818500D01*
X2905900Y-13778500D02*
X2985900Y-13778500D01*
X2945900Y-14500500D02*
X2945900Y-14580500D01*
X2905900Y-14540500D02*
X2985900Y-14540500D01*
X3072900Y-8658500D02*
X3072900Y-8738500D01*
X3032900Y-8698500D02*
X3112900Y-8698500D01*
X3072900Y-9420500D02*
X3072900Y-9500500D01*
X3032900Y-9460500D02*
X3112900Y-9460500D01*
X3136400Y-14957700D02*
X3136400Y-15037700D01*
X3096400Y-14997700D02*
X3176400Y-14997700D01*
X3136400Y-15719700D02*
X3136400Y-15799700D01*
X3096400Y-15759700D02*
X3176400Y-15759700D01*
X3186700Y-11389000D02*
X3186700Y-11469000D01*
X3146700Y-11429000D02*
X3226700Y-11429000D01*
X3186700Y-12151000D02*
X3186700Y-12231000D01*
X3146700Y-12191000D02*
X3226700Y-12191000D01*
X3188200Y-10080900D02*
X3188200Y-10160900D01*
X3148200Y-10120900D02*
X3228200Y-10120900D01*
X3188200Y-10842900D02*
X3188200Y-10922900D01*
X3148200Y-10882900D02*
X3228200Y-10882900D01*
X3199900Y-13738500D02*
X3199900Y-13818500D01*
X3159900Y-13778500D02*
X3239900Y-13778500D01*
X3199900Y-14500500D02*
X3199900Y-14580500D01*
X3159900Y-14540500D02*
X3239900Y-14540500D01*
X3225800Y-12507600D02*
X3225800Y-12587600D01*
X3185800Y-12547600D02*
X3265800Y-12547600D01*
X3225800Y-13269600D02*
X3225800Y-13349600D01*
X3185800Y-13309600D02*
X3265800Y-13309600D01*
X3326900Y-8658500D02*
X3326900Y-8738500D01*
X3286900Y-8698500D02*
X3366900Y-8698500D01*
X3326900Y-9420500D02*
X3326900Y-9500500D01*
X3286900Y-9460500D02*
X3366900Y-9460500D01*
X3390400Y-14957700D02*
X3390400Y-15037700D01*
X3350400Y-14997700D02*
X3430400Y-14997700D01*
X3390400Y-15719700D02*
X3390400Y-15799700D01*
X3350400Y-15759700D02*
X3430400Y-15759700D01*
X3440700Y-11389000D02*
X3440700Y-11469000D01*
X3400700Y-11429000D02*
X3480700Y-11429000D01*
X3440700Y-12151000D02*
X3440700Y-12231000D01*
X3400700Y-12191000D02*
X3480700Y-12191000D01*
X3442200Y-10080900D02*
X3442200Y-10160900D01*
X3402200Y-10120900D02*
X3482200Y-10120900D01*
X3442200Y-10842900D02*
X3442200Y-10922900D01*
X3402200Y-10882900D02*
X3482200Y-10882900D01*
X3453900Y-13738500D02*
X3453900Y-13818500D01*
X3413900Y-13778500D02*
X3493900Y-13778500D01*
X3453900Y-14500500D02*
X3453900Y-14580500D01*
X3413900Y-14540500D02*
X3493900Y-14540500D01*
X3580900Y-8658500D02*
X3580900Y-8738500D01*
X3540900Y-8698500D02*
X3620900Y-8698500D01*
X3580900Y-9420500D02*
X3580900Y-9500500D01*
X3540900Y-9460500D02*
X3620900Y-9460500D01*
X3644400Y-14957700D02*
X3644400Y-15037700D01*
X3604400Y-14997700D02*
X3684400Y-14997700D01*
X3644400Y-15719700D02*
X3644400Y-15799700D01*
X3604400Y-15759700D02*
X3684400Y-15759700D01*
X3694700Y-11389000D02*
X3694700Y-11469000D01*
X3654700Y-11429000D02*
X3734700Y-11429000D01*
X3694700Y-12151000D02*
X3694700Y-12231000D01*
X3654700Y-12191000D02*
X3734700Y-12191000D01*
X3696200Y-10080900D02*
X3696200Y-10160900D01*
X3656200Y-10120900D02*
X3736200Y-10120900D01*
X3696200Y-10842900D02*
X3696200Y-10922900D01*
X3656200Y-10882900D02*
X3736200Y-10882900D01*
X3707900Y-13738500D02*
X3707900Y-13818500D01*
X3667900Y-13778500D02*
X3747900Y-13778500D01*
X3707900Y-14500500D02*
X3707900Y-14580500D01*
X3667900Y-14540500D02*
X3747900Y-14540500D01*
X3771900Y-12507600D02*
X3771900Y-12587600D01*
X3731900Y-12547600D02*
X3811900Y-12547600D01*
X3771900Y-13269600D02*
X3771900Y-13349600D01*
X3731900Y-13309600D02*
X3811900Y-13309600D01*
X3834900Y-8658500D02*
X3834900Y-8738500D01*
X3794900Y-8698500D02*
X3874900Y-8698500D01*
X3834900Y-9420500D02*
X3834900Y-9500500D01*
X3794900Y-9460500D02*
X3874900Y-9460500D01*
X3898400Y-14957700D02*
X3898400Y-15037700D01*
X3858400Y-14997700D02*
X3938400Y-14997700D01*
X3898400Y-15719700D02*
X3898400Y-15799700D01*
X3858400Y-15759700D02*
X3938400Y-15759700D01*
X3948700Y-11389000D02*
X3948700Y-11469000D01*
X3908700Y-11429000D02*
X3988700Y-11429000D01*
X3948700Y-12151000D02*
X3948700Y-12231000D01*
X3908700Y-12191000D02*
X3988700Y-12191000D01*
X3950200Y-10080900D02*
X3950200Y-10160900D01*
X3910200Y-10120900D02*
X3990200Y-10120900D01*
X3950200Y-10842900D02*
X3950200Y-10922900D01*
X3910200Y-10882900D02*
X3990200Y-10882900D01*
X4088900Y-8658500D02*
X4088900Y-8738500D01*
X4048900Y-8698500D02*
X4128900Y-8698500D01*
X4088900Y-9420500D02*
X4088900Y-9500500D01*
X4048900Y-9460500D02*
X4128900Y-9460500D01*
X4152400Y-14957700D02*
X4152400Y-15037700D01*
X4112400Y-14997700D02*
X4192400Y-14997700D01*
X4152400Y-15719700D02*
X4152400Y-15799700D01*
X4112400Y-15759700D02*
X4192400Y-15759700D01*
X4202700Y-11389000D02*
X4202700Y-11469000D01*
X4162700Y-11429000D02*
X4242700Y-11429000D01*
X4202700Y-12151000D02*
X4202700Y-12231000D01*
X4162700Y-12191000D02*
X4242700Y-12191000D01*
X4204200Y-10080900D02*
X4204200Y-10160900D01*
X4164200Y-10120900D02*
X4244200Y-10120900D01*
X4204200Y-10842900D02*
X4204200Y-10922900D01*
X4164200Y-10882900D02*
X4244200Y-10882900D01*
X4342900Y-8658500D02*
X4342900Y-8738500D01*
X4302900Y-8698500D02*
X4382900Y-8698500D01*
X4342900Y-9420500D02*
X4342900Y-9500500D01*
X4302900Y-9460500D02*
X4382900Y-9460500D01*
X4356100Y-13758200D02*
X4356100Y-13838200D01*
X4316100Y-13798200D02*
X4396100Y-13798200D01*
X4356100Y-14508200D02*
X4356100Y-14588200D01*
X4316100Y-14548200D02*
X4396100Y-14548200D01*
X4456700Y-11389000D02*
X4456700Y-11469000D01*
X4416700Y-11429000D02*
X4496700Y-11429000D01*
X4456700Y-12151000D02*
X4456700Y-12231000D01*
X4416700Y-12191000D02*
X4496700Y-12191000D01*
X4458200Y-10080900D02*
X4458200Y-10160900D01*
X4418200Y-10120900D02*
X4498200Y-10120900D01*
X4458200Y-10842900D02*
X4458200Y-10922900D01*
X4418200Y-10882900D02*
X4498200Y-10882900D01*
X4712200Y-10080900D02*
X4712200Y-10160900D01*
X4672200Y-10120900D02*
X4752200Y-10120900D01*
X4712200Y-10842900D02*
X4712200Y-10922900D01*
X4672200Y-10882900D02*
X4752200Y-10882900D01*
X4966200Y-10080900D02*
X4966200Y-10160900D01*
X4926200Y-10120900D02*
X5006200Y-10120900D01*
X4966200Y-10842900D02*
X4966200Y-10922900D01*
X4926200Y-10882900D02*
X5006200Y-10882900D01*
X5041900Y-8843300D02*
X5041900Y-8923300D01*
X5001900Y-8883300D02*
X5081900Y-8883300D01*
X5041900Y-9593300D02*
X5041900Y-9673300D01*
X5001900Y-9633300D02*
X5081900Y-9633300D01*
X5308600Y-13752200D02*
X5308600Y-13832200D01*
X5268600Y-13792200D02*
X5348600Y-13792200D01*
X5308600Y-14502200D02*
X5308600Y-14582200D01*
X5268600Y-14542200D02*
X5348600Y-14542200D01*
X5334000Y-14971400D02*
X5334000Y-15051400D01*
X5294000Y-15011400D02*
X5374000Y-15011400D01*
X5334000Y-15721400D02*
X5334000Y-15801400D01*
X5294000Y-15761400D02*
X5374000Y-15761400D01*
X5372100Y-11275700D02*
X5372100Y-11355700D01*
X5332100Y-11315700D02*
X5412100Y-11315700D01*
X5372100Y-12025700D02*
X5372100Y-12105700D01*
X5332100Y-12065700D02*
X5412100Y-12065700D01*
X5549900Y-8469000D02*
X5549900Y-8549000D01*
X5509900Y-8509000D02*
X5589900Y-8509000D01*
X5549900Y-9993000D02*
X5549900Y-10073000D01*
X5509900Y-10033000D02*
X5589900Y-10033000D01*
X5778000Y-13751200D02*
X5778000Y-13831200D01*
X5738000Y-13791200D02*
X5818000Y-13791200D01*
X5778000Y-14513200D02*
X5778000Y-14593200D01*
X5738000Y-14553200D02*
X5818000Y-14553200D01*
X5803400Y-14970400D02*
X5803400Y-15050400D01*
X5763400Y-15010400D02*
X5843400Y-15010400D01*
X5803400Y-15732400D02*
X5803400Y-15812400D01*
X5763400Y-15772400D02*
X5843400Y-15772400D01*
X5803900Y-8469000D02*
X5803900Y-8549000D01*
X5763900Y-8509000D02*
X5843900Y-8509000D01*
X5803900Y-9993000D02*
X5803900Y-10073000D01*
X5763900Y-10033000D02*
X5843900Y-10033000D01*
X5842500Y-11274700D02*
X5842500Y-11354700D01*
X5802500Y-11314700D02*
X5882500Y-11314700D01*
X5842500Y-12036700D02*
X5842500Y-12116700D01*
X5802500Y-12076700D02*
X5882500Y-12076700D01*
X5905500Y-10577200D02*
X5905500Y-10657200D01*
X5865500Y-10617200D02*
X5945500Y-10617200D01*
X6032000Y-13751200D02*
X6032000Y-13831200D01*
X5992000Y-13791200D02*
X6072000Y-13791200D01*
X6032000Y-14513200D02*
X6032000Y-14593200D01*
X5992000Y-14553200D02*
X6072000Y-14553200D01*
X6057400Y-14970400D02*
X6057400Y-15050400D01*
X6017400Y-15010400D02*
X6097400Y-15010400D01*
X6057400Y-15732400D02*
X6057400Y-15812400D01*
X6017400Y-15772400D02*
X6097400Y-15772400D01*
X6057900Y-8469000D02*
X6057900Y-8549000D01*
X6017900Y-8509000D02*
X6097900Y-8509000D01*
X6057900Y-9993000D02*
X6057900Y-10073000D01*
X6017900Y-10033000D02*
X6097900Y-10033000D01*
X6096500Y-11274700D02*
X6096500Y-11354700D01*
X6056500Y-11314700D02*
X6136500Y-11314700D01*
X6096500Y-12036700D02*
X6096500Y-12116700D01*
X6056500Y-12076700D02*
X6136500Y-12076700D01*
X6286000Y-13751200D02*
X6286000Y-13831200D01*
X6246000Y-13791200D02*
X6326000Y-13791200D01*
X6286000Y-14513200D02*
X6286000Y-14593200D01*
X6246000Y-14553200D02*
X6326000Y-14553200D01*
X6311400Y-14970400D02*
X6311400Y-15050400D01*
X6271400Y-15010400D02*
X6351400Y-15010400D01*
X6311400Y-15732400D02*
X6311400Y-15812400D01*
X6271400Y-15772400D02*
X6351400Y-15772400D01*
X6311900Y-8469000D02*
X6311900Y-8549000D01*
X6271900Y-8509000D02*
X6351900Y-8509000D01*
X6311900Y-9993000D02*
X6311900Y-10073000D01*
X6271900Y-10033000D02*
X6351900Y-10033000D01*
X6350500Y-11274700D02*
X6350500Y-11354700D01*
X6310500Y-11314700D02*
X6390500Y-11314700D01*
X6350500Y-12036700D02*
X6350500Y-12116700D01*
X6310500Y-12076700D02*
X6390500Y-12076700D01*
X6540000Y-13751200D02*
X6540000Y-13831200D01*
X6500000Y-13791200D02*
X6580000Y-13791200D01*
X6540000Y-14513200D02*
X6540000Y-14593200D01*
X6500000Y-14553200D02*
X6580000Y-14553200D01*
X6565400Y-14970400D02*
X6565400Y-15050400D01*
X6525400Y-15010400D02*
X6605400Y-15010400D01*
X6565400Y-15732400D02*
X6565400Y-15812400D01*
X6525400Y-15772400D02*
X6605400Y-15772400D01*
X6565900Y-8469000D02*
X6565900Y-8549000D01*
X6525900Y-8509000D02*
X6605900Y-8509000D01*
X6565900Y-9993000D02*
X6565900Y-10073000D01*
X6525900Y-10033000D02*
X6605900Y-10033000D01*
X6604500Y-11274700D02*
X6604500Y-11354700D01*
X6564500Y-11314700D02*
X6644500Y-11314700D01*
X6604500Y-12036700D02*
X6604500Y-12116700D01*
X6564500Y-12076700D02*
X6644500Y-12076700D01*
X6667500Y-10577200D02*
X6667500Y-10657200D01*
X6627500Y-10617200D02*
X6707500Y-10617200D01*
X6794000Y-13751200D02*
X6794000Y-13831200D01*
X6754000Y-13791200D02*
X6834000Y-13791200D01*
X6794000Y-14513200D02*
X6794000Y-14593200D01*
X6754000Y-14553200D02*
X6834000Y-14553200D01*
X6819400Y-14970400D02*
X6819400Y-15050400D01*
X6779400Y-15010400D02*
X6859400Y-15010400D01*
X6819400Y-15732400D02*
X6819400Y-15812400D01*
X6779400Y-15772400D02*
X6859400Y-15772400D01*
X6819900Y-8469000D02*
X6819900Y-8549000D01*
X6779900Y-8509000D02*
X6859900Y-8509000D01*
X6819900Y-9993000D02*
X6819900Y-10073000D01*
X6779900Y-10033000D02*
X6859900Y-10033000D01*
X6858500Y-11274700D02*
X6858500Y-11354700D01*
X6818500Y-11314700D02*
X6898500Y-11314700D01*
X6858500Y-12036700D02*
X6858500Y-12116700D01*
X6818500Y-12076700D02*
X6898500Y-12076700D01*
X7048000Y-13751200D02*
X7048000Y-13831200D01*
X7008000Y-13791200D02*
X7088000Y-13791200D01*
X7048000Y-14513200D02*
X7048000Y-14593200D01*
X7008000Y-14553200D02*
X7088000Y-14553200D01*
X7073400Y-14970400D02*
X7073400Y-15050400D01*
X7033400Y-15010400D02*
X7113400Y-15010400D01*
X7073400Y-15732400D02*
X7073400Y-15812400D01*
X7033400Y-15772400D02*
X7113400Y-15772400D01*
X7073900Y-8469000D02*
X7073900Y-8549000D01*
X7033900Y-8509000D02*
X7113900Y-8509000D01*
X7073900Y-9993000D02*
X7073900Y-10073000D01*
X7033900Y-10033000D02*
X7113900Y-10033000D01*
X7112500Y-11274700D02*
X7112500Y-11354700D01*
X7072500Y-11314700D02*
X7152500Y-11314700D01*
X7112500Y-12036700D02*
X7112500Y-12116700D01*
X7072500Y-12076700D02*
X7152500Y-12076700D01*
X7200900Y-10577200D02*
X7200900Y-10657200D01*
X7160900Y-10617200D02*
X7240900Y-10617200D01*
X7302000Y-13751200D02*
X7302000Y-13831200D01*
X7262000Y-13791200D02*
X7342000Y-13791200D01*
X7302000Y-14513200D02*
X7302000Y-14593200D01*
X7262000Y-14553200D02*
X7342000Y-14553200D01*
X7327400Y-14970400D02*
X7327400Y-15050400D01*
X7287400Y-15010400D02*
X7367400Y-15010400D01*
X7327400Y-15732400D02*
X7327400Y-15812400D01*
X7287400Y-15772400D02*
X7367400Y-15772400D01*
X7327900Y-8469000D02*
X7327900Y-8549000D01*
X7287900Y-8509000D02*
X7367900Y-8509000D01*
X7327900Y-9993000D02*
X7327900Y-10073000D01*
X7287900Y-10033000D02*
X7367900Y-10033000D01*
X7366500Y-11274700D02*
X7366500Y-11354700D01*
X7326500Y-11314700D02*
X7406500Y-11314700D01*
X7366500Y-12036700D02*
X7366500Y-12116700D01*
X7326500Y-12076700D02*
X7406500Y-12076700D01*
X7581900Y-8469000D02*
X7581900Y-8549000D01*
X7541900Y-8509000D02*
X7621900Y-8509000D01*
X7581900Y-9993000D02*
X7581900Y-10073000D01*
X7541900Y-10033000D02*
X7621900Y-10033000D01*
X7620500Y-11274700D02*
X7620500Y-11354700D01*
X7580500Y-11314700D02*
X7660500Y-11314700D01*
X7620500Y-12036700D02*
X7620500Y-12116700D01*
X7580500Y-12076700D02*
X7660500Y-12076700D01*
X7835900Y-8469000D02*
X7835900Y-8549000D01*
X7795900Y-8509000D02*
X7875900Y-8509000D01*
X7835900Y-9993000D02*
X7835900Y-10073000D01*
X7795900Y-10033000D02*
X7875900Y-10033000D01*
X7874500Y-11274700D02*
X7874500Y-11354700D01*
X7834500Y-11314700D02*
X7914500Y-11314700D01*
X7874500Y-12036700D02*
X7874500Y-12116700D01*
X7834500Y-12076700D02*
X7914500Y-12076700D01*
X7962900Y-10577200D02*
X7962900Y-10657200D01*
X7922900Y-10617200D02*
X8002900Y-10617200D01*
X8089900Y-8469000D02*
X8089900Y-8549000D01*
X8049900Y-8509000D02*
X8129900Y-8509000D01*
X8089900Y-9993000D02*
X8089900Y-10073000D01*
X8049900Y-10033000D02*
X8129900Y-10033000D01*
X8128500Y-11274700D02*
X8128500Y-11354700D01*
X8088500Y-11314700D02*
X8168500Y-11314700D01*
X8128500Y-12036700D02*
X8128500Y-12116700D01*
X8088500Y-12076700D02*
X8168500Y-12076700D01*
X8258100Y-13688700D02*
X8258100Y-13768700D01*
X8218100Y-13728700D02*
X8298100Y-13728700D01*
X8258100Y-14438700D02*
X8258100Y-14518700D01*
X8218100Y-14478700D02*
X8298100Y-14478700D01*
X8343900Y-8469000D02*
X8343900Y-8549000D01*
X8303900Y-8509000D02*
X8383900Y-8509000D01*
X8343900Y-9993000D02*
X8343900Y-10073000D01*
X8303900Y-10033000D02*
X8383900Y-10033000D01*
X8737600Y-13688700D02*
X8737600Y-13768700D01*
X8697600Y-13728700D02*
X8777600Y-13728700D01*
X8737600Y-14450700D02*
X8737600Y-14530700D01*
X8697600Y-14490700D02*
X8777600Y-14490700D01*
X8969300Y-8900800D02*
X8969300Y-8980800D01*
X8929300Y-8940800D02*
X9009300Y-8940800D01*
X8969300Y-9650800D02*
X8969300Y-9730800D01*
X8929300Y-9690800D02*
X9009300Y-9690800D01*
X8991600Y-13688700D02*
X8991600Y-13768700D01*
X8951600Y-13728700D02*
X9031600Y-13728700D01*
X8991600Y-14450700D02*
X8991600Y-14530700D01*
X8951600Y-14490700D02*
X9031600Y-14490700D01*
X9007400Y-10094600D02*
X9007400Y-10174600D01*
X8967400Y-10134600D02*
X9047400Y-10134600D01*
X9007400Y-10844600D02*
X9007400Y-10924600D01*
X8967400Y-10884600D02*
X9047400Y-10884600D01*
X9020100Y-11275700D02*
X9020100Y-11355700D01*
X8980100Y-11315700D02*
X9060100Y-11315700D01*
X9020100Y-12025700D02*
X9020100Y-12105700D01*
X8980100Y-12065700D02*
X9060100Y-12065700D01*
X9020100Y-12456800D02*
X9020100Y-12536800D01*
X8980100Y-12496800D02*
X9060100Y-12496800D01*
X9020100Y-13206800D02*
X9020100Y-13286800D01*
X8980100Y-13246800D02*
X9060100Y-13246800D01*
X9245600Y-13688700D02*
X9245600Y-13768700D01*
X9205600Y-13728700D02*
X9285600Y-13728700D01*
X9245600Y-14450700D02*
X9245600Y-14530700D01*
X9205600Y-14490700D02*
X9285600Y-14490700D01*
X9497600Y-10094600D02*
X9497600Y-10174600D01*
X9457600Y-10134600D02*
X9537600Y-10134600D01*
X9497600Y-10856600D02*
X9497600Y-10936600D01*
X9457600Y-10896600D02*
X9537600Y-10896600D01*
X9497600Y-11274700D02*
X9497600Y-11354700D01*
X9457600Y-11314700D02*
X9537600Y-11314700D01*
X9497600Y-12036700D02*
X9497600Y-12116700D01*
X9457600Y-12076700D02*
X9537600Y-12076700D01*
X9497600Y-12455800D02*
X9497600Y-12535800D01*
X9457600Y-12495800D02*
X9537600Y-12495800D01*
X9497600Y-13217800D02*
X9497600Y-13297800D01*
X9457600Y-13257800D02*
X9537600Y-13257800D01*
X9499600Y-13688700D02*
X9499600Y-13768700D01*
X9459600Y-13728700D02*
X9539600Y-13728700D01*
X9499600Y-14450700D02*
X9499600Y-14530700D01*
X9459600Y-14490700D02*
X9539600Y-14490700D01*
X9642600Y-14912150D02*
X9642600Y-14992150D01*
X9602600Y-14952150D02*
X9682600Y-14952150D01*
X9642600Y-15674150D02*
X9642600Y-15754150D01*
X9602600Y-15714150D02*
X9682600Y-15714150D01*
X9751600Y-10094600D02*
X9751600Y-10174600D01*
X9711600Y-10134600D02*
X9791600Y-10134600D01*
X9751600Y-10856600D02*
X9751600Y-10936600D01*
X9711600Y-10896600D02*
X9791600Y-10896600D01*
X9751600Y-11274700D02*
X9751600Y-11354700D01*
X9711600Y-11314700D02*
X9791600Y-11314700D01*
X9751600Y-12036700D02*
X9751600Y-12116700D01*
X9711600Y-12076700D02*
X9791600Y-12076700D01*
X9751600Y-12455800D02*
X9751600Y-12535800D01*
X9711600Y-12495800D02*
X9791600Y-12495800D01*
X9751600Y-13217800D02*
X9751600Y-13297800D01*
X9711600Y-13257800D02*
X9791600Y-13257800D01*
X9753600Y-13688700D02*
X9753600Y-13768700D01*
X9713600Y-13728700D02*
X9793600Y-13728700D01*
X9753600Y-14450700D02*
X9753600Y-14530700D01*
X9713600Y-14490700D02*
X9793600Y-14490700D01*
X9896600Y-14912150D02*
X9896600Y-14992150D01*
X9856600Y-14952150D02*
X9936600Y-14952150D01*
X9896600Y-15674150D02*
X9896600Y-15754150D01*
X9856600Y-15714150D02*
X9936600Y-15714150D01*
X9937400Y-8621400D02*
X9937400Y-8701400D01*
X9897400Y-8661400D02*
X9977400Y-8661400D01*
X10005600Y-10094600D02*
X10005600Y-10174600D01*
X9965600Y-10134600D02*
X10045600Y-10134600D01*
X10005600Y-10856600D02*
X10005600Y-10936600D01*
X9965600Y-10896600D02*
X10045600Y-10896600D01*
X10005600Y-11274700D02*
X10005600Y-11354700D01*
X9965600Y-11314700D02*
X10045600Y-11314700D01*
X10005600Y-12036700D02*
X10005600Y-12116700D01*
X9965600Y-12076700D02*
X10045600Y-12076700D01*
X10005600Y-12455800D02*
X10005600Y-12535800D01*
X9965600Y-12495800D02*
X10045600Y-12495800D01*
X10005600Y-13217800D02*
X10005600Y-13297800D01*
X9965600Y-13257800D02*
X10045600Y-13257800D01*
X10007600Y-13688700D02*
X10007600Y-13768700D01*
X9967600Y-13728700D02*
X10047600Y-13728700D01*
X10007600Y-14450700D02*
X10007600Y-14530700D01*
X9967600Y-14490700D02*
X10047600Y-14490700D01*
X10150600Y-14912150D02*
X10150600Y-14992150D01*
X10110600Y-14952150D02*
X10190600Y-14952150D01*
X10150600Y-15674150D02*
X10150600Y-15754150D01*
X10110600Y-15714150D02*
X10190600Y-15714150D01*
X10259600Y-10094600D02*
X10259600Y-10174600D01*
X10219600Y-10134600D02*
X10299600Y-10134600D01*
X10259600Y-10856600D02*
X10259600Y-10936600D01*
X10219600Y-10896600D02*
X10299600Y-10896600D01*
X10259600Y-11274700D02*
X10259600Y-11354700D01*
X10219600Y-11314700D02*
X10299600Y-11314700D01*
X10259600Y-12036700D02*
X10259600Y-12116700D01*
X10219600Y-12076700D02*
X10299600Y-12076700D01*
X10259600Y-12455800D02*
X10259600Y-12535800D01*
X10219600Y-12495800D02*
X10299600Y-12495800D01*
X10259600Y-13217800D02*
X10259600Y-13297800D01*
X10219600Y-13257800D02*
X10299600Y-13257800D01*
X10261600Y-13688700D02*
X10261600Y-13768700D01*
X10221600Y-13728700D02*
X10301600Y-13728700D01*
X10261600Y-14450700D02*
X10261600Y-14530700D01*
X10221600Y-14490700D02*
X10301600Y-14490700D01*
X10404600Y-14912150D02*
X10404600Y-14992150D01*
X10364600Y-14952150D02*
X10444600Y-14952150D01*
X10404600Y-15674150D02*
X10404600Y-15754150D01*
X10364600Y-15714150D02*
X10444600Y-15714150D01*
X10513600Y-10094600D02*
X10513600Y-10174600D01*
X10473600Y-10134600D02*
X10553600Y-10134600D01*
X10513600Y-10856600D02*
X10513600Y-10936600D01*
X10473600Y-10896600D02*
X10553600Y-10896600D01*
X10513600Y-11274700D02*
X10513600Y-11354700D01*
X10473600Y-11314700D02*
X10553600Y-11314700D01*
X10513600Y-12036700D02*
X10513600Y-12116700D01*
X10473600Y-12076700D02*
X10553600Y-12076700D01*
X10513600Y-12455800D02*
X10513600Y-12535800D01*
X10473600Y-12495800D02*
X10553600Y-12495800D01*
X10513600Y-13217800D02*
X10513600Y-13297800D01*
X10473600Y-13257800D02*
X10553600Y-13257800D01*
X10515600Y-13688700D02*
X10515600Y-13768700D01*
X10475600Y-13728700D02*
X10555600Y-13728700D01*
X10515600Y-14450700D02*
X10515600Y-14530700D01*
X10475600Y-14490700D02*
X10555600Y-14490700D01*
X10658600Y-14912150D02*
X10658600Y-14992150D01*
X10618600Y-14952150D02*
X10698600Y-14952150D01*
X10658600Y-15674150D02*
X10658600Y-15754150D01*
X10618600Y-15714150D02*
X10698600Y-15714150D01*
X10687400Y-8621400D02*
X10687400Y-8701400D01*
X10647400Y-8661400D02*
X10727400Y-8661400D01*
X10767600Y-10094600D02*
X10767600Y-10174600D01*
X10727600Y-10134600D02*
X10807600Y-10134600D01*
X10767600Y-10856600D02*
X10767600Y-10936600D01*
X10727600Y-10896600D02*
X10807600Y-10896600D01*
X10767600Y-11274700D02*
X10767600Y-11354700D01*
X10727600Y-11314700D02*
X10807600Y-11314700D01*
X10767600Y-12036700D02*
X10767600Y-12116700D01*
X10727600Y-12076700D02*
X10807600Y-12076700D01*
X10767600Y-12455800D02*
X10767600Y-12535800D01*
X10727600Y-12495800D02*
X10807600Y-12495800D01*
X10767600Y-13217800D02*
X10767600Y-13297800D01*
X10727600Y-13257800D02*
X10807600Y-13257800D01*
X10769600Y-13688700D02*
X10769600Y-13768700D01*
X10729600Y-13728700D02*
X10809600Y-13728700D01*
X10769600Y-14450700D02*
X10769600Y-14530700D01*
X10729600Y-14490700D02*
X10809600Y-14490700D01*
X10912600Y-14912150D02*
X10912600Y-14992150D01*
X10872600Y-14952150D02*
X10952600Y-14952150D01*
X10912600Y-15674150D02*
X10912600Y-15754150D01*
X10872600Y-15714150D02*
X10952600Y-15714150D01*
X11021600Y-10094600D02*
X11021600Y-10174600D01*
X10981600Y-10134600D02*
X11061600Y-10134600D01*
X11021600Y-10856600D02*
X11021600Y-10936600D01*
X10981600Y-10896600D02*
X11061600Y-10896600D01*
X11021600Y-11274700D02*
X11021600Y-11354700D01*
X10981600Y-11314700D02*
X11061600Y-11314700D01*
X11021600Y-12036700D02*
X11021600Y-12116700D01*
X10981600Y-12076700D02*
X11061600Y-12076700D01*
X11021600Y-12455800D02*
X11021600Y-12535800D01*
X10981600Y-12495800D02*
X11061600Y-12495800D01*
X11021600Y-13217800D02*
X11021600Y-13297800D01*
X10981600Y-13257800D02*
X11061600Y-13257800D01*
X11023600Y-13688700D02*
X11023600Y-13768700D01*
X10983600Y-13728700D02*
X11063600Y-13728700D01*
X11023600Y-14450700D02*
X11023600Y-14530700D01*
X10983600Y-14490700D02*
X11063600Y-14490700D01*
D10*
X4785156Y-15364756D02*
X4785156Y-15294044D01*
X4714444Y-15294044D01*
X4714444Y-15364756D01*
X4785156Y-15364756D01*
X4785156Y-15618756D02*
X4785156Y-15548044D01*
X4714444Y-15548044D01*
X4714444Y-15618756D01*
X4785156Y-15618756D01*
D11*
X1916319Y-18235176D02*
X1916319Y-18035176D01*
X1963938Y-18035176D01*
X1992509Y-18044700D01*
X2011557Y-18063748D01*
X2021081Y-18082795D01*
X2030605Y-18120890D01*
X2030605Y-18149462D01*
X2021081Y-18187557D01*
X2011557Y-18206605D01*
X1992509Y-18225652D01*
X1963938Y-18235176D01*
X1916319Y-18235176D01*
X2116319Y-18235176D02*
X2116319Y-18101843D01*
X2116319Y-18139938D02*
X2125843Y-18120890D01*
X2135367Y-18111367D01*
X2154414Y-18101843D01*
X2173462Y-18101843D01*
X2240129Y-18235176D02*
X2240129Y-18101843D01*
X2240129Y-18035176D02*
X2230605Y-18044700D01*
X2240129Y-18054224D01*
X2249652Y-18044700D01*
X2240129Y-18035176D01*
X2240129Y-18054224D01*
X2363938Y-18235176D02*
X2344890Y-18225652D01*
X2335367Y-18206605D01*
X2335367Y-18035176D01*
X2468700Y-18235176D02*
X2449652Y-18225652D01*
X2440129Y-18206605D01*
X2440129Y-18035176D01*
X2697271Y-18235176D02*
X2697271Y-18035176D01*
X2763938Y-18178033D01*
X2830605Y-18035176D01*
X2830605Y-18235176D01*
X3011557Y-18235176D02*
X3011557Y-18130414D01*
X3002033Y-18111367D01*
X2982986Y-18101843D01*
X2944890Y-18101843D01*
X2925843Y-18111367D01*
X3011557Y-18225652D02*
X2992509Y-18235176D01*
X2944890Y-18235176D01*
X2925843Y-18225652D01*
X2916319Y-18206605D01*
X2916319Y-18187557D01*
X2925843Y-18168510D01*
X2944890Y-18158986D01*
X2992509Y-18158986D01*
X3011557Y-18149462D01*
X3106795Y-18101843D02*
X3106795Y-18301843D01*
X3106795Y-18111367D02*
X3125843Y-18101843D01*
X3163938Y-18101843D01*
X3182986Y-18111367D01*
X3192509Y-18120890D01*
X3202033Y-18139938D01*
X3202033Y-18197081D01*
X3192509Y-18216129D01*
X3182986Y-18225652D01*
X3163938Y-18235176D01*
X3125843Y-18235176D01*
X3106795Y-18225652D01*
X3287748Y-18216129D02*
X3297271Y-18225652D01*
X3287748Y-18235176D01*
X3278224Y-18225652D01*
X3287748Y-18216129D01*
X3287748Y-18235176D01*
X3287748Y-18111367D02*
X3297271Y-18120890D01*
X3287748Y-18130414D01*
X3278224Y-18120890D01*
X3287748Y-18111367D01*
X3287748Y-18130414D01*
D12*
X1618700Y-18544700D02*
X1658700Y-18584700D01*
X1658700Y-18544700D02*
X1618700Y-18584700D01*
D11*
X1954414Y-18455176D02*
X1973462Y-18455176D01*
X1992509Y-18464700D01*
X2002033Y-18474224D01*
X2011557Y-18493271D01*
X2021081Y-18531367D01*
X2021081Y-18578986D01*
X2011557Y-18617081D01*
X2002033Y-18636129D01*
X1992509Y-18645652D01*
X1973462Y-18655176D01*
X1954414Y-18655176D01*
X1935367Y-18645652D01*
X1925843Y-18636129D01*
X1916319Y-18617081D01*
X1906795Y-18578986D01*
X1906795Y-18531367D01*
X1916319Y-18493271D01*
X1925843Y-18474224D01*
X1935367Y-18464700D01*
X1954414Y-18455176D01*
X2106795Y-18636129D02*
X2116319Y-18645652D01*
X2106795Y-18655176D01*
X2097271Y-18645652D01*
X2106795Y-18636129D01*
X2106795Y-18655176D01*
X2287748Y-18521843D02*
X2287748Y-18655176D01*
X2240129Y-18445652D02*
X2192510Y-18588510D01*
X2316319Y-18588510D01*
X2430605Y-18455176D02*
X2449652Y-18455176D01*
X2468700Y-18464700D01*
X2478224Y-18474224D01*
X2487748Y-18493271D01*
X2497271Y-18531367D01*
X2497271Y-18578986D01*
X2487748Y-18617081D01*
X2478224Y-18636129D01*
X2468700Y-18645652D01*
X2449652Y-18655176D01*
X2430605Y-18655176D01*
X2411557Y-18645652D01*
X2402033Y-18636129D01*
X2392510Y-18617081D01*
X2382986Y-18578986D01*
X2382986Y-18531367D01*
X2392510Y-18493271D01*
X2402033Y-18474224D01*
X2411557Y-18464700D01*
X2430605Y-18455176D01*
X2621081Y-18455176D02*
X2640129Y-18455176D01*
X2659176Y-18464700D01*
X2668700Y-18474224D01*
X2678224Y-18493271D01*
X2687748Y-18531367D01*
X2687748Y-18578986D01*
X2678224Y-18617081D01*
X2668700Y-18636129D01*
X2659176Y-18645652D01*
X2640129Y-18655176D01*
X2621081Y-18655176D01*
X2602033Y-18645652D01*
X2592510Y-18636129D01*
X2582986Y-18617081D01*
X2573462Y-18578986D01*
X2573462Y-18531367D01*
X2582986Y-18493271D01*
X2592510Y-18474224D01*
X2602033Y-18464700D01*
X2621081Y-18455176D01*
X2773462Y-18655176D02*
X2773462Y-18521843D01*
X2773462Y-18540890D02*
X2782986Y-18531367D01*
X2802033Y-18521843D01*
X2830605Y-18521843D01*
X2849652Y-18531367D01*
X2859176Y-18550414D01*
X2859176Y-18655176D01*
X2859176Y-18550414D02*
X2868700Y-18531367D01*
X2887748Y-18521843D01*
X2916319Y-18521843D01*
X2935367Y-18531367D01*
X2944890Y-18550414D01*
X2944890Y-18655176D01*
X3040128Y-18655176D02*
X3040128Y-18521843D01*
X3040128Y-18540890D02*
X3049652Y-18531367D01*
X3068700Y-18521843D01*
X3097271Y-18521843D01*
X3116319Y-18531367D01*
X3125843Y-18550414D01*
X3125843Y-18655176D01*
X3125843Y-18550414D02*
X3135367Y-18531367D01*
X3154414Y-18521843D01*
X3182986Y-18521843D01*
X3202033Y-18531367D01*
X3211557Y-18550414D01*
X3211557Y-18655176D01*
X3602033Y-18445652D02*
X3430605Y-18702795D01*
X3859176Y-18455176D02*
X3878224Y-18455176D01*
X3897271Y-18464700D01*
X3906795Y-18474224D01*
X3916319Y-18493271D01*
X3925843Y-18531367D01*
X3925843Y-18578986D01*
X3916319Y-18617081D01*
X3906795Y-18636129D01*
X3897271Y-18645652D01*
X3878224Y-18655176D01*
X3859176Y-18655176D01*
X3840128Y-18645652D01*
X3830605Y-18636129D01*
X3821081Y-18617081D01*
X3811557Y-18578986D01*
X3811557Y-18531367D01*
X3821081Y-18493271D01*
X3830605Y-18474224D01*
X3840128Y-18464700D01*
X3859176Y-18455176D01*
X4011557Y-18636129D02*
X4021081Y-18645652D01*
X4011557Y-18655176D01*
X4002033Y-18645652D01*
X4011557Y-18636129D01*
X4011557Y-18655176D01*
X4144890Y-18455176D02*
X4163938Y-18455176D01*
X4182986Y-18464700D01*
X4192509Y-18474224D01*
X4202033Y-18493271D01*
X4211557Y-18531367D01*
X4211557Y-18578986D01*
X4202033Y-18617081D01*
X4192509Y-18636129D01*
X4182986Y-18645652D01*
X4163938Y-18655176D01*
X4144890Y-18655176D01*
X4125843Y-18645652D01*
X4116319Y-18636129D01*
X4106795Y-18617081D01*
X4097271Y-18578986D01*
X4097271Y-18531367D01*
X4106795Y-18493271D01*
X4116319Y-18474224D01*
X4125843Y-18464700D01*
X4144890Y-18455176D01*
X4402033Y-18655176D02*
X4287748Y-18655176D01*
X4344890Y-18655176D02*
X4344890Y-18455176D01*
X4325843Y-18483748D01*
X4306795Y-18502795D01*
X4287748Y-18512319D01*
X4582986Y-18455176D02*
X4487748Y-18455176D01*
X4478224Y-18550414D01*
X4487748Y-18540890D01*
X4506795Y-18531367D01*
X4554414Y-18531367D01*
X4573462Y-18540890D01*
X4582986Y-18550414D01*
X4592510Y-18569462D01*
X4592510Y-18617081D01*
X4582986Y-18636129D01*
X4573462Y-18645652D01*
X4554414Y-18655176D01*
X4506795Y-18655176D01*
X4487748Y-18645652D01*
X4478224Y-18636129D01*
X4659176Y-18455176D02*
X4792510Y-18455176D01*
X4706795Y-18655176D01*
X4859176Y-18455176D02*
X4859176Y-18493271D01*
X4935367Y-18455176D02*
X4935367Y-18493271D01*
X5230605Y-18731367D02*
X5221081Y-18721843D01*
X5202033Y-18693271D01*
X5192510Y-18674224D01*
X5182986Y-18645652D01*
X5173462Y-18598033D01*
X5173462Y-18559938D01*
X5182986Y-18512319D01*
X5192510Y-18483748D01*
X5202033Y-18464700D01*
X5221081Y-18436129D01*
X5230605Y-18426605D01*
X5392510Y-18521843D02*
X5392510Y-18655176D01*
X5344890Y-18445652D02*
X5297271Y-18588510D01*
X5421081Y-18588510D01*
X5582986Y-18455176D02*
X5544890Y-18455176D01*
X5525843Y-18464700D01*
X5516319Y-18474224D01*
X5497271Y-18502795D01*
X5487748Y-18540890D01*
X5487748Y-18617081D01*
X5497271Y-18636129D01*
X5506795Y-18645652D01*
X5525843Y-18655176D01*
X5563938Y-18655176D01*
X5582986Y-18645652D01*
X5592509Y-18636129D01*
X5602033Y-18617081D01*
X5602033Y-18569462D01*
X5592509Y-18550414D01*
X5582986Y-18540890D01*
X5563938Y-18531367D01*
X5525843Y-18531367D01*
X5506795Y-18540890D01*
X5497271Y-18550414D01*
X5487748Y-18569462D01*
X5840128Y-18655176D02*
X5840128Y-18455176D01*
X5925843Y-18655176D02*
X5925843Y-18550414D01*
X5916319Y-18531367D01*
X5897271Y-18521843D01*
X5868700Y-18521843D01*
X5849652Y-18531367D01*
X5840128Y-18540890D01*
X6049652Y-18655176D02*
X6030605Y-18645652D01*
X6021081Y-18636129D01*
X6011557Y-18617081D01*
X6011557Y-18559938D01*
X6021081Y-18540890D01*
X6030605Y-18531367D01*
X6049652Y-18521843D01*
X6078224Y-18521843D01*
X6097271Y-18531367D01*
X6106795Y-18540890D01*
X6116319Y-18559938D01*
X6116319Y-18617081D01*
X6106795Y-18636129D01*
X6097271Y-18645652D01*
X6078224Y-18655176D01*
X6049652Y-18655176D01*
X6230605Y-18655176D02*
X6211557Y-18645652D01*
X6202033Y-18626605D01*
X6202033Y-18455176D01*
X6382986Y-18645652D02*
X6363938Y-18655176D01*
X6325843Y-18655176D01*
X6306795Y-18645652D01*
X6297271Y-18626605D01*
X6297271Y-18550414D01*
X6306795Y-18531367D01*
X6325843Y-18521843D01*
X6363938Y-18521843D01*
X6382986Y-18531367D01*
X6392509Y-18550414D01*
X6392509Y-18569462D01*
X6297271Y-18588510D01*
X6468700Y-18645652D02*
X6487748Y-18655176D01*
X6525843Y-18655176D01*
X6544890Y-18645652D01*
X6554414Y-18626605D01*
X6554414Y-18617081D01*
X6544890Y-18598033D01*
X6525843Y-18588510D01*
X6497271Y-18588510D01*
X6478224Y-18578986D01*
X6468700Y-18559938D01*
X6468700Y-18550414D01*
X6478224Y-18531367D01*
X6497271Y-18521843D01*
X6525843Y-18521843D01*
X6544890Y-18531367D01*
X6621081Y-18731367D02*
X6630605Y-18721843D01*
X6649652Y-18693271D01*
X6659176Y-18674224D01*
X6668700Y-18645652D01*
X6678224Y-18598033D01*
X6678224Y-18559938D01*
X6668700Y-18512319D01*
X6659176Y-18483748D01*
X6649652Y-18464700D01*
X6630605Y-18436129D01*
X6621081Y-18426605D01*
D13*
X1658700Y-18828700D02*
G75*
G03*
X1658700Y-18828700I-38100J0D01*
G01*
D11*
X1954414Y-18719176D02*
X1973462Y-18719176D01*
X1992509Y-18728700D01*
X2002033Y-18738224D01*
X2011557Y-18757271D01*
X2021081Y-18795367D01*
X2021081Y-18842986D01*
X2011557Y-18881081D01*
X2002033Y-18900129D01*
X1992509Y-18909652D01*
X1973462Y-18919176D01*
X1954414Y-18919176D01*
X1935367Y-18909652D01*
X1925843Y-18900129D01*
X1916319Y-18881081D01*
X1906795Y-18842986D01*
X1906795Y-18795367D01*
X1916319Y-18757271D01*
X1925843Y-18738224D01*
X1935367Y-18728700D01*
X1954414Y-18719176D01*
X2106795Y-18900129D02*
X2116319Y-18909652D01*
X2106795Y-18919176D01*
X2097271Y-18909652D01*
X2106795Y-18900129D01*
X2106795Y-18919176D01*
X2182986Y-18719176D02*
X2316319Y-18719176D01*
X2230605Y-18919176D01*
X2478224Y-18719176D02*
X2440129Y-18719176D01*
X2421081Y-18728700D01*
X2411557Y-18738224D01*
X2392510Y-18766795D01*
X2382986Y-18804890D01*
X2382986Y-18881081D01*
X2392510Y-18900129D01*
X2402033Y-18909652D01*
X2421081Y-18919176D01*
X2459176Y-18919176D01*
X2478224Y-18909652D01*
X2487748Y-18900129D01*
X2497271Y-18881081D01*
X2497271Y-18833462D01*
X2487748Y-18814414D01*
X2478224Y-18804890D01*
X2459176Y-18795367D01*
X2421081Y-18795367D01*
X2402033Y-18804890D01*
X2392510Y-18814414D01*
X2382986Y-18833462D01*
X2573462Y-18738224D02*
X2582986Y-18728700D01*
X2602033Y-18719176D01*
X2649652Y-18719176D01*
X2668700Y-18728700D01*
X2678224Y-18738224D01*
X2687748Y-18757271D01*
X2687748Y-18776319D01*
X2678224Y-18804890D01*
X2563938Y-18919176D01*
X2687748Y-18919176D01*
X2773462Y-18919176D02*
X2773462Y-18785843D01*
X2773462Y-18804890D02*
X2782986Y-18795367D01*
X2802033Y-18785843D01*
X2830605Y-18785843D01*
X2849652Y-18795367D01*
X2859176Y-18814414D01*
X2859176Y-18919176D01*
X2859176Y-18814414D02*
X2868700Y-18795367D01*
X2887748Y-18785843D01*
X2916319Y-18785843D01*
X2935367Y-18795367D01*
X2944890Y-18814414D01*
X2944890Y-18919176D01*
X3040128Y-18919176D02*
X3040128Y-18785843D01*
X3040128Y-18804890D02*
X3049652Y-18795367D01*
X3068700Y-18785843D01*
X3097271Y-18785843D01*
X3116319Y-18795367D01*
X3125843Y-18814414D01*
X3125843Y-18919176D01*
X3125843Y-18814414D02*
X3135367Y-18795367D01*
X3154414Y-18785843D01*
X3182986Y-18785843D01*
X3202033Y-18795367D01*
X3211557Y-18814414D01*
X3211557Y-18919176D01*
X3602033Y-18709652D02*
X3430605Y-18966795D01*
X3859176Y-18719176D02*
X3878224Y-18719176D01*
X3897271Y-18728700D01*
X3906795Y-18738224D01*
X3916319Y-18757271D01*
X3925843Y-18795367D01*
X3925843Y-18842986D01*
X3916319Y-18881081D01*
X3906795Y-18900129D01*
X3897271Y-18909652D01*
X3878224Y-18919176D01*
X3859176Y-18919176D01*
X3840128Y-18909652D01*
X3830605Y-18900129D01*
X3821081Y-18881081D01*
X3811557Y-18842986D01*
X3811557Y-18795367D01*
X3821081Y-18757271D01*
X3830605Y-18738224D01*
X3840128Y-18728700D01*
X3859176Y-18719176D01*
X4011557Y-18900129D02*
X4021081Y-18909652D01*
X4011557Y-18919176D01*
X4002033Y-18909652D01*
X4011557Y-18900129D01*
X4011557Y-18919176D01*
X4144890Y-18719176D02*
X4163938Y-18719176D01*
X4182986Y-18728700D01*
X4192509Y-18738224D01*
X4202033Y-18757271D01*
X4211557Y-18795367D01*
X4211557Y-18842986D01*
X4202033Y-18881081D01*
X4192509Y-18900129D01*
X4182986Y-18909652D01*
X4163938Y-18919176D01*
X4144890Y-18919176D01*
X4125843Y-18909652D01*
X4116319Y-18900129D01*
X4106795Y-18881081D01*
X4097271Y-18842986D01*
X4097271Y-18795367D01*
X4106795Y-18757271D01*
X4116319Y-18738224D01*
X4125843Y-18728700D01*
X4144890Y-18719176D01*
X4278224Y-18719176D02*
X4402033Y-18719176D01*
X4335367Y-18795367D01*
X4363938Y-18795367D01*
X4382986Y-18804890D01*
X4392510Y-18814414D01*
X4402033Y-18833462D01*
X4402033Y-18881081D01*
X4392510Y-18900129D01*
X4382986Y-18909652D01*
X4363938Y-18919176D01*
X4306795Y-18919176D01*
X4287748Y-18909652D01*
X4278224Y-18900129D01*
X4525843Y-18719176D02*
X4544890Y-18719176D01*
X4563938Y-18728700D01*
X4573462Y-18738224D01*
X4582986Y-18757271D01*
X4592510Y-18795367D01*
X4592510Y-18842986D01*
X4582986Y-18881081D01*
X4573462Y-18900129D01*
X4563938Y-18909652D01*
X4544890Y-18919176D01*
X4525843Y-18919176D01*
X4506795Y-18909652D01*
X4497271Y-18900129D01*
X4487748Y-18881081D01*
X4478224Y-18842986D01*
X4478224Y-18795367D01*
X4487748Y-18757271D01*
X4497271Y-18738224D01*
X4506795Y-18728700D01*
X4525843Y-18719176D01*
X4716319Y-18719176D02*
X4735367Y-18719176D01*
X4754414Y-18728700D01*
X4763938Y-18738224D01*
X4773462Y-18757271D01*
X4782986Y-18795367D01*
X4782986Y-18842986D01*
X4773462Y-18881081D01*
X4763938Y-18900129D01*
X4754414Y-18909652D01*
X4735367Y-18919176D01*
X4716319Y-18919176D01*
X4697271Y-18909652D01*
X4687748Y-18900129D01*
X4678224Y-18881081D01*
X4668700Y-18842986D01*
X4668700Y-18795367D01*
X4678224Y-18757271D01*
X4687748Y-18738224D01*
X4697271Y-18728700D01*
X4716319Y-18719176D01*
X4859176Y-18719176D02*
X4859176Y-18757271D01*
X4935367Y-18719176D02*
X4935367Y-18757271D01*
X5230605Y-18995367D02*
X5221081Y-18985843D01*
X5202033Y-18957271D01*
X5192510Y-18938224D01*
X5182986Y-18909652D01*
X5173462Y-18862033D01*
X5173462Y-18823938D01*
X5182986Y-18776319D01*
X5192510Y-18747748D01*
X5202033Y-18728700D01*
X5221081Y-18700129D01*
X5230605Y-18690605D01*
X5392510Y-18785843D02*
X5392510Y-18919176D01*
X5344890Y-18709652D02*
X5297271Y-18852510D01*
X5421081Y-18852510D01*
X5649652Y-18919176D02*
X5649652Y-18719176D01*
X5735367Y-18919176D02*
X5735367Y-18814414D01*
X5725843Y-18795367D01*
X5706795Y-18785843D01*
X5678224Y-18785843D01*
X5659176Y-18795367D01*
X5649652Y-18804890D01*
X5859176Y-18919176D02*
X5840128Y-18909652D01*
X5830605Y-18900129D01*
X5821081Y-18881081D01*
X5821081Y-18823938D01*
X5830605Y-18804890D01*
X5840128Y-18795367D01*
X5859176Y-18785843D01*
X5887748Y-18785843D01*
X5906795Y-18795367D01*
X5916319Y-18804890D01*
X5925843Y-18823938D01*
X5925843Y-18881081D01*
X5916319Y-18900129D01*
X5906795Y-18909652D01*
X5887748Y-18919176D01*
X5859176Y-18919176D01*
X6040128Y-18919176D02*
X6021081Y-18909652D01*
X6011557Y-18890605D01*
X6011557Y-18719176D01*
X6192509Y-18909652D02*
X6173462Y-18919176D01*
X6135367Y-18919176D01*
X6116319Y-18909652D01*
X6106795Y-18890605D01*
X6106795Y-18814414D01*
X6116319Y-18795367D01*
X6135367Y-18785843D01*
X6173462Y-18785843D01*
X6192509Y-18795367D01*
X6202033Y-18814414D01*
X6202033Y-18833462D01*
X6106795Y-18852510D01*
X6278224Y-18909652D02*
X6297271Y-18919176D01*
X6335367Y-18919176D01*
X6354414Y-18909652D01*
X6363938Y-18890605D01*
X6363938Y-18881081D01*
X6354414Y-18862033D01*
X6335367Y-18852510D01*
X6306795Y-18852510D01*
X6287748Y-18842986D01*
X6278224Y-18823938D01*
X6278224Y-18814414D01*
X6287748Y-18795367D01*
X6306795Y-18785843D01*
X6335367Y-18785843D01*
X6354414Y-18795367D01*
X6430605Y-18995367D02*
X6440128Y-18985843D01*
X6459176Y-18957271D01*
X6468700Y-18938224D01*
X6478224Y-18909652D01*
X6487748Y-18862033D01*
X6487748Y-18823938D01*
X6478224Y-18776319D01*
X6468700Y-18747748D01*
X6459176Y-18728700D01*
X6440128Y-18700129D01*
X6430605Y-18690605D01*
D14*
X1618700Y-19052700D02*
X1618700Y-19132700D01*
X1578700Y-19092700D02*
X1658700Y-19092700D01*
D11*
X1954414Y-18983176D02*
X1973462Y-18983176D01*
X1992509Y-18992700D01*
X2002033Y-19002224D01*
X2011557Y-19021271D01*
X2021081Y-19059367D01*
X2021081Y-19106986D01*
X2011557Y-19145081D01*
X2002033Y-19164129D01*
X1992509Y-19173652D01*
X1973462Y-19183176D01*
X1954414Y-19183176D01*
X1935367Y-19173652D01*
X1925843Y-19164129D01*
X1916319Y-19145081D01*
X1906795Y-19106986D01*
X1906795Y-19059367D01*
X1916319Y-19021271D01*
X1925843Y-19002224D01*
X1935367Y-18992700D01*
X1954414Y-18983176D01*
X2106795Y-19164129D02*
X2116319Y-19173652D01*
X2106795Y-19183176D01*
X2097271Y-19173652D01*
X2106795Y-19164129D01*
X2106795Y-19183176D01*
X2230605Y-19068890D02*
X2211557Y-19059367D01*
X2202033Y-19049843D01*
X2192510Y-19030795D01*
X2192510Y-19021271D01*
X2202033Y-19002224D01*
X2211557Y-18992700D01*
X2230605Y-18983176D01*
X2268700Y-18983176D01*
X2287748Y-18992700D01*
X2297271Y-19002224D01*
X2306795Y-19021271D01*
X2306795Y-19030795D01*
X2297271Y-19049843D01*
X2287748Y-19059367D01*
X2268700Y-19068890D01*
X2230605Y-19068890D01*
X2211557Y-19078414D01*
X2202033Y-19087938D01*
X2192510Y-19106986D01*
X2192510Y-19145081D01*
X2202033Y-19164129D01*
X2211557Y-19173652D01*
X2230605Y-19183176D01*
X2268700Y-19183176D01*
X2287748Y-19173652D01*
X2297271Y-19164129D01*
X2306795Y-19145081D01*
X2306795Y-19106986D01*
X2297271Y-19087938D01*
X2287748Y-19078414D01*
X2268700Y-19068890D01*
X2430605Y-18983176D02*
X2449652Y-18983176D01*
X2468700Y-18992700D01*
X2478224Y-19002224D01*
X2487748Y-19021271D01*
X2497271Y-19059367D01*
X2497271Y-19106986D01*
X2487748Y-19145081D01*
X2478224Y-19164129D01*
X2468700Y-19173652D01*
X2449652Y-19183176D01*
X2430605Y-19183176D01*
X2411557Y-19173652D01*
X2402033Y-19164129D01*
X2392510Y-19145081D01*
X2382986Y-19106986D01*
X2382986Y-19059367D01*
X2392510Y-19021271D01*
X2402033Y-19002224D01*
X2411557Y-18992700D01*
X2430605Y-18983176D01*
X2621081Y-18983176D02*
X2640129Y-18983176D01*
X2659176Y-18992700D01*
X2668700Y-19002224D01*
X2678224Y-19021271D01*
X2687748Y-19059367D01*
X2687748Y-19106986D01*
X2678224Y-19145081D01*
X2668700Y-19164129D01*
X2659176Y-19173652D01*
X2640129Y-19183176D01*
X2621081Y-19183176D01*
X2602033Y-19173652D01*
X2592510Y-19164129D01*
X2582986Y-19145081D01*
X2573462Y-19106986D01*
X2573462Y-19059367D01*
X2582986Y-19021271D01*
X2592510Y-19002224D01*
X2602033Y-18992700D01*
X2621081Y-18983176D01*
X2773462Y-19183176D02*
X2773462Y-19049843D01*
X2773462Y-19068890D02*
X2782986Y-19059367D01*
X2802033Y-19049843D01*
X2830605Y-19049843D01*
X2849652Y-19059367D01*
X2859176Y-19078414D01*
X2859176Y-19183176D01*
X2859176Y-19078414D02*
X2868700Y-19059367D01*
X2887748Y-19049843D01*
X2916319Y-19049843D01*
X2935367Y-19059367D01*
X2944890Y-19078414D01*
X2944890Y-19183176D01*
X3040128Y-19183176D02*
X3040128Y-19049843D01*
X3040128Y-19068890D02*
X3049652Y-19059367D01*
X3068700Y-19049843D01*
X3097271Y-19049843D01*
X3116319Y-19059367D01*
X3125843Y-19078414D01*
X3125843Y-19183176D01*
X3125843Y-19078414D02*
X3135367Y-19059367D01*
X3154414Y-19049843D01*
X3182986Y-19049843D01*
X3202033Y-19059367D01*
X3211557Y-19078414D01*
X3211557Y-19183176D01*
X3602033Y-18973652D02*
X3430605Y-19230795D01*
X3859176Y-18983176D02*
X3878224Y-18983176D01*
X3897271Y-18992700D01*
X3906795Y-19002224D01*
X3916319Y-19021271D01*
X3925843Y-19059367D01*
X3925843Y-19106986D01*
X3916319Y-19145081D01*
X3906795Y-19164129D01*
X3897271Y-19173652D01*
X3878224Y-19183176D01*
X3859176Y-19183176D01*
X3840128Y-19173652D01*
X3830605Y-19164129D01*
X3821081Y-19145081D01*
X3811557Y-19106986D01*
X3811557Y-19059367D01*
X3821081Y-19021271D01*
X3830605Y-19002224D01*
X3840128Y-18992700D01*
X3859176Y-18983176D01*
X4011557Y-19164129D02*
X4021081Y-19173652D01*
X4011557Y-19183176D01*
X4002033Y-19173652D01*
X4011557Y-19164129D01*
X4011557Y-19183176D01*
X4144890Y-18983176D02*
X4163938Y-18983176D01*
X4182986Y-18992700D01*
X4192509Y-19002224D01*
X4202033Y-19021271D01*
X4211557Y-19059367D01*
X4211557Y-19106986D01*
X4202033Y-19145081D01*
X4192509Y-19164129D01*
X4182986Y-19173652D01*
X4163938Y-19183176D01*
X4144890Y-19183176D01*
X4125843Y-19173652D01*
X4116319Y-19164129D01*
X4106795Y-19145081D01*
X4097271Y-19106986D01*
X4097271Y-19059367D01*
X4106795Y-19021271D01*
X4116319Y-19002224D01*
X4125843Y-18992700D01*
X4144890Y-18983176D01*
X4278224Y-18983176D02*
X4402033Y-18983176D01*
X4335367Y-19059367D01*
X4363938Y-19059367D01*
X4382986Y-19068890D01*
X4392510Y-19078414D01*
X4402033Y-19097462D01*
X4402033Y-19145081D01*
X4392510Y-19164129D01*
X4382986Y-19173652D01*
X4363938Y-19183176D01*
X4306795Y-19183176D01*
X4287748Y-19173652D01*
X4278224Y-19164129D01*
X4592510Y-19183176D02*
X4478224Y-19183176D01*
X4535367Y-19183176D02*
X4535367Y-18983176D01*
X4516319Y-19011748D01*
X4497271Y-19030795D01*
X4478224Y-19040319D01*
X4773462Y-18983176D02*
X4678224Y-18983176D01*
X4668700Y-19078414D01*
X4678224Y-19068890D01*
X4697271Y-19059367D01*
X4744890Y-19059367D01*
X4763938Y-19068890D01*
X4773462Y-19078414D01*
X4782986Y-19097462D01*
X4782986Y-19145081D01*
X4773462Y-19164129D01*
X4763938Y-19173652D01*
X4744890Y-19183176D01*
X4697271Y-19183176D01*
X4678224Y-19173652D01*
X4668700Y-19164129D01*
X4859176Y-18983176D02*
X4859176Y-19021271D01*
X4935367Y-18983176D02*
X4935367Y-19021271D01*
X5230605Y-19259367D02*
X5221081Y-19249843D01*
X5202033Y-19221271D01*
X5192510Y-19202224D01*
X5182986Y-19173652D01*
X5173462Y-19126033D01*
X5173462Y-19087938D01*
X5182986Y-19040319D01*
X5192510Y-19011748D01*
X5202033Y-18992700D01*
X5221081Y-18964129D01*
X5230605Y-18954605D01*
X5297271Y-19002224D02*
X5306795Y-18992700D01*
X5325843Y-18983176D01*
X5373462Y-18983176D01*
X5392510Y-18992700D01*
X5402033Y-19002224D01*
X5411557Y-19021271D01*
X5411557Y-19040319D01*
X5402033Y-19068890D01*
X5287748Y-19183176D01*
X5411557Y-19183176D01*
X5582986Y-18983176D02*
X5544890Y-18983176D01*
X5525843Y-18992700D01*
X5516319Y-19002224D01*
X5497271Y-19030795D01*
X5487748Y-19068890D01*
X5487748Y-19145081D01*
X5497271Y-19164129D01*
X5506795Y-19173652D01*
X5525843Y-19183176D01*
X5563938Y-19183176D01*
X5582986Y-19173652D01*
X5592509Y-19164129D01*
X5602033Y-19145081D01*
X5602033Y-19097462D01*
X5592509Y-19078414D01*
X5582986Y-19068890D01*
X5563938Y-19059367D01*
X5525843Y-19059367D01*
X5506795Y-19068890D01*
X5497271Y-19078414D01*
X5487748Y-19097462D01*
X5678224Y-19002224D02*
X5687748Y-18992700D01*
X5706795Y-18983176D01*
X5754414Y-18983176D01*
X5773462Y-18992700D01*
X5782986Y-19002224D01*
X5792509Y-19021271D01*
X5792509Y-19040319D01*
X5782986Y-19068890D01*
X5668700Y-19183176D01*
X5792509Y-19183176D01*
X6030605Y-19183176D02*
X6030605Y-18983176D01*
X6116319Y-19183176D02*
X6116319Y-19078414D01*
X6106795Y-19059367D01*
X6087748Y-19049843D01*
X6059176Y-19049843D01*
X6040128Y-19059367D01*
X6030605Y-19068890D01*
X6240128Y-19183176D02*
X6221081Y-19173652D01*
X6211557Y-19164129D01*
X6202033Y-19145081D01*
X6202033Y-19087938D01*
X6211557Y-19068890D01*
X6221081Y-19059367D01*
X6240128Y-19049843D01*
X6268700Y-19049843D01*
X6287748Y-19059367D01*
X6297271Y-19068890D01*
X6306795Y-19087938D01*
X6306795Y-19145081D01*
X6297271Y-19164129D01*
X6287748Y-19173652D01*
X6268700Y-19183176D01*
X6240128Y-19183176D01*
X6421081Y-19183176D02*
X6402033Y-19173652D01*
X6392509Y-19154605D01*
X6392509Y-18983176D01*
X6573462Y-19173652D02*
X6554414Y-19183176D01*
X6516319Y-19183176D01*
X6497271Y-19173652D01*
X6487748Y-19154605D01*
X6487748Y-19078414D01*
X6497271Y-19059367D01*
X6516319Y-19049843D01*
X6554414Y-19049843D01*
X6573462Y-19059367D01*
X6582986Y-19078414D01*
X6582986Y-19097462D01*
X6487748Y-19116510D01*
X6659176Y-19173652D02*
X6678224Y-19183176D01*
X6716319Y-19183176D01*
X6735367Y-19173652D01*
X6744890Y-19154605D01*
X6744890Y-19145081D01*
X6735367Y-19126033D01*
X6716319Y-19116510D01*
X6687748Y-19116510D01*
X6668700Y-19106986D01*
X6659176Y-19087938D01*
X6659176Y-19078414D01*
X6668700Y-19059367D01*
X6687748Y-19049843D01*
X6716319Y-19049843D01*
X6735367Y-19059367D01*
X6811557Y-19259367D02*
X6821081Y-19249843D01*
X6840128Y-19221271D01*
X6849652Y-19202224D01*
X6859176Y-19173652D01*
X6868700Y-19126033D01*
X6868700Y-19087938D01*
X6859176Y-19040319D01*
X6849652Y-19011748D01*
X6840128Y-18992700D01*
X6821081Y-18964129D01*
X6811557Y-18954605D01*
D10*
X1644056Y-19392056D02*
X1644056Y-19321344D01*
X1573344Y-19321344D01*
X1573344Y-19392056D01*
X1644056Y-19392056D01*
D11*
X2021081Y-19447176D02*
X1906795Y-19447176D01*
X1963938Y-19447176D02*
X1963938Y-19247176D01*
X1944890Y-19275748D01*
X1925843Y-19294795D01*
X1906795Y-19304319D01*
X2106795Y-19428129D02*
X2116319Y-19437652D01*
X2106795Y-19447176D01*
X2097271Y-19437652D01*
X2106795Y-19428129D01*
X2106795Y-19447176D01*
X2240129Y-19247176D02*
X2259176Y-19247176D01*
X2278224Y-19256700D01*
X2287748Y-19266224D01*
X2297271Y-19285271D01*
X2306795Y-19323367D01*
X2306795Y-19370986D01*
X2297271Y-19409081D01*
X2287748Y-19428129D01*
X2278224Y-19437652D01*
X2259176Y-19447176D01*
X2240129Y-19447176D01*
X2221081Y-19437652D01*
X2211557Y-19428129D01*
X2202033Y-19409081D01*
X2192510Y-19370986D01*
X2192510Y-19323367D01*
X2202033Y-19285271D01*
X2211557Y-19266224D01*
X2221081Y-19256700D01*
X2240129Y-19247176D01*
X2430605Y-19247176D02*
X2449652Y-19247176D01*
X2468700Y-19256700D01*
X2478224Y-19266224D01*
X2487748Y-19285271D01*
X2497271Y-19323367D01*
X2497271Y-19370986D01*
X2487748Y-19409081D01*
X2478224Y-19428129D01*
X2468700Y-19437652D01*
X2449652Y-19447176D01*
X2430605Y-19447176D01*
X2411557Y-19437652D01*
X2402033Y-19428129D01*
X2392510Y-19409081D01*
X2382986Y-19370986D01*
X2382986Y-19323367D01*
X2392510Y-19285271D01*
X2402033Y-19266224D01*
X2411557Y-19256700D01*
X2430605Y-19247176D01*
X2621081Y-19247176D02*
X2640129Y-19247176D01*
X2659176Y-19256700D01*
X2668700Y-19266224D01*
X2678224Y-19285271D01*
X2687748Y-19323367D01*
X2687748Y-19370986D01*
X2678224Y-19409081D01*
X2668700Y-19428129D01*
X2659176Y-19437652D01*
X2640129Y-19447176D01*
X2621081Y-19447176D01*
X2602033Y-19437652D01*
X2592510Y-19428129D01*
X2582986Y-19409081D01*
X2573462Y-19370986D01*
X2573462Y-19323367D01*
X2582986Y-19285271D01*
X2592510Y-19266224D01*
X2602033Y-19256700D01*
X2621081Y-19247176D01*
X2773462Y-19447176D02*
X2773462Y-19313843D01*
X2773462Y-19332890D02*
X2782986Y-19323367D01*
X2802033Y-19313843D01*
X2830605Y-19313843D01*
X2849652Y-19323367D01*
X2859176Y-19342414D01*
X2859176Y-19447176D01*
X2859176Y-19342414D02*
X2868700Y-19323367D01*
X2887748Y-19313843D01*
X2916319Y-19313843D01*
X2935367Y-19323367D01*
X2944890Y-19342414D01*
X2944890Y-19447176D01*
X3040128Y-19447176D02*
X3040128Y-19313843D01*
X3040128Y-19332890D02*
X3049652Y-19323367D01*
X3068700Y-19313843D01*
X3097271Y-19313843D01*
X3116319Y-19323367D01*
X3125843Y-19342414D01*
X3125843Y-19447176D01*
X3125843Y-19342414D02*
X3135367Y-19323367D01*
X3154414Y-19313843D01*
X3182986Y-19313843D01*
X3202033Y-19323367D01*
X3211557Y-19342414D01*
X3211557Y-19447176D01*
X3602033Y-19237652D02*
X3430605Y-19494795D01*
X3859176Y-19247176D02*
X3878224Y-19247176D01*
X3897271Y-19256700D01*
X3906795Y-19266224D01*
X3916319Y-19285271D01*
X3925843Y-19323367D01*
X3925843Y-19370986D01*
X3916319Y-19409081D01*
X3906795Y-19428129D01*
X3897271Y-19437652D01*
X3878224Y-19447176D01*
X3859176Y-19447176D01*
X3840128Y-19437652D01*
X3830605Y-19428129D01*
X3821081Y-19409081D01*
X3811557Y-19370986D01*
X3811557Y-19323367D01*
X3821081Y-19285271D01*
X3830605Y-19266224D01*
X3840128Y-19256700D01*
X3859176Y-19247176D01*
X4011557Y-19428129D02*
X4021081Y-19437652D01*
X4011557Y-19447176D01*
X4002033Y-19437652D01*
X4011557Y-19428129D01*
X4011557Y-19447176D01*
X4144890Y-19247176D02*
X4163938Y-19247176D01*
X4182986Y-19256700D01*
X4192509Y-19266224D01*
X4202033Y-19285271D01*
X4211557Y-19323367D01*
X4211557Y-19370986D01*
X4202033Y-19409081D01*
X4192509Y-19428129D01*
X4182986Y-19437652D01*
X4163938Y-19447176D01*
X4144890Y-19447176D01*
X4125843Y-19437652D01*
X4116319Y-19428129D01*
X4106795Y-19409081D01*
X4097271Y-19370986D01*
X4097271Y-19323367D01*
X4106795Y-19285271D01*
X4116319Y-19266224D01*
X4125843Y-19256700D01*
X4144890Y-19247176D01*
X4278224Y-19247176D02*
X4402033Y-19247176D01*
X4335367Y-19323367D01*
X4363938Y-19323367D01*
X4382986Y-19332890D01*
X4392510Y-19342414D01*
X4402033Y-19361462D01*
X4402033Y-19409081D01*
X4392510Y-19428129D01*
X4382986Y-19437652D01*
X4363938Y-19447176D01*
X4306795Y-19447176D01*
X4287748Y-19437652D01*
X4278224Y-19428129D01*
X4497271Y-19447176D02*
X4535367Y-19447176D01*
X4554414Y-19437652D01*
X4563938Y-19428129D01*
X4582986Y-19399557D01*
X4592510Y-19361462D01*
X4592510Y-19285271D01*
X4582986Y-19266224D01*
X4573462Y-19256700D01*
X4554414Y-19247176D01*
X4516319Y-19247176D01*
X4497271Y-19256700D01*
X4487748Y-19266224D01*
X4478224Y-19285271D01*
X4478224Y-19332890D01*
X4487748Y-19351938D01*
X4497271Y-19361462D01*
X4516319Y-19370986D01*
X4554414Y-19370986D01*
X4573462Y-19361462D01*
X4582986Y-19351938D01*
X4592510Y-19332890D01*
X4763938Y-19313843D02*
X4763938Y-19447176D01*
X4716319Y-19237652D02*
X4668700Y-19380510D01*
X4792510Y-19380510D01*
X4859176Y-19247176D02*
X4859176Y-19285271D01*
X4935367Y-19247176D02*
X4935367Y-19285271D01*
X5230605Y-19523367D02*
X5221081Y-19513843D01*
X5202033Y-19485271D01*
X5192510Y-19466224D01*
X5182986Y-19437652D01*
X5173462Y-19390033D01*
X5173462Y-19351938D01*
X5182986Y-19304319D01*
X5192510Y-19275748D01*
X5202033Y-19256700D01*
X5221081Y-19228129D01*
X5230605Y-19218605D01*
X5297271Y-19266224D02*
X5306795Y-19256700D01*
X5325843Y-19247176D01*
X5373462Y-19247176D01*
X5392510Y-19256700D01*
X5402033Y-19266224D01*
X5411557Y-19285271D01*
X5411557Y-19304319D01*
X5402033Y-19332890D01*
X5287748Y-19447176D01*
X5411557Y-19447176D01*
X5649652Y-19447176D02*
X5649652Y-19247176D01*
X5735367Y-19447176D02*
X5735367Y-19342414D01*
X5725843Y-19323367D01*
X5706795Y-19313843D01*
X5678224Y-19313843D01*
X5659176Y-19323367D01*
X5649652Y-19332890D01*
X5859176Y-19447176D02*
X5840128Y-19437652D01*
X5830605Y-19428129D01*
X5821081Y-19409081D01*
X5821081Y-19351938D01*
X5830605Y-19332890D01*
X5840128Y-19323367D01*
X5859176Y-19313843D01*
X5887748Y-19313843D01*
X5906795Y-19323367D01*
X5916319Y-19332890D01*
X5925843Y-19351938D01*
X5925843Y-19409081D01*
X5916319Y-19428129D01*
X5906795Y-19437652D01*
X5887748Y-19447176D01*
X5859176Y-19447176D01*
X6040128Y-19447176D02*
X6021081Y-19437652D01*
X6011557Y-19418605D01*
X6011557Y-19247176D01*
X6192509Y-19437652D02*
X6173462Y-19447176D01*
X6135367Y-19447176D01*
X6116319Y-19437652D01*
X6106795Y-19418605D01*
X6106795Y-19342414D01*
X6116319Y-19323367D01*
X6135367Y-19313843D01*
X6173462Y-19313843D01*
X6192509Y-19323367D01*
X6202033Y-19342414D01*
X6202033Y-19361462D01*
X6106795Y-19380510D01*
X6278224Y-19437652D02*
X6297271Y-19447176D01*
X6335367Y-19447176D01*
X6354414Y-19437652D01*
X6363938Y-19418605D01*
X6363938Y-19409081D01*
X6354414Y-19390033D01*
X6335367Y-19380510D01*
X6306795Y-19380510D01*
X6287748Y-19370986D01*
X6278224Y-19351938D01*
X6278224Y-19342414D01*
X6287748Y-19323367D01*
X6306795Y-19313843D01*
X6335367Y-19313843D01*
X6354414Y-19323367D01*
X6430605Y-19523367D02*
X6440128Y-19513843D01*
X6459176Y-19485271D01*
X6468700Y-19466224D01*
X6478224Y-19437652D01*
X6487748Y-19390033D01*
X6487748Y-19351938D01*
X6478224Y-19304319D01*
X6468700Y-19275748D01*
X6459176Y-19256700D01*
X6440128Y-19228129D01*
X6430605Y-19218605D01*
M02*
