%TF.GenerationSoftware,KiCad,Pcbnew,6.0.9-8da3e8f707~117~ubuntu20.04.1*%
%TF.CreationDate,2023-01-11T13:14:19-05:00*%
%TF.ProjectId,coco9511pak,636f636f-3935-4313-9170-616b2e6b6963,rev?*%
%TF.SameCoordinates,Original*%
%TF.FileFunction,Legend,Bot*%
%TF.FilePolarity,Positive*%
%FSLAX46Y46*%
G04 Gerber Fmt 4.6, Leading zero omitted, Abs format (unit mm)*
G04 Created by KiCad (PCBNEW 6.0.9-8da3e8f707~117~ubuntu20.04.1) date 2023-01-11 13:14:19*
%MOMM*%
%LPD*%
G01*
G04 APERTURE LIST*
%ADD10C,0.010000*%
G04 APERTURE END LIST*
%TO.C,REF\u002A\u002A*%
G36*
X25724184Y-170253526D02*
G01*
X21045237Y-170253526D01*
X21045237Y-169100500D01*
X25724184Y-169100500D01*
X25724184Y-170253526D01*
G37*
D10*
X25724184Y-170253526D02*
X21045237Y-170253526D01*
X21045237Y-169100500D01*
X25724184Y-169100500D01*
X25724184Y-170253526D01*
G36*
X24712445Y-163267083D02*
G01*
X24765141Y-163268526D01*
X24855237Y-163268526D01*
X24855237Y-163418921D01*
X24643228Y-163418921D01*
X24623433Y-163655183D01*
X24620775Y-163687483D01*
X24614583Y-163768340D01*
X24610208Y-163834135D01*
X24608030Y-163878791D01*
X24608426Y-163896233D01*
X24614185Y-163891219D01*
X24640462Y-163865083D01*
X24685888Y-163818758D01*
X24748166Y-163754647D01*
X24824997Y-163675150D01*
X24914080Y-163582669D01*
X25013119Y-163479606D01*
X25119814Y-163368362D01*
X25231865Y-163251338D01*
X25346975Y-163130936D01*
X25462844Y-163009558D01*
X25577174Y-162889604D01*
X25687666Y-162773476D01*
X25792021Y-162663575D01*
X25887940Y-162562304D01*
X25973124Y-162472063D01*
X26045275Y-162395253D01*
X26174194Y-162257539D01*
X26174781Y-162374852D01*
X26175368Y-162492164D01*
X25377286Y-163331485D01*
X24579204Y-164170807D01*
X24563250Y-164362106D01*
X24499419Y-165127528D01*
X24488138Y-165263287D01*
X24474140Y-165433154D01*
X24461220Y-165591505D01*
X24449627Y-165735228D01*
X24439607Y-165861210D01*
X24431407Y-165966338D01*
X24425274Y-166047501D01*
X24421456Y-166101586D01*
X24420199Y-166125480D01*
X24423517Y-166136429D01*
X24438429Y-166160071D01*
X24466709Y-166195703D01*
X24480358Y-166211277D01*
X24509864Y-166244948D01*
X24569399Y-166309428D01*
X24646820Y-166390768D01*
X24743632Y-166490591D01*
X24861342Y-166610520D01*
X25001454Y-166752179D01*
X25093628Y-166845136D01*
X25222119Y-166974795D01*
X25350159Y-167104079D01*
X25473900Y-167229097D01*
X25589492Y-167345959D01*
X25693085Y-167450774D01*
X25780831Y-167539652D01*
X25848881Y-167608702D01*
X26115617Y-167879757D01*
X26067169Y-167930326D01*
X26055743Y-167941719D01*
X26022035Y-167969697D01*
X25998910Y-167980895D01*
X25980805Y-167971335D01*
X25947145Y-167942649D01*
X25906792Y-167901520D01*
X25882230Y-167875542D01*
X25836423Y-167828104D01*
X25771683Y-167761566D01*
X25690295Y-167678263D01*
X25594545Y-167580528D01*
X25486721Y-167470695D01*
X25369108Y-167351096D01*
X25243992Y-167224066D01*
X25113659Y-167091938D01*
X24392831Y-166361732D01*
X24363469Y-166741017D01*
X24357068Y-166821972D01*
X24347721Y-166930793D01*
X24339290Y-167013217D01*
X24331151Y-167073575D01*
X24322679Y-167116200D01*
X24313250Y-167145424D01*
X24302237Y-167165580D01*
X24286825Y-167193750D01*
X24274143Y-167245539D01*
X24270368Y-167320152D01*
X24270368Y-167429447D01*
X23969579Y-167429447D01*
X23969579Y-167195500D01*
X22845832Y-167195500D01*
X22780875Y-167269295D01*
X22763110Y-167288511D01*
X22666831Y-167365712D01*
X22558049Y-167413239D01*
X22440262Y-167429447D01*
X22336327Y-167420854D01*
X22218770Y-167384628D01*
X22118134Y-167319882D01*
X22098520Y-167301378D01*
X22049503Y-167241475D01*
X22006497Y-167171693D01*
X21975658Y-167102909D01*
X21963141Y-167046002D01*
X21962899Y-167037741D01*
X21961099Y-167007471D01*
X21956392Y-166986563D01*
X21946544Y-166976669D01*
X21929323Y-166979444D01*
X21902494Y-166996540D01*
X21863824Y-167029610D01*
X21811080Y-167080307D01*
X21742028Y-167150285D01*
X21654434Y-167241197D01*
X21546065Y-167354695D01*
X21488342Y-167415280D01*
X21391855Y-167516718D01*
X21300568Y-167612889D01*
X21218059Y-167700013D01*
X21147906Y-167774311D01*
X21093685Y-167832003D01*
X21058974Y-167869310D01*
X20964092Y-167972539D01*
X20905449Y-167914052D01*
X20846805Y-167855566D01*
X21572179Y-167095237D01*
X21617916Y-167047263D01*
X21780633Y-166875940D01*
X21920313Y-166727738D01*
X22037373Y-166602198D01*
X22132233Y-166498861D01*
X22199309Y-166423967D01*
X22473947Y-166423967D01*
X22476106Y-166441589D01*
X22476483Y-166443430D01*
X22494480Y-166485171D01*
X22530428Y-166504620D01*
X22641237Y-166546083D01*
X22739963Y-166615156D01*
X22817611Y-166706524D01*
X22870828Y-166816195D01*
X22896258Y-166940173D01*
X22904681Y-167045105D01*
X24166482Y-167045105D01*
X24175280Y-167007506D01*
X24176836Y-166998279D01*
X24181672Y-166957018D01*
X24188271Y-166890304D01*
X24196142Y-166803453D01*
X24204797Y-166701777D01*
X24213743Y-166590592D01*
X24243409Y-166211277D01*
X23843532Y-165805198D01*
X23770187Y-165730961D01*
X23680447Y-165640837D01*
X23599940Y-165560775D01*
X23531488Y-165493542D01*
X23477917Y-165441910D01*
X23442052Y-165408646D01*
X23426715Y-165396521D01*
X23416431Y-165402314D01*
X23385801Y-165428675D01*
X23339705Y-165472709D01*
X23282265Y-165530444D01*
X23217605Y-165597911D01*
X23200738Y-165615804D01*
X23125107Y-165695839D01*
X23034984Y-165790977D01*
X22937155Y-165894067D01*
X22838405Y-165997956D01*
X22745520Y-166095493D01*
X22739940Y-166101346D01*
X22653584Y-166192214D01*
X22587690Y-166262577D01*
X22539651Y-166315783D01*
X22506863Y-166355177D01*
X22486720Y-166384108D01*
X22476616Y-166405922D01*
X22473947Y-166423967D01*
X22199309Y-166423967D01*
X22205311Y-166417266D01*
X22257026Y-166356955D01*
X22287796Y-166317466D01*
X22298040Y-166298342D01*
X22298041Y-166298229D01*
X22296636Y-166274394D01*
X22292531Y-166220967D01*
X22286048Y-166141584D01*
X22277508Y-166039880D01*
X22267233Y-165919493D01*
X22255544Y-165784057D01*
X22242763Y-165637211D01*
X22229212Y-165482590D01*
X22215212Y-165323830D01*
X22201085Y-165164568D01*
X22187153Y-165008441D01*
X22173736Y-164859083D01*
X22161157Y-164720133D01*
X22149738Y-164595226D01*
X22139799Y-164487998D01*
X22131662Y-164402087D01*
X22125650Y-164341127D01*
X22122083Y-164308756D01*
X22114891Y-164254538D01*
X22286573Y-164254538D01*
X22288772Y-164295630D01*
X22293611Y-164364735D01*
X22300848Y-164458870D01*
X22310241Y-164575053D01*
X22321547Y-164710299D01*
X22334523Y-164861627D01*
X22348929Y-165026054D01*
X22364521Y-165200597D01*
X22376710Y-165335206D01*
X22391976Y-165502145D01*
X22406269Y-165656618D01*
X22419305Y-165795649D01*
X22430800Y-165916264D01*
X22440470Y-166015489D01*
X22448030Y-166090348D01*
X22453197Y-166137867D01*
X22455686Y-166155072D01*
X22463236Y-166149742D01*
X22490922Y-166123578D01*
X22535909Y-166078637D01*
X22595100Y-166018191D01*
X22665399Y-165945509D01*
X22743708Y-165863864D01*
X22826930Y-165776526D01*
X22911969Y-165686767D01*
X22995727Y-165597858D01*
X23075107Y-165513070D01*
X23147013Y-165435673D01*
X23208347Y-165368941D01*
X23256013Y-165316142D01*
X23286913Y-165280550D01*
X23295941Y-165268186D01*
X23537574Y-165268186D01*
X23903971Y-165634299D01*
X23993569Y-165723679D01*
X24078013Y-165807320D01*
X24143427Y-165871027D01*
X24192208Y-165916868D01*
X24226753Y-165946909D01*
X24249459Y-165963218D01*
X24262722Y-165967862D01*
X24268940Y-165962908D01*
X24270509Y-165950423D01*
X24271515Y-165930363D01*
X24275140Y-165878712D01*
X24281130Y-165800320D01*
X24289198Y-165698759D01*
X24299055Y-165577602D01*
X24310413Y-165440421D01*
X24322984Y-165290787D01*
X24336480Y-165132271D01*
X24348395Y-164992563D01*
X24360811Y-164845414D01*
X24371943Y-164711805D01*
X24381526Y-164595028D01*
X24389290Y-164498378D01*
X24394969Y-164425145D01*
X24398297Y-164378624D01*
X24399004Y-164362106D01*
X24398444Y-164362416D01*
X24382663Y-164377623D01*
X24347606Y-164413303D01*
X24296363Y-164466220D01*
X24232019Y-164533139D01*
X24157664Y-164610823D01*
X24076385Y-164696036D01*
X23991270Y-164785541D01*
X23905406Y-164876102D01*
X23821881Y-164964483D01*
X23743784Y-165047448D01*
X23674202Y-165121760D01*
X23540141Y-165265434D01*
X23537574Y-165268186D01*
X23295941Y-165268186D01*
X23297951Y-165265434D01*
X23287131Y-165250785D01*
X23255674Y-165215722D01*
X23206503Y-165163265D01*
X23142544Y-165096372D01*
X23066723Y-165017999D01*
X22981967Y-164931103D01*
X22891202Y-164838641D01*
X22797356Y-164743569D01*
X22703354Y-164648845D01*
X22612124Y-164557424D01*
X22526591Y-164472265D01*
X22449683Y-164396323D01*
X22384326Y-164332556D01*
X22333446Y-164283920D01*
X22299970Y-164253372D01*
X22286824Y-164243868D01*
X22286573Y-164254538D01*
X22114891Y-164254538D01*
X22112663Y-164237737D01*
X21747079Y-164237737D01*
X21746870Y-164104052D01*
X21880763Y-164104052D01*
X21989382Y-164104052D01*
X21999045Y-164104044D01*
X22053604Y-164102880D01*
X22083276Y-164097902D01*
X22095571Y-164086477D01*
X22098000Y-164065971D01*
X22087301Y-164035829D01*
X22050654Y-163985687D01*
X21989382Y-163920237D01*
X21880763Y-163812584D01*
X21880763Y-164104052D01*
X21746870Y-164104052D01*
X21746641Y-163957835D01*
X21746204Y-163677934D01*
X21145885Y-163068000D01*
X20545567Y-162458066D01*
X20544744Y-162342337D01*
X20543921Y-162226610D01*
X21263969Y-162956449D01*
X21333564Y-163026944D01*
X21477975Y-163172828D01*
X21601442Y-163296875D01*
X21705560Y-163400611D01*
X21791925Y-163485562D01*
X21862132Y-163553256D01*
X21917776Y-163605219D01*
X21960452Y-163642977D01*
X21991756Y-163668057D01*
X22013282Y-163681986D01*
X22026625Y-163686289D01*
X22049125Y-163684986D01*
X22061756Y-163675468D01*
X22063934Y-163649427D01*
X22058697Y-163598559D01*
X22055086Y-163566533D01*
X22050061Y-163513002D01*
X22048037Y-163477408D01*
X22047045Y-163465138D01*
X22037386Y-163451996D01*
X22010703Y-163447641D01*
X21958902Y-163449542D01*
X21945676Y-163450287D01*
X21892733Y-163449447D01*
X21855073Y-163437813D01*
X21828529Y-163418921D01*
X22204974Y-163418921D01*
X22210504Y-163481585D01*
X22213058Y-163510017D01*
X22221018Y-163587642D01*
X22228861Y-163638769D01*
X22238031Y-163668711D01*
X22249973Y-163682780D01*
X22266129Y-163686289D01*
X22280656Y-163688679D01*
X22290289Y-163700098D01*
X22295672Y-163726645D01*
X22298015Y-163774414D01*
X22298526Y-163849502D01*
X22298526Y-164012715D01*
X22351948Y-164065971D01*
X22482342Y-164195960D01*
X22666158Y-164379206D01*
X22666158Y-164237737D01*
X23668790Y-164237737D01*
X23668790Y-164555237D01*
X22846827Y-164555237D01*
X23125589Y-164843493D01*
X23178984Y-164898548D01*
X23252817Y-164974120D01*
X23316929Y-165039082D01*
X23367961Y-165090060D01*
X23402557Y-165123681D01*
X23417357Y-165136574D01*
X23422983Y-165133018D01*
X23449363Y-165109118D01*
X23494849Y-165064862D01*
X23557012Y-165002708D01*
X23633422Y-164925115D01*
X23721649Y-164834540D01*
X23819262Y-164733441D01*
X23923833Y-164624275D01*
X24028940Y-164513964D01*
X24131974Y-164405246D01*
X24215530Y-164316136D01*
X24281654Y-164244271D01*
X24332387Y-164187289D01*
X24369775Y-164142828D01*
X24395860Y-164108525D01*
X24412687Y-164082017D01*
X24422298Y-164060942D01*
X24426739Y-164042939D01*
X24427916Y-164034169D01*
X24433136Y-163985847D01*
X24439742Y-163914707D01*
X24447008Y-163828861D01*
X24454207Y-163736421D01*
X24456648Y-163704225D01*
X24463701Y-163617236D01*
X24470425Y-163542203D01*
X24476160Y-163486255D01*
X24480240Y-163456520D01*
X24488242Y-163418921D01*
X22204974Y-163418921D01*
X21828529Y-163418921D01*
X21817956Y-163411396D01*
X21811563Y-163405835D01*
X21759285Y-163338487D01*
X21738581Y-163268526D01*
X22191481Y-163268526D01*
X24071306Y-163268526D01*
X24353921Y-163268526D01*
X24429706Y-163268526D01*
X24452412Y-163268366D01*
X24486054Y-163265442D01*
X24495766Y-163255970D01*
X24488227Y-163236267D01*
X24485999Y-163232511D01*
X24460990Y-163203623D01*
X24424757Y-163171563D01*
X24388613Y-163145560D01*
X24363874Y-163134842D01*
X24361650Y-163136536D01*
X24356131Y-163159810D01*
X24353921Y-163201684D01*
X24353921Y-163268526D01*
X24071306Y-163268526D01*
X24066397Y-163148007D01*
X24061487Y-163027488D01*
X23961224Y-163007348D01*
X23910943Y-162998214D01*
X23826975Y-162985425D01*
X23748165Y-162975776D01*
X23635368Y-162964345D01*
X23635368Y-163101421D01*
X22866684Y-163101421D01*
X22866684Y-162980596D01*
X22770599Y-162992065D01*
X22623787Y-163016646D01*
X22476032Y-163061089D01*
X22353814Y-163123062D01*
X22255062Y-163203413D01*
X22191481Y-163268526D01*
X21738581Y-163268526D01*
X21736281Y-163260754D01*
X21743328Y-163179211D01*
X21781203Y-163100434D01*
X21784868Y-163095529D01*
X21835486Y-163053327D01*
X21901474Y-163028365D01*
X21972607Y-163021725D01*
X22038664Y-163034492D01*
X22089419Y-163067750D01*
X22106604Y-163084729D01*
X22123345Y-163088844D01*
X22147318Y-163076115D01*
X22187799Y-163044332D01*
X22200219Y-163034564D01*
X22296111Y-162972911D01*
X22409715Y-162918084D01*
X22502630Y-162884184D01*
X23000368Y-162884184D01*
X23000368Y-162967737D01*
X23501684Y-162967737D01*
X23501684Y-162884184D01*
X23000368Y-162884184D01*
X22502630Y-162884184D01*
X22530453Y-162874033D01*
X22647746Y-162844706D01*
X22751017Y-162834052D01*
X22761988Y-162833968D01*
X22822970Y-162828031D01*
X22856460Y-162811385D01*
X22866684Y-162782133D01*
X22867885Y-162772917D01*
X22874449Y-162764991D01*
X22890391Y-162759189D01*
X22919719Y-162755181D01*
X22966440Y-162752639D01*
X23034559Y-162751230D01*
X23128086Y-162750628D01*
X23251026Y-162750500D01*
X23366219Y-162750725D01*
X23464126Y-162751635D01*
X23535800Y-162753469D01*
X23585001Y-162756466D01*
X23615490Y-162760863D01*
X23631025Y-162766898D01*
X23635368Y-162774808D01*
X23649653Y-162794232D01*
X23689678Y-162806627D01*
X23704997Y-162808796D01*
X23757230Y-162816430D01*
X23826737Y-162826778D01*
X23902737Y-162838240D01*
X23944651Y-162844075D01*
X24005992Y-162850394D01*
X24049273Y-162851918D01*
X24067057Y-162848197D01*
X24070094Y-162845773D01*
X24098130Y-162839785D01*
X24148564Y-162835617D01*
X24213274Y-162834052D01*
X24353921Y-162834052D01*
X24353937Y-162884184D01*
X24353938Y-162888362D01*
X24354595Y-162905572D01*
X24363141Y-162934467D01*
X24387466Y-162958972D01*
X24434918Y-162988143D01*
X24476573Y-163014793D01*
X24539989Y-163065960D01*
X24597460Y-163123400D01*
X24641422Y-163179279D01*
X24664311Y-163225762D01*
X24669919Y-163243674D01*
X24680309Y-163255970D01*
X24683812Y-163260116D01*
X24712445Y-163267083D01*
G37*
X24712445Y-163267083D02*
X24765141Y-163268526D01*
X24855237Y-163268526D01*
X24855237Y-163418921D01*
X24643228Y-163418921D01*
X24623433Y-163655183D01*
X24620775Y-163687483D01*
X24614583Y-163768340D01*
X24610208Y-163834135D01*
X24608030Y-163878791D01*
X24608426Y-163896233D01*
X24614185Y-163891219D01*
X24640462Y-163865083D01*
X24685888Y-163818758D01*
X24748166Y-163754647D01*
X24824997Y-163675150D01*
X24914080Y-163582669D01*
X25013119Y-163479606D01*
X25119814Y-163368362D01*
X25231865Y-163251338D01*
X25346975Y-163130936D01*
X25462844Y-163009558D01*
X25577174Y-162889604D01*
X25687666Y-162773476D01*
X25792021Y-162663575D01*
X25887940Y-162562304D01*
X25973124Y-162472063D01*
X26045275Y-162395253D01*
X26174194Y-162257539D01*
X26174781Y-162374852D01*
X26175368Y-162492164D01*
X25377286Y-163331485D01*
X24579204Y-164170807D01*
X24563250Y-164362106D01*
X24499419Y-165127528D01*
X24488138Y-165263287D01*
X24474140Y-165433154D01*
X24461220Y-165591505D01*
X24449627Y-165735228D01*
X24439607Y-165861210D01*
X24431407Y-165966338D01*
X24425274Y-166047501D01*
X24421456Y-166101586D01*
X24420199Y-166125480D01*
X24423517Y-166136429D01*
X24438429Y-166160071D01*
X24466709Y-166195703D01*
X24480358Y-166211277D01*
X24509864Y-166244948D01*
X24569399Y-166309428D01*
X24646820Y-166390768D01*
X24743632Y-166490591D01*
X24861342Y-166610520D01*
X25001454Y-166752179D01*
X25093628Y-166845136D01*
X25222119Y-166974795D01*
X25350159Y-167104079D01*
X25473900Y-167229097D01*
X25589492Y-167345959D01*
X25693085Y-167450774D01*
X25780831Y-167539652D01*
X25848881Y-167608702D01*
X26115617Y-167879757D01*
X26067169Y-167930326D01*
X26055743Y-167941719D01*
X26022035Y-167969697D01*
X25998910Y-167980895D01*
X25980805Y-167971335D01*
X25947145Y-167942649D01*
X25906792Y-167901520D01*
X25882230Y-167875542D01*
X25836423Y-167828104D01*
X25771683Y-167761566D01*
X25690295Y-167678263D01*
X25594545Y-167580528D01*
X25486721Y-167470695D01*
X25369108Y-167351096D01*
X25243992Y-167224066D01*
X25113659Y-167091938D01*
X24392831Y-166361732D01*
X24363469Y-166741017D01*
X24357068Y-166821972D01*
X24347721Y-166930793D01*
X24339290Y-167013217D01*
X24331151Y-167073575D01*
X24322679Y-167116200D01*
X24313250Y-167145424D01*
X24302237Y-167165580D01*
X24286825Y-167193750D01*
X24274143Y-167245539D01*
X24270368Y-167320152D01*
X24270368Y-167429447D01*
X23969579Y-167429447D01*
X23969579Y-167195500D01*
X22845832Y-167195500D01*
X22780875Y-167269295D01*
X22763110Y-167288511D01*
X22666831Y-167365712D01*
X22558049Y-167413239D01*
X22440262Y-167429447D01*
X22336327Y-167420854D01*
X22218770Y-167384628D01*
X22118134Y-167319882D01*
X22098520Y-167301378D01*
X22049503Y-167241475D01*
X22006497Y-167171693D01*
X21975658Y-167102909D01*
X21963141Y-167046002D01*
X21962899Y-167037741D01*
X21961099Y-167007471D01*
X21956392Y-166986563D01*
X21946544Y-166976669D01*
X21929323Y-166979444D01*
X21902494Y-166996540D01*
X21863824Y-167029610D01*
X21811080Y-167080307D01*
X21742028Y-167150285D01*
X21654434Y-167241197D01*
X21546065Y-167354695D01*
X21488342Y-167415280D01*
X21391855Y-167516718D01*
X21300568Y-167612889D01*
X21218059Y-167700013D01*
X21147906Y-167774311D01*
X21093685Y-167832003D01*
X21058974Y-167869310D01*
X20964092Y-167972539D01*
X20905449Y-167914052D01*
X20846805Y-167855566D01*
X21572179Y-167095237D01*
X21617916Y-167047263D01*
X21780633Y-166875940D01*
X21920313Y-166727738D01*
X22037373Y-166602198D01*
X22132233Y-166498861D01*
X22199309Y-166423967D01*
X22473947Y-166423967D01*
X22476106Y-166441589D01*
X22476483Y-166443430D01*
X22494480Y-166485171D01*
X22530428Y-166504620D01*
X22641237Y-166546083D01*
X22739963Y-166615156D01*
X22817611Y-166706524D01*
X22870828Y-166816195D01*
X22896258Y-166940173D01*
X22904681Y-167045105D01*
X24166482Y-167045105D01*
X24175280Y-167007506D01*
X24176836Y-166998279D01*
X24181672Y-166957018D01*
X24188271Y-166890304D01*
X24196142Y-166803453D01*
X24204797Y-166701777D01*
X24213743Y-166590592D01*
X24243409Y-166211277D01*
X23843532Y-165805198D01*
X23770187Y-165730961D01*
X23680447Y-165640837D01*
X23599940Y-165560775D01*
X23531488Y-165493542D01*
X23477917Y-165441910D01*
X23442052Y-165408646D01*
X23426715Y-165396521D01*
X23416431Y-165402314D01*
X23385801Y-165428675D01*
X23339705Y-165472709D01*
X23282265Y-165530444D01*
X23217605Y-165597911D01*
X23200738Y-165615804D01*
X23125107Y-165695839D01*
X23034984Y-165790977D01*
X22937155Y-165894067D01*
X22838405Y-165997956D01*
X22745520Y-166095493D01*
X22739940Y-166101346D01*
X22653584Y-166192214D01*
X22587690Y-166262577D01*
X22539651Y-166315783D01*
X22506863Y-166355177D01*
X22486720Y-166384108D01*
X22476616Y-166405922D01*
X22473947Y-166423967D01*
X22199309Y-166423967D01*
X22205311Y-166417266D01*
X22257026Y-166356955D01*
X22287796Y-166317466D01*
X22298040Y-166298342D01*
X22298041Y-166298229D01*
X22296636Y-166274394D01*
X22292531Y-166220967D01*
X22286048Y-166141584D01*
X22277508Y-166039880D01*
X22267233Y-165919493D01*
X22255544Y-165784057D01*
X22242763Y-165637211D01*
X22229212Y-165482590D01*
X22215212Y-165323830D01*
X22201085Y-165164568D01*
X22187153Y-165008441D01*
X22173736Y-164859083D01*
X22161157Y-164720133D01*
X22149738Y-164595226D01*
X22139799Y-164487998D01*
X22131662Y-164402087D01*
X22125650Y-164341127D01*
X22122083Y-164308756D01*
X22114891Y-164254538D01*
X22286573Y-164254538D01*
X22288772Y-164295630D01*
X22293611Y-164364735D01*
X22300848Y-164458870D01*
X22310241Y-164575053D01*
X22321547Y-164710299D01*
X22334523Y-164861627D01*
X22348929Y-165026054D01*
X22364521Y-165200597D01*
X22376710Y-165335206D01*
X22391976Y-165502145D01*
X22406269Y-165656618D01*
X22419305Y-165795649D01*
X22430800Y-165916264D01*
X22440470Y-166015489D01*
X22448030Y-166090348D01*
X22453197Y-166137867D01*
X22455686Y-166155072D01*
X22463236Y-166149742D01*
X22490922Y-166123578D01*
X22535909Y-166078637D01*
X22595100Y-166018191D01*
X22665399Y-165945509D01*
X22743708Y-165863864D01*
X22826930Y-165776526D01*
X22911969Y-165686767D01*
X22995727Y-165597858D01*
X23075107Y-165513070D01*
X23147013Y-165435673D01*
X23208347Y-165368941D01*
X23256013Y-165316142D01*
X23286913Y-165280550D01*
X23295941Y-165268186D01*
X23537574Y-165268186D01*
X23903971Y-165634299D01*
X23993569Y-165723679D01*
X24078013Y-165807320D01*
X24143427Y-165871027D01*
X24192208Y-165916868D01*
X24226753Y-165946909D01*
X24249459Y-165963218D01*
X24262722Y-165967862D01*
X24268940Y-165962908D01*
X24270509Y-165950423D01*
X24271515Y-165930363D01*
X24275140Y-165878712D01*
X24281130Y-165800320D01*
X24289198Y-165698759D01*
X24299055Y-165577602D01*
X24310413Y-165440421D01*
X24322984Y-165290787D01*
X24336480Y-165132271D01*
X24348395Y-164992563D01*
X24360811Y-164845414D01*
X24371943Y-164711805D01*
X24381526Y-164595028D01*
X24389290Y-164498378D01*
X24394969Y-164425145D01*
X24398297Y-164378624D01*
X24399004Y-164362106D01*
X24398444Y-164362416D01*
X24382663Y-164377623D01*
X24347606Y-164413303D01*
X24296363Y-164466220D01*
X24232019Y-164533139D01*
X24157664Y-164610823D01*
X24076385Y-164696036D01*
X23991270Y-164785541D01*
X23905406Y-164876102D01*
X23821881Y-164964483D01*
X23743784Y-165047448D01*
X23674202Y-165121760D01*
X23540141Y-165265434D01*
X23537574Y-165268186D01*
X23295941Y-165268186D01*
X23297951Y-165265434D01*
X23287131Y-165250785D01*
X23255674Y-165215722D01*
X23206503Y-165163265D01*
X23142544Y-165096372D01*
X23066723Y-165017999D01*
X22981967Y-164931103D01*
X22891202Y-164838641D01*
X22797356Y-164743569D01*
X22703354Y-164648845D01*
X22612124Y-164557424D01*
X22526591Y-164472265D01*
X22449683Y-164396323D01*
X22384326Y-164332556D01*
X22333446Y-164283920D01*
X22299970Y-164253372D01*
X22286824Y-164243868D01*
X22286573Y-164254538D01*
X22114891Y-164254538D01*
X22112663Y-164237737D01*
X21747079Y-164237737D01*
X21746870Y-164104052D01*
X21880763Y-164104052D01*
X21989382Y-164104052D01*
X21999045Y-164104044D01*
X22053604Y-164102880D01*
X22083276Y-164097902D01*
X22095571Y-164086477D01*
X22098000Y-164065971D01*
X22087301Y-164035829D01*
X22050654Y-163985687D01*
X21989382Y-163920237D01*
X21880763Y-163812584D01*
X21880763Y-164104052D01*
X21746870Y-164104052D01*
X21746641Y-163957835D01*
X21746204Y-163677934D01*
X21145885Y-163068000D01*
X20545567Y-162458066D01*
X20544744Y-162342337D01*
X20543921Y-162226610D01*
X21263969Y-162956449D01*
X21333564Y-163026944D01*
X21477975Y-163172828D01*
X21601442Y-163296875D01*
X21705560Y-163400611D01*
X21791925Y-163485562D01*
X21862132Y-163553256D01*
X21917776Y-163605219D01*
X21960452Y-163642977D01*
X21991756Y-163668057D01*
X22013282Y-163681986D01*
X22026625Y-163686289D01*
X22049125Y-163684986D01*
X22061756Y-163675468D01*
X22063934Y-163649427D01*
X22058697Y-163598559D01*
X22055086Y-163566533D01*
X22050061Y-163513002D01*
X22048037Y-163477408D01*
X22047045Y-163465138D01*
X22037386Y-163451996D01*
X22010703Y-163447641D01*
X21958902Y-163449542D01*
X21945676Y-163450287D01*
X21892733Y-163449447D01*
X21855073Y-163437813D01*
X21828529Y-163418921D01*
X22204974Y-163418921D01*
X22210504Y-163481585D01*
X22213058Y-163510017D01*
X22221018Y-163587642D01*
X22228861Y-163638769D01*
X22238031Y-163668711D01*
X22249973Y-163682780D01*
X22266129Y-163686289D01*
X22280656Y-163688679D01*
X22290289Y-163700098D01*
X22295672Y-163726645D01*
X22298015Y-163774414D01*
X22298526Y-163849502D01*
X22298526Y-164012715D01*
X22351948Y-164065971D01*
X22482342Y-164195960D01*
X22666158Y-164379206D01*
X22666158Y-164237737D01*
X23668790Y-164237737D01*
X23668790Y-164555237D01*
X22846827Y-164555237D01*
X23125589Y-164843493D01*
X23178984Y-164898548D01*
X23252817Y-164974120D01*
X23316929Y-165039082D01*
X23367961Y-165090060D01*
X23402557Y-165123681D01*
X23417357Y-165136574D01*
X23422983Y-165133018D01*
X23449363Y-165109118D01*
X23494849Y-165064862D01*
X23557012Y-165002708D01*
X23633422Y-164925115D01*
X23721649Y-164834540D01*
X23819262Y-164733441D01*
X23923833Y-164624275D01*
X24028940Y-164513964D01*
X24131974Y-164405246D01*
X24215530Y-164316136D01*
X24281654Y-164244271D01*
X24332387Y-164187289D01*
X24369775Y-164142828D01*
X24395860Y-164108525D01*
X24412687Y-164082017D01*
X24422298Y-164060942D01*
X24426739Y-164042939D01*
X24427916Y-164034169D01*
X24433136Y-163985847D01*
X24439742Y-163914707D01*
X24447008Y-163828861D01*
X24454207Y-163736421D01*
X24456648Y-163704225D01*
X24463701Y-163617236D01*
X24470425Y-163542203D01*
X24476160Y-163486255D01*
X24480240Y-163456520D01*
X24488242Y-163418921D01*
X22204974Y-163418921D01*
X21828529Y-163418921D01*
X21817956Y-163411396D01*
X21811563Y-163405835D01*
X21759285Y-163338487D01*
X21738581Y-163268526D01*
X22191481Y-163268526D01*
X24071306Y-163268526D01*
X24353921Y-163268526D01*
X24429706Y-163268526D01*
X24452412Y-163268366D01*
X24486054Y-163265442D01*
X24495766Y-163255970D01*
X24488227Y-163236267D01*
X24485999Y-163232511D01*
X24460990Y-163203623D01*
X24424757Y-163171563D01*
X24388613Y-163145560D01*
X24363874Y-163134842D01*
X24361650Y-163136536D01*
X24356131Y-163159810D01*
X24353921Y-163201684D01*
X24353921Y-163268526D01*
X24071306Y-163268526D01*
X24066397Y-163148007D01*
X24061487Y-163027488D01*
X23961224Y-163007348D01*
X23910943Y-162998214D01*
X23826975Y-162985425D01*
X23748165Y-162975776D01*
X23635368Y-162964345D01*
X23635368Y-163101421D01*
X22866684Y-163101421D01*
X22866684Y-162980596D01*
X22770599Y-162992065D01*
X22623787Y-163016646D01*
X22476032Y-163061089D01*
X22353814Y-163123062D01*
X22255062Y-163203413D01*
X22191481Y-163268526D01*
X21738581Y-163268526D01*
X21736281Y-163260754D01*
X21743328Y-163179211D01*
X21781203Y-163100434D01*
X21784868Y-163095529D01*
X21835486Y-163053327D01*
X21901474Y-163028365D01*
X21972607Y-163021725D01*
X22038664Y-163034492D01*
X22089419Y-163067750D01*
X22106604Y-163084729D01*
X22123345Y-163088844D01*
X22147318Y-163076115D01*
X22187799Y-163044332D01*
X22200219Y-163034564D01*
X22296111Y-162972911D01*
X22409715Y-162918084D01*
X22502630Y-162884184D01*
X23000368Y-162884184D01*
X23000368Y-162967737D01*
X23501684Y-162967737D01*
X23501684Y-162884184D01*
X23000368Y-162884184D01*
X22502630Y-162884184D01*
X22530453Y-162874033D01*
X22647746Y-162844706D01*
X22751017Y-162834052D01*
X22761988Y-162833968D01*
X22822970Y-162828031D01*
X22856460Y-162811385D01*
X22866684Y-162782133D01*
X22867885Y-162772917D01*
X22874449Y-162764991D01*
X22890391Y-162759189D01*
X22919719Y-162755181D01*
X22966440Y-162752639D01*
X23034559Y-162751230D01*
X23128086Y-162750628D01*
X23251026Y-162750500D01*
X23366219Y-162750725D01*
X23464126Y-162751635D01*
X23535800Y-162753469D01*
X23585001Y-162756466D01*
X23615490Y-162760863D01*
X23631025Y-162766898D01*
X23635368Y-162774808D01*
X23649653Y-162794232D01*
X23689678Y-162806627D01*
X23704997Y-162808796D01*
X23757230Y-162816430D01*
X23826737Y-162826778D01*
X23902737Y-162838240D01*
X23944651Y-162844075D01*
X24005992Y-162850394D01*
X24049273Y-162851918D01*
X24067057Y-162848197D01*
X24070094Y-162845773D01*
X24098130Y-162839785D01*
X24148564Y-162835617D01*
X24213274Y-162834052D01*
X24353921Y-162834052D01*
X24353937Y-162884184D01*
X24353938Y-162888362D01*
X24354595Y-162905572D01*
X24363141Y-162934467D01*
X24387466Y-162958972D01*
X24434918Y-162988143D01*
X24476573Y-163014793D01*
X24539989Y-163065960D01*
X24597460Y-163123400D01*
X24641422Y-163179279D01*
X24664311Y-163225762D01*
X24669919Y-163243674D01*
X24680309Y-163255970D01*
X24683812Y-163260116D01*
X24712445Y-163267083D01*
%TD*%
M02*
