%TF.GenerationSoftware,KiCad,Pcbnew,6.0.9-8da3e8f707~117~ubuntu20.04.1*%
%TF.CreationDate,2023-03-11T16:55:59-05:00*%
%TF.ProjectId,coco9511pak,636f636f-3935-4313-9170-616b2e6b6963,rev?*%
%TF.SameCoordinates,Original*%
%TF.FileFunction,Soldermask,Bot*%
%TF.FilePolarity,Negative*%
%FSLAX46Y46*%
G04 Gerber Fmt 4.6, Leading zero omitted, Abs format (unit mm)*
G04 Created by KiCad (PCBNEW 6.0.9-8da3e8f707~117~ubuntu20.04.1) date 2023-03-11 16:55:59*
%MOMM*%
%LPD*%
G01*
G04 APERTURE LIST*
G04 Aperture macros list*
%AMRoundRect*
0 Rectangle with rounded corners*
0 $1 Rounding radius*
0 $2 $3 $4 $5 $6 $7 $8 $9 X,Y pos of 4 corners*
0 Add a 4 corners polygon primitive as box body*
4,1,4,$2,$3,$4,$5,$6,$7,$8,$9,$2,$3,0*
0 Add four circle primitives for the rounded corners*
1,1,$1+$1,$2,$3*
1,1,$1+$1,$4,$5*
1,1,$1+$1,$6,$7*
1,1,$1+$1,$8,$9*
0 Add four rect primitives between the rounded corners*
20,1,$1+$1,$2,$3,$4,$5,0*
20,1,$1+$1,$4,$5,$6,$7,0*
20,1,$1+$1,$6,$7,$8,$9,0*
20,1,$1+$1,$8,$9,$2,$3,0*%
G04 Aperture macros list end*
%ADD10C,0.150000*%
%ADD11R,1.600000X1.600000*%
%ADD12O,1.600000X1.600000*%
%ADD13C,1.600000*%
%ADD14R,1.700000X1.700000*%
%ADD15O,1.700000X1.700000*%
%ADD16R,2.200000X2.200000*%
%ADD17O,2.200000X2.200000*%
%ADD18RoundRect,0.317500X-0.317500X-4.682500X0.317500X-4.682500X0.317500X4.682500X-0.317500X4.682500X0*%
G04 APERTURE END LIST*
D10*
X95506237Y-162814004D02*
X101475237Y-162814004D01*
X101475237Y-162814004D02*
X101475237Y-171323004D01*
X101475237Y-171323004D02*
X95506237Y-171323004D01*
X95506237Y-171323004D02*
X95506237Y-162814004D01*
G36*
X95506237Y-162814004D02*
G01*
X101475237Y-162814004D01*
X101475237Y-171323004D01*
X95506237Y-171323004D01*
X95506237Y-162814004D01*
G37*
X16637000Y-74295000D02*
X26670000Y-74295000D01*
X26670000Y-74295000D02*
X26670000Y-83312000D01*
X26670000Y-83312000D02*
X16637000Y-83312000D01*
X16637000Y-83312000D02*
X16637000Y-74295000D01*
G36*
X16637000Y-74295000D02*
G01*
X26670000Y-74295000D01*
X26670000Y-83312000D01*
X16637000Y-83312000D01*
X16637000Y-74295000D01*
G37*
X104902000Y-73914000D02*
X114935000Y-73914000D01*
X114935000Y-73914000D02*
X114935000Y-82931000D01*
X114935000Y-82931000D02*
X104902000Y-82931000D01*
X104902000Y-82931000D02*
X104902000Y-73914000D01*
G36*
X104902000Y-73914000D02*
G01*
X114935000Y-73914000D01*
X114935000Y-82931000D01*
X104902000Y-82931000D01*
X104902000Y-73914000D01*
G37*
X30035500Y-162814000D02*
X36004500Y-162814000D01*
X36004500Y-162814000D02*
X36004500Y-171323000D01*
X36004500Y-171323000D02*
X30035500Y-171323000D01*
X30035500Y-171323000D02*
X30035500Y-162814000D01*
G36*
X30035500Y-162814000D02*
G01*
X36004500Y-162814000D01*
X36004500Y-171323000D01*
X30035500Y-171323000D01*
X30035500Y-162814000D01*
G37*
D11*
%TO.C,U7*%
X94869000Y-120777000D03*
D12*
X97409000Y-120777000D03*
X99949000Y-120777000D03*
X102489000Y-120777000D03*
X105029000Y-120777000D03*
X107569000Y-120777000D03*
X110109000Y-120777000D03*
X110109000Y-113157000D03*
X107569000Y-113157000D03*
X105029000Y-113157000D03*
X102489000Y-113157000D03*
X99949000Y-113157000D03*
X97409000Y-113157000D03*
X94869000Y-113157000D03*
%TD*%
D13*
%TO.C,C2*%
X82804000Y-87122000D03*
D12*
X82804000Y-94622000D03*
%TD*%
D13*
%TO.C,R7*%
X105918000Y-100965000D03*
D12*
X105918000Y-108585000D03*
%TD*%
D13*
%TO.C,R3*%
X27051000Y-125476000D03*
D12*
X27051000Y-133096000D03*
%TD*%
D11*
%TO.C,U4*%
X94976000Y-132578000D03*
D12*
X97516000Y-132578000D03*
X100056000Y-132578000D03*
X102596000Y-132578000D03*
X105136000Y-132578000D03*
X107676000Y-132578000D03*
X110216000Y-132578000D03*
X110216000Y-124958000D03*
X107676000Y-124958000D03*
X105136000Y-124958000D03*
X102596000Y-124958000D03*
X100056000Y-124958000D03*
X97516000Y-124958000D03*
X94976000Y-124958000D03*
%TD*%
D11*
%TO.C,U9*%
X26284000Y-157597000D03*
D12*
X28824000Y-157597000D03*
X31364000Y-157597000D03*
X33904000Y-157597000D03*
X36444000Y-157597000D03*
X38984000Y-157597000D03*
X41524000Y-157597000D03*
X41524000Y-149977000D03*
X38984000Y-149977000D03*
X36444000Y-149977000D03*
X33904000Y-149977000D03*
X31364000Y-149977000D03*
X28824000Y-149977000D03*
X26284000Y-149977000D03*
%TD*%
D11*
%TO.C,U11*%
X26787000Y-121910000D03*
D12*
X29327000Y-121910000D03*
X31867000Y-121910000D03*
X34407000Y-121910000D03*
X36947000Y-121910000D03*
X39487000Y-121910000D03*
X42027000Y-121910000D03*
X44567000Y-121910000D03*
X44567000Y-114290000D03*
X42027000Y-114290000D03*
X39487000Y-114290000D03*
X36947000Y-114290000D03*
X34407000Y-114290000D03*
X31867000Y-114290000D03*
X29327000Y-114290000D03*
X26787000Y-114290000D03*
%TD*%
D13*
%TO.C,C8*%
X53086000Y-137922000D03*
D12*
X53086000Y-145422000D03*
%TD*%
D13*
%TO.C,C3*%
X100330000Y-108398000D03*
D12*
X100330000Y-100898000D03*
%TD*%
D14*
%TO.C,JP1*%
X47498000Y-153289000D03*
D15*
X47498000Y-155829000D03*
%TD*%
D13*
%TO.C,R2*%
X32258000Y-125476000D03*
D12*
X32258000Y-133096000D03*
%TD*%
D13*
%TO.C,C4*%
X90201000Y-124968000D03*
D12*
X90201000Y-132468000D03*
%TD*%
D13*
%TO.C,R4*%
X57785000Y-101854000D03*
D12*
X57785000Y-109474000D03*
%TD*%
D11*
%TO.C,U13*%
X58425000Y-120767000D03*
D12*
X60965000Y-120767000D03*
X63505000Y-120767000D03*
X66045000Y-120767000D03*
X68585000Y-120767000D03*
X71125000Y-120767000D03*
X73665000Y-120767000D03*
X76205000Y-120767000D03*
X78745000Y-120767000D03*
X81285000Y-120767000D03*
X81285000Y-113147000D03*
X78745000Y-113147000D03*
X76205000Y-113147000D03*
X73665000Y-113147000D03*
X71125000Y-113147000D03*
X68585000Y-113147000D03*
X66045000Y-113147000D03*
X63505000Y-113147000D03*
X60965000Y-113147000D03*
X58425000Y-113147000D03*
%TD*%
D14*
%TO.C,JP2*%
X77724000Y-78359000D03*
D15*
X80264000Y-78359000D03*
X82804000Y-78359000D03*
%TD*%
D11*
%TO.C,X1*%
X22098000Y-94869000D03*
D12*
X24638000Y-94869000D03*
X27178000Y-94869000D03*
X29718000Y-94869000D03*
X32258000Y-94869000D03*
X34798000Y-94869000D03*
X37338000Y-94869000D03*
X37338000Y-87249000D03*
X34798000Y-87249000D03*
X32258000Y-87249000D03*
X29718000Y-87249000D03*
X27178000Y-87249000D03*
X24638000Y-87249000D03*
X22098000Y-87249000D03*
%TD*%
D11*
%TO.C,U3*%
X96774000Y-97409000D03*
D12*
X99314000Y-97409000D03*
X101854000Y-97409000D03*
X104394000Y-97409000D03*
X104394000Y-89789000D03*
X101854000Y-89789000D03*
X99314000Y-89789000D03*
X96774000Y-89789000D03*
%TD*%
D13*
%TO.C,C14*%
X53340000Y-150114000D03*
D12*
X53340000Y-157614000D03*
%TD*%
D13*
%TO.C,L1*%
X106426000Y-86106000D03*
D12*
X96266000Y-86106000D03*
%TD*%
D11*
%TO.C,U6*%
X26802000Y-108829000D03*
D12*
X29342000Y-108829000D03*
X31882000Y-108829000D03*
X34422000Y-108829000D03*
X36962000Y-108829000D03*
X39502000Y-108829000D03*
X42042000Y-108829000D03*
X44582000Y-108829000D03*
X47122000Y-108829000D03*
X49662000Y-108829000D03*
X49662000Y-101209000D03*
X47122000Y-101209000D03*
X44582000Y-101209000D03*
X42042000Y-101209000D03*
X39502000Y-101209000D03*
X36962000Y-101209000D03*
X34422000Y-101209000D03*
X31882000Y-101209000D03*
X29342000Y-101209000D03*
X26802000Y-101209000D03*
%TD*%
D11*
%TO.C,SW1*%
X109126000Y-149521500D03*
D12*
X106586000Y-149521500D03*
X104046000Y-149521500D03*
X101506000Y-149521500D03*
X98966000Y-149521500D03*
X96426000Y-149521500D03*
X96426000Y-157141500D03*
X98966000Y-157141500D03*
X101506000Y-157141500D03*
X104046000Y-157141500D03*
X106586000Y-157141500D03*
X109126000Y-157141500D03*
%TD*%
D16*
%TO.C,D1*%
X102108000Y-80518000D03*
D17*
X91948000Y-80518000D03*
%TD*%
D11*
%TO.C,U14*%
X58034000Y-157724000D03*
D12*
X60574000Y-157724000D03*
X63114000Y-157724000D03*
X65654000Y-157724000D03*
X68194000Y-157724000D03*
X70734000Y-157724000D03*
X73274000Y-157724000D03*
X73274000Y-150104000D03*
X70734000Y-150104000D03*
X68194000Y-150104000D03*
X65654000Y-150104000D03*
X63114000Y-150104000D03*
X60574000Y-150104000D03*
X58034000Y-150104000D03*
%TD*%
D18*
%TO.C,U16*%
X41656000Y-168021000D03*
X44196000Y-168021000D03*
X46736000Y-168021000D03*
X49276000Y-168021000D03*
X51816000Y-168021000D03*
X54356000Y-168021000D03*
X56896000Y-168021000D03*
X59436000Y-168021000D03*
X61976000Y-168021000D03*
X64516000Y-168021000D03*
X67056000Y-168021000D03*
X69596000Y-168021000D03*
X72136000Y-168021000D03*
X74676000Y-168021000D03*
X77216000Y-168021000D03*
X79756000Y-168021000D03*
X82296000Y-168021000D03*
X84836000Y-168021000D03*
X87376000Y-168021000D03*
X89916000Y-168021000D03*
%TD*%
D11*
%TO.C,C16*%
X88860600Y-94488000D03*
D13*
X91360600Y-94488000D03*
%TD*%
D11*
%TO.C,U8*%
X57780000Y-145532000D03*
D12*
X60320000Y-145532000D03*
X62860000Y-145532000D03*
X65400000Y-145532000D03*
X67940000Y-145532000D03*
X70480000Y-145532000D03*
X73020000Y-145532000D03*
X73020000Y-137912000D03*
X70480000Y-137912000D03*
X67940000Y-137912000D03*
X65400000Y-137912000D03*
X62860000Y-137912000D03*
X60320000Y-137912000D03*
X57780000Y-137912000D03*
%TD*%
D13*
%TO.C,C11*%
X21971000Y-114300000D03*
D12*
X21971000Y-121800000D03*
%TD*%
D11*
%TO.C,U1*%
X78359000Y-108966000D03*
D12*
X80899000Y-108966000D03*
X83439000Y-108966000D03*
X85979000Y-108966000D03*
X88519000Y-108966000D03*
X91059000Y-108966000D03*
X93599000Y-108966000D03*
X93599000Y-101346000D03*
X91059000Y-101346000D03*
X88519000Y-101346000D03*
X85979000Y-101346000D03*
X83439000Y-101346000D03*
X80899000Y-101346000D03*
X78359000Y-101346000D03*
%TD*%
D11*
%TO.C,U12*%
X26289000Y-145278000D03*
D12*
X28829000Y-145278000D03*
X31369000Y-145278000D03*
X33909000Y-145278000D03*
X36449000Y-145278000D03*
X38989000Y-145278000D03*
X41529000Y-145278000D03*
X41529000Y-137658000D03*
X38989000Y-137658000D03*
X36449000Y-137658000D03*
X33909000Y-137658000D03*
X31369000Y-137658000D03*
X28829000Y-137658000D03*
X26289000Y-137658000D03*
%TD*%
D13*
%TO.C,R5*%
X111125000Y-88900000D03*
D12*
X111125000Y-96520000D03*
%TD*%
D11*
%TO.C,U10*%
X87376000Y-144907000D03*
D12*
X89916000Y-144907000D03*
X92456000Y-144907000D03*
X94996000Y-144907000D03*
X97536000Y-144907000D03*
X100076000Y-144907000D03*
X102616000Y-144907000D03*
X105156000Y-144907000D03*
X107696000Y-144907000D03*
X110236000Y-144907000D03*
X110236000Y-137287000D03*
X107696000Y-137287000D03*
X105156000Y-137287000D03*
X102616000Y-137287000D03*
X100076000Y-137287000D03*
X97536000Y-137287000D03*
X94996000Y-137287000D03*
X92456000Y-137287000D03*
X89916000Y-137287000D03*
X87376000Y-137287000D03*
%TD*%
D13*
%TO.C,C5*%
X44069000Y-93793000D03*
D12*
X44069000Y-86293000D03*
%TD*%
D13*
%TO.C,C10*%
X82581000Y-137287000D03*
D12*
X82581000Y-144787000D03*
%TD*%
D13*
%TO.C,C6*%
X22098000Y-101219000D03*
D12*
X22098000Y-108719000D03*
%TD*%
D13*
%TO.C,C1*%
X73025000Y-101533000D03*
D12*
X73025000Y-109033000D03*
%TD*%
D13*
%TO.C,R1*%
X62992000Y-101854000D03*
D12*
X62992000Y-109474000D03*
%TD*%
D13*
%TO.C,R6*%
X111125000Y-100838000D03*
D12*
X111125000Y-108458000D03*
%TD*%
D13*
%TO.C,C12*%
X21463000Y-137668000D03*
D12*
X21463000Y-145168000D03*
%TD*%
D13*
%TO.C,C9*%
X21590000Y-149987000D03*
D12*
X21590000Y-157487000D03*
%TD*%
D11*
%TO.C,U5*%
X48641000Y-97917000D03*
D12*
X51181000Y-97917000D03*
X53721000Y-97917000D03*
X56261000Y-97917000D03*
X58801000Y-97917000D03*
X61341000Y-97917000D03*
X63881000Y-97917000D03*
X66421000Y-97917000D03*
X68961000Y-97917000D03*
X71501000Y-97917000D03*
X74041000Y-97917000D03*
X76581000Y-97917000D03*
X76581000Y-82677000D03*
X74041000Y-82677000D03*
X71501000Y-82677000D03*
X68961000Y-82677000D03*
X66421000Y-82677000D03*
X63881000Y-82677000D03*
X61341000Y-82677000D03*
X58801000Y-82677000D03*
X56261000Y-82677000D03*
X53721000Y-82677000D03*
X51181000Y-82677000D03*
X48641000Y-82677000D03*
%TD*%
D13*
%TO.C,C13*%
X53721000Y-113157000D03*
D12*
X53721000Y-120657000D03*
%TD*%
D13*
%TO.C,C7*%
X90094000Y-113167000D03*
D12*
X90094000Y-120667000D03*
%TD*%
D11*
%TO.C,C17*%
X86447600Y-84328000D03*
D13*
X88947600Y-84328000D03*
%TD*%
%TO.C,C15*%
X37719000Y-125476000D03*
D12*
X37719000Y-132976000D03*
%TD*%
M02*
