M48
; DRILL file {KiCad 6.0.9-8da3e8f707~117~ubuntu20.04.1} date Wed 11 Jan 2023 01:14:13 PM EST
; FORMAT={-:-/ absolute / inch / decimal}
; #@! TF.CreationDate,2023-01-11T13:14:13-05:00
; #@! TF.GenerationSoftware,Kicad,Pcbnew,6.0.9-8da3e8f707~117~ubuntu20.04.1
; #@! TF.FileFunction,Plated,1,2,PTH
FMAT,2
INCH
; #@! TA.AperFunction,Plated,PTH,ViaDrill
T1C0.0157
; #@! TA.AperFunction,Plated,PTH,ComponentDrill
T2C0.0300
; #@! TA.AperFunction,Plated,PTH,ComponentDrill
T3C0.0315
; #@! TA.AperFunction,Plated,PTH,ComponentDrill
T4C0.0394
%
G90
G05
T1
X0.9905Y-6.3352
X1.5349Y-5.6837
X1.5432Y-4.1625
X1.6046Y-4.7228
X1.9381Y-5.5161
X1.964Y-4.155
X1.9692Y-5.91
X1.9912Y-4.5429
X2.0198Y-4.6637
X2.028Y-6.3175
X2.041Y-4.6228
X2.0696Y-6.3486
X2.0714Y-4.8373
X2.085Y-3.3869
X2.1367Y-4.8727
X2.1521Y-6.3867
X2.1637Y-4.8037
X2.2071Y-6.3326
X2.214Y-4.6509
X2.2468Y-4.4899
X2.3548Y-4.601
X2.3937Y-4.6628
X2.4783Y-3.6956
X2.5161Y-4.0426
X2.5394Y-3.399
X2.5748Y-5.6717
X2.6327Y-6.1544
X2.682Y-6.3067
X2.7392Y-3.7862
X2.7751Y-6.402
X2.9088Y-6.3914
X2.9774Y-6.2202
X3.0223Y-6.1674
X3.0223Y-6.3721
X3.0389Y-6.0933
X3.0651Y-6.1959
X3.0939Y-6.0645
X3.1015Y-6.1578
X3.1015Y-6.388
X3.1375Y-6.0642
X3.153Y-4.6119
X3.245Y-6.3327
X3.3809Y-5.6538
X3.4196Y-6.2602
X3.7867Y-5.4923
X3.9575Y-5.3129
T2
X3.7512Y-3.545
X3.8512Y-3.545
X4.0512Y-3.545
X4.2512Y-3.545
T3
X0.85Y-5.905
X0.85Y-6.2003
X0.8598Y-5.4246
X0.8598Y-5.7246
X0.865Y-4.5
X0.865Y-4.7953
X0.87Y-3.985
X0.87Y-4.2803
X0.9598Y-5.4246
X0.9598Y-5.7246
X1.0348Y-5.9046
X1.0348Y-6.2046
X1.0546Y-4.4996
X1.0546Y-4.7996
X1.0552Y-3.9846
X1.0552Y-4.2846
X1.0598Y-5.4246
X1.0598Y-5.7246
X1.065Y-4.94
X1.065Y-5.24
X1.1098Y-3.4246
X1.1098Y-3.7246
X1.1348Y-5.9046
X1.1348Y-6.2046
X1.1546Y-4.4996
X1.1546Y-4.7996
X1.1552Y-3.9846
X1.1552Y-4.2846
X1.1598Y-5.4246
X1.1598Y-5.7246
X1.2098Y-3.4246
X1.2098Y-3.7246
X1.2348Y-5.9046
X1.2348Y-6.2046
X1.2546Y-4.4996
X1.2546Y-4.7996
X1.2552Y-3.9846
X1.2552Y-4.2846
X1.2598Y-5.4246
X1.2598Y-5.7246
X1.27Y-4.94
X1.27Y-5.24
X1.3098Y-3.4246
X1.3098Y-3.7246
X1.3348Y-5.9046
X1.3348Y-6.2046
X1.3546Y-4.4996
X1.3546Y-4.7996
X1.3552Y-3.9846
X1.3552Y-4.2846
X1.3598Y-5.4246
X1.3598Y-5.7246
X1.4098Y-3.4246
X1.4098Y-3.7246
X1.4348Y-5.9046
X1.4348Y-6.2046
X1.4546Y-4.4996
X1.4546Y-4.7996
X1.4552Y-3.9846
X1.4552Y-4.2846
X1.4598Y-5.4246
X1.4598Y-5.7246
X1.485Y-4.94
X1.485Y-5.24
X1.5098Y-3.4246
X1.5098Y-3.7246
X1.5348Y-5.9046
X1.5348Y-6.2046
X1.5546Y-4.4996
X1.5546Y-4.7996
X1.5552Y-3.9846
X1.5552Y-4.2846
X1.6098Y-3.4246
X1.6098Y-3.7246
X1.6348Y-5.9046
X1.6348Y-6.2046
X1.6546Y-4.4996
X1.6546Y-4.7996
X1.6552Y-3.9846
X1.6552Y-4.2846
X1.7098Y-3.4246
X1.7098Y-3.7246
X1.715Y-5.4324
X1.715Y-5.7276
X1.7546Y-4.4996
X1.7546Y-4.7996
X1.7552Y-3.9846
X1.7552Y-4.2846
X1.8552Y-3.9846
X1.8552Y-4.2846
X1.9552Y-3.9846
X1.9552Y-4.2846
X1.985Y-3.4974
X1.985Y-3.7926
X2.09Y-5.43
X2.09Y-5.7253
X2.1Y-5.91
X2.1Y-6.2053
X2.115Y-4.455
X2.115Y-4.7503
X2.185Y-3.35
X2.185Y-3.95
X2.2748Y-5.4296
X2.2748Y-5.7296
X2.2848Y-5.9096
X2.2848Y-6.2096
X2.285Y-3.35
X2.285Y-3.95
X2.3002Y-4.4546
X2.3002Y-4.7546
X2.325Y-4.18
X2.3748Y-5.4296
X2.3748Y-5.7296
X2.3848Y-5.9096
X2.3848Y-6.2096
X2.385Y-3.35
X2.385Y-3.95
X2.4002Y-4.4546
X2.4002Y-4.7546
X2.4748Y-5.4296
X2.4748Y-5.7296
X2.4848Y-5.9096
X2.4848Y-6.2096
X2.485Y-3.35
X2.485Y-3.95
X2.5002Y-4.4546
X2.5002Y-4.7546
X2.5748Y-5.4296
X2.5748Y-5.7296
X2.5848Y-5.9096
X2.5848Y-6.2096
X2.585Y-3.35
X2.585Y-3.95
X2.6002Y-4.4546
X2.6002Y-4.7546
X2.625Y-4.18
X2.6748Y-5.4296
X2.6748Y-5.7296
X2.6848Y-5.9096
X2.6848Y-6.2096
X2.685Y-3.35
X2.685Y-3.95
X2.7002Y-4.4546
X2.7002Y-4.7546
X2.7748Y-5.4296
X2.7748Y-5.7296
X2.7848Y-5.9096
X2.7848Y-6.2096
X2.785Y-3.35
X2.785Y-3.95
X2.8002Y-4.4546
X2.8002Y-4.7546
X2.835Y-4.18
X2.8748Y-5.4296
X2.8748Y-5.7296
X2.8848Y-5.9096
X2.8848Y-6.2096
X2.885Y-3.35
X2.885Y-3.95
X2.9002Y-4.4546
X2.9002Y-4.7546
X2.985Y-3.35
X2.985Y-3.95
X3.0002Y-4.4546
X3.0002Y-4.7546
X3.085Y-3.35
X3.085Y-3.95
X3.1002Y-4.4546
X3.1002Y-4.7546
X3.135Y-4.18
X3.185Y-3.35
X3.185Y-3.95
X3.2002Y-4.4546
X3.2002Y-4.7546
X3.2512Y-5.405
X3.2512Y-5.7003
X3.285Y-3.35
X3.285Y-3.95
X3.44Y-5.405
X3.44Y-5.705
X3.5312Y-3.52
X3.5312Y-3.8153
X3.54Y-5.405
X3.54Y-5.705
X3.5462Y-3.99
X3.5462Y-4.2853
X3.5512Y-4.455
X3.5512Y-4.7503
X3.5512Y-4.92
X3.5512Y-5.2153
X3.64Y-5.405
X3.64Y-5.705
X3.7392Y-3.99
X3.7392Y-4.29
X3.7392Y-4.4546
X3.7392Y-4.7546
X3.7392Y-4.9196
X3.7392Y-5.2196
X3.74Y-5.405
X3.74Y-5.705
X3.7963Y-5.8867
X3.7963Y-6.1867
X3.8392Y-3.99
X3.8392Y-4.29
X3.8392Y-4.4546
X3.8392Y-4.7546
X3.8392Y-4.9196
X3.8392Y-5.2196
X3.84Y-5.405
X3.84Y-5.705
X3.8963Y-5.8867
X3.8963Y-6.1867
X3.9124Y-3.41
X3.9392Y-3.99
X3.9392Y-4.29
X3.9392Y-4.4546
X3.9392Y-4.7546
X3.9392Y-4.9196
X3.9392Y-5.2196
X3.94Y-5.405
X3.94Y-5.705
X3.9963Y-5.8867
X3.9963Y-6.1867
X4.0392Y-3.99
X4.0392Y-4.29
X4.0392Y-4.4546
X4.0392Y-4.7546
X4.0392Y-4.9196
X4.0392Y-5.2196
X4.04Y-5.405
X4.04Y-5.705
X4.0963Y-5.8867
X4.0963Y-6.1867
X4.1392Y-3.99
X4.1392Y-4.29
X4.1392Y-4.4546
X4.1392Y-4.7546
X4.1392Y-4.9196
X4.1392Y-5.2196
X4.14Y-5.405
X4.14Y-5.705
X4.1963Y-5.8867
X4.1963Y-6.1867
X4.2076Y-3.41
X4.2392Y-3.99
X4.2392Y-4.29
X4.2392Y-4.4546
X4.2392Y-4.7546
X4.2392Y-4.9196
X4.2392Y-5.2196
X4.24Y-5.405
X4.24Y-5.705
X4.2963Y-5.8867
X4.2963Y-6.1867
X4.3392Y-3.99
X4.3392Y-4.29
X4.3392Y-4.4546
X4.3392Y-4.7546
X4.3392Y-4.9196
X4.3392Y-5.2196
X4.34Y-5.405
X4.34Y-5.705
T4
X1.87Y-6.0352
X1.87Y-6.1352
T0
M30
